<svg width="50" height="50" viewBox="0 0 50 50" fill="none" xmlns="http://www.w3.org/2000/svg">
<path d="M42.2759 13.9746L36.0049 7.72394L38.9464 4.77288L45.2174 11.0236L42.2759 13.9746Z" fill="#019A40"/>
<path d="M40.1048 37.8658L44.5158 42.2769L42.2771 44.5156L5.48421 7.72269L7.72293 5.48396L9.01313 6.77416L9.36713 7.12816L9.72069 6.77371L11.0051 5.48599L13.247 7.72155L11.9585 9.01333L11.6059 9.36689L11.959 9.71999L14.2173 11.9783L14.511 12.272L14.8535 12.0372C17.7833 10.0292 21.2797 8.83311 25 8.83311C34.8885 8.83311 43.25 17.1947 43.25 27.0831C43.25 30.8034 42.054 34.2998 40.0459 37.2296L39.8111 37.5722L40.1048 37.8658ZM37.0902 34.8512L37.5402 35.3012L37.8709 34.7576C39.2465 32.4965 40.0834 29.8763 40.0834 27.0831C40.0834 18.9028 33.1803 11.9998 25 11.9998C22.2068 11.9998 19.5866 12.8366 17.3256 14.2122L16.7819 14.5429L17.2319 14.9929L22.5631 20.3242L23.4167 21.1777V19.9706V17.1664H26.5833V24.1373V24.3444L26.7298 24.4908L27.5923 25.3533L27.7387 25.4998H27.9458H34.9167V28.6664H32.1125H30.9054L31.759 29.52L37.0902 34.8512ZM6.75002 27.0831C6.75002 23.9504 7.60362 20.9765 9.07311 18.3654L11.4044 20.6967C10.4607 22.6451 9.91668 24.8113 9.91668 27.0831C9.91668 35.2634 16.8197 42.1664 25 42.1664C27.2718 42.1664 29.438 41.6224 31.3865 40.6787L33.7177 43.01C31.1066 44.4795 28.1327 45.3331 25 45.3331C15.1116 45.3331 6.75002 36.9715 6.75002 27.0831Z" fill="#019A40" stroke="white"/>
</svg>
