<svg width="31" height="31" viewBox="0 0 31 31" fill="none" xmlns="http://www.w3.org/2000/svg">
<path d="M9.03027 8.69043H9.28027V8.44043V5.94043C9.28027 4.69975 10.2896 3.69043 11.5303 3.69043H19.0303C20.271 3.69043 21.2803 4.69975 21.2803 5.94043V8.44043V8.69043H21.5303H26.2803V10.6904H24.0303H23.7803V10.9404V25.9404C23.7803 27.1811 22.771 28.1904 21.5303 28.1904H9.03027C7.78959 28.1904 6.78027 27.1811 6.78027 25.9404V10.9404V10.6904H6.53027H4.28027V8.69043H9.03027ZM11.5303 5.69043H11.2803V5.94043V8.44043V8.69043H11.5303H19.0303H19.2803V8.44043V5.94043V5.69043H19.0303H11.5303ZM21.5303 26.1904H21.7803V25.9404V10.9404V10.6904H21.5303H20.2803H10.2803H9.03027H8.78027V10.9404V25.9404V26.1904H9.03027H21.5303Z" fill="#019A40" stroke="white" stroke-width="0.5"/>
</svg>
