<?xml version="1.0" encoding="utf-8"?>
<!-- Generator: Adobe Illustrator 23.0.3, SVG Export Plug-In . SVG Version: 6.00 Build 0)  -->
<svg version="1.1" id="Capa_1" xmlns="http://www.w3.org/2000/svg" xmlns:xlink="http://www.w3.org/1999/xlink" x="0px" y="0px"
	 viewBox="0 0 45 45" style="enable-background:new 0 0 45 45;" xml:space="preserve">
<style type="text/css">
	.st0{fill:#019A40;}
</style>
<g>
	<path class="st0" d="M29.6,23.9l0.4,0.4l0.4-0.4l7.7-7.7l1.9,1.9l-10,10l-4.4-4.4l1.9-1.9L29.6,23.9z M15,22c-4,0-7-3-7-7s3-7,7-7
		s7,3,7,7S19,22,15,22z M15,19.3c1.2,0,2.3-0.4,3.1-1.2c0.8-0.8,1.2-1.8,1.2-3.1s-0.4-2.3-1.2-3.1c-0.8-0.8-1.8-1.2-3.1-1.2
		s-2.3,0.4-3.1,1.2c-0.8,0.8-1.2,1.8-1.2,3.1s0.4,2.3,1.2,3.1C12.7,18.8,13.8,19.3,15,19.3z M13.1,27.6c-3.4,0-6.1,2.7-6.1,6.1v1.4
		H4.3v-1.4c0-4.9,4-8.9,8.9-8.9h3.8c4.9,0,8.9,4,8.9,8.9v1.4H23v-1.4c0-3.4-2.7-6.1-6.1-6.1H13.1z"/>
</g>
</svg>
