<svg width="21" height="24" viewBox="0 0 21 24" fill="none" xmlns="http://www.w3.org/2000/svg">
<path d="M10.7274 0.921875C7.29631 0.921875 4.50494 3.42874 4.50494 6.51008V8.61852C4.50494 9.30583 3.94776 9.86301 3.26045 9.86301C1.88654 9.86301 0.771484 10.8644 0.771484 12.0983V21.0394C0.771484 22.2733 1.88654 23.2747 3.26045 23.2747H5.74942H9.48287H11.9718H14.4608H18.1943C19.5682 23.2747 20.6832 22.2733 20.6832 21.0394V12.0983C20.6832 10.8644 19.5682 9.86301 18.1943 9.86301C17.5069 9.86301 16.9498 9.30583 16.9498 8.61852V6.51008C16.9498 3.42874 14.1584 0.921875 10.7274 0.921875ZM6.9939 6.51008C6.9939 4.6615 8.66898 3.15716 10.7274 3.15716C12.7857 3.15716 14.4608 4.6615 14.4608 6.51008C14.4608 8.36185 12.9597 9.86301 11.1079 9.86301H10.3468C8.49506 9.86301 6.9939 8.36185 6.9939 6.51008ZM12.7193 17.9007C12.3392 18.3525 11.9718 18.8648 11.9718 19.4552V19.7949C11.9718 20.4822 11.4147 21.0394 10.7274 21.0394C10.04 21.0394 9.48287 20.4822 9.48287 19.7949V19.4552C9.48287 18.8648 9.11544 18.3525 8.73524 17.9008C8.31059 17.3963 8.12024 16.7257 8.3143 16.0089C8.53333 15.2042 9.285 14.5537 10.1885 14.385C11.7989 14.081 13.2163 15.1752 13.2163 16.5689C13.2163 17.0704 13.031 17.5302 12.7193 17.9007Z" fill="#019A40"/>
</svg>
