<svg width="26" height="24" viewBox="0 0 26 24" fill="none" xmlns="http://www.w3.org/2000/svg">
<path d="M2.46805 20.9089V21.2089H2.76805H23.2432H23.5432L23.5432 20.9088L23.5406 3.04129L23.5406 2.74134H23.2406H2.76805H2.46805V3.04134V20.9089ZM2.76805 0.788831H23.2406C24.487 0.788831 25.4997 1.80004 25.4997 3.04134V20.9089C25.4997 22.1502 24.487 23.1614 23.2406 23.1614H2.76805C1.52169 23.1614 0.508984 22.1502 0.508984 20.9089V3.04134C0.508984 1.80004 1.52169 0.788831 2.76805 0.788831Z" fill="white" stroke="#019A40" stroke-width="0.6"/>
<path d="M5.62715 5.89381H20.3816V7.84632H5.62715V5.89381ZM5.62715 10.9988H20.3816V12.9513H5.62715V10.9988ZM5.62715 16.1038H12.7044V18.0563H5.62715V16.1038Z" fill="white" stroke="#019A40" stroke-width="0.6"/>
</svg>
