<svg width="26" height="27" viewBox="0 0 26 27" fill="none" xmlns="http://www.w3.org/2000/svg">
<path d="M3.06835 14.4245V14.1245H2.76835H1.48879C1.09641 14.1245 0.736671 13.8822 0.584583 13.5062L0.584434 13.5058C0.430708 13.1272 0.516698 12.6926 0.798432 12.405L12.3145 0.650564C12.6971 0.259968 13.3125 0.259968 13.6952 0.650564L25.2112 12.405C25.4929 12.6926 25.5789 13.1272 25.4252 13.5058L25.4251 13.5062C25.273 13.8822 24.9132 14.1245 24.5209 14.1245H23.2413H22.9413V14.4245V17.0366V23.5669C22.9413 24.8476 21.9221 25.879 20.6822 25.879H16.8435H9.16614H5.32747C4.08756 25.879 3.06835 24.8476 3.06835 23.5669V17.0366V14.4245ZM10.1457 23.5669V23.8669H10.4457H15.5639H15.8639V23.5669V17.0366V16.7366H15.5639H10.4457H10.1457V17.0366V23.5669ZM13.2191 3.0008L13.0048 2.78207L12.7905 3.0008L5.11317 10.8371L5.02747 10.9246V11.0471V13.1185V17.0366V23.5669V23.8669H5.32747H7.88658H8.18658V23.5669V17.0366C8.18658 15.7559 9.2058 14.7245 10.4457 14.7245H15.5639C16.8038 14.7245 17.8231 15.7559 17.8231 17.0366V23.5669V23.8669H18.1231H20.6835H20.9835L20.9835 23.5668L20.9822 17.0366V17.0366V11.0471V10.9246L20.8965 10.8371L13.2191 3.0008Z" fill="white" stroke="#019A40" stroke-width="0.6"/>
</svg>
