<svg width="25" height="25" viewBox="0 0 25 25" fill="none" xmlns="http://www.w3.org/2000/svg">
<path d="M12.5459 8.271V13.271H17.5459V11.271H14.5459V8.271H12.5459Z" fill="#8A8C8E"/>
<path d="M21.8379 8.76811C21.6119 8.23311 21.3329 7.71811 21.0089 7.23911C20.6869 6.76111 20.3179 6.31311 19.9099 5.90611C19.5019 5.49911 19.0559 5.13111 18.5779 4.80811C18.0959 4.48211 17.5809 4.20411 17.0499 3.97911C16.5049 3.74911 15.9359 3.57211 15.3599 3.45411C14.1789 3.21111 12.9159 3.21011 11.7339 3.45411C11.1549 3.57211 10.5869 3.74911 10.0439 3.97811C9.5129 4.20311 8.9989 4.48111 8.5149 4.80811C8.0379 5.13011 7.5889 5.50011 7.1819 5.90711C6.7749 6.31411 6.4049 6.76311 6.0829 7.23911C5.7569 7.72311 5.4779 8.23711 5.2539 8.76711C5.0239 9.31111 4.8469 9.88011 4.7289 10.4571C4.6079 11.0491 4.5459 11.6591 4.5459 12.2711C4.5459 12.2791 4.5469 12.2881 4.5469 12.2961H2.5459L5.5459 16.2711L8.5459 12.2961H6.5469C6.5469 12.2881 6.5459 12.2791 6.5459 12.2711C6.5459 11.7941 6.5939 11.3191 6.6879 10.8591C6.7799 10.4101 6.9169 9.96911 7.0959 9.54611C7.2699 9.13411 7.4869 8.73311 7.7409 8.35811C7.9909 7.98711 8.2789 7.63911 8.5959 7.32111C8.9129 7.00311 9.2619 6.71611 9.6319 6.46611C10.0079 6.21211 10.4089 5.99511 10.8219 5.82011C11.2429 5.64111 11.6849 5.50411 12.1349 5.41211C13.0539 5.22311 14.0389 5.22411 14.9579 5.41211C15.4049 5.50411 15.8479 5.64111 16.2709 5.82011C16.6839 5.99411 17.0839 6.21211 17.4589 6.46411C17.8289 6.71511 18.1789 7.00311 18.4959 7.32011C18.8129 7.63611 19.0999 7.98511 19.3509 8.35711C19.6029 8.72911 19.8199 9.12911 19.9959 9.54611C20.1739 9.96311 20.3099 10.4041 20.4039 10.8571C20.4979 11.3201 20.5459 11.7951 20.5459 12.2711C20.5459 12.7471 20.4979 13.2221 20.4039 13.6811C20.3099 14.1361 20.1739 14.5771 19.9959 14.9951C19.8199 15.4111 19.6029 15.8101 19.3499 16.1841C19.0999 16.5551 18.8129 16.9041 18.4959 17.2201C18.1789 17.5371 17.8289 17.8251 17.4599 18.0751C17.0839 18.3281 16.6849 18.5461 16.2709 18.7211C15.8479 18.9001 15.4059 19.0371 14.9579 19.1291C14.0399 19.3171 13.0559 19.3181 12.1349 19.1291C11.6859 19.0371 11.2449 18.9001 10.8219 18.7211C10.4099 18.5471 10.0089 18.3301 9.6339 18.0761C9.2629 17.8261 8.9149 17.5381 8.5969 17.2211L7.1829 18.6351C7.5899 19.0431 8.0379 19.4121 8.5149 19.7341C8.9979 20.0601 9.5129 20.3391 10.0429 20.5631C10.5869 20.7931 11.1559 20.9701 11.7329 21.0881C12.3239 21.2091 12.9339 21.2711 13.5459 21.2711C14.1579 21.2711 14.7689 21.2091 15.3589 21.0881C15.9359 20.9701 16.5049 20.7941 17.0489 20.5641C17.5809 20.3391 18.0959 20.0601 18.5799 19.7331C19.0559 19.4111 19.5029 19.0421 19.9099 18.6351C20.3169 18.2281 20.6859 17.7801 21.0079 17.3041C21.3329 16.8241 21.6119 16.3091 21.8379 15.7751C22.0659 15.2371 22.2429 14.6691 22.3629 14.0831C22.4839 13.4911 22.5459 12.8811 22.5459 12.2711C22.5459 11.6611 22.4839 11.0511 22.3629 10.4571C22.2429 9.87311 22.0659 9.30511 21.8379 8.76811Z" fill="#8A8C8E"/>
</svg>
