<svg width="30" height="34" viewBox="0 0 30 34" fill="none" xmlns="http://www.w3.org/2000/svg">
<path d="M20.1906 1.98279L20.1901 1.98331L0.938477 19.4954V26.1309H8.30368L27.5752 8.60069L20.1906 1.98279ZM20.1906 1.98279C20.7825 1.44274 21.5773 1.13867 22.4339 1.13867C23.2903 1.13867 24.0852 1.44262 24.679 1.98445L27.5752 4.62716C28.1675 5.16762 28.4823 5.87242 28.4823 6.61392C28.4823 7.3552 28.1677 8.05978 27.5757 8.60017L20.1906 1.98279ZM22.7707 3.60166L22.4342 3.29502L22.0974 3.60134L19.1958 6.24072L18.7896 6.61013L19.1953 6.98005L22.0915 9.62109L22.4279 9.92783L22.7647 9.62162L25.6682 6.98224L26.0747 6.61272L25.6687 6.2427L22.7707 3.60166ZM3.59068 23.2983V23.7983H4.09068H6.98871H7.18209L7.32515 23.6682L20.1791 11.9759L20.5851 11.6067L20.1797 11.2367L17.2835 8.59402L16.947 8.28698L16.61 8.5935L3.75424 20.2874L3.59068 20.4362V20.6573V23.2983ZM0.938477 30.4634H29.1561V32.7959H0.938477V30.4634Z" fill="#019A40" stroke="white"/>
</svg>
