<?xml version="1.0" encoding="utf-8"?>
<!-- Generator: Adobe Illustrator 23.0.3, SVG Export Plug-In . SVG Version: 6.00 Build 0)  -->
<svg version="1.1" id="Capa_1" xmlns="http://www.w3.org/2000/svg" xmlns:xlink="http://www.w3.org/1999/xlink" x="0px" y="0px"
	 viewBox="0 0 26 24" style="enable-background:new 0 0 26 24;" xml:space="preserve">
<style type="text/css">
	.st0{fill:#019A40;}
</style>
<g>
	<path class="st0" d="M13.4,14.2c-0.2,0-0.4-0.1-0.6-0.1L1.2,7.9c0,0-0.4-0.5-0.4-0.7c0-0.6,0.2-0.8,0.6-1l11.2-5.8l0,0
		c0.4-0.2,0.8-0.2,1.2,0l11.3,5.8c0.4,0.2,0.6,0.6,0.6,1c0,0.4-0.2,0.8-0.6,1L14,14.1C13.8,14.2,13.6,14.2,13.4,14.2z M2.8,8.2
		l10.3,5.4c0.2,0.1,0.5,0.1,0.7,0l11.2-5.8c0.2-0.1,0.3-0.3,0.3-0.5c0-0.2-0.1-0.4-0.3-0.5L13.7,0.9c-0.2-0.1-0.4-0.1-0.6,0L2.4,6.3
		c-1.2,0.4-0.9,1-0.6,1.3L2.8,8.2 M13.4,12.4l-10-5.2l10-5.1l10,5.2L13.4,12.4z M4.7,7.2l8.7,4.5L22,7.2l-8.7-4.5L4.7,7.2z"/>
</g>
<g>
	<path class="st0" d="M13.4,18.9c-0.2,0-0.4,0-0.6-0.1L1.5,12.9l1.2-2l10.6,5.5l0,0L24,10.9l1.2,2L14,18.7
		C13.8,18.8,13.6,18.9,13.4,18.9z M2.5,12.6l10.6,5.5c0.2,0.1,0.4,0.1,0.6,0l10.6-5.5l-0.5-0.8l-10.4,5.4L13,17L3,11.8L2.5,12.6z"/>
</g>
<g>
	<path class="st0" d="M13.4,23.5c-0.2,0-0.4,0-0.6-0.1L1.5,17.6l1.2-2L13.4,21l0,0L24,15.5l1.2,2L14,23.4
		C13.8,23.5,13.6,23.5,13.4,23.5z M2.5,17.3l10.6,5.5c0.2,0.1,0.4,0.1,0.6,0l10.6-5.5l-0.5-0.8l-10.4,5.4L13,21.7L3,16.5L2.5,17.3z"
		/>
</g>
</svg>
