<svg width="21" height="21" viewBox="0 0 21 21" fill="none" xmlns="http://www.w3.org/2000/svg">
<g clip-path="url(#clip0)">
<path d="M10.9834 20.9189C5.4603 20.9189 0.983398 16.442 0.983398 10.919C0.983398 5.3959 5.4603 0.918945 10.9834 0.918945C16.5065 0.918945 20.9835 5.39585 20.9835 10.919C20.9835 16.4421 16.5065 20.9189 10.9834 20.9189ZM10.9834 2.3788C6.26323 2.3788 2.44326 6.19873 2.44326 10.919C2.44326 15.6392 6.26319 19.4591 10.9834 19.4591C15.7037 19.4591 19.5236 15.6392 19.5236 10.919C19.5236 6.19873 15.7036 2.3788 10.9834 2.3788Z" fill="#009A3C"/>
<path d="M14.3899 12.3789H10.497C10.0834 12.3789 9.76709 12.0625 9.76709 11.649V6.53948C9.76709 6.12583 10.0834 5.80957 10.497 5.80957C10.9106 5.80957 11.2269 6.12588 11.2269 6.53948V10.919H14.3899C14.8035 10.919 15.1198 11.2354 15.1198 11.649C15.1198 12.0625 14.8036 12.3789 14.3899 12.3789Z" fill="#009A3C"/>
</g>
<defs>
<clipPath id="clip0">
<rect x="0.983398" y="0.918945" width="20" height="20" fill="white"/>
</clipPath>
</defs>
</svg>
