<svg width="26" height="27" viewBox="0 0 26 27" fill="none" xmlns="http://www.w3.org/2000/svg">
<path d="M5.55272 8.09108C5.55268 8.09317 5.55266 8.09421 5.55264 8.09525L5.55262 8.09629L5.39045 16.427C5.35319 18.3412 6.08541 20.1699 7.453 21.5784C8.82057 22.9878 10.6264 23.7749 12.5398 23.7954C14.4543 23.8159 16.2899 23.0678 17.7107 21.6882C19.1326 20.3097 19.9357 18.4974 19.9729 16.5832L20.1351 8.25141L18.0519 8.22911L17.8897 16.5609C17.8633 17.9179 17.287 19.2107 16.2666 20.1998C15.2472 21.1899 13.9375 21.727 12.5803 21.7124C11.2242 21.6979 9.936 21.1331 8.9545 20.1215C7.97298 19.111 7.44725 17.8063 7.47367 16.4493L7.63586 8.11756L6.59425 8.1064L7.63588 8.11652C7.6359 8.11548 7.63592 8.11444 7.63594 8.11339C7.65195 7.29063 7.9942 6.51407 8.60156 5.92682C9.20789 5.33851 9.99653 5.01882 10.8236 5.02664C11.6454 5.0344 12.4203 5.36979 13.0035 5.97083C13.5876 6.57398 13.9005 7.36067 13.8855 8.18449L13.7233 16.5162C13.7181 16.7829 13.6016 17.041 13.3967 17.2398C13.1896 17.4407 12.9281 17.5494 12.6614 17.5466C12.3989 17.5437 12.1356 17.4263 11.9405 17.2253C11.7413 17.0211 11.6349 16.7605 11.6401 16.4939L11.8023 8.16218L9.71907 8.13987L9.55688 16.4716C9.54086 17.2944 9.85374 18.08 10.44 18.6832C11.0242 19.2853 11.7991 19.6207 12.6209 19.6295C13.4427 19.6383 14.2313 19.3196 14.8408 18.7282C15.4482 18.1389 15.7905 17.3603 15.8065 16.5385L15.9687 8.20576C15.9945 6.82684 15.4762 5.51606 14.506 4.51502C13.5357 3.51399 12.2401 2.95635 10.861 2.94367C9.47981 2.92992 8.16408 3.46063 7.15741 4.43737C6.14867 5.41408 5.57957 6.71218 5.55272 8.09108Z" fill="#019A40"/>
</svg>
