<?xml version="1.0" encoding="utf-8"?>
<!-- Generator: Adobe Illustrator 23.0.3, SVG Export Plug-In . SVG Version: 6.00 Build 0)  -->
<svg version="1.1" id="Capa_1" xmlns="http://www.w3.org/2000/svg" xmlns:xlink="http://www.w3.org/1999/xlink" x="0px" y="0px"
	 viewBox="0 0 38 42" style="enable-background:new 0 0 38 42;" xml:space="preserve">
<style type="text/css">
	.st0{fill:#019A40;}
</style>
<path class="st0" d="M33.3,24.3v0.2l0.1,0.1l3.6,3.6l0,0c0.3,0.3,0.5,0.7,0.5,1.1v4.2c0,0.9-0.7,1.6-1.6,1.6H2.1
	c-0.9,0-1.6-0.7-1.6-1.6v-4.2c0-0.4,0.2-0.8,0.5-1.1l0,0l3.6-3.6l0.1-0.1v-0.2v-7.5c0-6.5,4.5-12,10.5-13.7l0.2-0.1l0.1-0.2
	c0.5-1.4,1.9-2.3,3.5-2.3s2.9,1,3.5,2.3l0.1,0.2l0.2,0.1c6,1.7,10.5,7.2,10.5,13.7V24.3z M33.8,32h0.5v-0.5v-1.2v-0.2l-0.1-0.1
	l-3.6-3.6l0,0c-0.3-0.3-0.5-0.7-0.5-1.1v-8.4c0-6.1-5-11-11.1-11s-11.1,4.9-11.1,11v8.4c0,0.4-0.2,0.8-0.5,1.1l0,0l-3.6,3.6
	l-0.1,0.1v0.2v1.2V32h0.5H33.8z M13.8,38.3h10.4c-1,1.9-2.9,3.2-5.2,3.2S14.8,40.2,13.8,38.3z"/>
</svg>
