<?xml version="1.0" encoding="utf-8"?>
<!-- Generator: Adobe Illustrator 23.0.3, SVG Export Plug-In . SVG Version: 6.00 Build 0)  -->
<svg version="1.1" id="Capa_1" xmlns="http://www.w3.org/2000/svg" xmlns:xlink="http://www.w3.org/1999/xlink" x="0px" y="0px"
	 viewBox="0 0 40 42" style="enable-background:new 0 0 40 42;" xml:space="preserve">
<g>
	<path d="M16.9,21.7c3.4,0,6.2-2.9,6.2-6.4c0-3.5-2.8-6.4-6.2-6.4c-3.4,0-6.2,2.9-6.2,6.4C10.8,18.8,13.5,21.7,16.9,21.7z
		 M19.2,23.3h-4.6c-5.1,0-9.2,4.3-9.2,9.6v1.6h1.5h1.5h16.9h1.5h1.5v-1.6C28.5,27.6,24.3,23.3,19.2,23.3z"/>
	<path d="M27.8,20.1c0.9-1.7,1.3-3.6,1.2-5.5c-0.3-2.9-1.8-5.4-4.3-7.1L23,10.2c1.7,1.2,2.8,2.9,2.9,4.8c0.2,1.8-0.4,3.5-1.6,4.8
		l-1.8,1.9l2.5,0.8c6.5,2,6.6,8.8,6.6,8.9h3.1C34.6,28.4,33.1,22.8,27.8,20.1z"/>
</g>
</svg>
