<svg width="31" height="31" viewBox="0 0 31 31" fill="none" xmlns="http://www.w3.org/2000/svg">
<path d="M25.5303 8.44043V8.19043H25.2803H5.28027H5.03027V8.44043V9.08043V9.2027L5.12679 9.27777L15.1268 17.0553L15.2803 17.1747L15.4338 17.0553L25.4338 9.27651L25.5303 9.20144V9.07918V8.44043ZM5.03027 23.4404V23.6904H5.28027H25.2828H25.5328L25.5328 23.4404L25.5303 12.2454L25.5302 11.7343L25.1268 12.0481L15.8943 19.2293L15.8936 19.2299C15.7143 19.3703 15.4978 19.4404 15.2803 19.4404C15.0627 19.4404 14.8462 19.3703 14.6669 19.2299L14.6663 19.2293L5.43376 12.0481L5.03027 11.7343V12.2454V23.4404ZM5.28027 6.19043H25.2803C26.521 6.19043 27.5303 7.19975 27.5303 8.44043V23.4404C27.5303 24.6811 26.521 25.6904 25.2803 25.6904H5.28027C4.03959 25.6904 3.03027 24.6811 3.03027 23.4404V8.44043C3.03027 7.19975 4.03959 6.19043 5.28027 6.19043Z" fill="#019A40" stroke="white" stroke-width="0.5"/>
</svg>
