<?xml version="1.0" encoding="utf-8"?>
<!-- Generator: Adobe Illustrator 23.0.3, SVG Export Plug-In . SVG Version: 6.00 Build 0)  -->
<svg version="1.1" id="Capa_1" xmlns="http://www.w3.org/2000/svg" xmlns:xlink="http://www.w3.org/1999/xlink" x="0px" y="0px"
	 viewBox="0 0 5 20" style="enable-background:new 0 0 5 20;" xml:space="preserve">
<style type="text/css">
	.st0{fill:#8A8C8E;}
</style>
<path class="st0" d="M0,10c0,1.4,1.1,2.5,2.5,2.5S5,11.4,5,10c0-1.4-1.1-2.5-2.5-2.5S0,8.6,0,10z M0,2.5C0,3.9,1.1,5,2.5,5
	S5,3.9,5,2.5S3.9,0,2.5,0S0,1.1,0,2.5z M0,17.5C0,18.9,1.1,20,2.5,20S5,18.9,5,17.5S3.9,15,2.5,15S0,16.1,0,17.5z"/>
</svg>
