<svg width="21" height="23" viewBox="0 0 21 23" fill="none" xmlns="http://www.w3.org/2000/svg">
<path d="M5.74942 5.80435C5.74942 8.72316 7.98285 11.0984 10.7274 11.0984C13.4719 11.0984 15.7053 8.72316 15.7053 5.80435C15.7053 2.88554 13.4719 0.510254 10.7274 0.510254C7.98285 0.510254 5.74942 2.88554 5.74942 5.80435ZM19.577 22.8631C20.188 22.8631 20.6832 22.3678 20.6832 21.7569V21.6866C20.6832 17.1466 17.2086 13.4514 12.9398 13.4514H8.51494C4.24498 13.4514 0.771484 17.1466 0.771484 21.6866V21.7569C0.771484 22.3678 1.26675 22.8631 1.87769 22.8631H2.9839H18.4708H19.577Z" fill="#019A40"/>
</svg>
