<svg width="31" height="31" viewBox="0 0 31 31" fill="none" xmlns="http://www.w3.org/2000/svg">
<path d="M24.0374 14.0913C23.4912 9.78879 19.8062 6.45129 15.3574 6.45129C11.9124 6.45129 8.91992 8.46504 7.55367 11.6388C4.86867 12.4413 2.85742 14.9763 2.85742 17.7013C2.85742 21.1475 5.66117 23.9513 9.10742 23.9513H10.3574V21.4513H9.10742C7.03992 21.4513 5.35742 19.7688 5.35742 17.7013C5.35742 15.9463 6.85617 14.255 8.69867 13.9313L9.42492 13.8038L9.66492 13.1063C10.5437 10.5425 12.7249 8.95129 15.3574 8.95129C18.8037 8.95129 21.6074 11.755 21.6074 15.2013V16.4513H22.8574C24.2362 16.4513 25.3574 17.5725 25.3574 18.9513C25.3574 20.33 24.2362 21.4513 22.8574 21.4513H20.3574V23.9513H22.8574C25.6149 23.9513 27.8574 21.7088 27.8574 18.9513C27.8574 16.6 26.2262 14.6238 24.0374 14.0913Z" fill="#019A40"/>
<path d="M16.6074 17.7013V12.7013H14.1074V17.7013H10.3574L15.3574 23.9513L20.3574 17.7013H16.6074Z" fill="#019A40"/>
</svg>
