<svg width="25" height="21" viewBox="0 0 25 21" fill="none" xmlns="http://www.w3.org/2000/svg">
<path d="M22.5 0.891602H2.5C1.12125 0.891602 0 2.01285 0 3.3916V18.3916C0 19.7703 1.12125 20.8916 2.5 20.8916H22.5C23.8787 20.8916 25 19.7703 25 18.3916V3.3916C25 2.01285 23.8787 0.891602 22.5 0.891602ZM22.5 3.3916V4.03035L12.5 11.8091L2.5 4.0316V3.3916H22.5ZM2.5 18.3916V7.1966L11.7325 14.3778C11.9575 14.5541 12.2287 14.6416 12.5 14.6416C12.7712 14.6416 13.0425 14.5541 13.2675 14.3778L22.5 7.1966L22.5025 18.3916H2.5Z" fill="#019A40"/>
</svg>
