<svg width="27" height="18" viewBox="0 0 27 18" fill="none" xmlns="http://www.w3.org/2000/svg">
<path d="M22.691 9.0017L22.9297 9.22678L23.2312 9.09735C23.4722 8.99392 23.7137 8.93573 23.9618 8.93573C25.084 8.93573 26.1014 9.99911 26.1014 11.4758C26.1014 12.9526 25.084 14.016 23.9618 14.016C22.8396 14.016 21.8222 12.9526 21.8222 11.4758C21.8222 11.3485 21.8383 11.2209 21.86 11.0587L21.894 10.8045L21.7073 10.6286L18.5411 7.64471L18.2682 7.38751L17.9448 7.57752C17.5583 7.80464 17.142 7.93573 16.7028 7.93573C16.4484 7.93573 16.1947 7.88031 15.9245 7.78984L15.5787 7.67405L15.3628 7.96789L11.5182 13.1999L11.3691 13.4028L11.4433 13.6434C11.5307 13.9265 11.5834 14.2152 11.5834 14.516C11.5834 15.9927 10.566 17.0561 9.44381 17.0561C8.32157 17.0561 7.30417 15.9927 7.30417 14.516C7.30417 14.2929 7.33653 14.0762 7.38938 13.8558L7.44934 13.6056L7.2807 13.4114L3.89801 9.51549L3.68429 9.26935L3.37285 9.36558C3.18733 9.42291 3.01588 9.45578 2.84471 9.45578C1.72248 9.45578 0.705078 8.3924 0.705078 6.91567C0.705078 5.43895 1.72248 4.37556 2.84471 4.37556C3.96695 4.37556 4.98435 5.43895 4.98435 6.91567C4.98435 7.1387 4.95199 7.35539 4.89914 7.57587L4.83918 7.826L5.00782 8.02023L8.39051 11.9161L8.60423 12.1623L8.91567 12.066C9.10119 12.0087 9.27264 11.9758 9.44381 11.9758C9.55661 11.9758 9.67346 11.9919 9.81232 12.0195L10.1243 12.0814L10.3126 11.8251L14.152 6.59912L14.3204 6.36992L14.2094 6.10804C14.0188 5.65812 13.9033 5.16334 13.9033 4.63559C13.9033 2.73629 15.2137 1.33545 16.7028 1.33545C18.192 1.33545 19.5024 2.73629 19.5024 4.63559C19.5024 4.93933 19.4551 5.23567 19.3828 5.53762L19.3154 5.81921L19.5261 6.01783L22.691 9.0017Z" fill="white" stroke="#019A40"/>
</svg>
