<svg width="27" height="24" viewBox="0 0 27 24" fill="none" xmlns="http://www.w3.org/2000/svg">
<path d="M12.1498 12.3758H12.3998V12.1258V8.52588H14.4645V12.1258V12.3758H14.7145H18.3115V14.4424H14.7145H14.4645V14.6924V18.2924H12.3998V14.6924V14.4424H12.1498H8.55273V12.3758H12.1498Z" fill="#019A40" stroke="white" stroke-width="0.5"/>
<path d="M12.5036 3.31951L12.5768 3.3928H12.6804H23.6907C24.9669 3.3928 26.0054 4.43182 26.0054 5.70942V21.1092C26.0054 22.3868 24.9669 23.4258 23.6907 23.4258H3.1731C1.89691 23.4258 0.858398 22.3868 0.858398 21.1092V3.1428C0.858398 1.8652 1.89691 0.826172 3.1731 0.826172H9.58485C9.85986 0.826172 10.1216 0.934706 10.3142 1.12842L10.3146 1.12889L12.5036 3.31951ZM2.9231 21.1092V21.3592H3.1731H23.6933H23.9433L23.9433 21.1091L23.9407 5.70938L23.9407 5.45942H23.6907H13.4319H12.1496H3.1731H2.9231V5.70942V21.1092Z" fill="#019A40" stroke="white" stroke-width="0.5"/>
</svg>
