<svg width="24" height="24" viewBox="0 0 24 24" fill="none" xmlns="http://www.w3.org/2000/svg">
<path d="M12 22C16.879 22 21 17.879 21 13C21 8.121 16.879 4 12 4C7.121 4 3 8.121 3 13C3 17.879 7.121 22 12 22ZM12 6C15.794 6 19 9.206 19 13C19 16.794 15.794 20 12 20C8.206 20 5 16.794 5 13C5 9.206 8.206 6 12 6Z" fill="#019A40"/>
<path d="M17.2839 3.70703L18.6961 2.2908L21.7056 5.2917L20.2934 6.70793L17.2839 3.70703Z" fill="#019A40"/>
<path d="M5.28241 2.29395L6.69862 3.70616L3.70826 6.70499L2.29205 5.29277L5.28241 2.29395Z" fill="#019A40"/>
<path d="M11 9H13V14H11V9ZM11 15H13V17H11V15Z" fill="#019A40"/>
</svg>
