<svg width="25" height="25" viewBox="0 0 25 25" fill="none" xmlns="http://www.w3.org/2000/svg">
<path d="M5.74609 15.899C6.65609 15.899 7.47909 15.541 8.10309 14.969L14.3631 18.546C14.2941 18.821 14.2461 19.103 14.2461 19.399C14.2461 21.329 15.8161 22.899 17.7461 22.899C19.6761 22.899 21.2461 21.329 21.2461 19.399C21.2461 17.469 19.6761 15.899 17.7461 15.899C16.8361 15.899 16.0131 16.257 15.3891 16.829L9.12909 13.252C9.19209 13.005 9.23209 12.75 9.23709 12.484L15.3881 8.96905C16.0131 9.54105 16.8361 9.89905 17.7461 9.89905C19.6761 9.89905 21.2461 8.32905 21.2461 6.39905C21.2461 4.46905 19.6761 2.89905 17.7461 2.89905C15.8161 2.89905 14.2461 4.46905 14.2461 6.39905C14.2461 6.69505 14.2941 6.97705 14.3631 7.25205L8.67909 10.501C8.05409 9.53905 6.97509 8.89905 5.74609 8.89905C3.81609 8.89905 2.24609 10.469 2.24609 12.399C2.24609 14.329 3.81609 15.899 5.74609 15.899ZM17.7461 17.899C18.5731 17.899 19.2461 18.572 19.2461 19.399C19.2461 20.226 18.5731 20.899 17.7461 20.899C16.9191 20.899 16.2461 20.226 16.2461 19.399C16.2461 18.572 16.9191 17.899 17.7461 17.899ZM17.7461 4.89905C18.5731 4.89905 19.2461 5.57205 19.2461 6.39905C19.2461 7.22605 18.5731 7.89905 17.7461 7.89905C16.9191 7.89905 16.2461 7.22605 16.2461 6.39905C16.2461 5.57205 16.9191 4.89905 17.7461 4.89905ZM5.74609 10.899C6.57309 10.899 7.24609 11.572 7.24609 12.399C7.24609 13.226 6.57309 13.899 5.74609 13.899C4.91909 13.899 4.24609 13.226 4.24609 12.399C4.24609 11.572 4.91909 10.899 5.74609 10.899Z" fill="#999999"/>
</svg>
