<svg width="25" height="25" viewBox="0 0 25 25" fill="none" xmlns="http://www.w3.org/2000/svg">
<path d="M4.94157 21.1959C5.02257 21.1959 5.10357 21.1859 5.18357 21.1659L9.18357 20.1659C9.35957 20.1219 9.52058 20.0309 9.64857 19.9029L21.9416 7.60991C22.3196 7.23191 22.5276 6.72991 22.5276 6.19591C22.5276 5.66191 22.3196 5.15991 21.9416 4.78191L20.3556 3.19591C19.5996 2.43991 18.2836 2.43991 17.5276 3.19591L5.23457 15.4889C5.10657 15.6169 5.01557 15.7779 4.97157 15.9529L3.97157 19.9529C3.88557 20.2939 3.98657 20.6539 4.23457 20.9029C4.42357 21.0929 4.67957 21.1959 4.94157 21.1959ZM18.9416 4.60991L20.5276 6.19591L18.9416 7.78191L17.3556 6.19591L18.9416 4.60991ZM6.84457 16.7069L15.9416 7.60991L17.5276 9.19591L8.42957 18.2929L6.31557 18.8209L6.84457 16.7069Z" fill="#999999"/>
</svg>
