<?xml version="1.0" encoding="utf-8"?>
<!-- Generator: Adobe Illustrator 23.0.3, SVG Export Plug-In . SVG Version: 6.00 Build 0)  -->
<svg version="1.1" id="Capa_1" xmlns="http://www.w3.org/2000/svg" xmlns:xlink="http://www.w3.org/1999/xlink" x="0px" y="0px"
	 viewBox="0 0 45 45" style="enable-background:new 0 0 45 45;" xml:space="preserve">
<style type="text/css">
	.st0{fill:#019A40;stroke:#FFFFFF;}
	.st1{fill:#019A40;}
</style>
<path class="st0" d="M21.1,19.3h2.8v8.4h-2.8V19.3z M21.1,30.5h2.8v2.8h-2.8V30.5z"/>
<g>
	<path class="st1" d="M8.3,35.4l-0.4,0.7h0.8h27.5h0.8l-0.4-0.7l-13.8-26l-0.4-0.8l-0.4,0.8L8.3,35.4z M22.5,6.4
		c1.2,0,2.3,0.7,2.9,1.7c0,0,0,0,0,0l13.8,26c0.5,1,0.5,2.2-0.1,3.2c-0.6,1-1.6,1.6-2.8,1.6H8.7c-1.2,0-2.2-0.6-2.8-1.6
		c-0.6-1-0.6-2.2-0.1-3.2c0,0,0,0,0,0l13.8-26C20.2,7,21.3,6.4,22.5,6.4z"/>
</g>
</svg>
