<svg width="26" height="21" viewBox="0 0 26 21" fill="none" xmlns="http://www.w3.org/2000/svg">
<path d="M21.5875 9.04282L21.6111 9.24569L21.8085 9.29811C23.9056 9.85499 25.4958 11.9359 25.4958 14.4381C25.4958 17.3786 23.3104 19.7245 20.6776 19.7245H6.60275C3.26494 19.7245 0.505078 16.7515 0.505078 13.0415C0.505078 10.1232 2.48367 7.4085 5.10533 6.55324L5.23957 6.50945L5.29137 6.37811C6.65046 2.93215 9.61222 0.772168 13.0004 0.772168C17.3812 0.772168 21.0433 4.36401 21.5875 9.04282ZM6.12789 8.53615L6.12784 8.53616C4.0962 8.9258 2.46415 10.9412 2.46415 13.0415C2.46415 15.4919 4.29654 17.5313 6.60275 17.5313H20.6776C22.2788 17.5313 23.5367 16.119 23.5367 14.4381C23.5367 12.7572 22.2788 11.3449 20.6776 11.3449H19.6981V10.2483C19.6981 6.2575 16.718 2.96536 13.0004 2.96536C10.1569 2.96536 7.81996 4.8489 6.88721 7.81915L6.69546 8.42739L6.12789 8.53615Z" fill="#019A40" stroke="white" stroke-width="0.6"/>
</svg>
