<svg xmlns="http://www.w3.org/2000/svg" viewBox="0 0 24.5 24.5"><defs><style>.cls-1{fill:#019a40;}</style></defs><title>Recurso 1</title><g id="Capa_2" data-name="Capa 2"><g id="Capa_1-2" data-name="Capa 1"><path class="cls-1" d="M15.1,15.6h.1l.1-.1,2.1-2.1a1.09,1.09,0,0,1,1.5,0h0l5.3,5.3h0a1.09,1.09,0,0,1,0,1.5l-3.6,3.6a2.19,2.19,0,0,1-1.7.7h0A19.34,19.34,0,0,1,5.6,18.9,19.84,19.84,0,0,1,0,5.6,2.19,2.19,0,0,1,.7,3.9L4.3.3A1.09,1.09,0,0,1,5.8.3l5.3,5.3a1.09,1.09,0,0,1,0,1.5L9,9.2l-.1.1v.1a10.07,10.07,0,0,0,2.2,4A8.07,8.07,0,0,0,15.1,15.6ZM19,22.4h.1l.1-.1,2.6-2.6.2-.2-.2-.2-3.4-3.4-.2-.2-.2.2-1.7,1.7h0a1,1,0,0,1-1,.3h0a10.58,10.58,0,0,1-2.2-.7A11.27,11.27,0,0,1,9.5,15a10,10,0,0,1-2.2-3.6,10.58,10.58,0,0,1-.7-2.2h0a1,1,0,0,1,.3-1h0L8.6,6.5l.2-.2-.2-.1L5.2,2.8,5,2.6l-.1.2L2.2,5.4v.2a17.6,17.6,0,0,0,5,11.8A17.28,17.28,0,0,0,19,22.4Z"/></g></g></svg>