<?xml version="1.0" encoding="utf-8"?>
<!-- Generator: Adobe Illustrator 23.0.3, SVG Export Plug-In . SVG Version: 6.00 Build 0)  -->
<svg version="1.1" id="Capa_1" xmlns="http://www.w3.org/2000/svg" xmlns:xlink="http://www.w3.org/1999/xlink" x="0px" y="0px"
	 viewBox="0 0 26 24" style="enable-background:new 0 0 26 24;" xml:space="preserve">
<style type="text/css">
	.st0{fill:#019A40;}
</style>
<g>
	<path class="st0" d="M23.3,23.6H2.8c-1.4,0-2.6-1.2-2.6-2.6V3.1c0-1.5,1.1-2.6,2.6-2.6h20.5c1.4,0,2.6,1.2,2.6,2.6V21
		C25.9,22.4,24.7,23.6,23.3,23.6z M2.8,1.1c-1.1,0-2,0.9-2,2V21c0,1.1,0.9,2,2,2h20.5c1.1,0,2-0.9,2-2V3.1c0-1.1-0.9-2-2-2H2.8z
		 M23.9,21.5H2.2v-19h21.7V21.5z M2.8,20.9h20.5V3.1l-20.5,0V20.9z"/>
</g>
<g>
	<path class="st0" d="M13,18.4H5.3v-2.6H13V18.4z M5.9,17.8h6.5v-1.4H5.9V17.8z M20.7,13.3H5.3v-2.6h15.4V13.3z M5.9,12.7h14.2v-1.4
		H5.9V12.7z M20.7,8.2H5.3V5.6h15.4V8.2z M5.9,7.6h14.2V6.2H5.9V7.6z"/>
</g>
</svg>
