<svg width="35" height="36" viewBox="0 0 35 36" fill="none" xmlns="http://www.w3.org/2000/svg">
<path d="M27.7083 3.80811H13.125C11.5165 3.80811 10.2083 5.11623 10.2083 6.72477V15.4748H7.29167C5.68313 15.4748 4.375 16.7829 4.375 18.3914V31.5164C4.375 32.3214 5.02688 32.9748 5.83333 32.9748H17.5H29.1667C29.9731 32.9748 30.625 32.3214 30.625 31.5164V6.72477C30.625 5.11623 29.3169 3.80811 27.7083 3.80811ZM7.29167 18.3914H11.6667H16.0417V21.3081V24.2248V30.0581H7.29167V18.3914ZM27.7083 30.0581H18.9583V24.2248V21.3081V18.3914C18.9583 16.7829 17.6502 15.4748 16.0417 15.4748H13.125V6.72477H27.7083V30.0581Z" fill="#019A40"/>
<path d="M16.0413 9.6416H18.958V12.5583H16.0413V9.6416ZM21.8747 9.6416H24.7913V12.5583H21.8747V9.6416ZM21.8747 15.5201H24.7913V18.3916H21.8747V15.5201ZM21.8747 21.3083H24.7913V24.2249H21.8747V21.3083ZM10.208 21.3097H13.1247V24.2264H10.208V21.3097Z" fill="#019A40"/>
</svg>
