<?xml version="1.0" encoding="utf-8"?>
<!-- Generator: Adobe Illustrator 23.0.3, SVG Export Plug-In . SVG Version: 6.00 Build 0)  -->
<svg version="1.1" id="Capa_1" xmlns="http://www.w3.org/2000/svg" xmlns:xlink="http://www.w3.org/1999/xlink" x="0px" y="0px"
	 viewBox="0 0 45 45" style="enable-background:new 0 0 45 45;" xml:space="preserve">
<style type="text/css">
	.st0{clip-path:url(#SVGID_2_);}
	.st1{fill:#019A40;}
</style>
<g>
	<defs>
		<rect id="SVGID_1_" width="45" height="45"/>
	</defs>
	<clipPath id="SVGID_2_">
		<use xlink:href="#SVGID_1_"  style="overflow:visible;"/>
	</clipPath>
	<g class="st0">
		<g>
			<path class="st1" d="M30.5,20.2l2.2-2.2l4.4,4.4l0.4,0.4l0.4-0.4l4.4-4.4l2.2,2.2l-4.4,4.4L39.7,25l0.4,0.4l4.4,4.4L42.3,32
				l-4.4-4.4l-0.4-0.4l-0.4,0.4L32.7,32l-2.2-2.2l4.4-4.4l0.4-0.4l-0.4-0.4L30.5,20.2z M16.7,8.8c4.5,0,7.8,3.4,7.8,7.8
				c0,4.5-3.4,7.8-7.8,7.8s-7.8-3.4-7.8-7.8C8.8,12.2,12.2,8.8,16.7,8.8z M16.7,12c-1.3,0-2.5,0.5-3.4,1.3c-0.8,0.8-1.3,2-1.3,3.4
				c0,1.3,0.5,2.5,1.3,3.4c0.8,0.8,2,1.3,3.4,1.3c1.3,0,2.5-0.5,3.4-1.3c0.8-0.8,1.3-2,1.3-3.4c0-1.3-0.5-2.5-1.3-3.4
				C19.2,12.5,18,12,16.7,12z M14.6,30.8c-3.7,0-6.8,3-6.8,6.7v1.6H4.7v-1.6c0-5.5,4.4-9.9,9.9-9.9h4.2c5.5,0,9.9,4.4,9.9,9.9v1.6
				h-3.2v-1.6c0-3.7-3-6.7-6.8-6.7H14.6z"/>
		</g>
	</g>
</g>
</svg>
