<svg width="25" height="25" viewBox="0 0 25 25" fill="none" xmlns="http://www.w3.org/2000/svg">
<path d="M20.9766 5.86182H12.3906L10.6836 4.15482C10.4966 3.96682 10.2416 3.86182 9.97656 3.86182H4.97656C3.87356 3.86182 2.97656 4.75882 2.97656 5.86182V19.8618C2.97656 20.9648 3.87356 21.8618 4.97656 21.8618H20.9766C22.0796 21.8618 22.9766 20.9648 22.9766 19.8618V7.86182C22.9766 6.75882 22.0796 5.86182 20.9766 5.86182ZM4.97656 19.8618V7.86182H11.9766H12.9766H20.9766L20.9786 19.8618H4.97656Z" fill="#019A40"/>
<path d="M18.2247 14.8618H12.9766V17.8618L7.72852 13.8618L12.9766 9.86182V12.8618L18.2247 12.8618V14.8618Z" fill="#019A40"/>
</svg>
