<svg width="33" height="16" viewBox="0 0 33 16" fill="none" xmlns="http://www.w3.org/2000/svg">
<path d="M5.75293 9.41309H2.99902V14.8916H0.52832V0.672852H5.52832C7.16895 0.672852 8.43522 1.04069 9.32715 1.77637C10.2191 2.51204 10.665 3.5765 10.665 4.96973C10.665 5.92025 10.4339 6.71777 9.97168 7.3623C9.51595 8.00033 8.87793 8.49186 8.05762 8.83691L11.251 14.7646V14.8916H8.60449L5.75293 9.41309ZM2.99902 7.43066H5.53809C6.37142 7.43066 7.02246 7.22233 7.49121 6.80566C7.95996 6.38249 8.19434 5.80632 8.19434 5.07715C8.19434 4.31543 7.97624 3.72624 7.54004 3.30957C7.11035 2.8929 6.46582 2.67806 5.60645 2.66504H2.99902V7.43066ZM19.1807 13.8564C18.484 14.6768 17.4945 15.0869 16.2119 15.0869C15.0661 15.0869 14.1969 14.7516 13.6045 14.0811C13.0186 13.4105 12.7256 12.4404 12.7256 11.1709V4.3252H15.0986V11.1416C15.0986 12.4827 15.6553 13.1533 16.7686 13.1533C17.9209 13.1533 18.6989 12.7399 19.1025 11.9131V4.3252H21.4756V14.8916H19.2393L19.1807 13.8564ZM28.2334 13.1924C28.8258 13.1924 29.3174 13.0199 29.708 12.6748C30.0986 12.3298 30.307 11.9033 30.333 11.3955H32.5693C32.5433 12.0531 32.3382 12.6683 31.9541 13.2412C31.57 13.8076 31.0492 14.2568 30.3916 14.5889C29.734 14.9209 29.0244 15.0869 28.2627 15.0869C26.7848 15.0869 25.613 14.6084 24.7471 13.6514C23.8812 12.6943 23.4482 11.3727 23.4482 9.68652V9.44238C23.4482 7.83431 23.8779 6.5485 24.7373 5.58496C25.5967 4.61491 26.7686 4.12988 28.2529 4.12988C29.5094 4.12988 30.5316 4.49772 31.3193 5.2334C32.1136 5.96257 32.5303 6.92285 32.5693 8.11426H30.333C30.307 7.50879 30.0986 7.01074 29.708 6.62012C29.3239 6.22949 28.8324 6.03418 28.2334 6.03418C27.4652 6.03418 26.8727 6.31413 26.4561 6.87402C26.0394 7.42741 25.8278 8.27051 25.8213 9.40332V9.78418C25.8213 10.93 26.0264 11.7861 26.4365 12.3525C26.8532 12.9124 27.4521 13.1924 28.2334 13.1924Z" fill="#019A40"/>
</svg>
