<?xml version="1.0" encoding="utf-8"?>
<!-- Generator: Adobe Illustrator 23.0.3, SVG Export Plug-In . SVG Version: 6.00 Build 0)  -->
<svg version="1.1" id="Capa_1" xmlns="http://www.w3.org/2000/svg" xmlns:xlink="http://www.w3.org/1999/xlink" x="0px" y="0px"
	 viewBox="0 0 48 48" style="enable-background:new 0 0 48 48;" xml:space="preserve">
<style type="text/css">
	.st0{fill:#999999;}
	.st1{fill:#019A40;}
</style>
<path class="st0" d="M14.3,22.1h2.9V25h-2.9V22.1z M14.3,29.9h2.9v2.9h-2.9V29.9z M22.1,22.1H25V25h-2.9V22.1z M22.1,29.9H25v2.9
	h-2.9V29.9z M29.9,22.1h2.9V25h-2.9V22.1z M29.9,29.9h2.9v2.9h-2.9V29.9z"/>
<path class="st1" d="M32.9,7.9v0.5h0.5h3.9c1.9,0,3.4,1.5,3.4,3.4v3.9v23.5c0,1.9-1.5,3.4-3.4,3.4H9.9c-1.9,0-3.4-1.5-3.4-3.4V15.7
	v-3.9c0-1.9,1.5-3.4,3.4-3.4h3.9h0.5V7.9V4.4h2.9v3.4v0.5h0.5h11.8h0.5V7.9V4.4h2.9V7.9z M37.8,15.7l0-0.5h-0.5H9.9H9.4v0.5v23.5
	v0.5h0.5h27.4h0.5l0-0.5L37.8,15.7z"/>
</svg>
