<?xml version="1.0" encoding="utf-8"?>
<!-- Generator: Adobe Illustrator 23.0.3, SVG Export Plug-In . SVG Version: 6.00 Build 0)  -->
<svg version="1.1" id="Capa_1" xmlns="http://www.w3.org/2000/svg" xmlns:xlink="http://www.w3.org/1999/xlink" x="0px" y="0px"
	 viewBox="0 0 26 23" style="enable-background:new 0 0 26 23;" xml:space="preserve">
<style type="text/css">
	.st0{fill:#019A40;}
</style>
<path class="st0" d="M12.1,2.9L12.1,2.9L12.3,3h11c1.3,0,2.3,1,2.3,2.2v14.5c0,1.2-1,2.2-2.3,2.2H2.8c-1.3,0-2.3-1-2.3-2.2V2.8
	c0-1.2,1-2.2,2.3-2.2h6.4c0.3,0,0.5,0.1,0.7,0.3l0,0L12.1,2.9z M2.5,19.7v0.3h0.3h20.5h0.3v-0.3l0-14.5V4.9h-0.3H13h-1.3h-9H2.5v0.3
	V19.7z"/>
</svg>
