<svg width="21" height="19" viewBox="0 0 21 19" fill="none" xmlns="http://www.w3.org/2000/svg">
<path d="M19.8379 5.76811C19.6119 5.23311 19.3329 4.71811 19.0089 4.23911C18.6869 3.76111 18.3179 3.31311 17.9099 2.90611C17.5019 2.49911 17.0559 2.13111 16.5779 1.80811C16.0959 1.48211 15.5809 1.20411 15.0499 0.979109C14.5049 0.749109 13.9359 0.57211 13.3599 0.45411C12.1789 0.21111 10.9159 0.21011 9.7339 0.45411C9.1549 0.57211 8.5869 0.749109 8.0439 0.978109C7.5129 1.20311 6.9989 1.48111 6.5149 1.80811C6.0379 2.13011 5.5889 2.50011 5.1819 2.90711C4.7749 3.31411 4.4049 3.76311 4.0829 4.23911C3.7569 4.72311 3.4779 5.23711 3.2539 5.76711C3.0239 6.31111 2.8469 6.88011 2.7289 7.45711C2.6079 8.04911 2.5459 8.65911 2.5459 9.27111C2.5459 9.27911 2.5469 9.28811 2.5469 9.29611H0.545898L3.5459 13.2711L6.5459 9.29611H4.5469C4.5469 9.28811 4.5459 9.27911 4.5459 9.27111C4.5459 8.79411 4.5939 8.31911 4.6879 7.85911C4.7799 7.41011 4.9169 6.96911 5.0959 6.54611C5.2699 6.13411 5.4869 5.73311 5.7409 5.35811C5.9909 4.98711 6.2789 4.63911 6.5959 4.32111C6.9129 4.00311 7.2619 3.71611 7.6319 3.46611C8.0079 3.21211 8.4089 2.99511 8.8219 2.82011C9.2429 2.64111 9.6849 2.50411 10.1349 2.41211C11.0539 2.22311 12.0389 2.22411 12.9579 2.41211C13.4049 2.50411 13.8479 2.64111 14.2709 2.82011C14.6839 2.99411 15.0839 3.21211 15.4589 3.46411C15.8289 3.71511 16.1789 4.00311 16.4959 4.32011C16.8129 4.63611 17.0999 4.98511 17.3509 5.35711C17.6029 5.72911 17.8199 6.12911 17.9959 6.54611C18.1739 6.96311 18.3099 7.40411 18.4039 7.85711C18.4979 8.32011 18.5459 8.79511 18.5459 9.27111C18.5459 9.74711 18.4979 10.2221 18.4039 10.6811C18.3099 11.1361 18.1739 11.5771 17.9959 11.9951C17.8199 12.4111 17.6029 12.8101 17.3499 13.1841C17.0999 13.5551 16.8129 13.9041 16.4959 14.2201C16.1789 14.5371 15.8289 14.8251 15.4599 15.0751C15.0839 15.3281 14.6849 15.5461 14.2709 15.7211C13.8479 15.9001 13.4059 16.0371 12.9579 16.1291C12.0399 16.3171 11.0559 16.3181 10.1349 16.1291C9.6859 16.0371 9.2449 15.9001 8.8219 15.7211C8.4099 15.5471 8.0089 15.3301 7.6339 15.0761C7.2629 14.8261 6.9149 14.5381 6.5969 14.2211L5.1829 15.6351C5.5899 16.0431 6.0379 16.4121 6.5149 16.7341C6.9979 17.0601 7.5129 17.3391 8.0429 17.5631C8.5869 17.7931 9.1559 17.9701 9.7329 18.0881C10.3239 18.2091 10.9339 18.2711 11.5459 18.2711C12.1579 18.2711 12.7689 18.2091 13.3589 18.0881C13.9359 17.9701 14.5049 17.7941 15.0489 17.5641C15.5809 17.3391 16.0959 17.0601 16.5799 16.7331C17.0559 16.4111 17.5029 16.0421 17.9099 15.6351C18.3169 15.2281 18.6859 14.7801 19.0079 14.3041C19.3329 13.8241 19.6119 13.3091 19.8379 12.7751C20.0659 12.2371 20.2429 11.6691 20.3629 11.0831C20.4839 10.4911 20.5459 9.88111 20.5459 9.27111C20.5459 8.66111 20.4839 8.05111 20.3629 7.45711C20.2429 6.87311 20.0659 6.30511 19.8379 5.76811Z" fill="#8A8C8E"/>
</svg>
