<svg width="25" height="25" viewBox="0 0 25 25" fill="none" xmlns="http://www.w3.org/2000/svg">
<path d="M12.5454 3.271C7.03141 3.271 2.54541 6.635 2.54541 10.771C2.54541 13.513 4.52741 16.125 7.54541 17.449V22.271L12.8844 18.267C18.2414 18.132 22.5454 14.822 22.5454 10.771C22.5454 6.635 18.0594 3.271 12.5454 3.271ZM12.5454 16.271H12.2124L9.54541 18.271V16.067L8.88241 15.83C6.28841 14.9 4.54541 12.867 4.54541 10.771C4.54541 7.739 8.13441 5.271 12.5454 5.271C16.9564 5.271 20.5454 7.739 20.5454 10.771C20.5454 13.803 16.9564 16.271 12.5454 16.271Z" fill="#8A8C8E"/>
</svg>
