<svg width="21" height="21" viewBox="0 0 21 21" fill="none" xmlns="http://www.w3.org/2000/svg">
<g clip-path="url(#clip0)">
<path d="M9.26892 0.597865C8.91612 0.16204 8.17535 0.16204 7.82255 0.597865L0.414813 9.77313C0.192581 10.0493 0.149986 10.4264 0.303697 10.7448C0.458334 11.0613 0.781496 11.2641 1.13799 11.2641H2.98993H4.84186V14.0167V17.6868C4.84186 18.1942 5.25577 18.6043 5.76783 18.6043H11.3236C11.8357 18.6043 12.2496 18.1942 12.2496 17.6868V13.0992V11.2641H14.1015H15.9535C16.31 11.2641 16.6331 11.0613 16.7878 10.7448C16.9415 10.4264 16.8989 10.0493 16.6767 9.77313L9.26892 0.597865ZM11.3236 9.42906H10.3977V10.3466V13.0992V16.7693H6.6938V14.0167V10.3466V9.42906H5.76783H3.06493L8.54574 2.64028L14.0265 9.42906H11.3236Z" fill="#8A8C8E"/>
</g>
<defs>
<clipPath id="clip0">
<rect x="0.212402" y="0.270996" width="20" height="20" fill="white"/>
</clipPath>
</defs>
</svg>
