<svg width="25" height="25" viewBox="0 0 25 25" fill="none" xmlns="http://www.w3.org/2000/svg">
<path d="M20.9766 2.9668H10.9766C9.87356 2.9668 8.97656 3.8638 8.97656 4.9668V8.9668H4.97656C3.87356 8.9668 2.97656 9.8638 2.97656 10.9668V20.9668C2.97656 22.0698 3.87356 22.9668 4.97656 22.9668H14.9766C16.0796 22.9668 16.9766 22.0698 16.9766 20.9668V16.9668H20.9766C22.0796 16.9668 22.9766 16.0698 22.9766 14.9668V4.9668C22.9766 3.8638 22.0796 2.9668 20.9766 2.9668ZM4.97656 20.9668V10.9668H14.9766L14.9786 20.9668H4.97656ZM20.9766 14.9668H16.9766V10.9668C16.9766 9.8638 16.0796 8.9668 14.9766 8.9668H10.9766V4.9668H20.9766V14.9668Z" fill="#999999"/>
<path d="M6.97656 12.9668H12.9766V14.9668H6.97656V12.9668ZM6.97656 16.9668H12.9766V18.9668H6.97656V16.9668Z" fill="#999999"/>
</svg>
