<svg width="21" height="6" viewBox="0 0 21 6" fill="none" xmlns="http://www.w3.org/2000/svg">
<path d="M10.3525 0.336914C8.97754 0.336914 7.85254 1.46191 7.85254 2.83691C7.85254 4.21191 8.97754 5.33691 10.3525 5.33691C11.7275 5.33691 12.8525 4.21191 12.8525 2.83691C12.8525 1.46191 11.7275 0.336914 10.3525 0.336914ZM17.8525 0.336914C16.4775 0.336914 15.3525 1.46191 15.3525 2.83691C15.3525 4.21191 16.4775 5.33691 17.8525 5.33691C19.2275 5.33691 20.3525 4.21191 20.3525 2.83691C20.3525 1.46191 19.2275 0.336914 17.8525 0.336914ZM2.85254 0.336914C1.47754 0.336914 0.352539 1.46191 0.352539 2.83691C0.352539 4.21191 1.47754 5.33691 2.85254 5.33691C4.22754 5.33691 5.35254 4.21191 5.35254 2.83691C5.35254 1.46191 4.22754 0.336914 2.85254 0.336914Z" fill="#8A8C8E"/>
</svg>
