<?xml version="1.0" encoding="utf-8"?>
<!-- Generator: Adobe Illustrator 23.0.3, SVG Export Plug-In . SVG Version: 6.00 Build 0)  -->
<svg version="1.1" id="Capa_1" xmlns="http://www.w3.org/2000/svg" xmlns:xlink="http://www.w3.org/1999/xlink" x="0px" y="0px"
	 viewBox="0 0 35 35" style="enable-background:new 0 0 35 35;" xml:space="preserve">
<style type="text/css">
	.st0{fill:#019A40;}
</style>
<path class="st0" d="M24.9,25.9l-0.4-0.4l-0.4,0.3c-2.4,1.8-5.5,2.9-8.8,2.9C7.4,28.8,1,22.5,1,14.9C1,7.3,7.4,1,15.3,1
	c7.9,0,14.3,6.3,14.3,13.9c0,3.2-1.1,6.1-3,8.5l-0.4,0.5l0.4,0.4l7.7,7.5l-1.7,1.7L24.9,25.9z M27.2,14.9c0-6.4-5.3-11.5-11.9-11.5
	C8.8,3.4,3.5,8.5,3.5,14.9c0,6.4,5.3,11.5,11.9,11.5C21.8,26.4,27.2,21.3,27.2,14.9z"/>
</svg>
