<?xml version="1.0" standalone="no"?>
<!DOCTYPE svg PUBLIC "-//W3C//DTD SVG 1.1//EN" "http://www.w3.org/Graphics/SVG/1.1/DTD/svg11.dtd" >
<svg xmlns="http://www.w3.org/2000/svg">
<metadata>Generated by IcoMoon</metadata>
<defs>
<font id="icomoon" horiz-adv-x="1024">
<font-face units-per-em="1024" ascent="960" descent="-64" />
<missing-glyph horiz-adv-x="1024" />
<glyph unicode="&#x20;" horiz-adv-x="512" d="" />
<glyph unicode="&#xe900;" glyph-name="icon_activities" d="M87.771 777.143h558.324v-107.276h-558.324v107.276zM87.771 565.029h558.324v-107.276h-558.324v107.276zM87.771 352.914h355.962v-107.276h-355.962v107.276zM865.524 496.762l-219.429-226.743-65.829 68.267-70.705-75.581 136.533-143.848 290.133 302.324-70.705 75.581z" />
<glyph unicode="&#xe901;" glyph-name="icon_add-files-light" d="M460.792 433.747h9.481v146.012h78.306v-146.012h145.901v-78.378h-145.901v-146.015h-78.306v146.015h-145.904v78.378h136.422zM474.211 777.216l2.776-2.78h421.505c48.401 0 87.787-39.406 87.787-87.86v-584.051c0-48.454-39.386-87.859-87.787-87.859h-778.149c-48.401 0-87.787 39.405-87.787 87.859v681.392c0 48.454 39.387 87.86 87.787 87.86h243.172c10.43 0 20.357-4.116 27.661-11.463l0.015-0.018 83.020-83.081zM110.861 102.525v-9.481h797.211v9.485l-0.099 584.049v9.48h-797.112v-593.532z" />
<glyph unicode="&#xe902;" glyph-name="icon_arrow-down1" d="M695.168 563.5l-183.168-183.169-183.169 183.169-60.331-60.332 243.5-243.499 243.499 243.499-60.331 60.332z" />
<glyph unicode="&#xe903;" glyph-name="icon_arrow-down2" d="M566.613 478.72v-30.72h378.88l-433.493-460.8-430.080 464.213h378.88v457.387h105.813v-430.080z" />
<glyph unicode="&#xe904;" glyph-name="icon_arrow-left" d="M811.267 72.636l-366.336 366.333 366.336 366.337-120.661 120.661-486.997-486.998 486.997-486.995 120.661 120.661z" />
<glyph unicode="&#xe905;" glyph-name="icon_arrow-next" d="M509.143 525.957h10.971v352.831l484.166-415.003-484.166-414.999v352.828h-438.857v124.343h427.886z" />
<glyph unicode="&#xe906;" glyph-name="icon_arrow-prev" d="M579.429 500.975h-10.972v352.831l-484.17-415.003 484.17-415.003v352.832h438.859v124.343h-427.887z" />
<glyph unicode="&#xe907;" glyph-name="icon_arrow-right" d="M401.12 623.84l175.843-175.84-175.843-175.841 57.919-57.917 233.759 233.759-233.759 233.757-57.919-57.917z" />
<glyph unicode="&#xe908;" glyph-name="icon_attach" d="M229.555 653.138c-0.002-0.079-0.002-0.119-0.003-0.158l-0.001-0.039-6.15-315.95c-1.413-72.598 26.357-141.953 78.224-195.372 51.866-53.453 120.354-83.304 192.922-84.082 72.609-0.777 142.226 27.595 196.111 79.918 53.927 52.281 84.385 121.014 85.796 193.612l6.152 315.991-79.007 0.846-6.152-315.991c-1.001-51.465-22.858-100.496-61.558-138.009-38.662-37.55-88.333-57.92-139.806-57.367-51.431 0.55-100.288 21.97-137.512 60.336-37.225 38.324-57.164 87.806-56.162 139.272l6.151 315.989-39.504 0.423 39.505-0.384c0.001 0.039 0.002 0.079 0.002 0.119 0.607 31.204 13.587 60.656 36.622 82.928 22.996 22.312 52.906 34.437 84.273 34.14 31.168-0.294 60.556-13.014 82.675-35.809 22.153-22.875 34.020-52.711 33.451-83.955l-6.152-315.988c-0.197-10.115-4.616-19.904-12.387-27.443-7.854-7.619-17.772-11.742-27.887-11.636-9.956 0.11-19.941 4.562-27.341 12.186-7.555 7.744-11.59 17.628-11.393 27.739l6.152 315.988-79.008 0.846-6.151-315.989c-0.608-31.205 11.259-61 33.493-83.877 22.156-22.835 51.545-35.556 82.713-35.889s61.076 11.753 84.192 34.183c23.036 22.35 36.018 51.879 36.625 83.046l6.152 316.027c0.978 52.297-18.679 102.009-55.474 139.975-36.8 37.965-85.936 59.114-138.24 59.595-52.383 0.521-102.283-19.606-140.462-56.65-38.257-37.043-59.841-86.274-60.859-138.57z" />
<glyph unicode="&#xe909;" glyph-name="icon_bell" d="M860.648 367.543v-4.876l90.21-90.21c7.314-7.314 12.19-17.067 12.19-26.819v-102.4c0-21.943-17.067-39.010-39.010-39.010h-824.076c-21.943 0-39.010 17.067-39.010 39.010v102.4c0 9.752 4.876 19.505 12.19 26.819v0l90.21 90.21v187.733c0 158.476 109.714 292.571 256 334.019l4.876 2.438 2.438 4.876c12.19 34.133 46.324 56.076 85.333 56.076s70.705-24.381 85.333-56.076l2.438-4.876 4.876-2.438c146.286-41.448 256-175.543 256-334.019v-182.857zM872.838 179.81h12.19v46.324l-90.21 90.21c-7.314 7.314-12.19 17.067-12.19 26.819v204.8c0 148.724-121.905 268.19-270.629 268.19s-270.629-119.467-270.629-268.19v-204.8c0-9.752-4.876-19.505-12.19-26.819v0l-90.21-90.21v-46.324h733.867zM385.219 26.21h253.562c-24.381-46.324-70.705-78.019-126.781-78.019s-102.4 31.695-126.781 78.019z" />
<glyph unicode="&#xe90a;" d="M305.067 488.533h61.867v-61.867h-61.867v61.867zM305.067 322.133h61.867v-61.867h-61.867v61.867zM471.467 488.533h61.867v-61.867h-61.867v61.867zM471.467 322.133h61.867v-61.867h-61.867v61.867zM637.867 488.533h61.867v-61.867h-61.867v61.867zM637.867 322.133h61.867v-61.867h-61.867v61.867z" />
<glyph unicode="&#xe90b;" d="M701.867 791.467v-10.667h93.867c40.533 0 72.533-32 72.533-72.533v-584.533c0-40.533-32-72.533-72.533-72.533h-584.533c-40.533 0-72.533 32-72.533 72.533v584.533c0 40.533 32 72.533 72.533 72.533h93.867v85.333h61.867v-83.2h273.067v83.2h61.867v-74.667zM806.4 625.067v10.667h-605.867v-522.667h605.867v512z" />
<glyph unicode="&#xe90c;" glyph-name="icon_check" d="M317.703 253.703l13.128-13.128 567.138 567.138 70.892-70.892-638.031-638.031-296.697 296.697 70.892 70.892 212.677-212.677z" />
<glyph unicode="&#xe90d;" glyph-name="icon_clock" d="M535.572-60.045c-269.317 0-487.619 218.302-487.619 487.614 0 269.317 218.302 487.622 487.619 487.622s487.624-218.302 487.624-487.622c0-269.317-218.307-487.614-487.624-487.614zM535.572 844.005c-230.164 0-416.433-186.267-416.433-416.436 0-230.166 186.267-416.432 416.433-416.432 230.171 0 416.436 186.266 416.436 416.432 0 230.169-186.27 416.436-416.436 416.436zM701.679 356.381h-189.825c-20.168 0-35.592 15.428-35.592 35.591v249.15c0 20.17 15.424 35.592 35.592 35.592s35.591-15.424 35.591-35.592v-213.554h154.234c20.168 0 35.591-15.428 35.591-35.596 0-20.163-15.419-35.591-35.591-35.591z" />
<glyph unicode="&#xe90e;" glyph-name="icon_clock_exclamate" d="M512 21.333c208.171 0 384 175.829 384 384s-175.829 384-384 384c-208.171 0-384-175.829-384-384s175.829-384 384-384zM512 704c161.877 0 298.667-136.789 298.667-298.667s-136.789-298.667-298.667-298.667c-161.877 0-298.667 136.789-298.667 298.667s136.789 298.667 298.667 298.667zM737.446 801.833l60.254 60.426 128.405-128.038-60.254-60.426-128.405 128.038zM225.383 862.125l60.425-60.254-127.589-127.95-60.425 60.255 127.589 127.95zM469.333 576h85.333v-213.333h-85.333v213.333zM469.333 320h85.333v-85.333h-85.333v85.333z" />
<glyph unicode="&#xe90f;" d="M512 21.333c209.067 0 384 174.933 384 384s-174.933 384-384 384-384-174.933-384-384 174.933-384 384-384z" />
<glyph unicode="&#xe910;" d="M738.133 802.133l59.733 59.733 128-128-59.733-59.733-128 128z" />
<glyph unicode="&#xe911;" d="M226.133 861.867l59.733-59.733-128-128-59.733 59.733 128 128z" />
<glyph unicode="&#xe912;" d="M469.333 576h85.333v-213.333h-85.333v213.333zM469.333 320h85.333v-85.333h-85.333v85.333z" />
<glyph unicode="&#xe913;" glyph-name="icon_clock_negate" d="M865.81 673.8l-128.43 128.014 60.242 60.438 128.43-128.015-60.242-60.436zM821.346 184.508l90.337-90.339-45.849-45.849-753.518 753.519 45.849 45.849 33.673-33.673 33.546 33.632 45.914-45.784-33.61-33.697 59.496-59.497 7.014 4.809c60.002 41.124 131.609 65.62 207.8 65.62 202.516 0 373.76-171.245 373.76-373.76 0-76.192-24.494-147.798-65.62-207.8l-4.809-7.016 6.015-6.013zM759.607 246.247l9.216-9.216 6.773 11.133c28.172 46.307 45.312 99.969 45.312 157.174 0 167.533-141.375 308.906-308.908 308.906-57.205 0-110.866-17.138-157.172-45.31l-11.135-6.773 135.881-135.881v82.151h64.852v-147.005l23.663-23.663h147.005v-64.852h-82.151l126.665-126.665zM138.24 405.338c0 64.158 17.482 125.063 47.577 178.538l47.745-47.745c-19.327-39.903-30.469-84.267-30.469-130.793 0-167.533 141.374-308.906 308.906-308.906 46.526 0 90.89 11.141 130.796 30.468l47.743-47.745c-53.475-30.095-114.381-47.577-178.538-47.577-202.514 0-373.76 171.246-373.76 373.76z" />
<glyph unicode="&#xe914;" glyph-name="icon_cloud" d="M850.215 505.39l0.929-7.99 7.775-2.065c82.593-21.933 145.223-103.888 145.223-202.437 0-115.81-86.071-208.203-189.763-208.203h-554.333c-131.458 0-240.154 117.090-240.154 263.207 0 114.936 77.926 221.854 181.179 255.538l5.287 1.725 2.040 5.173c53.527 135.718 170.175 220.788 303.617 220.788 172.536 0 316.767-141.463 338.2-325.736zM241.345 525.345h-0.002c-80.015-15.346-144.293-94.722-144.293-177.441 0-96.508 72.168-176.829 162.997-176.829h554.333c63.063 0 112.605 55.623 112.605 121.824s-49.542 121.824-112.605 121.824h-38.577v43.189c0 157.176-117.37 286.836-263.786 286.836-111.99 0-204.030-74.182-240.766-191.165l-7.552-23.955-22.354-4.283z" />
<glyph unicode="&#xe915;" glyph-name="icon_cloud_download" d="M794.010 494.533c-18.042 142.122-139.766 252.367-286.72 252.367-113.796 0-212.645-66.519-257.775-171.355-88.692-26.508-155.128-110.245-155.128-200.258 0-113.836 92.614-206.452 206.452-206.452h41.29v82.581h-41.29c-68.294 0-123.871 55.577-123.871 123.871 0 57.972 49.507 113.839 110.369 124.532l23.99 4.212 7.928 23.040c29.028 84.688 101.078 137.249 188.035 137.249 113.839 0 206.452-92.613 206.452-206.452v-41.29h41.29c45.545 0 82.581-37.036 82.581-82.581 0-45.542-37.036-82.581-82.581-82.581h-82.581v-82.581h82.581c91.086 0 165.161 74.075 165.161 165.161 0 77.669-53.882 142.947-126.183 160.537zM548.58 375.286v165.161h-82.581v-165.161h-123.871l165.161-206.452 165.161 206.452h-123.871z" />
<glyph unicode="&#xe916;" glyph-name="icon_comments" d="M513.86 826.020c-225.853 0-409.6-137.789-409.6-307.2 0-112.312 81.183-219.3 204.8-273.531v-197.509l218.685 164.004c219.423 5.53 395.715 141.107 395.715 307.036 0 169.411-183.747 307.2-409.6 307.2zM513.86 293.54h-13.64l-109.24-81.92v90.276l-27.156 9.708c-106.25 38.093-177.644 121.364-177.644 207.217 0 124.191 147.005 225.28 327.68 225.28s327.68-101.089 327.68-225.28c0-124.191-147.005-225.28-327.68-225.28z" />
<glyph unicode="&#xe917;" glyph-name="icon_commerce" d="M802.369 851.68h-414.814c-45.753 0-82.964-37.209-82.964-82.963v-248.89h-82.962c-45.754 0-82.963-37.208-82.963-82.961v-373.333c0-22.898 18.542-41.483 41.481-41.483h663.705c22.938 0 41.481 18.586 41.481 41.483v705.184c0 45.754-37.208 82.963-82.964 82.963zM221.63 436.867h248.89v-331.853h-248.89v331.853zM802.369 105.014h-248.889v331.853c0 45.753-37.208 82.961-82.961 82.961h-82.964v248.89h414.814v-663.704zM470.508 685.75h82.964v-82.964h-82.964v82.964zM636.436 685.75h82.961v-82.964h-82.961v82.964zM636.436 518.539h82.961v-81.678h-82.961v81.678zM636.436 353.897h82.961v-82.961h-82.961v82.961zM304.583 353.857h82.964v-82.964h-82.964v82.964z" />
<glyph unicode="&#xe918;" glyph-name="icon_copy" d="M859.202 838.48h-409.6c-45.181 0-81.922-36.741-81.922-81.92v-163.84h-163.84c-45.179 0-81.92-36.741-81.92-81.92v-409.6c0-45.179 36.741-81.92 81.92-81.92h409.602c45.179 0 81.92 36.741 81.92 81.92v163.84h163.84c45.179 0 81.92 36.741 81.92 81.92v409.6c0 45.179-36.741 81.92-81.92 81.92zM203.84 101.2v409.6h409.602l0.082-409.6h-409.684zM859.202 346.96h-163.84v163.84c0 45.179-36.741 81.92-81.92 81.92h-163.84v163.84h409.6v-409.6zM285.76 428.88h245.762v-81.92h-245.762v81.92zM285.76 265.040h245.762v-81.92h-245.762v81.92z" />
<glyph unicode="&#xe919;" glyph-name="icon_details" d="M758.76-20.285c47.104 0 85.333 43.691 85.333 97.524v585.142l-255.998 292.572h-341.333c-47.104 0-85.333-43.691-85.333-97.524v-780.19c0-53.833 38.229-97.524 85.333-97.524h511.998zM545.429 857.428l213.331-243.81h-170.664c-23.595 0-42.667 0-42.667 0v243.81zM289.429 662.381h128v-97.524h-128v97.524zM289.429 467.334h426.664v-97.524h-426.664v97.524zM289.429 272.286h426.664v-97.524h-426.664v97.524z" />
<glyph unicode="&#xe91a;" glyph-name="icon_download" d="M989.867-20.114h-975.238v107.276h975.238v-107.276zM502.248 194.438l-424.229 433.981h243.81v326.705h365.714v-326.705h243.81l-429.105-433.981zM307.2 530.895l195.048-195.048 195.048 195.048h-107.276v326.705h-170.667v-326.705h-112.152z" />
<glyph unicode="&#xe91b;" glyph-name="icon_download-light" d="M1016.415-45.037h-986.074v109.985h986.074v-109.985zM523.378 174.933l-432.356 436.148h246.519v329.956h367.881v-329.956h246.519l-428.563-436.148zM227.556 554.193l295.822-299.615 295.822 299.615h-166.874v329.956h-254.104v-329.956h-170.667z" />
<glyph unicode="&#xe91c;" glyph-name="icon_ellipse-point" d="M916.705 435.418c0-254.452-183.353-460.725-409.531-460.725s-409.531 206.274-409.531 460.725c0 254.452 183.353 460.725 409.531 460.725s409.531-206.274 409.531-460.725z" />
<glyph unicode="&#xe91d;" glyph-name="icon_exclamation" d="M480.142 520.818h63.716v-191.147h-63.716v191.147zM480.142 265.956h63.716v-63.716h-63.716v63.716zM188.871 154.453l-9.102-15.929h662.187l-9.102 15.929-314.027 591.644-9.102 18.204-9.102-18.204-311.751-591.644zM512 814.364c27.307 0 52.338-15.929 65.991-38.684 0 0 0 0 0 0l314.027-591.644c11.378-22.756 11.378-50.062-2.276-72.818s-36.409-36.409-63.716-36.409h-628.053c-27.307 0-50.062 13.653-63.716 36.409s-13.653 50.062-2.276 72.818c0 0 0 0 0 0l314.027 591.644c13.653 25.031 38.684 38.684 65.991 38.684z" />
<glyph unicode="&#xe91e;" glyph-name="icon_files" d="M476.554 786.708v0l7.877-3.938h433.231c51.2 0 90.585-39.385 90.585-86.646v-571.077c0-47.262-39.385-86.646-90.585-86.646h-807.385c-51.2 0-90.585 39.385-90.585 86.646v665.6c0 47.262 39.385 86.646 90.585 86.646h252.062c11.815 0 19.692-3.938 27.569-11.815v0l86.646-78.769zM98.462 125.046v-11.815h831.015v594.708h-831.015v-582.892z" />
<glyph unicode="&#xe91f;" glyph-name="icon_files2" d="M527.754 361.354c-7.877 0-15.754 3.938-23.631 3.938l-456.862 244.185c0 0-15.754 19.692-15.754 27.569 0 23.631 7.877 31.508 23.631 39.385l441.108 228.431c15.754 7.877 31.508 7.877 47.262 0l445.046-228.431c15.754-7.877 23.631-23.631 23.631-39.385s-7.877-31.508-23.631-39.385l-437.169-232.369c-7.877-3.938-15.754-3.938-23.631-3.938zM110.277 597.662l405.662-212.677c7.877-3.938 19.692-3.938 27.569 0l441.108 228.431c7.877 3.938 11.815 11.815 11.815 19.692s-3.938 15.754-11.815 19.692l-445.046 232.369c-7.877 3.938-15.754 3.938-23.631 0l-421.415-212.677c-47.262-15.754-35.446-39.385-23.631-51.2l39.385-23.631zM527.754 432.246l-393.846 204.8 393.846 200.862 393.846-204.8-393.846-200.862zM185.108 637.046l342.646-177.231 338.708 177.231-342.646 177.231-338.708-177.231zM527.754 176.246c-7.877 0-15.754 0-23.631 3.938l-445.046 232.369 47.262 78.769 417.477-216.615 421.415 216.615 47.262-78.769-441.108-228.431c-7.877-3.938-15.754-7.877-23.631-7.877zM98.462 424.369l417.477-216.615c7.877-3.938 15.754-3.938 23.631 0l417.477 216.615-19.692 31.508-409.6-212.677-15.754 7.877-393.846 204.8-19.692-31.508zM527.754-4.923c-7.877 0-15.754 0-23.631 3.938l-445.046 228.431 47.262 78.769 421.415-212.677 417.477 216.615 47.262-78.769-441.108-232.369c-7.877-3.938-15.754-3.938-23.631-3.938zM98.462 239.262l417.477-216.615c7.877-3.938 15.754-3.938 23.631 0l417.477 216.615-19.692 31.508-409.6-212.677-15.754 7.877-393.846 204.8-19.692-31.508z" />
<glyph unicode="&#xe920;" glyph-name="icon_history" d="M513.88 621.22v-204.8h204.8v81.92h-122.88v122.88h-81.92zM894.48 600.858c-9.257 21.914-20.685 43.008-33.956 62.628-13.189 19.579-28.303 37.929-45.015 54.6s-34.98 31.744-54.559 44.974c-19.743 13.353-40.837 24.74-62.587 33.956-22.323 9.421-45.629 16.671-69.222 21.504-48.374 9.953-100.106 9.994-148.521 0-23.716-4.833-46.981-12.083-69.222-21.463-21.75-9.216-42.803-20.603-62.628-33.997-19.538-13.189-37.929-28.344-54.6-45.015s-31.826-35.062-45.015-54.559c-13.353-19.825-24.781-40.878-33.956-62.587-9.421-22.282-16.671-45.588-21.504-69.222-4.956-24.248-7.496-49.234-7.496-74.301 0-0.328 0.041-0.696 0.041-1.024h-81.961l122.88-162.816 122.88 162.816h-81.879c0 0.328-0.041 0.696-0.041 1.024 0 19.538 1.966 38.994 5.816 57.836 3.768 18.391 9.38 36.454 16.712 53.78 7.127 16.876 16.015 33.3 26.419 48.66 10.24 15.196 22.036 29.45 35.021 42.476s27.279 24.781 42.435 35.021c15.401 10.404 31.826 19.292 48.742 26.46 17.244 7.332 35.348 12.943 53.78 16.712 37.642 7.741 77.988 7.7 115.63 0 18.309-3.768 36.454-9.38 53.78-16.712 16.916-7.127 33.3-16.056 48.66-26.378 15.155-10.281 29.491-22.077 42.476-35.062 12.984-12.943 24.74-27.238 35.021-42.476 10.322-15.237 19.21-31.621 26.419-48.701 7.291-17.080 12.861-35.143 16.712-53.698 3.85-18.964 5.816-38.42 5.816-57.917s-1.966-38.953-5.816-57.754c-3.85-18.637-9.421-36.7-16.712-53.821-7.209-17.039-16.097-33.382-26.46-48.701-10.24-15.196-21.996-29.491-34.98-42.435-12.984-12.984-27.32-24.781-42.435-35.021-15.401-10.363-31.744-19.292-48.701-26.46-17.326-7.332-35.43-12.943-53.78-16.712-37.601-7.7-77.906-7.741-115.63 0-18.391 3.768-36.454 9.38-53.78 16.712-16.876 7.127-33.3 16.015-48.66 26.419-15.196 10.24-29.45 22.036-42.476 35.021l-57.917-57.917c16.671-16.712 35.021-31.826 54.559-45.015 19.784-13.353 40.878-24.781 62.587-33.956 22.282-9.421 45.588-16.671 69.222-21.504 24.207-4.956 49.193-7.496 74.26-7.496s50.094 2.54 74.26 7.496c23.634 4.833 46.94 12.042 69.222 21.463 21.791 9.216 42.885 20.644 62.71 34.038 19.497 13.189 37.806 28.303 54.477 44.974s31.785 35.021 44.974 54.518c13.312 19.661 24.74 40.755 33.997 62.628 9.339 22.036 16.589 45.302 21.504 69.304 4.956 24.248 7.496 49.234 7.496 74.22s-2.54 49.971-7.496 74.301c-4.915 23.92-12.165 47.186-21.504 69.181z" />
<glyph unicode="&#xe921;" glyph-name="icon_home" d="M135.333 412.937v11.378h-59.906c-14.881 0-28.525 9.189-34.293 23.45l-0.006 0.015c-5.83 14.359-2.569 30.841 8.116 41.749l436.758 445.798c14.51 14.814 37.85 14.814 52.364 0l436.755-445.798c10.684-10.907 13.945-27.39 8.116-41.749l-0.004-0.015c-5.769-14.26-19.414-23.45-34.293-23.45h-59.908v-358.112c0-48.572-38.654-87.689-85.678-87.689h-582.342c-47.025 0-85.679 39.117-85.679 87.689v346.734zM403.748 66.203v-11.378h216.868v270.423h-216.868v-259.045zM520.31 846.192l-8.128 8.296-302.548-308.813v-490.849h119.812v259.045c0 48.572 38.655 87.689 85.679 87.689h194.112c47.024 0 85.682-39.117 85.682-87.689v-259.045h119.861v11.382l-0.049 247.664v231.803l-294.423 300.517z" />
<glyph unicode="&#xe922;" glyph-name="icon_location" d="M512.004 862.040c-180.675 0-327.681-147.005-327.681-327.475-1.188-263.987 315.229-482.877 327.681-491.725 0 0 328.868 227.738 327.68 491.52 0 180.675-147.005 327.68-327.68 327.68zM512.004 370.52c-90.522 0-163.841 73.318-163.841 163.84s73.318 163.84 163.841 163.84c90.522 0 163.84-73.318 163.84-163.84s-73.318-163.84-163.84-163.84z" />
<glyph unicode="&#xe923;" glyph-name="icon_mail" d="M921.6 841.56h-819.2c-56.474 0-102.4-45.926-102.4-102.4v-614.4c0-56.472 45.926-102.4 102.4-102.4h819.2c56.472 0 102.4 45.928 102.4 102.4v614.4c0 56.474-45.928 102.4-102.4 102.4zM921.6 739.16v-26.163l-409.6-318.618-409.6 318.566v26.214h819.2zM102.4 124.76v458.547l378.163-294.142c9.216-7.221 20.324-10.805 31.437-10.805 11.108 0 22.221 3.584 31.437 10.805l378.163 294.142 0.102-458.547h-819.302z" />
<glyph unicode="&#xe924;" glyph-name="icon_mail-light" d="M843.323 681.194v8.258h-677.162v-33.438l338.582-263.333 338.581 263.375v25.138zM166.161 185.711v-8.258h677.245v8.258l-0.083 369.796-0.003 16.883-318.319-247.597c-5.923-4.638-13.074-6.953-20.259-6.953-7.188 0-14.339 2.316-20.262 6.953l-0.020 0.020-318.3 247.577v-386.679zM174.419 755.516h660.646c40.983 0 74.323-33.34 74.323-74.323v-495.483c0-40.983-33.339-74.323-74.323-74.323h-660.646c-40.982 0-74.323 33.339-74.323 74.323v495.483c0 40.982 33.34 74.323 74.323 74.323z" />
<glyph unicode="&#xe925;" glyph-name="icon_menu" d="M24.423 840.654h972.035v-92.030h-972.035v92.030zM24.423 512.117h972.035v-92.028h-972.035v92.028zM24.423 183.58h972.035v-92.030h-972.035v92.030z" />
<glyph unicode="&#xe926;" glyph-name="icon_open" d="M829.28 800.295h-655.36c-45.179 0-81.92-36.741-81.92-81.92v-573.438c0-45.179 36.741-81.92 81.92-81.92h204.8v81.92h-204.8v491.518h655.36v-491.518h-204.8v-81.92h204.8c45.179 0 81.92 36.741 81.92 81.92v573.438c0 45.179-36.741 81.92-81.92 81.92zM542.56 63.017v204.8h122.88l-163.84 204.8-163.84-204.8h122.88v-204.8h81.92z" />
<glyph unicode="&#xe927;" glyph-name="icon_password" d="M521.702 920.667c-146.393 0-265.492-106.96-265.492-238.43v-89.96c0-29.325-23.773-53.098-53.098-53.098-58.62 0-106.196-42.726-106.196-95.372v-381.487c0-52.646 47.576-95.373 106.196-95.373h637.178c58.62 0 106.193 42.726 106.193 95.373v381.487c0 52.646-47.573 95.372-106.193 95.372-29.329 0-53.099 23.773-53.099 53.098v89.96c0 131.471-119.1 238.43-265.489 238.43zM362.406 682.237c0 78.873 71.47 143.058 159.296 143.058 87.821 0 159.292-64.185 159.292-143.058 0-79.009-64.047-143.058-143.057-143.058h-32.474c-79.008 0-143.057 64.049-143.057 143.058zM606.69 196.237c-16.218-19.277-31.893-41.135-31.893-66.325v-14.494c0-29.325-23.77-53.099-53.094-53.099-29.329 0-53.1 23.774-53.1 53.099v14.494c0 25.19-15.677 47.049-31.899 66.321-18.118 21.525-26.24 50.138-17.96 80.721 9.345 34.334 41.417 62.089 79.966 69.286 68.71 12.971 129.186-33.715 129.186-93.18 0-21.397-7.906-41.015-21.205-56.823z" />
<glyph unicode="&#xe928;" glyph-name="icon_pdf" d="M329.585 322.47c-9.236 0-15.46-0.904-18.673-1.807v-59.13c3.815-0.904 8.584-1.154 15.159-1.154 24.044 0 38.852 12.146 38.852 32.678 0 18.372-12.75 29.413-35.338 29.413zM504.618 321.867c-10.038 0-16.565-0.904-20.429-1.807v-131.012c3.864-0.904 10.089-0.904 15.709-0.904 41.011-0.301 67.717 22.287 67.717 70.075 0.301 41.662-24.046 63.648-62.997 63.648zM617.358 958.956h-401.568c-55.416 0-100.392-44.976-100.392-100.392v-803.138c0-55.416 44.976-100.391 100.392-100.391h602.354c55.416 0 100.391 44.975 100.391 100.391v602.353l-301.176 301.177zM391.375 246.673c-15.51-14.556-38.4-21.082-65.054-21.082-5.973 0-11.344 0.301-15.46 0.904v-71.578h-44.875v197.572c13.955 2.307 33.581 4.114 61.189 4.114 27.959 0 47.837-5.319 61.239-16.011 12.751-10.141 21.382-26.757 21.382-46.333-0.048-19.676-6.575-36.292-18.421-47.586zM582.472 178.658c-21.082-17.519-53.158-25.85-92.362-25.85-23.492 0-40.108 1.506-51.402 3.012v196.617c16.616 2.711 38.301 4.165 61.19 4.165 37.999 0 62.696-6.825 81.971-21.384 20.829-15.459 33.882-40.105 33.882-75.493 0-38.301-14.005-64.753-33.28-81.068zM767.946 317.952h-76.899v-45.728h71.879v-36.846h-71.879v-80.514h-45.478v200.231h122.377v-37.144zM617.358 607.584c-27.759 0-50.197 0-50.197 0v250.979l250.982-250.979h-200.785z" />
<glyph unicode="&#xe929;" glyph-name="icon_pencil" d="M202.407 91.816c3.318 0 6.636 0.41 9.912 1.229l163.84 40.96c7.209 1.802 13.804 5.53 19.046 10.772l503.523 503.521c15.483 15.483 24.003 36.045 24.003 57.917s-8.52 42.435-24.003 57.917l-64.963 64.963c-30.966 30.966-84.869 30.966-115.835 0l-503.523-503.521c-5.243-5.243-8.97-11.837-10.772-19.005l-40.96-163.84c-3.523-13.967 0.614-28.713 10.772-38.912 7.741-7.782 18.227-12.001 28.959-12.001zM775.848 771.178l64.963-64.963-64.963-64.963-64.963 64.963 64.963 64.963zM280.354 275.685l372.614 372.613 64.963-64.963-372.655-372.613-86.589-21.627 21.668 86.589z" />
<glyph unicode="&#xe92a;" glyph-name="icon_phone" d="M631.118 307.984h4.18l91.951 91.951c8.149 7.739 19.192 12.499 31.347 12.499s23.198-4.76 31.367-12.518l-0.020 0.019 221.518-221.518c7.739-8.149 12.499-19.192 12.499-31.347s-4.76-23.198-12.518-31.367l0.019 0.020-150.465-150.465c-16.769-18.069-40.648-29.34-67.159-29.34-1.37 0-2.732 0.030-4.087 0.090l0.193-0.007c-217.148 3.627-412.899 92.328-555.944 234.115l0.058-0.057c-140.007 144.052-228.178 339.134-234.033 554.763l-0.024 1.123c-0.053 1.162-0.083 2.525-0.083 3.894 0 26.511 11.271 50.39 29.282 67.106l0.058 0.053 150.465 150.465c8.149 7.739 19.192 12.499 31.347 12.499s23.198-4.76 31.367-12.518l-0.020 0.019 221.518-221.518c7.739-8.149 12.499-19.192 12.499-31.347s-4.76-23.198-12.518-31.367l0.019 0.020-91.951-91.951v-4.18c18.605-64.89 50.311-120.942 92.287-167.563l-0.336 0.38c44.412-44.776 101.258-77.153 164.929-91.523l2.255-0.428zM794.122 23.771h4.18l121.208 121.208-158.824 158.824-79.412-79.412c-7.686-8.56-18.788-13.92-31.142-13.92-3.788 0-7.458 0.504-10.947 1.448l0.293-0.067c-34.892 7.131-65.652 17.23-94.734 30.383l2.783-1.126c-58.134 22.244-108.084 53.387-150.846 92.293l0.381-0.342c-39.805 41.729-71.152 91.914-91.041 147.547l-0.91 2.918c-12.027 26.299-22.126 57.059-28.761 89.087l-0.496 2.865c-0.877 3.196-1.381 6.866-1.381 10.654 0 12.354 5.36 23.456 13.881 31.108l0.039 0.034 79.412 79.412-8.359 4.18-150.465 150.465-4.18-8.359-112.849-108.669v-8.359c5.586-192.474 84.271-365.551 209.117-493.333l-0.137 0.141c126.96-125.804 300.462-204.826 492.405-208.966l0.787-0.013z" />
<glyph unicode="&#xe92b;" glyph-name="icon_play" d="M242.902 764.726v-642.977l528.67 321.488-528.67 321.488z" />
<glyph unicode="&#xe92c;" glyph-name="icon_plus" d="M503.254 947.735c-276.78 0-501.96-225.179-501.96-501.961s225.18-501.962 501.96-501.962c276.781 0 501.962 225.181 501.962 501.962s-225.181 501.961-501.962 501.961zM754.236 395.577h-200.785v-200.782h-100.391v200.782h-200.785v100.394h200.785v200.784h100.391v-200.784h200.785v-100.394z" />
<glyph unicode="&#xe92d;" glyph-name="icon_plus2" d="M542.968 711.597h-61.935v-216.774h-216.774v-61.939h216.774v-216.774h61.935v216.774h216.777v61.939h-216.777v216.774z" />
<glyph unicode="&#xe92e;" glyph-name="icon_ruc" d="M178.515 404.151h-85.455v-170h-76.667v441.212h155.152c50.909 0 90.202-11.414 117.879-34.242s41.514-55.859 41.514-99.091c0-29.495-7.171-54.242-21.514-74.242-14.141-19.798-33.939-35.051-59.394-45.758l99.092-183.938v-3.941h-82.122l-88.485 170zM93.060 465.667h78.788c25.858 0 46.060 6.465 60.606 19.394 14.545 13.131 21.818 31.010 21.818 53.636 0 23.636-6.768 41.919-20.303 54.849-13.333 12.929-33.333 19.596-60 20h-80.909v-147.879zM595.183 266.274c-21.619-25.457-52.323-38.183-92.123-38.183-35.555 0-62.526 10.404-80.908 31.21-18.181 20.809-27.273 50.911-27.273 90.304v212.424h73.635v-211.515c0-41.615 17.275-62.424 51.821-62.424 35.756 0 59.898 12.828 72.422 38.484v235.455h73.638v-327.879h-69.393l-1.818 32.123zM876.091 286.878c18.382 0 33.637 5.353 45.757 16.061 12.12 10.705 18.587 23.94 19.394 39.697h69.393c-0.807-20.406-7.171-39.495-19.090-57.273-11.919-17.576-28.079-31.514-48.485-41.82-20.406-10.302-42.425-15.453-66.060-15.453-45.86 0-82.221 14.848-109.090 44.544-26.869 29.699-40.305 70.709-40.305 123.031v7.576c0 49.899 13.334 89.798 40.001 119.697 26.667 30.101 63.032 45.152 109.090 45.152 38.99 0 70.709-11.414 95.151-34.243 24.647-22.626 37.578-52.424 38.788-89.394h-69.393c-0.807 18.788-7.274 34.243-19.394 46.364-11.919 12.121-27.17 18.182-45.757 18.182-23.837 0-42.223-8.687-55.15-26.060-12.93-17.172-19.496-43.334-19.698-78.485v-11.818c0-35.555 6.364-62.12 19.090-79.696 12.93-17.374 31.514-26.062 55.758-26.062z" />
<glyph unicode="&#xe92f;" glyph-name="icon_search" d="M728.503 202.24l-11.703 11.703-11.703-8.777c-70.217-52.663-160.914-84.846-257.463-84.846-231.131-2.926-418.377 181.394-418.377 403.749s187.246 406.674 418.377 406.674c231.131 0 418.377-184.32 418.377-406.674 0-93.623-32.183-178.469-87.771-248.686l-11.703-14.629 11.703-11.703 225.28-219.429-49.737-49.737-225.28 222.354zM795.794 524.069c0 187.246-155.063 336.457-348.16 336.457-190.171 0-345.234-149.211-345.234-336.457s155.063-336.457 348.16-336.457c187.246 0 345.234 149.211 345.234 336.457z" />
<glyph unicode="&#xe930;" glyph-name="icon_send" d="M859.202 719.9h-351.683l-69.919 69.919c-7.66 7.7-18.104 12.001-28.96 12.001h-204.8c-45.179 0-81.92-36.741-81.92-81.92v-573.439c0-45.179 36.741-81.92 81.92-81.92h655.362c45.179 0 81.92 36.741 81.92 81.92v491.519c0 45.179-36.741 81.92-81.92 81.92zM203.84 146.461v491.519h655.362l0.082-491.519h-655.444zM746.484 351.261h-214.962v-122.88l-214.961 163.84 214.961 163.839v-122.879h214.962v-81.92z" />
<glyph unicode="&#xe931;" glyph-name="icon_share" d="M235.36 308.777c37.274 0 70.984 14.664 96.543 38.093l256.41-146.514c-2.826-11.264-4.792-22.815-4.792-34.939 0-79.053 64.307-143.36 143.36-143.36s143.36 64.307 143.36 143.36c0 79.053-64.307 143.36-143.36 143.36-37.274 0-70.984-14.664-96.543-38.093l-256.41 146.514c2.58 10.117 4.219 20.562 4.424 31.457l251.945 143.972c25.6-23.429 59.31-38.093 96.584-38.093 79.053 0 143.36 64.307 143.36 143.36s-64.307 143.36-143.36 143.36c-79.053 0-143.36-64.307-143.36-143.36 0-12.124 1.966-23.675 4.792-34.939l-232.817-133.077c-25.6 39.401-69.796 65.616-120.136 65.616-79.053 0-143.36-64.305-143.36-143.358s64.307-143.36 143.36-143.36zM726.88 226.857c33.874 0 61.44-27.566 61.44-61.44s-27.566-61.44-61.44-61.44c-33.874 0-61.44 27.566-61.44 61.44s27.566 61.44 61.44 61.44zM726.88 759.335c33.874 0 61.44-27.566 61.44-61.44s-27.566-61.44-61.44-61.44c-33.874 0-61.44 27.566-61.44 61.44s27.566 61.44 61.44 61.44zM235.36 513.577c33.874 0 61.44-27.566 61.44-61.44s-27.566-61.44-61.44-61.44c-33.874 0-61.44 27.566-61.44 61.44s27.566 61.44 61.44 61.44z" />
<glyph unicode="&#xe932;" glyph-name="icon_signature" d="M97.203 97.126v-11.815h830.037v11.819l-0.102 703.705v11.813h-829.934v-715.522zM109.019 889.548h806.304c49.089 0 88.974-39.826 88.974-88.714v-703.707c0-48.888-39.885-88.714-88.974-88.714h-806.304c-49.087 0-88.972 39.826-88.972 88.714v703.707c0 48.888 39.885 88.714 88.972 88.714zM221.623 688.49h581.098v-76.899h-581.098v76.899zM221.623 487.432h581.098v-76.898h-581.098v76.898zM221.623 286.373h278.735v-76.898h-278.735v76.898z" />
<glyph unicode="&#xe933;" glyph-name="icon_sort" d="M535.996 708.658l-180.002 240.004c-11.308 15.118-36.68 15.118-47.988 0l-180.002-240.004c-14.798-19.688-0.71-47.988 23.994-47.988h90.002v-570.006c0-16.582 13.418-30 30-30h120c16.582 0 29.6 13.418 29.6 30v570.006h90.4c24.726 0 38.778 28.32 23.996 47.988zM872.006 235.99h-90.402v570.008c0 16.582-13.018 30-29.6 30h-120.002c-16.582 0-30-13.418-30-30v-570.006h-90.002c-24.706 0-38.792-28.3-23.994-47.988l180.004-240.004c11.978-16.012 36.028-15.988 47.988 0l180.002 240.002c14.782 19.668 0.73 47.988-23.994 47.988z" />
<glyph unicode="&#xe934;" glyph-name="icon_sort2" d="M502.624 710.624l-112 112c-12.48 12.496-32.768 12.496-45.248 0l-112-112c-12.496-12.496-12.496-32.752 0-45.248 12.48-12.496 32.768-12.496 45.248 0l57.376 57.376v-626.752c0-17.664 14.336-32 32-32s32 14.336 32 32v626.752l57.376-57.376c6.24-6.256 14.432-9.376 22.624-9.376s16.384 3.12 22.624 9.376c12.496 12.496 12.496 32.752 0 45.248zM790.624 230.624c-12.496 12.496-32.752 12.496-45.248 0l-57.376-57.376v626.752c0 17.664-14.336 32-32 32s-32-14.336-32-32v-626.752l-57.376 57.376c-12.496 12.496-32.768 12.496-45.248 0-12.496-12.496-12.496-32.752 0-45.248l112-112c6.256-6.256 14.432-9.376 22.624-9.376s16.368 3.12 22.624 9.376l112 112c12.496 12.496 12.496 32.752 0 45.248z" />
<glyph unicode="&#xe935;" glyph-name="icon_three-bullets" d="M504.808 577.857c-67.046 0-121.903-54.857-121.903-121.905s54.857-121.905 121.903-121.905c67.048 0 121.905 54.857 121.905 121.905s-54.857 121.905-121.905 121.905zM870.522 577.857c-67.048 0-121.905-54.857-121.905-121.905s54.857-121.905 121.905-121.905c67.048 0 121.905 54.857 121.905 121.905s-54.857 121.905-121.905 121.905zM139.095 577.857c-67.048 0-121.905-54.857-121.905-121.905s54.857-121.905 121.905-121.905c67.048 0 121.905 54.857 121.905 121.905s-54.857 121.905-121.905 121.905z" />
<glyph unicode="&#xe936;" glyph-name="icon_three-bullets-vertical" d="M384 448c0-71.68 56.32-128 128-128s128 56.32 128 128c0 71.68-56.32 128-128 128s-128-56.32-128-128zM384 832c0-71.68 56.32-128 128-128s128 56.32 128 128-56.32 128-128 128-128-56.32-128-128zM384 64c0-71.68 56.32-128 128-128s128 56.32 128 128-56.32 128-128 128-128-56.32-128-128z" />
<glyph unicode="&#xe937;" glyph-name="icon_trash-light" d="M298.29 672.935h8.258v90.839c0 40.982 33.34 74.323 74.324 74.323h247.742c40.983 0 74.323-33.34 74.323-74.323v-90.839h165.161v-66.064h-82.581v-503.742c0-40.983-33.339-74.323-74.323-74.323h-412.904c-40.982 0-74.323 33.339-74.323 74.323v503.742h-82.581v66.064h156.903zM380.872 772.032h-8.258v-99.097h264.258v99.097h-256zM711.194 94.872h8.258v512h-429.42v-512h421.162z" />
<glyph unicode="&#xe938;" glyph-name="icon_upload" d="M512 877.105l482.743-487.619h-273.067v-365.714h-414.476v365.714h-273.067l477.867 487.619zM731.429 496.762l-219.429 224.305-219.429-224.305h121.905v-365.714h190.171v365.714h126.781z" />
<glyph unicode="&#xe939;" glyph-name="icon_upload2" d="M451.97 930.847c-17.203 21.252-53.325 21.252-70.528 0l-361.215-447.403c-10.836-13.467-12.913-31.855-5.418-47.38 7.54-15.433 23.298-25.322 40.682-25.322h180.608v-313.183c0-24.742 20.183-44.739 45.152-44.739h270.91c24.971 0 45.154 19.997 45.154 44.739v313.183h180.609c17.384 0 33.139 9.889 40.682 25.322 7.495 15.526 5.417 33.914-5.417 47.38l-361.217 447.403zM552.16 500.221h-45.149v-357.924h-180.609v357.924h-176.951l267.255 331.034 267.252-331.034h-131.799z" />
<glyph unicode="&#xe93a;" glyph-name="icon_user" d="M300.496 701.58c0-129.95 99.436-235.7 221.628-235.7 122.19 0 221.625 105.75 221.625 235.7s-99.435 235.702-221.625 235.702c-122.192 0-221.628-105.752-221.628-235.702zM916.124-57.905c27.203 0 49.25 22.052 49.25 49.25v3.13c0 202.129-154.695 366.645-344.75 366.645h-197.002c-190.106 0-344.752-164.517-344.752-366.645v-3.13c0-27.198 22.050-49.25 49.25-49.25h788.004z" />
<glyph unicode="&#xe93b;" glyph-name="icon_user_check" d="M673.564 416.142l9.102-9.102 184.32 184.32 43.236-43.236-227.556-227.556-100.124 100.124 43.236 43.236 47.787-47.787zM341.333 459.378c-91.022 0-159.289 68.267-159.289 159.289s68.267 159.289 159.289 159.289 159.289-68.267 159.289-159.289-68.267-159.289-159.289-159.289zM341.333 520.818c27.307 0 52.338 9.102 70.542 27.307s27.307 40.96 27.307 70.542-9.102 52.338-27.307 70.542c-18.204 18.204-40.96 27.307-70.542 27.307s-52.338-9.102-70.542-27.307c-18.204-18.204-27.307-40.96-27.307-70.542s9.102-52.338 27.307-70.542c18.204-15.929 43.236-27.307 70.542-27.307zM298.098 331.947c-77.369 0-138.809-61.44-138.809-138.809v-31.858h-61.44v31.858c0 111.502 91.022 202.524 202.524 202.524h86.471c111.502 0 202.524-91.022 202.524-202.524v-31.858h-65.991v31.858c0 77.369-61.44 138.809-138.809 138.809h-86.471z" />
<glyph unicode="&#xe93c;" glyph-name="icon_user_x" d="M694.044 500.338l50.062 50.062 109.227-109.227 109.227 109.227 50.062-50.062-109.227-109.227 109.227-109.227-50.062-50.062-109.227 109.227-109.227-109.227-50.062 50.062 109.227 109.227-109.227 109.227zM380.018 759.751c102.4 0 177.493-77.369 177.493-177.493 0-102.4-77.369-177.493-177.493-177.493s-177.493 77.369-177.493 177.493c-2.276 100.124 75.093 177.493 177.493 177.493zM380.018 686.933c-29.582 0-56.889-11.378-77.369-29.582-18.204-18.204-29.582-45.511-29.582-77.369 0-29.582 11.378-56.889 29.582-77.369 18.204-18.204 45.511-29.582 77.369-29.582 29.582 0 56.889 11.378 77.369 29.582 18.204 18.204 29.582 45.511 29.582 77.369 0 29.582-11.378 56.889-29.582 77.369-20.48 18.204-47.787 29.582-77.369 29.582zM332.231 259.129c-84.196 0-154.738-68.267-154.738-152.462v-36.409h-70.542v36.409c0 125.156 100.124 225.28 225.28 225.28h95.573c125.156 0 225.28-100.124 225.28-225.28v-36.409h-72.818v36.409c0 84.196-68.267 152.462-154.738 152.462h-93.298z" />
<glyph unicode="&#xe93d;" glyph-name="icon_users" d="M436.419 430.933c82.895 0 151.162 70.705 151.162 156.038s-68.267 156.038-151.162 156.038c-82.895 0-151.162-70.705-151.162-156.038 2.438-85.333 68.267-156.038 151.162-156.038zM492.495 391.924h-112.152c-124.343 0-224.305-104.838-224.305-234.057v-39.010h558.324v39.010c4.876 129.219-97.524 234.057-221.867 234.057zM702.171 469.943c21.943 41.448 31.695 87.771 29.257 134.095-7.314 70.705-43.886 131.657-104.838 173.105l-41.448-65.829c41.448-29.257 68.267-70.705 70.705-117.029 4.876-43.886-9.752-85.333-39.010-117.029l-43.886-46.324 60.952-19.505c158.476-48.762 160.914-214.552 160.914-216.99h75.581c-2.438 73.143-39.010 209.676-168.229 275.505z" />
<glyph unicode="&#xe93e;" glyph-name="icon_wf_settings" d="M309.476 479.858h405.049v-63.716h-405.049v63.716zM182.044 650.524h659.911v-63.716h-659.911v63.716zM439.182 309.191h147.911v-63.716h-147.911v63.716z" />
<glyph unicode="&#xe93f;" glyph-name="icon_workflows" d="M860.577 447.936l9.053-8.536 11.435 4.909c9.14 3.923 18.299 6.13 27.709 6.13 42.56 0 81.146-40.33 81.146-96.335 0-56.009-38.586-96.339-81.146-96.339s-81.146 40.33-81.146 96.339c0 4.828 0.611 9.667 1.434 15.819l1.289 9.641-137.512 129.593-12.265-7.206c-14.658-8.614-30.447-13.585-47.104-13.585-9.648 0-19.27 2.102-29.518 5.533l-13.115 4.391-159.653-217.268 2.814-9.125c3.315-10.737 5.313-21.686 5.313-33.094 0-56.005-38.586-96.336-81.146-96.336-42.562 0-81.148 40.33-81.148 96.336 0 8.461 1.227 16.68 3.232 25.039l2.274 9.489-142.793 164.456-11.812-3.65c-7.036-2.174-13.538-3.421-20.030-3.421-42.562 0-81.148 40.33-81.148 96.336s38.586 96.336 81.148 96.336c42.562 0 81.148-40.33 81.148-96.336 0-8.459-1.227-16.677-3.232-25.039l-2.274-9.486 142.793-164.458 11.812 3.652c7.036 2.173 13.538 3.421 20.030 3.421 4.278 0 8.71-0.611 13.976-1.657l11.832-2.348 159.141 216.613-4.21 9.932c-7.229 17.064-11.609 35.829-11.609 55.844 0 72.033 49.698 125.161 106.174 125.161 56.479 0 106.177-53.128 106.177-125.161 0-11.52-1.794-22.759-4.536-34.21l-2.556-10.68 128.023-120.699z" />
</font>
</defs>
</svg>
