<svg width="328" height="343" viewBox="0 0 328 343" fill="none" xmlns="http://www.w3.org/2000/svg">
<g clip-path="url(#clip0)">
<path d="M176.927 342.763C260.362 342.763 328 277.278 328 196.497C328 115.717 260.362 50.231 176.927 50.231C93.4921 50.231 25.8545 115.717 25.8545 196.497C25.8545 277.278 93.4921 342.763 176.927 342.763Z" fill="#F2F2F2"/>
<path d="M82.5921 162.469C86.8606 162.469 90.321 158.083 90.321 152.673C90.321 147.263 86.8606 142.877 82.5921 142.877C78.3236 142.877 74.8633 147.263 74.8633 152.673C74.8633 158.083 78.3236 162.469 82.5921 162.469Z" fill="#3F3D56"/>
<path d="M82.5921 150.496C86.8606 150.496 90.321 146.111 90.321 140.701C90.321 135.291 86.8606 130.905 82.5921 130.905C78.3236 130.905 74.8633 135.291 74.8633 140.701C74.8633 146.111 78.3236 150.496 82.5921 150.496Z" fill="#3F3D56"/>
<path d="M111.525 58.7682C112.581 57.4666 113.543 56.096 114.403 54.6661L94.0952 51.4369L116.059 51.595C118.166 47.1566 119.315 42.3486 119.437 37.4653C119.559 32.5819 118.65 27.7259 116.766 23.1943L87.2989 37.994L114.474 18.6536C111.928 14.394 108.504 10.6876 104.414 7.76534C100.324 4.84306 95.6561 2.76748 90.7015 1.66789C85.7468 0.568313 80.6114 0.46829 75.6151 1.37406C70.6188 2.27982 65.8687 4.17197 61.6606 6.93264C57.4526 9.6933 53.8767 13.2633 51.1559 17.4203C48.435 21.5774 46.6274 26.2323 45.8457 31.0951C45.064 35.958 45.3249 40.9246 46.6122 45.6856C47.8995 50.4465 50.1856 54.8999 53.328 58.7682C51.6821 60.7938 50.2666 62.9854 49.1059 65.3048L75.4673 78.5646L47.3587 69.4311C45.385 75.0797 44.8973 81.1158 45.9396 86.9929C46.9818 92.87 49.5213 98.4028 53.328 103.091C49.0328 108.378 46.3608 114.728 45.6177 121.416C44.8745 128.104 46.0902 134.86 49.1256 140.91C52.161 146.961 56.8937 152.062 62.7826 155.631C68.6715 159.201 75.4789 161.093 82.4265 161.093C89.3741 161.093 96.1815 159.201 102.07 155.631C107.959 152.062 112.692 146.961 115.727 140.91C118.763 134.86 119.978 128.104 119.235 121.416C118.492 114.728 115.82 108.378 111.525 103.091C116.657 96.7724 119.448 88.9675 119.448 80.9294C119.448 72.8912 116.657 65.0863 111.525 58.7682L111.525 58.7682Z" fill="#019A40"/>
<path opacity="0.1" d="M45.4053 80.929C45.3925 88.9692 48.1842 96.7781 53.328 103.09C49.0328 108.377 46.3609 114.728 45.6177 121.416C44.8746 128.104 46.0902 134.859 49.1256 140.91C52.161 146.96 56.8938 152.062 62.7826 155.631C68.6715 159.2 75.4789 161.093 82.4265 161.093C89.3741 161.093 96.1815 159.2 102.07 155.631C107.959 152.062 112.692 146.96 115.727 140.91C118.763 134.859 119.979 128.104 119.235 121.416C118.492 114.728 115.82 108.377 111.525 103.09C116.487 96.9914 45.4053 76.9061 45.4053 80.929Z" fill="black"/>
<path d="M285.776 293.117C276.196 326.169 202.274 356.823 123.665 335.465C45.0565 314.107 -8.47223 248.823 1.10796 215.771C10.6882 182.72 79.7495 194.415 158.358 215.774C236.967 237.132 295.356 260.065 285.776 293.117Z" fill="#3F3D56"/>
<path opacity="0.1" d="M285.776 293.117C276.196 326.169 202.274 356.823 123.665 335.465C45.0565 314.107 -8.47223 248.823 1.10796 215.771C10.6882 182.72 79.7495 194.415 158.358 215.774C236.967 237.132 295.356 260.065 285.776 293.117Z" fill="black"/>
<path d="M285.776 293.116C295.357 260.064 239.398 215.956 160.789 194.598C82.1799 173.24 10.6884 182.719 1.10822 215.771C-8.47199 248.823 47.4869 292.931 126.096 314.289C204.705 335.648 276.196 326.168 285.776 293.116Z" fill="#3F3D56"/>
<path opacity="0.1" d="M119.414 268.65C143.349 268.65 162.752 263.207 162.752 256.494C162.752 249.78 143.349 244.337 119.414 244.337C95.4799 244.337 76.0771 249.78 76.0771 256.494C76.0771 263.207 95.4799 268.65 119.414 268.65Z" fill="black"/>
<path d="M172.779 186.539L117.966 239.608L94.9279 217.302C93.451 215.872 91.4479 215.069 89.3592 215.069C87.2706 215.069 85.2675 215.872 83.7905 217.302L82.9629 216.104C79.8874 219.081 80.715 225.108 83.7905 228.085L113.682 257.026C114.809 258.116 116.336 258.729 117.929 258.73C119.523 258.73 121.051 258.118 122.178 257.028L183.91 197.322C186.988 194.346 188.104 188.888 185.028 185.91C181.953 182.933 175.853 183.562 172.779 186.539Z" fill="#57B894"/>
<path opacity="0.1" d="M172.779 186.539L117.966 239.608L94.9279 217.302C93.451 215.872 91.4479 215.069 89.3592 215.069C87.2706 215.069 85.2675 215.872 83.7905 217.302L82.9629 216.104C79.8874 219.081 80.715 225.108 83.7905 228.085L113.682 257.026C114.809 258.116 116.336 258.729 117.929 258.73C119.523 258.73 121.051 258.118 122.178 257.028L183.91 197.322C186.988 194.346 188.104 188.888 185.028 185.91C181.953 182.933 175.853 183.562 172.779 186.539Z" fill="black"/>
<path d="M199.469 274.522C199.469 274.522 194.567 275.946 192.116 278.793C192.116 278.793 187.705 280.692 185.009 280.217C182.313 279.743 177.411 284.488 181.332 285.912C185.254 287.336 209.273 291.133 209.763 289.946C210.254 288.76 210.254 276.658 210.254 276.658L199.469 274.522Z" fill="#575A89"/>
<path d="M237.975 272.484C237.975 272.484 233.396 274.698 231.484 277.909C231.484 277.909 227.472 280.509 224.731 280.487C221.991 280.465 217.999 285.952 222.114 286.707C226.229 287.461 250.565 287.23 250.839 285.98C251.112 284.73 248.977 272.805 248.977 272.805L237.975 272.484Z" fill="#575A89"/>
<path d="M207.435 111.617C213.526 111.617 218.464 106.836 218.464 100.939C218.464 95.0411 213.526 90.2603 207.435 90.2603C201.344 90.2603 196.406 95.0411 196.406 100.939C196.406 106.836 201.344 111.617 207.435 111.617Z" fill="#FFB9B9"/>
<path d="M216.381 102.719C216.381 102.719 217.607 110.787 219.813 111.736C221.347 112.467 222.753 113.428 223.979 114.584L217.852 117.431L205.842 116.719C205.842 116.719 206.822 111.499 205.107 108.888C203.391 106.278 216.381 102.719 216.381 102.719Z" fill="#FFB9B9"/>
<path d="M239.175 140.923C239.175 140.923 244.812 154.924 239.175 168.45C233.538 181.976 231.087 184.112 231.087 184.112L229.371 166.314L231.344 164.581C231.344 164.581 232.538 159.182 231.568 155.985C230.597 152.788 232.067 142.822 232.067 142.822L239.175 140.923Z" fill="#FFB9B9"/>
<path d="M197.019 171.298C197.019 171.298 189.911 186.959 190.646 194.553C191.381 202.146 197.019 234.181 197.019 234.181C197.019 234.181 196.283 275.471 198.489 275.471C200.695 275.471 211.234 279.268 211.234 276.658C211.234 274.047 213.44 211.401 213.44 211.401C213.44 211.401 225.94 238.927 227.165 241.063C228.391 243.199 236.234 276.658 238.93 276.658C241.626 276.658 249.959 274.285 249.224 272.624C248.489 270.963 240.155 233.944 235.499 224.452C230.842 214.96 231.822 179.128 231.822 179.128L223.979 162.518L197.019 171.298Z" fill="#2F2E41"/>
<path d="M204.127 96.0743C204.127 96.0743 197.264 95.5997 196.774 93.9386C196.283 92.2775 195.303 90.8538 195.793 90.8538C196.283 90.8538 196.529 89.6673 196.529 89.6673C196.529 89.6673 197.019 89.43 197.264 89.6673C197.509 89.9046 197.754 88.0062 197.754 88.0062C197.754 88.0062 197.999 87.2943 198.244 87.7689C198.489 88.2435 198.489 88.0062 198.734 87.2943C198.98 86.5824 200.205 86.1078 200.205 86.1078C200.205 86.1078 204.862 86.3451 205.597 85.3959C206.332 84.4467 214.666 85.1586 216.381 86.3451C218.097 87.5316 225.695 91.8029 224.469 95.3624C223.244 98.9219 218.832 106.753 218.832 107.939C218.832 109.126 217.117 108.888 216.626 107.702C216.136 106.515 212.215 105.092 212.215 104.38C212.215 103.668 210.009 97.0235 208.783 97.4981C207.558 97.9727 206.087 101.769 205.597 101.058C205.107 100.346 204.127 96.0743 204.127 96.0743Z" fill="#3F3D56"/>
<path d="M237.949 128.584C237.949 128.584 227.9 114.346 224.959 113.634C222.018 112.922 215.4 111.024 215.4 111.024C215.4 111.024 208.783 111.973 206.822 112.922C204.861 113.871 197.508 115.533 197.263 118.38C197.018 121.228 199.224 148.517 197.999 151.127C196.773 153.737 192.607 178.654 194.567 178.179C196.528 177.705 195.057 171.535 203.636 171.298C212.214 171.06 216.871 166.077 220.057 172.009C223.244 177.942 232.312 182.451 232.312 182.451C232.54 180.537 232.867 178.637 233.292 176.755C234.028 173.433 231.332 165.365 231.332 165.365C231.332 165.365 231.577 146.619 232.557 144.483C233.538 142.347 237.949 128.584 237.949 128.584Z" fill="#575A89"/>
<path d="M234.273 128.109L237.949 128.584C237.949 128.584 237.704 133.33 238.685 134.754C239.665 136.177 241.381 143.534 240.4 143.771C239.42 144.008 230.597 145.432 230.597 145.432L230.106 134.516L234.273 128.109Z" fill="#575A89"/>
<path d="M194.568 136.652C194.568 136.652 192.117 152.077 190.891 153.975C189.666 155.873 183.538 182.451 183.538 182.451C183.538 182.451 173.462 196.017 178.364 195.78C183.266 195.542 188.44 183.4 188.44 183.4C188.44 183.4 203.636 156.585 203.636 153.738C203.636 150.89 207.313 136.652 207.313 136.652H194.568Z" fill="#FFB9B9"/>
<path d="M201.676 115.77L197.264 117.431C197.264 117.431 191.627 136.889 192.852 138.551C194.078 140.212 208.783 137.839 209.028 137.127C209.274 136.415 206.332 115.77 201.676 115.77Z" fill="#575A89"/>
<path d="M4.61377 165.771C4.61377 182.307 15.3288 195.688 28.5704 195.688L4.61377 165.771Z" fill="#3F3D56"/>
<path d="M28.5708 195.688C28.5708 178.966 40.5281 165.435 55.305 165.435L28.5708 195.688Z" fill="#95949B"/>
<path d="M13.2939 167.27C13.2939 182.977 20.1267 195.688 28.5706 195.688L13.2939 167.27Z" fill="#95949B"/>
<path d="M28.5708 195.688C28.5708 174.321 42.3916 157.031 59.4714 157.031L28.5708 195.688Z" fill="#3F3D56"/>
<path d="M23.5308 195.899C23.5308 195.899 26.9282 195.798 27.9521 195.092C28.976 194.386 33.1782 193.543 33.4322 194.675C33.6863 195.807 38.538 200.306 34.7023 200.336C30.8666 200.366 25.7898 199.757 24.7679 199.155C23.746 198.552 23.5308 195.899 23.5308 195.899Z" fill="#A8A8A8"/>
<path opacity="0.2" d="M34.7707 199.942C30.935 199.972 25.8582 199.363 24.8363 198.761C24.0581 198.302 23.7479 196.655 23.6442 195.895C23.5723 195.898 23.5308 195.899 23.5308 195.899C23.5308 195.899 23.7459 198.552 24.7679 199.155C25.7898 199.758 30.8666 200.366 34.7023 200.336C35.8095 200.327 36.1919 199.946 36.1709 199.381C36.0171 199.722 35.5948 199.935 34.7707 199.942Z" fill="black"/>
<path d="M88.7074 170.632C89.7851 168.811 90.3419 166.745 90.3206 164.646C90.3206 159.236 86.8602 154.85 82.5917 154.85C78.3232 154.85 74.8629 159.236 74.8629 164.646C74.8416 166.745 75.3984 168.811 76.4761 170.632C75.4183 172.461 74.8629 174.522 74.8629 176.619C74.8629 178.715 75.4183 180.776 76.4761 182.605C75.4183 184.434 74.8629 186.495 74.8629 188.591C74.8629 190.687 75.4183 192.749 76.4761 194.578C75.4183 196.407 74.8629 198.468 74.8629 200.564C74.8629 202.66 75.4183 204.721 76.4761 206.55C75.3984 208.371 74.8416 210.438 74.8629 212.537C74.8629 217.947 78.3232 222.332 82.5917 222.332C86.8603 222.332 90.3206 217.947 90.3206 212.537C90.3419 210.438 89.7851 208.371 88.7074 206.55C89.7651 204.721 90.3206 202.66 90.3206 200.564C90.3206 198.468 89.7651 196.407 88.7074 194.578C89.7651 192.749 90.3206 190.687 90.3206 188.591C90.3206 186.495 89.7651 184.434 88.7074 182.605C89.7651 180.776 90.3206 178.715 90.3206 176.619C90.3206 174.522 89.7651 172.461 88.7074 170.632Z" fill="#8A8C8E"/>
<path d="M172.778 184.186L117.965 237.255L94.9274 214.95C93.4505 213.52 91.4474 212.717 89.3587 212.717C87.2701 212.717 85.2669 213.52 83.79 214.95C83.0587 215.658 82.4786 216.498 82.0829 217.423C81.6871 218.349 81.4834 219.34 81.4834 220.341C81.4834 221.343 81.6871 222.334 82.0829 223.259C82.4786 224.184 83.0587 225.025 83.79 225.733L113.682 254.673C114.808 255.764 116.336 256.377 117.929 256.377C119.522 256.378 121.05 255.765 122.177 254.675L183.91 194.969C184.641 194.262 185.222 193.421 185.618 192.496C186.014 191.571 186.218 190.58 186.219 189.578C186.219 188.577 186.015 187.585 185.62 186.66C185.224 185.735 184.644 184.894 183.913 184.186C182.436 182.757 180.433 181.954 178.345 181.954C176.257 181.954 174.255 182.757 172.778 184.186Z" fill="#F39200"/>
</g>
<defs>
<clipPath id="clip0">
<rect y="0.763184" width="328" height="342" fill="white"/>
</clipPath>
</defs>
</svg>
