<svg width="31" height="31" viewBox="0 0 31 31" fill="none" xmlns="http://www.w3.org/2000/svg">
<path d="M15.5654 0.220703C7.43393 0.220703 0.56543 7.0892 0.56543 15.2207C0.56543 23.3522 7.43393 30.2207 15.5654 30.2207C23.6969 30.2207 30.5654 23.3522 30.5654 15.2207C30.5654 7.0892 23.6969 0.220703 15.5654 0.220703ZM15.5654 7.7207C18.1559 7.7207 20.0654 9.6287 20.0654 12.2207C20.0654 14.8127 18.1559 16.7207 15.5654 16.7207C12.9764 16.7207 11.0654 14.8127 11.0654 12.2207C11.0654 9.6287 12.9764 7.7207 15.5654 7.7207ZM7.90643 22.3787C9.25193 20.3987 11.4959 19.0787 14.0654 19.0787H17.0654C19.6364 19.0787 21.8789 20.3987 23.2244 22.3787C21.3074 24.4307 18.5879 25.7207 15.5654 25.7207C12.5429 25.7207 9.82343 24.4307 7.90643 22.3787Z" fill="#C4C4C4"/>
</svg>
