<svg width="337" height="222" viewBox="0 0 337 222" fill="none" xmlns="http://www.w3.org/2000/svg">
<g clip-path="url(#clip0)">
<path d="M113.651 220.533H15.007C15.007 220.533 13.0075 190.879 24.8381 190.542C36.6687 190.205 35.3357 203.684 50.1656 185.15C64.9955 166.616 82.9913 167.627 85.3241 178.579C87.6569 189.531 80.8251 198.292 93.3223 195.596C105.819 192.901 123.815 199.977 113.651 220.533Z" fill="#019A40"/>
<path d="M62.664 220.54L62.3311 220.527C63.1075 201.002 67.1513 188.458 70.4069 181.372C73.9418 173.679 77.348 170.565 77.382 170.534L77.6035 170.786C77.57 170.816 74.2034 173.9 70.6969 181.541C67.4593 188.596 63.4376 201.089 62.664 220.54Z" fill="#F2F2F2"/>
<path d="M98.3658 220.58L98.0459 220.486C101.898 207.116 110.97 198.674 111.061 198.59L111.285 198.84C111.195 198.923 102.191 207.305 98.3658 220.58Z" fill="#F2F2F2"/>
<path d="M30.544 220.557L30.2138 220.51C31.5208 210.979 29.1599 203.583 26.9492 199.058C24.5554 194.158 21.8242 191.482 21.7969 191.456L22.0275 191.213C22.0552 191.239 24.8286 193.957 27.2479 198.909C29.4794 203.477 31.8626 210.94 30.544 220.557Z" fill="#F2F2F2"/>
<path d="M127.039 220.984H4.36745L4.33915 220.564C4.26863 219.519 2.70375 194.862 10.6045 186.064C12.3707 184.098 14.4983 183.065 16.928 182.996C22.078 182.848 25.3144 184.799 27.9247 186.364C32.8449 189.316 36.0952 191.266 47.913 176.496C60.7154 160.495 74.5287 157.053 82.4695 158.967C87.6001 160.204 91.1363 163.7 92.1713 168.559C93.1513 173.16 92.8391 177.483 92.5884 180.956C92.32 184.673 92.108 187.608 93.6176 188.939C94.8777 190.049 97.3929 190.15 101.533 189.256C109.953 187.44 121.702 188.994 127.599 196.699C130.772 200.844 133.272 208.379 127.162 220.735L127.039 220.984ZM5.20463 220.082H126.487C131.04 210.742 131.182 202.852 126.894 197.251C121.484 190.183 110.135 188.322 101.719 190.138C97.221 191.109 94.541 190.948 93.0318 189.618C91.1861 187.992 91.4125 184.858 91.699 180.891C91.9458 177.475 92.2527 173.223 91.2998 168.749C90.34 164.243 87.0462 160.997 82.2627 159.844C74.5753 157.99 61.148 161.389 48.6061 177.063C36.304 192.438 32.598 190.216 27.47 187.14C24.8275 185.555 21.827 183.758 16.9533 183.897C14.7752 183.959 12.8614 184.892 11.2645 186.671C4.16371 194.577 5.0307 216.749 5.20463 220.082Z" fill="#CFCCE0"/>
<path d="M248.253 157.445L212.564 151.17C218.944 137.791 221.859 124.573 219.368 111.604L255.056 117.879C249.506 130.271 247.164 143.886 248.253 157.445Z" fill="#F2F2F2"/>
<path d="M245.223 123.541L226.734 120.29L226.584 121.16L245.073 124.411L245.223 123.541Z" fill="#3F3D56"/>
<path d="M244.625 127.019L226.136 123.769L225.986 124.638L244.475 127.889L244.625 127.019Z" fill="#3F3D56"/>
<path d="M244.027 130.499L225.538 127.249L225.388 128.118L243.877 131.369L244.027 130.499Z" fill="#3F3D56"/>
<path d="M243.428 133.976L224.939 130.725L224.79 131.595L243.279 134.846L243.428 133.976Z" fill="#3F3D56"/>
<path d="M242.83 137.454L224.341 134.203L224.192 135.073L242.681 138.324L242.83 137.454Z" fill="#3F3D56"/>
<path d="M242.232 140.933L223.743 137.682L223.594 138.552L242.083 141.802L242.232 140.933Z" fill="#3F3D56"/>
<path d="M241.634 144.411L223.145 141.16L222.995 142.03L241.485 145.281L241.634 144.411Z" fill="#3F3D56"/>
<path d="M241.036 147.889L222.547 144.639L222.398 145.508L240.887 148.759L241.036 147.889Z" fill="#3F3D56"/>
<path d="M264.147 170.153L228.459 163.878C234.838 150.5 237.753 137.281 235.262 124.313L270.95 130.587C265.4 142.979 263.059 156.594 264.147 170.153Z" fill="#F2F2F2"/>
<path d="M261.117 136.249L242.628 132.999L242.479 133.868L260.968 137.119L261.117 136.249Z" fill="#3F3D56"/>
<path d="M260.519 139.728L242.03 136.477L241.881 137.346L260.37 140.597L260.519 139.728Z" fill="#3F3D56"/>
<path d="M259.921 143.208L241.432 139.957L241.283 140.827L259.772 144.077L259.921 143.208Z" fill="#3F3D56"/>
<path d="M259.323 146.684L240.834 143.434L240.684 144.303L259.173 147.554L259.323 146.684Z" fill="#3F3D56"/>
<path d="M258.725 150.163L240.236 146.912L240.086 147.781L258.575 151.032L258.725 150.163Z" fill="#3F3D56"/>
<path d="M258.127 153.641L239.638 150.39L239.488 151.26L257.977 154.511L258.127 153.641Z" fill="#3F3D56"/>
<path d="M257.529 157.119L239.04 153.868L238.89 154.738L257.379 157.989L257.529 157.119Z" fill="#3F3D56"/>
<path d="M256.93 160.598L238.441 157.347L238.292 158.217L256.781 161.467L256.93 160.598Z" fill="#3F3D56"/>
<path d="M273.875 220.501H210.218L210.205 220.14L207.166 132.238H276.927L273.875 220.501ZM210.932 219.753H273.161L276.161 132.986H207.931L210.932 219.753Z" fill="#3F3D56"/>
<path d="M270.389 215.776H213.703L210.978 136.961H273.114L270.389 215.776Z" fill="#3F3D56"/>
<g opacity="0.2">
<path opacity="0.2" d="M225.402 148.523H220.561V209.111H225.402V148.523Z" fill="white"/>
<path opacity="0.2" d="M244.467 148.523H239.625V209.111H244.467V148.523Z" fill="white"/>
<path opacity="0.2" d="M263.531 148.523H258.689V209.111H263.531V148.523Z" fill="white"/>
</g>
<path d="M243.126 97.9818L236.657 108.328L315.438 158.69L321.906 148.345L243.126 97.9818Z" fill="#3F3D56"/>
<path d="M290.526 110.351C288.228 108.88 285.56 108.107 282.841 108.123C280.121 108.139 277.462 108.944 275.181 110.442C272.9 111.94 271.092 114.068 269.971 116.574C268.85 119.08 268.464 121.859 268.858 124.58L272.627 126.99C271.679 124.765 271.461 122.292 272.004 119.933C272.547 117.574 273.823 115.452 275.644 113.879C277.466 112.306 279.737 111.364 282.127 111.191C284.516 111.018 286.897 111.623 288.922 112.917C290.947 114.211 292.508 116.127 293.379 118.384C294.249 120.641 294.381 123.12 293.757 125.459C293.133 127.797 291.785 129.872 289.91 131.38C288.036 132.888 285.733 133.749 283.339 133.838L287.108 136.247C289.708 135.44 292.024 133.895 293.782 131.797C295.541 129.698 296.666 127.133 297.026 124.407C297.386 121.681 296.965 118.908 295.813 116.416C294.661 113.925 292.826 111.82 290.526 110.351V110.351Z" fill="#3F3D56"/>
<path d="M336.322 219.985H0.322266V220.732H336.322V219.985Z" fill="#3F3D56"/>
<path d="M177.748 92.9023C177.748 92.9023 192.164 103.742 186.249 105.611C180.335 107.479 172.943 99.2564 173.312 97.0138C173.682 94.7711 177.748 92.9023 177.748 92.9023Z" fill="#FFB8B8"/>
<path d="M165.18 79.0727L179.966 92.9022L174.051 99.2563L164.071 91.7809L165.18 79.0727Z" fill="#575A89"/>
<path d="M198.266 135.863L167.783 116.076C178.796 106.249 186.556 95.2105 189.237 82.2809L219.72 102.068C209.85 111.31 202.466 122.94 198.266 135.863Z" fill="#019A40"/>
<path d="M208.485 103.428L192.692 93.1766L192.221 93.9194L208.013 104.171L208.485 103.428Z" fill="#3F3D56"/>
<path d="M206.599 106.399L190.806 96.1476L190.335 96.8903L206.127 107.142L206.599 106.399Z" fill="#3F3D56"/>
<path d="M204.712 109.37L188.92 99.1188L188.448 99.8616L204.241 110.113L204.712 109.37Z" fill="#3F3D56"/>
<path d="M202.826 112.341L187.034 102.09L186.562 102.833L202.355 113.084L202.826 112.341Z" fill="#3F3D56"/>
<path d="M200.941 115.312L185.148 105.061L184.676 105.803L200.469 116.055L200.941 115.312Z" fill="#3F3D56"/>
<path d="M199.054 118.283L183.262 108.032L182.79 108.774L198.583 119.026L199.054 118.283Z" fill="#3F3D56"/>
<path d="M197.168 121.254L181.375 111.003L180.904 111.746L196.697 121.997L197.168 121.254Z" fill="#3F3D56"/>
<path d="M195.282 124.225L179.49 113.974L179.018 114.717L194.811 124.968L195.282 124.225Z" fill="#3F3D56"/>
<path d="M112.383 183.324L106.773 195.259L122.467 199.056L122.03 187.551L112.383 183.324Z" fill="#FFB8B8"/>
<path d="M168.507 199.427L170.355 212.509L185.51 206.903L178.857 197.558L168.507 199.427Z" fill="#FFB8B8"/>
<path d="M134.941 76.2341C134.941 76.2341 132.619 91.2713 133.251 98.4227C133.883 105.574 131.391 135.747 131.391 135.747C131.391 135.747 120.245 148.006 117.715 162.007C116.052 170.829 113.389 179.427 109.779 187.632L122.912 191.954L148.937 142.132C148.937 142.132 167.6 100.828 165.746 96.893C163.891 92.9582 160.983 77.1043 160.983 77.1043L134.941 76.2341Z" fill="#2F2E41"/>
<path d="M110.149 192.14C110.149 192.14 110.133 185.402 107.782 188.31C105.431 191.219 97.7549 196.835 102.275 200.764C106.795 204.692 133.193 225.984 134.613 219.76C135.402 216.305 122.236 192.984 122.236 192.984C122.236 192.984 117.84 193.262 117.535 194.403C117.23 195.544 110.149 192.14 110.149 192.14Z" fill="#2F2E41"/>
<path d="M157.049 15.1578L147.068 26.7447L157.049 37.2103L166.289 23.007L157.049 15.1578Z" fill="#FFB8B8"/>
<path d="M174.052 15.9053C174.053 18.4999 173.066 20.9952 171.296 22.8738C169.526 24.7523 167.109 25.8697 164.546 25.9942C161.983 26.1188 159.471 25.2408 157.532 23.5426C155.592 21.8443 154.373 19.4561 154.128 16.8734C153.883 14.2907 154.631 11.7118 156.216 9.67174C157.802 7.63167 160.103 6.28705 162.642 5.91683C165.182 5.5466 167.765 6.17921 169.856 7.6834C171.946 9.18759 173.384 11.4479 173.87 13.9954C173.991 14.6248 174.051 15.2643 174.052 15.9053Z" fill="#FFB8B8"/>
<path d="M157.498 8.26489C160.961 6.63722 165.043 6.84506 168.696 7.97144C170.769 8.61043 172.815 9.57369 174.265 11.2012C175.716 12.8287 176.462 15.2262 175.708 17.28L172.687 14.9701L172.41 17.0061C170.416 13.8609 166.629 12.4945 163.117 11.3356C162.019 10.9731 160.56 10.7256 159.927 11.7028C159.66 12.1147 159.63 12.6522 159.346 13.0522C158.814 13.8019 157.701 13.7359 156.886 14.1517C156.124 14.5411 155.662 15.3361 155.25 16.0935C154.839 16.851 155.021 17.9116 154.276 18.3348C151.288 20.0319 153.05 13.4965 153.537 12.3545C154.499 10.0991 155.301 9.29712 157.498 8.26489Z" fill="#2F2E41"/>
<path d="M128.771 97.5744C128.771 97.5744 135.055 111.404 139.49 117.011C143.926 122.617 158.342 149.155 158.342 149.155C158.342 149.155 155.754 165.601 161.299 178.683C164.735 186.964 167.216 195.618 168.692 204.473L181.999 200.735L176.454 144.67C176.454 144.67 169.431 99.8171 165.735 97.5744C162.038 95.3318 150.949 83.7449 150.949 83.7449L128.771 97.5744Z" fill="#2F2E41"/>
<path d="M159.636 36.4625C159.636 36.4625 153.352 19.6428 144.85 24.8756C136.349 30.1084 129.695 76.8298 129.695 76.8298C129.695 76.8298 121.933 98.1348 129.695 100.377C137.457 102.62 143.741 105.61 144.85 101.499C145.959 97.3873 145.22 90.2856 147.068 94.0233C148.916 97.761 148.177 102.246 151.873 102.246C155.57 102.246 169.985 100.377 169.616 97.761C169.246 95.1447 159.636 36.4625 159.636 36.4625Z" fill="#575A89"/>
<path d="M128.956 102.621C128.956 102.621 124.15 117.198 130.804 117.198C137.457 117.198 136.496 102.481 136.496 102.481L128.956 102.621Z" fill="#FFB8B8"/>
<path d="M171.464 208.024C171.464 208.024 167.768 202.418 167.398 206.155C167.029 209.893 163.702 218.863 169.616 219.611C175.53 220.359 209.167 223.349 206.949 217.368C205.718 214.048 181.999 201.971 181.999 201.971C181.999 201.971 178.487 204.66 178.857 205.781C179.227 206.903 171.464 208.024 171.464 208.024Z" fill="#2F2E41"/>
<path d="M180.52 18.3348C180.52 18.3348 178.768 19.8561 176.495 16.8472C175.899 16.0285 175.39 15.1491 174.976 14.2233C173.146 12.3851 170.693 11.32 168.115 11.2444C167.941 11.2369 167.764 11.2332 167.583 11.2332C162.778 11.2332 161.669 7.86922 161.669 7.86922L153.906 10.4856C153.906 10.4856 155.015 0.0200195 165.735 0.0200195C176.454 0.0200195 176.824 8.99054 176.824 8.99054C176.824 8.99054 185.325 12.3545 180.52 18.3348Z" fill="#575A89"/>
<path opacity="0.2" d="M176.495 16.8471C175.9 16.0284 175.39 15.149 174.976 14.2232C173.146 12.3849 170.693 11.3198 168.115 11.2442C170.817 10.3883 175.515 9.39407 177.563 11.9806C179.448 14.3615 177.881 15.9837 176.495 16.8471Z" fill="black"/>
<path d="M145.22 27.8657C145.22 27.8657 135.24 25.9968 132.653 34.9674C130.065 43.9379 124.521 70.4757 124.521 70.4757L127.847 97.761L127.478 104.489H138.197V97.3872C138.197 96.6397 139.676 67.4855 139.676 67.4855L151.874 39.4526C151.874 39.4526 154.461 30.4821 145.22 27.8657Z" fill="#575A89"/>
<path opacity="0.2" d="M154.782 40.2906L142.584 64.5858L141.087 99.3937L145.171 64.212L154.782 40.2906Z" fill="black"/>
<path opacity="0.2" d="M166.853 80.6375L169.623 94.9933L168.238 81.9329L166.853 80.6375Z" fill="black"/>
<path opacity="0.2" d="M135.425 114.207L151.319 137.007L149.656 140.371L135.425 114.207Z" fill="black"/>
</g>
<defs>
<clipPath id="clip0">
<rect x="0.322266" y="0.0200195" width="336" height="221" fill="white"/>
</clipPath>
</defs>
</svg>
