<svg width="374" height="245" viewBox="0 0 374 245" fill="none" xmlns="http://www.w3.org/2000/svg">
<g clip-path="url(#clip0)">
<path d="M30.8704 181.701L28.0739 170.672C23.1154 168.571 18.0423 166.751 12.8788 165.221L12.5257 170.347L11.0939 164.7C4.69035 162.872 0.333984 162.066 0.333984 162.066C0.333984 162.066 6.21843 184.441 18.5606 201.546L32.942 204.072L21.7695 205.683C23.3227 207.551 24.9919 209.32 26.7671 210.979C44.7215 227.643 64.7194 235.288 71.4335 228.055C78.1477 220.823 69.0357 201.451 51.0813 184.787C45.5152 179.621 38.5231 175.475 31.524 172.213L30.8704 181.701Z" fill="#E6E6E6"/>
<path d="M57.4667 169.724L60.7741 158.838C57.6156 154.476 54.2136 150.297 50.5843 146.318L47.6324 150.523L49.3258 144.949C44.7893 140.075 41.4764 137.134 41.4764 137.134C41.4764 137.134 34.9471 159.328 36.6698 180.351L47.6751 189.946L37.2783 185.55C37.6421 187.952 38.1567 190.329 38.8189 192.667C45.5742 216.211 58.7409 233.092 68.2275 230.371C77.7142 227.649 79.9283 206.357 73.1729 182.812C71.0787 175.513 67.2362 168.35 62.9314 161.94L57.4667 169.724Z" fill="#E6E6E6"/>
<path d="M186.834 244.325C289.835 244.325 373.334 239.752 373.334 234.111C373.334 228.47 289.835 223.897 186.834 223.897C83.8329 223.897 0.333984 228.47 0.333984 234.111C0.333984 239.752 83.8329 244.325 186.834 244.325Z" fill="#E6E6E6"/>
<path d="M112.819 165.661C112.819 165.661 162.339 143.76 167.418 159.313C172.497 174.865 134.722 200.893 134.722 200.893L118.85 196.449L140.436 180.579C140.436 180.579 110.914 201.527 95.9948 196.766C81.0754 192.005 74.0918 178.674 74.0918 178.674L112.819 165.661Z" fill="#2F2E41"/>
<path d="M135.04 198.671L128.373 210.414C128.373 210.414 130.596 224.38 137.262 225.967C143.928 227.554 148.372 231.998 142.975 232.95C137.579 233.902 123.929 234.855 121.707 230.093C119.485 225.332 114.089 216.763 114.089 216.763L115.359 228.189L109.01 228.506L108.058 215.493C107.626 214.093 107.545 212.608 107.822 211.169C108.098 209.73 108.724 208.381 109.645 207.24C112.819 203.114 122.039 195.045 122.039 195.045L135.04 198.671Z" fill="#2F2E41"/>
<path d="M64.2627 189.07C63.9839 189.064 63.7137 189.168 63.5115 189.36C63.3094 189.552 63.1916 189.817 63.1841 190.096V230.285C63.1916 230.564 63.3094 230.828 63.5115 231.021C63.7137 231.213 63.9839 231.317 64.2627 231.31H113.649C113.928 231.317 114.198 231.213 114.4 231.021C114.602 230.828 114.72 230.564 114.728 230.285V190.096C114.72 189.817 114.602 189.552 114.4 189.36C114.198 189.168 113.928 189.064 113.649 189.07H64.2627Z" fill="#E6E6E6"/>
<path d="M125.993 101.069L94.5534 103.879L84.9922 77.8279L112.451 71.2139L125.993 101.069Z" fill="#2F2E41"/>
<path d="M89.0114 174.865C89.0114 174.865 138.849 173.278 130.913 192.322C122.977 211.367 95.3601 211.684 95.3601 211.684L89.0114 216.128C89.0114 216.128 80.4407 211.049 80.7581 202.797L91.2335 198.353C91.2335 198.353 67.4258 211.367 64.5689 193.275C61.712 175.183 89.0114 174.865 89.0114 174.865Z" fill="#2F2E41"/>
<path d="M83.6151 203.114C83.6151 203.114 60.601 203.908 62.1882 211.208C63.7754 218.508 60.7598 231.363 60.7598 231.363L66.1562 233.268L67.7433 222.158C67.7433 222.158 69.0131 238.981 75.9967 239.298C82.9802 239.616 97.5822 242.472 97.2648 239.298C96.9474 236.124 85.8371 229.776 85.8371 229.776L85.2023 218.667L89.0115 213.906L83.6151 203.114Z" fill="#2F2E41"/>
<path d="M101.074 100.276C109.139 100.276 115.676 93.7389 115.676 85.6752C115.676 77.6116 109.139 71.0747 101.074 71.0747C93.0097 71.0747 86.4722 77.6116 86.4722 85.6752C86.4722 93.7389 93.0097 100.276 101.074 100.276Z" fill="#9F616A"/>
<path d="M89.0116 88.2144C89.0116 88.2144 88.6942 101.228 80.7583 102.815C72.8224 104.402 74.5683 111.861 74.5683 111.861L88.0593 129.159L104.883 110.75L106.471 104.085C106.471 104.085 99.4869 106.941 101.074 102.815C102 100.442 102.743 98.0012 103.296 95.5146L89.0116 88.2144Z" fill="#9F616A"/>
<path d="M88.2412 109.997C87.475 108.23 86.0412 105.683 83.4564 102.021C83.4564 102.021 57.9029 106.306 61.0772 128.525C64.2516 150.743 65.2039 166.613 65.2039 166.613C65.2039 166.613 65.1918 166.647 65.1681 166.715C62.7086 173.767 61.4222 182.356 63.1405 189.625C64.14 193.852 64.8864 195.497 64.8864 195.497C64.8864 195.497 64.2516 178.357 91.551 175.818C118.85 173.278 116.787 162.011 116.787 162.011L112.343 107.1C112.256 105.13 113.045 102.373 111.073 102.339C106.892 102.267 103.201 101.751 101.074 102.815C98.6919 104.006 101.136 110.38 96.3342 112.951C95.6145 113.321 94.8261 113.538 94.0185 113.588C93.211 113.638 92.4018 113.521 91.6418 113.244C90.8817 112.966 90.1873 112.535 89.6021 111.976C89.0169 111.417 88.5535 110.744 88.2412 109.997Z" fill="#3F3D56"/>
<path d="M111.847 67.3157C111.847 67.3157 118.427 69.5087 118.837 78.144C118.887 79.5976 118.734 81.0511 118.382 82.4623C118.004 84.0621 117.762 87.517 120.732 92.0298C122.671 94.9586 124.436 97.9996 126.016 101.137L118.703 102.051L117.148 89.9296C116.394 84.0529 114.779 78.3192 112.354 72.913L112.304 72.8002C112.304 72.8002 109.104 78.7417 102.705 78.7417L104.99 76.4565C104.99 76.4565 97.0667 79.6977 92.7289 80.4259C92.2338 80.5091 91.7709 80.7257 91.3898 81.0525C91.0088 81.3793 90.7242 81.8039 90.5666 82.2805C90.409 82.757 90.3845 83.2676 90.4956 83.7571C90.6067 84.2466 90.8492 84.6965 91.1971 85.0583C91.2235 85.0856 91.2504 85.1129 91.2778 85.1403C94.0203 87.8826 99.5054 94.2812 96.3057 99.3087C93.1061 104.336 95.8487 105.707 95.8487 105.707L90.8207 102.965L88.5353 101.594V103.422L76.651 102.051C76.651 102.051 73.4513 101.594 80.3077 93.8241C80.3077 93.8241 82.1182 90.8069 81.3261 88.2046C80.6752 86.2268 80.5041 84.1227 80.8271 82.0658C82.3631 73.4977 88.3895 56.4634 111.847 67.3157Z" fill="#2F2E41"/>
<path opacity="0.2" d="M70.7725 153.242L66.9497 162.963L71.7111 155.156L70.7725 153.242Z" fill="black"/>
<path d="M64.2515 139.951L80.7581 173.596L119.803 178.992C119.803 178.992 133.77 202.162 136.944 197.401C140.118 192.64 124.882 172.644 124.882 172.644L87.4242 161.535L75.6792 137.095L64.2515 139.951Z" fill="#9F616A"/>
<path d="M111.796 123.957L128.303 157.601L167.347 162.997C167.347 162.997 191.09 170.76 194.265 165.999C197.439 161.238 172.426 156.649 172.426 156.649L134.969 145.54L123.224 121.1L111.796 123.957Z" fill="#9F616A"/>
<path d="M71.3938 107.1C71.3938 107.1 63.4579 109.322 61.5533 116.622C59.6487 123.922 66.9497 162.963 66.9497 162.963C66.9497 162.963 75.0443 139.634 79.4884 141.221C79.4884 141.221 79.9645 110.591 71.3938 107.1Z" fill="#3F3D56"/>
<path d="M105.518 103.45C105.518 103.45 109.962 99.9583 113.771 104.719C117.581 109.48 134.563 137.571 134.563 137.571C134.563 137.571 109.645 135.19 109.645 136.777L105.518 103.45Z" fill="#3F3D56"/>
<path d="M237.477 0.324707C236.708 0.325517 235.971 0.631196 235.428 1.17467C234.884 1.71814 234.578 2.45502 234.578 3.22361V116.857C234.578 117.625 234.884 118.362 235.428 118.905C235.971 119.449 236.708 119.755 237.477 119.755H370.216C370.984 119.755 371.721 119.449 372.265 118.905C372.808 118.362 373.114 117.625 373.115 116.857V3.22361C373.114 2.45503 372.808 1.71815 372.265 1.17468C371.721 0.631203 370.984 0.32553 370.216 0.324721L237.477 0.324707Z" fill="#E6E6E6"/>
<path d="M255.886 68.7212C255.598 68.7798 255.339 68.9362 255.153 69.1638C254.967 69.3914 254.866 69.6762 254.866 69.9701C254.866 70.264 254.967 70.5489 255.153 70.7765C255.339 71.0041 255.598 71.1604 255.886 71.219H353C353.288 71.1604 353.547 71.0041 353.733 70.7765C353.919 70.5489 354.02 70.264 354.02 69.9701C354.02 69.6762 353.919 69.3914 353.733 69.1638C353.547 68.9362 353.288 68.7798 353 68.7212H255.886Z" fill="white"/>
<path d="M254.692 83.5615C254.404 83.6202 254.145 83.7765 253.959 84.0041C253.773 84.2317 253.672 84.5166 253.672 84.8104C253.672 85.1043 253.773 85.3892 253.959 85.6168C254.145 85.8444 254.404 86.0007 254.692 86.0594H351.806C352.094 86.0007 352.353 85.8444 352.539 85.6168C352.725 85.3892 352.827 85.1043 352.827 84.8104C352.827 84.5166 352.725 84.2317 352.539 84.0041C352.353 83.7765 352.094 83.6202 351.806 83.5615H254.692Z" fill="white"/>
<path d="M255.886 98.4023C255.598 98.461 255.339 98.6173 255.153 98.8449C254.967 99.0725 254.866 99.3574 254.866 99.6513C254.866 99.9452 254.967 100.23 255.153 100.458C255.339 100.685 255.598 100.842 255.886 100.9H353C353.288 100.842 353.547 100.685 353.733 100.458C353.919 100.23 354.02 99.9452 354.02 99.6513C354.02 99.3574 353.919 99.0725 353.733 98.8449C353.547 98.6173 353.288 98.461 353 98.4023H255.886Z" fill="white"/>
<path d="M255.886 19.1802C255.598 19.2389 255.339 19.3953 255.153 19.623C254.967 19.8506 254.866 20.1355 254.866 20.4294C254.866 20.7234 254.967 21.0083 255.153 21.2359C255.339 21.4636 255.598 21.62 255.886 21.6787H353C353.288 21.62 353.547 21.4636 353.733 21.2359C353.919 21.0083 354.02 20.7234 354.02 20.4294C354.02 20.1355 353.919 19.8506 353.733 19.623C353.547 19.3953 353.288 19.2389 353 19.1802H255.886Z" fill="white"/>
<path d="M254.692 34.021C254.404 34.0797 254.145 34.2361 253.959 34.4638C253.773 34.6914 253.672 34.9763 253.672 35.2703C253.672 35.5642 253.773 35.8491 253.959 36.0768C254.145 36.3044 254.404 36.4608 254.692 36.5195H351.806C352.094 36.4608 352.353 36.3044 352.539 36.0768C352.725 35.8491 352.827 35.5642 352.827 35.2703C352.827 34.9763 352.725 34.6914 352.539 34.4638C352.353 34.2361 352.094 34.0797 351.806 34.021H254.692Z" fill="white"/>
<path d="M255.886 48.8613C255.598 48.92 255.339 49.0765 255.153 49.3041C254.967 49.5318 254.866 49.8167 254.866 50.1106C254.866 50.4045 254.967 50.6894 255.153 50.9171C255.339 51.1447 255.598 51.3011 255.886 51.3599H353C353.288 51.3011 353.547 51.1447 353.733 50.9171C353.919 50.6894 354.02 50.4045 354.02 50.1106C354.02 49.8167 353.919 49.5318 353.733 49.3041C353.547 49.0765 353.288 48.92 353 48.8613H255.886Z" fill="white"/>
<path d="M178.146 46.7917C177.377 46.7926 176.64 47.0982 176.097 47.6417C175.553 48.1852 175.247 48.9221 175.247 49.6906V163.324C175.247 164.092 175.553 164.829 176.097 165.373C176.64 165.916 177.377 166.222 178.146 166.222H310.885C311.653 166.222 312.39 165.916 312.934 165.373C313.477 164.829 313.783 164.092 313.784 163.324V49.6906C313.783 48.9221 313.477 48.1852 312.934 47.6417C312.39 47.0982 311.653 46.7926 310.885 46.7918L178.146 46.7917Z" fill="#019A40"/>
<path d="M196.555 115.188C196.267 115.247 196.008 115.403 195.822 115.631C195.636 115.858 195.535 116.143 195.535 116.437C195.535 116.731 195.636 117.016 195.822 117.243C196.008 117.471 196.267 117.627 196.555 117.686H293.669C293.957 117.627 294.216 117.471 294.402 117.243C294.588 117.016 294.689 116.731 294.689 116.437C294.689 116.143 294.588 115.858 294.402 115.631C294.216 115.403 293.957 115.247 293.669 115.188H196.555Z" fill="white"/>
<path d="M195.362 130.029C195.074 130.088 194.815 130.244 194.629 130.472C194.443 130.699 194.341 130.984 194.341 131.278C194.341 131.572 194.443 131.857 194.629 132.084C194.815 132.312 195.074 132.468 195.362 132.527H292.476C292.764 132.468 293.022 132.312 293.208 132.084C293.394 131.857 293.496 131.572 293.496 131.278C293.496 130.984 293.394 130.699 293.208 130.472C293.022 130.244 292.764 130.088 292.476 130.029H195.362Z" fill="white"/>
<path d="M196.555 144.869C196.267 144.928 196.008 145.084 195.822 145.312C195.636 145.54 195.535 145.824 195.535 146.118C195.535 146.412 195.636 146.697 195.822 146.925C196.008 147.152 196.267 147.309 196.555 147.367H293.669C293.957 147.309 294.216 147.152 294.402 146.925C294.588 146.697 294.689 146.412 294.689 146.118C294.689 145.824 294.588 145.54 294.402 145.312C294.216 145.084 293.957 144.928 293.669 144.869H196.555Z" fill="white"/>
<path d="M196.555 65.6477C196.267 65.7064 196.008 65.8628 195.822 66.0905C195.636 66.3182 195.535 66.603 195.535 66.897C195.535 67.1909 195.636 67.4758 195.822 67.7035C196.008 67.9311 196.267 68.0875 196.555 68.1462H293.669C293.957 68.0875 294.216 67.9311 294.402 67.7035C294.588 67.4758 294.689 67.1909 294.689 66.897C294.689 66.603 294.588 66.3182 294.402 66.0905C294.216 65.8628 293.957 65.7064 293.669 65.6477H196.555Z" fill="white"/>
<path d="M195.362 80.488C195.074 80.5468 194.815 80.7032 194.629 80.9308C194.443 81.1585 194.341 81.4434 194.341 81.7373C194.341 82.0312 194.443 82.3161 194.629 82.5438C194.815 82.7714 195.074 82.9279 195.362 82.9866H292.476C292.764 82.9279 293.022 82.7714 293.208 82.5438C293.394 82.3161 293.496 82.0312 293.496 81.7373C293.496 81.4434 293.394 81.1585 293.208 80.9308C293.022 80.7032 292.764 80.5468 292.476 80.488H195.362Z" fill="white"/>
<path d="M196.555 95.3284C196.267 95.3871 196.008 95.5435 195.822 95.7711C195.636 95.9988 195.535 96.2837 195.535 96.5776C195.535 96.8716 195.636 97.1565 195.822 97.3841C196.008 97.6118 196.267 97.7682 196.555 97.8269H293.669C293.957 97.7682 294.216 97.6118 294.402 97.3841C294.588 97.1565 294.689 96.8716 294.689 96.5776C294.689 96.2837 294.588 95.9988 294.402 95.7711C294.216 95.5435 293.957 95.3871 293.669 95.3284H196.555Z" fill="white"/>
<path d="M311.927 78.7838C330.647 78.7838 345.821 63.6105 345.821 44.8931C345.821 26.1758 330.647 11.0024 311.927 11.0024C293.208 11.0024 278.033 26.1758 278.033 44.8931C278.033 63.6105 293.208 78.7838 311.927 78.7838Z" fill="#3F3D56"/>
<path d="M316.379 46.0822V28.7957H307.476V46.0822H303.319L307.623 53.5367L311.927 60.9913L316.232 53.5367L320.536 46.0822H316.379Z" fill="white"/>
</g>
<defs>
<clipPath id="clip0">
<rect x="0.333984" y="0.324707" width="373" height="244" fill="white"/>
</clipPath>
</defs>
</svg>
