<svg width="173" height="120" viewBox="0 0 173 120" fill="none" xmlns="http://www.w3.org/2000/svg">
<rect x="25.8516" y="4.71191" width="89.1721" height="17.9967" rx="8.99835" fill="#E0E0E0" fill-opacity="0.73"/>
<rect x="36.5156" y="22.7085" width="114.632" height="19.7578" rx="9.87891" fill="#E0E0E0" fill-opacity="0.73"/>
<rect x="0.259766" y="42.4663" width="138.842" height="17.9967" rx="8.99835" fill="#E0E0E0" fill-opacity="0.73"/>
<rect x="33.3164" y="60.4629" width="138.842" height="17.9967" rx="8.99835" fill="#E0E0E0" fill-opacity="0.73"/>
<rect x="24.4102" y="78.2256" width="116.34" height="20.1863" rx="10.0932" fill="#E0E0E0" fill-opacity="0.73"/>
<rect x="48.6689" y="97.4893" width="84.8829" height="18.39" rx="9.19498" fill="#E0E0E0" fill-opacity="0.73"/>
<path d="M28.7139 35.424H26.571V33.187H25.8567V35.424H23.7139V36.1696H25.8567V38.4066H26.571V36.1696H28.7139V35.424Z" fill="#999999"/>
<path d="M153.646 73.9802H151.504V71.7432H150.789V73.9802H148.646V74.7259H150.789V76.9629H151.504V74.7259H153.646V73.9802Z" fill="#999999"/>
<path d="M25.7139 99.2815H23.571V97.0444H22.8567V99.2815H20.7139V100.027H22.8567V102.264H23.571V100.027H25.7139V99.2815Z" fill="#999999"/>
<circle cx="70.252" cy="3.88623" r="2" stroke="#019A40" stroke-width="2"/>
<circle cx="121.167" cy="11.2168" r="2" stroke="#3DBF09" stroke-width="2"/>
<circle cx="148.146" cy="92.9287" r="2" stroke="#019A40" stroke-width="2"/>
<circle cx="59.7881" cy="116.398" r="2" stroke="#3DBF09" stroke-width="2"/>
<path d="M100.79 25.3755L105.552 27.4403" stroke="#999999" stroke-width="2"/>
<circle cx="87.5504" cy="61.6134" r="29.7935" stroke="#999999" stroke-width="2"/>
<path d="M76.9514 98.1074C56.5318 92.6218 44.4255 71.6215 49.9111 51.2019C55.3968 30.7823 76.3971 18.676 96.8167 24.1616" stroke="#999999" stroke-width="2"/>
<path d="M102.464 98.9369C122.224 91.4138 132.144 69.2965 124.621 49.5366" stroke="#999999" stroke-width="2"/>
<path d="M96.8828 99.9141L101.58 99.1431" stroke="#999999" stroke-width="2"/>
<path d="M74.9105 59.8569V59.4853L74.5546 59.3782C71.9915 58.6069 70.1133 56.2586 70.1133 53.4635C70.1133 50.0427 72.9014 47.2578 76.3294 47.2578C79.7556 47.2578 82.5455 50.0428 82.5455 53.4635C82.5455 56.2586 80.6673 58.6069 78.1042 59.3782L77.7483 59.4853V59.8569V73.5807H77.7483L77.7483 73.5871C77.7545 74.068 77.8384 75.1324 78.4232 76.0916C79.0317 77.0899 80.147 77.9125 82.0669 77.9125H82.5669V77.4125V74.5797L88.9083 79.3284L82.5669 84.0771V81.2443V80.7443H82.0669C79.951 80.7443 78.2673 80.0924 77.0176 78.8376L77.017 78.8371C74.9663 76.7842 74.9087 73.8955 74.9105 73.5777V73.5749V59.8569ZM100.775 71.977V72.3487L101.131 72.4558C103.694 73.2271 105.572 75.5754 105.572 78.3705C105.572 81.7913 102.784 84.5762 99.3561 84.5762C95.9281 84.5762 93.14 81.7913 93.14 78.3705C93.14 75.5754 95.0183 73.2271 97.5813 72.4558L97.9372 72.3487V71.977V58.2533H97.9373L97.9371 58.2435C97.9278 57.7667 97.8363 56.7029 97.2438 55.7435C96.6279 54.7461 95.5057 53.9215 93.5803 53.9215H93.0803V54.4215V57.2543L86.7389 52.5056L93.0803 47.7569V50.5896V51.0896H93.5803C96.2401 51.0896 98.0182 52.164 99.1435 53.5763C100.283 55.0063 100.77 56.807 100.775 58.2485C100.775 58.2487 100.775 58.2489 100.775 58.2491L100.775 71.977ZM72.9511 53.4635C72.9511 55.3249 74.4671 56.8374 76.3294 56.8374C78.1917 56.8374 79.7078 55.3249 79.7078 53.4635C79.7078 51.6022 78.1917 50.0896 76.3294 50.0896C74.4671 50.0896 72.9511 51.6022 72.9511 53.4635ZM95.9778 78.3705C95.9778 80.2318 97.4938 81.7443 99.3561 81.7443C101.218 81.7443 102.734 80.2318 102.734 78.3705C102.734 76.5091 101.218 74.9966 99.3561 74.9966C97.4938 74.9966 95.9778 76.5091 95.9778 78.3705Z" fill="#019A40" fill-opacity="0.7" stroke="#019A40"/>
</svg>
