<svg width="173" height="119" viewBox="0 0 173 119" fill="none" xmlns="http://www.w3.org/2000/svg">
<rect x="25.9082" y="3.87598" width="89.1721" height="17.9967" rx="8.99835" fill="#E0E0E0" fill-opacity="0.73"/>
<rect x="36.5723" y="21.8726" width="114.632" height="19.7578" rx="9.87891" fill="#E0E0E0" fill-opacity="0.73"/>
<rect x="0.316406" y="41.6304" width="138.842" height="17.9967" rx="8.99835" fill="#E0E0E0" fill-opacity="0.73"/>
<rect x="33.373" y="59.627" width="138.842" height="17.9967" rx="8.99835" fill="#E0E0E0" fill-opacity="0.73"/>
<rect x="24.4668" y="77.3896" width="116.34" height="20.1863" rx="10.0932" fill="#E0E0E0" fill-opacity="0.73"/>
<rect x="48.7256" y="96.6533" width="84.8829" height="18.39" rx="9.19498" fill="#E0E0E0" fill-opacity="0.73"/>
<path d="M28.7705 19.8415H26.6277V17.6045H25.9134V19.8415H23.7705V20.5872H25.9134V22.8242H26.6277V20.5872H28.7705V19.8415Z" fill="#999999"/>
<path d="M153.703 73.3976H151.56V71.1606H150.846V73.3976H148.703V74.1433H150.846V76.3803H151.56V74.1433H153.703V73.3976Z" fill="#999999"/>
<path d="M25.7705 83.6989H23.6277V81.4619H22.9134V83.6989H20.7705V84.4446H22.9134V86.6816H23.6277V84.4446H25.7705V83.6989Z" fill="#999999"/>
<circle cx="70.3086" cy="3.05029" r="2" stroke="#019A40" stroke-width="2"/>
<circle cx="121.224" cy="10.3809" r="2" stroke="#3DBF09" stroke-width="2"/>
<circle cx="148.203" cy="92.0928" r="2" stroke="#019A40" stroke-width="2"/>
<circle cx="59.8447" cy="115.562" r="2" stroke="#3DBF09" stroke-width="2"/>
<path d="M43.7824 82.2234C48.3078 84.721 56.8451 84.3561 56.8451 84.3561H116.027C116.027 84.3561 121.727 83.6036 125.091 82.2234C128.858 80.6777 131.343 79.804 133.888 76.6251C136.136 73.8181 137.298 71.833 138.089 68.4019C139.236 63.4312 138.905 59.8914 137.354 55.0317C135.529 49.3163 132.967 46.0107 127.757 43.0354C122.897 40.2599 113.628 40.6361 113.628 40.6361C113.628 40.6361 110.058 33.2389 106.163 29.9727C101.14 25.7605 96.9819 24.4399 90.4348 24.1079C85.3571 23.8504 82.2488 24.3631 77.6387 26.5071C72.6831 28.8119 66.9753 35.571 66.9753 35.571C66.9753 35.571 64.0288 35.2852 62.1768 35.571C58.0792 36.2034 55.6451 37.5773 52.8463 40.6361C49.7533 44.0166 48.581 51.5661 48.581 51.5661C48.581 51.5661 42.4228 52.5991 39.5171 55.0317C35.8036 58.1405 34.4086 61.3904 34.1854 66.2283C34.0329 69.5333 34.5617 71.5382 36.0515 74.4924C37.974 78.3048 40.0443 80.1602 43.7824 82.2234Z" fill="#019A40" fill-opacity="0.7" stroke="#019A40" stroke-width="2"/>
<circle cx="121.224" cy="10.3809" r="2" stroke="#3DBF09" stroke-width="2"/>
<circle cx="59.8447" cy="115.562" r="2" stroke="#3DBF09" stroke-width="2"/>
</svg>
