<svg width="173" height="120" viewBox="0 0 173 120" fill="none" xmlns="http://www.w3.org/2000/svg">
<rect x="26.4209" y="4.76855" width="89.1721" height="17.9967" rx="8.99835" fill="#E0E0E0" fill-opacity="0.73"/>
<rect x="37.085" y="22.7651" width="114.632" height="19.7578" rx="9.87891" fill="#E0E0E0" fill-opacity="0.73"/>
<rect x="0.829102" y="42.5229" width="138.842" height="17.9967" rx="8.99835" fill="#E0E0E0" fill-opacity="0.73"/>
<rect x="33.8857" y="60.5195" width="138.842" height="17.9967" rx="8.99835" fill="#E0E0E0" fill-opacity="0.73"/>
<rect x="24.9795" y="78.2822" width="116.34" height="20.1863" rx="10.0932" fill="#E0E0E0" fill-opacity="0.73"/>
<rect x="49.2383" y="97.5459" width="84.8829" height="18.39" rx="9.19498" fill="#E0E0E0" fill-opacity="0.73"/>
<path d="M29.2832 35.7156H27.1403V33.4785H26.4261V35.7156H24.2832V36.4613H26.4261V38.6983H27.1403V36.4613H29.2832V35.7156Z" fill="#999999"/>
<path d="M154.216 73.2717H152.073V71.0347H151.359V73.2717H149.216V74.0174H151.359V76.2544H152.073V74.0174H154.216V73.2717Z" fill="#999999"/>
<path d="M26.2832 99.5735H24.1403V97.3364H23.4261V99.5735H21.2832V100.319H23.4261V102.556H24.1403V100.319H26.2832V99.5735Z" fill="#999999"/>
<circle cx="70.8213" cy="3.94287" r="2" stroke="#019A40" stroke-width="2"/>
<circle cx="121.736" cy="11.2734" r="2" stroke="#3DBF09" stroke-width="2"/>
<circle cx="148.716" cy="92.9854" r="2" stroke="#019A40" stroke-width="2"/>
<circle cx="60.3574" cy="116.455" r="2" stroke="#3DBF09" stroke-width="2"/>
<path d="M87.7006 36.1229L87.8451 36.2595H88.044H119.844C123.68 36.2595 126.751 39.2011 126.751 42.7587V84.754C126.751 88.3117 123.68 91.2533 119.844 91.2533H60.5851C56.749 91.2533 53.6777 88.3117 53.6777 84.754V35.7595C53.6777 32.2019 56.749 29.2603 60.5851 29.2603H79.1034C79.9619 29.2603 80.7815 29.582 81.3775 30.1481L81.3784 30.1491L87.7006 36.1229ZM60.0851 84.754V85.254H60.5851H119.851H120.351L120.351 84.754L120.344 42.7586L120.344 42.2587H119.844H90.2143H86.5107H60.5851H60.0851V42.7587V84.754Z" fill="#019A40" fill-opacity="0.76" stroke="#019A40"/>
</svg>
