<svg width="463" height="345" viewBox="0 0 463 345" fill="none" xmlns="http://www.w3.org/2000/svg">
<g clip-path="url(#clip0)">
<path d="M304.654 192.619C294.887 198.009 277.485 204.763 259.702 197.822L248.207 193.336L271.243 169.575C252.86 150.926 242.691 126.643 242.719 101.466C242.747 76.2887 252.97 52.0248 271.394 33.4101C289.818 14.7953 315.119 3.16589 342.359 0.791658C369.6 -1.58258 396.824 5.46881 418.719 20.5695C440.613 35.6701 455.606 57.7362 460.771 82.4606C465.936 107.185 460.903 132.793 446.653 154.287C432.404 175.78 409.961 191.616 383.705 198.704C357.449 205.792 329.265 203.622 304.654 192.619V192.619ZM260.518 101.409C260.467 113.015 263.027 124.505 268.036 135.157C273.046 145.808 280.396 155.391 289.626 163.302L295.98 168.796L281.485 183.747C289.035 182.338 295.611 178.579 298.946 176.396L303.521 173.401L308.442 175.889C322.045 182.741 337.303 186.333 352.811 186.331C403.702 186.331 445.104 148.235 445.104 101.409C445.104 54.5828 403.702 16.4868 352.811 16.4868C301.92 16.4868 260.518 54.5828 260.518 101.409V101.409Z" fill="#3F3D56"/>
<path d="M251.569 101.409C251.569 49.9606 296.897 8.25342 352.811 8.25342C408.725 8.25342 454.052 49.9606 454.052 101.409C454.052 152.858 408.725 194.565 352.811 194.565C335.794 194.588 319.047 190.645 304.133 183.105C297.135 187.687 280.062 196.826 263.196 190.243L283.498 169.302C273.406 160.601 265.364 150.085 259.872 138.406C254.379 126.727 251.553 114.135 251.569 101.409Z" fill="#019A40"/>
<path opacity="0.1" d="M436.805 101.611C436.805 52.938 396.234 12.9906 344.512 8.82186C347.461 8.58417 350.444 8.45557 353.46 8.45557C409.374 8.45557 454.701 50.1628 454.701 101.611C454.701 153.06 409.374 194.767 353.46 194.767C350.448 194.767 347.47 194.637 344.526 194.399C396.241 190.225 436.805 150.28 436.805 101.611Z" fill="black"/>
<path d="M119.511 322.032C94.2141 322.043 69.6816 314.053 50.0251 299.401C30.3685 284.75 16.7825 264.326 11.5437 241.554C6.30497 218.782 9.73193 195.045 21.2503 174.321C32.7686 153.597 51.6783 137.146 74.8104 127.724C97.9425 118.303 123.891 116.483 148.308 122.571C172.724 128.658 194.125 142.283 208.923 161.162C223.721 180.04 231.018 203.025 229.59 226.265C228.162 249.504 218.096 271.586 201.08 288.809L224.115 312.57L212.62 317.056C194.837 323.997 177.435 317.243 167.668 311.853C152.657 318.549 136.193 322.029 119.511 322.032ZM119.511 135.721C68.6206 135.721 27.2179 173.817 27.2179 220.643C27.2179 267.469 68.6206 305.565 119.511 305.565C135.019 305.567 150.277 301.976 163.88 295.123L168.801 292.635L173.376 295.631C176.711 297.813 183.287 301.572 190.837 302.981L176.342 288.03L182.696 282.536C191.926 274.625 199.276 265.043 204.286 254.391C209.295 243.739 211.855 232.249 211.804 220.643C211.804 173.817 170.402 135.721 119.511 135.721Z" fill="#3F3D56"/>
<path d="M220.752 220.643C220.752 169.195 175.425 127.488 119.511 127.488C63.5968 127.488 18.2695 169.195 18.2695 220.643C18.2695 272.092 63.5968 313.799 119.511 313.799C136.528 313.822 153.274 309.88 168.189 302.34C175.187 306.921 192.26 316.06 209.126 309.477L188.823 288.537C198.916 279.836 206.957 269.32 212.45 257.641C217.942 245.962 220.768 233.369 220.752 220.643Z" fill="#019A40"/>
<path opacity="0.1" d="M36.1657 220.173C36.1657 171.499 76.7371 131.552 128.459 127.383C125.51 127.146 122.527 127.017 119.511 127.017C63.5968 127.017 18.2695 168.724 18.2695 220.173C18.2695 271.621 63.5968 313.328 119.511 313.328C122.522 313.328 125.5 313.198 128.445 312.961C76.7297 308.786 36.1657 268.842 36.1657 220.173Z" fill="black"/>
<path d="M376.578 71.8136C369.954 61.5149 356.849 61.0349 356.849 61.0349C356.849 61.0349 344.078 59.5323 335.886 75.2174C328.251 89.8371 317.713 103.953 334.19 107.375L337.166 98.8516L339.009 108.01C341.355 108.165 343.709 108.202 346.059 108.121C363.705 107.596 380.51 108.274 379.969 102.448C379.25 94.7024 382.952 81.723 376.578 71.8136Z" fill="#2F2E41"/>
<path d="M333.249 162.004C333.054 163.137 332.772 164.255 332.404 165.351C331.989 166.424 331.349 167.416 330.97 168.499C329.762 171.953 331.437 175.804 334.112 178.47C336.432 180.773 339.426 182.408 342.733 183.18C345.168 183.66 347.652 183.9 350.142 183.897C357.028 184.112 364.091 184.304 370.616 182.268C372.678 181.608 374.669 180.776 376.565 179.781C377.163 179.519 377.691 179.137 378.108 178.663C378.545 177.969 378.74 177.168 378.665 176.369C378.65 173.683 378.059 171.01 378.199 168.327C378.277 166.841 378.579 165.356 378.431 163.875C378.225 162.192 377.459 160.609 376.237 159.343C375.016 158.076 373.399 157.188 371.608 156.799C369.757 156.434 367.837 156.633 365.953 156.8C361.061 157.232 356.149 157.434 351.235 157.405C346.214 157.376 341.224 156.67 336.228 156.597C334.75 156.575 334.78 156.994 334.31 158.31C333.877 159.521 333.522 160.754 333.249 162.004Z" fill="#2F2E41"/>
<path d="M347.499 95.6794C347.257 96.8419 346.997 98.0469 346.237 99.0023C345.364 100.101 343.94 100.729 343 101.781C341.585 103.365 341.504 105.593 341.498 107.642C341.493 109.53 341.535 111.544 342.679 113.111C343.493 114.085 344.504 114.905 345.656 115.526C349.947 118.187 354.585 120.896 359.758 120.984C361.902 121.02 364.201 120.511 365.611 119.025C366.22 118.327 366.699 117.541 367.029 116.699C368.351 113.698 369.153 110.525 369.405 107.295C369.596 105.776 369.442 104.238 368.953 102.777C368.324 101.165 367.053 99.8378 366.213 98.309C365.22 96.4911 364.857 94.4367 365.173 92.4229C365.214 92.2811 365.202 92.1303 365.136 91.9963C365.067 91.9246 364.981 91.8685 364.884 91.8325C364.788 91.7965 364.684 91.7816 364.58 91.7888L354.321 91.1093C353.365 91.0656 352.414 90.9654 351.472 90.8094C350.919 90.706 349.458 89.9832 348.931 90.1754C347.955 90.5312 347.699 94.7155 347.499 95.6794Z" fill="#A0616A"/>
<path opacity="0.1" d="M347.499 95.9744C347.257 97.1369 346.997 98.3418 346.237 99.2972C345.364 100.396 343.94 101.024 343 102.076C341.585 103.659 341.504 105.887 341.498 107.937C341.493 109.825 341.535 111.839 342.679 113.406C343.493 114.38 344.504 115.2 345.656 115.821C349.947 118.482 354.585 121.191 359.759 121.279C361.902 121.315 364.201 120.806 365.611 119.32C366.22 118.622 366.699 117.836 367.029 116.994C368.351 113.993 369.153 110.819 369.405 107.59C369.596 106.071 369.442 104.533 368.953 103.072C368.324 101.459 367.053 100.133 366.213 98.6039C365.22 96.786 364.857 94.7316 365.173 92.7178C365.215 92.576 365.202 92.4253 365.136 92.2912C365.067 92.2195 364.981 92.1634 364.884 92.1274C364.788 92.0915 364.684 92.0765 364.58 92.0838L354.321 91.4042C353.365 91.3605 352.414 91.2603 351.472 91.1043C350.919 91.0009 349.458 90.2781 348.931 90.4703C347.955 90.8261 347.699 95.0104 347.499 95.9744Z" fill="black"/>
<path d="M357.309 96.9451C365.622 96.9451 372.361 90.7446 372.361 83.0958C372.361 75.4471 365.622 69.2466 357.309 69.2466C348.997 69.2466 342.258 75.4471 342.258 83.0958C342.258 90.7446 348.997 96.9451 357.309 96.9451Z" fill="#A0616A"/>
<path d="M349.61 114.115C350.353 114.907 351.249 115.566 352.253 116.059C353.3 116.457 354.424 116.654 355.556 116.637C358.269 116.708 361.21 116.25 363.098 114.455C365.531 112.142 365.451 108.41 367.358 105.711C367.511 105.466 367.721 105.255 367.972 105.093C368.292 104.932 368.653 104.856 369.017 104.872C371.426 104.851 373.524 106.288 375.417 107.658C376.308 108.222 377.073 108.939 377.67 109.769C378.044 110.442 378.301 111.164 378.43 111.91C379.369 116.131 379.674 120.446 379.976 124.745C380.142 127.12 380.309 129.497 380.297 131.876C380.256 139.716 378.276 147.425 376.306 155.052C376.053 156.035 375.705 157.133 374.734 157.604C374.301 157.783 373.836 157.888 373.362 157.912C367.721 158.522 362.069 159.132 356.391 159.213C354.175 159.244 351.959 159.195 349.745 159.064C349.364 159.06 348.986 158.999 348.626 158.885C348.137 158.669 347.716 158.34 347.405 157.931C344.334 154.37 344.152 149.446 344.172 144.899C344.22 133.783 344.652 122.675 345.467 111.577C345.534 110.661 345.549 109.548 344.832 108.828C346.228 110.732 347.829 112.504 349.61 114.115Z" fill="white"/>
<path d="M346.421 98.124C345.912 98.9707 342.164 101.073 341.441 101.775C337.398 105.696 330.02 105.549 326.323 109.748C325.022 111.226 324.346 113.082 323.849 114.928C323.146 117.538 322.77 120.385 323.948 122.847C325.081 125.215 327.467 126.853 329.086 128.968C330.865 131.291 331.664 134.112 332.43 136.864C332.996 138.896 333.567 140.979 333.346 143.067C333.096 145.441 331.847 147.615 331.11 149.902C330.373 152.189 330.246 154.913 331.95 156.71C333.202 158.03 335.167 158.553 337.044 158.848C339.449 159.18 341.874 159.375 344.304 159.43C346.451 159.517 348.816 159.534 350.466 158.268C351.768 157.269 352.334 155.648 352.407 154.09C352.48 152.531 352.128 150.987 351.907 149.44C351.678 147.837 351.591 146.22 351.517 144.605C351.187 137.356 351.142 130.103 351.382 122.846C351.503 121.337 351.422 119.821 351.142 118.331C350.682 116.389 349.542 114.654 348.59 112.87C346.689 109.51 345.827 105.734 346.1 101.955C346.389 98.0702 348.23 95.1109 346.421 98.124Z" fill="white"/>
<path d="M367.557 98.4186C368.331 99.1509 370.962 99.3923 371.947 99.8639C372.873 100.258 373.84 100.566 374.833 100.783C378.426 101.737 381.843 103.18 384.972 105.065C385.622 105.415 386.196 105.872 386.667 106.413C387.163 107.155 387.483 107.985 387.605 108.85C388.087 111.048 388.572 113.273 388.464 115.513C388.349 117.891 387.57 120.194 386.798 122.466L383.912 130.955C381.758 137.292 379.59 143.691 378.984 150.306C378.649 153.973 378.798 157.664 379.428 161.297C379.487 161.474 379.505 161.66 379.48 161.844C379.455 162.027 379.388 162.204 379.283 162.362C379.093 162.535 378.842 162.641 378.576 162.661C377.183 162.861 375.835 162.208 374.573 161.63C370.716 159.864 366.6 158.624 362.354 157.951C364.014 155.745 365.294 153.317 366.15 150.752C366.636 149.124 367.019 147.471 367.296 145.802L368.639 138.657C369.185 136.046 369.569 133.408 369.79 130.757C369.892 129.762 369.829 128.759 369.603 127.781C369.294 126.851 368.883 125.951 368.377 125.097C366.165 120.863 365.127 116.03 365.997 111.401C366.378 109.375 367.119 107.346 366.81 105.309C366.513 103.351 366.822 101.83 366.276 99.892C364.034 91.936 366.1 97.041 367.557 98.4186Z" fill="white"/>
<path d="M326.285 116.443C325.276 118.369 323.59 120.01 323.016 122.081C322.792 123.049 322.697 124.039 322.731 125.028C322.631 126.519 322.792 128.015 323.206 129.459C323.526 130.373 324.047 131.215 324.423 132.111C324.946 133.362 325.179 134.7 325.107 136.039C325.006 137.894 324.321 139.695 324.267 141.551C324.183 144.471 325.651 147.216 327.083 149.823C327.444 149.002 327.995 148.263 328.698 147.658C329.402 147.053 330.24 146.597 331.155 146.321C332.07 146.045 333.039 145.957 333.995 146.062C334.951 146.167 335.871 146.463 336.689 146.929C337.017 146.559 337.173 146.084 337.122 145.608C337.228 142.221 337.33 138.833 337.428 135.445C337.583 130.206 337.731 124.896 336.421 119.796C335.83 117.492 334.91 115.198 333.223 113.412C332.334 112.471 329.319 109.994 327.861 111.048C327.205 111.521 327.358 112.811 327.254 113.465C327.098 114.497 326.771 115.501 326.285 116.443Z" fill="white"/>
<path d="M388.759 110.893C389.164 112.282 389.338 113.72 389.274 115.156C389.293 118.085 389.251 121.013 389.147 123.94C389.163 125.442 388.954 126.939 388.527 128.388C388.201 129.33 387.699 130.214 387.362 131.153C386.354 133.968 386.905 137.021 386.992 139.984C387.053 140.943 386.964 141.905 386.727 142.841C386.195 144.677 384.766 146.161 383.768 147.826C382.82 149.406 382.248 151.178 381.116 152.653C379.984 154.127 378.025 155.296 376.126 154.843C374.687 154.5 373.664 153.328 372.957 152.125C371.413 149.48 370.886 146.433 371.459 143.477C372.169 139.881 374.464 136.691 375.292 133.116C376.429 128.208 374.701 123.142 374.753 118.124C374.729 117.337 374.845 116.552 375.096 115.8C375.53 114.653 376.463 113.738 377.325 112.818C378.401 111.669 379.401 110.462 380.32 109.202C380.936 108.355 381.774 106.178 382.868 105.997C385.309 105.593 388.153 109.158 388.759 110.893Z" fill="white"/>
<path d="M313.616 159.821C312.266 159.509 310.875 159.373 309.483 159.417C308.022 159.491 306.594 159.851 305.295 160.472C303.996 161.094 302.855 161.963 301.949 163.021C301.044 164.079 300.393 165.303 300.041 166.611C299.689 167.918 299.643 169.28 299.907 170.605C300.245 172.04 300.796 173.426 301.545 174.722C302.641 176.769 303.955 178.811 305.984 180.122C307.207 180.843 308.523 181.42 309.902 181.838L320.588 185.542C322.16 186.087 323.733 186.632 325.32 187.137C333.296 189.674 341.612 191.195 350.035 191.658C352.599 191.879 355.183 191.759 357.709 191.301C358.32 191.227 358.88 190.949 359.281 190.519C359.485 190.193 359.605 189.828 359.632 189.452L360.29 185.216C360.437 184.627 360.418 184.012 360.234 183.431C359.932 182.719 359.177 182.271 358.458 181.891C351.432 178.178 343.229 176.13 337.316 171.034C335.924 169.834 334.759 167.933 333.068 167.118C331.15 166.194 328.891 165.667 326.908 164.815C322.574 162.954 318.313 160.815 313.616 159.821Z" fill="#2F2E41"/>
<path opacity="0.1" d="M324.284 165.531C328.061 166.62 344.008 174.165 346.741 176.799C346.375 176.921 333.944 170.511 333.571 170.408C330.152 169.544 326.804 168.458 323.551 167.159C322.903 166.883 319.343 165.587 319.504 164.835C319.686 163.987 323.614 165.338 324.284 165.531Z" fill="black"/>
<path d="M371.405 193.855C371.619 193.87 371.832 193.812 372.004 193.693C372.079 193.604 372.134 193.502 372.166 193.393C372.199 193.285 372.207 193.171 372.191 193.059L372.173 187.289C370.37 186.498 368.353 186.245 366.373 186.001L357.134 184.865C357.346 184.891 355.69 188.526 355.944 189.011C356.391 189.867 359.813 190.625 360.779 191.029C364.136 192.433 367.624 193.976 371.405 193.855Z" fill="#A0616A"/>
<path d="M342.419 187.269C340.675 187.524 338.728 187.75 337.598 189C336.166 190.584 336.776 192.946 337.459 194.909C337.501 195.162 337.597 195.405 337.743 195.624C337.888 195.842 338.08 196.031 338.306 196.18C338.533 196.329 338.789 196.435 339.061 196.491C339.333 196.548 339.614 196.553 339.888 196.507C341.479 196.6 343.172 196.673 344.562 195.955C345.191 195.572 345.797 195.157 346.377 194.713C347.402 194.085 348.529 193.612 349.715 193.309C351.896 192.678 354.141 192.252 356.416 192.038C357.312 192.001 358.199 191.857 359.055 191.61C359.483 191.483 359.873 191.268 360.195 190.98C360.518 190.692 360.764 190.339 360.914 189.949C361.236 188.901 360.574 187.832 359.938 186.912C359.206 185.707 358.256 184.627 357.129 183.717C355.407 182.486 354.556 183.431 352.822 184.218C349.54 185.709 346.033 186.737 342.419 187.269Z" fill="#A0616A"/>
<path d="M337.861 188.714L326.785 185.702C325.457 185.276 324.069 185.029 322.664 184.967C321.96 184.941 321.259 185.053 320.606 185.295C319.953 185.538 319.364 185.907 318.879 186.376C318.02 187.303 317.774 188.571 317.56 189.773L317.102 192.346C316.796 193.642 316.71 194.975 316.845 196.296C316.919 196.956 317.156 197.593 317.537 198.157C317.918 198.721 318.434 199.197 319.046 199.55C320.578 200.319 322.457 199.943 324.167 199.622C327.623 198.972 331.137 198.625 334.663 198.586C335.989 198.571 337.38 198.587 338.551 198.015C339.231 197.644 339.802 197.126 340.215 196.506C340.628 195.886 340.87 195.182 340.92 194.456C341.138 192.259 340.342 189.389 337.861 188.714Z" fill="#2F2E41"/>
<path d="M375.759 186.09C377.195 185.858 378.462 185.107 379.838 184.664C381.774 184.04 383.873 184.04 385.924 184.047C386.679 183.984 387.437 184.123 388.107 184.449C389.011 185.003 389.242 186.111 389.396 187.1L390.323 193.067C390.571 194.18 390.597 195.325 390.399 196.447C390.127 197.553 389.308 198.619 388.115 198.904C386.667 199.25 385.247 198.399 383.88 197.84C380.462 196.442 376.489 196.8 372.925 195.755C372.584 195.692 372.262 195.563 371.979 195.377C371.697 195.191 371.46 194.952 371.285 194.676C371.163 194.345 371.12 193.993 371.158 193.645C371.219 191.727 370.779 189.108 371.407 187.275C371.971 185.627 374.156 186.09 375.759 186.09Z" fill="#2F2E41"/>
<path d="M399.198 157.42C401.411 156.909 403.705 156.765 405.973 156.994C407.784 157.177 409.651 157.641 410.973 158.795C412.583 160.199 413.1 162.37 413.143 164.411C413.214 168.475 411.749 172.435 408.999 175.616C408.327 176.42 407.528 177.128 406.629 177.715C405.659 178.273 404.625 178.731 403.546 179.082L379.615 187.767C373.32 190.052 367.002 192.343 360.435 193.85C360.255 193.929 360.06 193.975 359.861 193.985C359.662 193.994 359.463 193.967 359.276 193.904C359.088 193.841 358.916 193.745 358.77 193.62C358.623 193.496 358.506 193.346 358.423 193.179C356.327 190.423 354.568 187.462 353.178 184.35C353.113 184.276 353.067 184.189 353.046 184.095C353.025 184.002 353.028 183.905 353.056 183.813C353.084 183.721 353.136 183.637 353.207 183.567C353.278 183.497 353.366 183.444 353.464 183.412L370.391 174.464C371.632 173.868 372.789 173.134 373.836 172.279C374.567 171.627 375.166 170.86 375.605 170.014C375.956 169.339 375.988 167.748 376.436 167.25C376.875 166.762 378.376 166.723 379.069 166.531C380.047 166.255 381.005 165.922 381.936 165.534C385.722 163.975 389.094 161.711 392.724 159.886C394.759 158.815 396.935 157.986 399.198 157.42Z" fill="#2F2E41"/>
<path opacity="0.1" d="M389.602 164.102C386.693 166.112 382.928 167.96 380.046 170.022C379.062 170.726 362.664 179.209 362.433 180.335C365.122 180.752 382.25 169.727 384.701 168.626C387.151 167.526 389.324 165.975 391.477 164.435C392.025 164.042 394.35 162.862 392.775 162.424C391.888 162.177 390.257 163.701 389.602 164.102Z" fill="black"/>
<path d="M369.592 98.6133H344.065C343.028 98.6133 342.033 98.9924 341.3 99.6672C340.566 100.342 340.154 101.257 340.154 102.211V103.529H339.877V106.476H340.154V108.538H339.877V110.306H340.154V132.048C340.154 133.003 340.566 133.918 341.3 134.593C342.033 135.267 343.028 135.646 344.065 135.646H369.592C370.629 135.646 371.624 135.267 372.357 134.593C373.09 133.918 373.502 133.003 373.502 132.048V102.211C373.502 101.257 373.09 100.342 372.357 99.6671C371.624 98.9924 370.629 98.6133 369.592 98.6133Z" fill="#D0CDE1"/>
<path d="M373.649 70.821L360.702 64.5806L342.822 67.1335L339.123 82.167L348.331 81.8407L350.904 76.3178V81.7501L355.153 81.5997L357.619 72.8063L359.16 82.167L374.266 81.8831L373.649 70.821Z" fill="#2F2E41"/>
<path d="M329.671 155.472C330.257 156.389 331.09 157.15 332.088 157.685C332.743 157.96 333.458 158.094 334.178 158.076C334.898 158.058 335.604 157.89 336.243 157.582C337.517 156.953 338.561 155.991 339.241 154.816C340.648 152.53 340.939 149.794 340.764 147.172C340.588 144.549 339.98 141.967 339.71 139.351C339.514 137.45 339.499 135.537 339.483 133.627C339.434 133.225 339.526 132.82 339.744 132.469C340.12 132.125 340.607 131.902 341.132 131.832C343.972 131.055 345.857 128.606 347.209 126.18C348.111 124.56 348.896 122.79 348.722 120.977C348.548 119.163 347.131 117.337 345.163 117.152C343.541 116.999 342.043 117.948 340.872 118.993C337.92 121.646 336.023 125.135 335.485 128.899C335.228 130.743 335.302 132.637 334.757 134.426C333.593 138.248 329.953 140.591 328.138 144.029C326.139 147.818 327.242 152.12 329.671 155.472Z" fill="#A0616A"/>
<path d="M383.246 140.873C382.832 141.759 382.229 142.56 381.473 143.228C380.717 143.897 379.823 144.419 378.844 144.764C377.628 145.214 376.285 145.29 375.018 144.98C374.39 144.82 373.81 144.528 373.324 144.128C372.837 143.728 372.458 143.23 372.215 142.673C372.021 142.112 371.915 141.529 371.899 140.94C371.717 138.363 371.788 135.708 372.805 133.301C373.197 132.373 373.726 131.492 374.036 130.538C374.34 129.435 374.496 128.303 374.5 127.166L374.834 120.134C374.889 119.624 374.851 119.108 374.72 118.61C374.387 117.592 373.354 116.931 372.405 116.324C370.115 114.859 367.852 113.149 366.743 110.794C366.362 110.086 366.225 109.286 366.352 108.504C366.664 107.108 368.196 106.204 369.709 105.899C370.7 105.7 371.724 105.687 372.719 105.862C373.715 106.036 374.662 106.395 375.504 106.915C376.345 107.435 377.063 108.107 377.615 108.89C378.167 109.672 378.541 110.549 378.714 111.468C378.864 112.262 378.862 113.072 378.949 113.874C379.135 115.574 379.722 117.212 380.089 118.887C380.992 123.012 380.524 127.276 381.418 131.401C382.165 134.849 384.983 137.1 383.246 140.873Z" fill="#A0616A"/>
<path d="M357.17 114.431C358.939 114.431 360.373 113.112 360.373 111.485C360.373 109.857 358.939 108.538 357.17 108.538C355.402 108.538 353.968 109.857 353.968 111.485C353.968 113.112 355.402 114.431 357.17 114.431Z" fill="#019A40"/>
<path d="M9.44866 217.388C14.6659 217.388 18.8954 213.496 18.8954 208.696C18.8954 203.895 14.6659 200.003 9.44866 200.003C4.23139 200.003 0.00195312 203.895 0.00195312 208.696C0.00195312 213.496 4.23139 217.388 9.44866 217.388Z" fill="#2F2E41"/>
<path d="M43.6897 234.5L38.9316 230.245L29.377 232.975L30.2946 243.155L49.9402 242.315L43.905 234.77L43.6897 234.5Z" fill="#FBBEBE"/>
<path d="M33.2845 234.413C41.7194 234.413 48.5572 228.121 48.5572 220.36C48.5572 212.599 41.7194 206.307 33.2845 206.307C24.8496 206.307 18.0117 212.599 18.0117 220.36C18.0117 228.121 24.8496 234.413 33.2845 234.413Z" fill="#FBBEBE"/>
<path d="M128.098 252.538C128.098 252.538 146.861 282.207 151.326 286.661C153.449 288.853 155.712 290.928 158.101 292.874C158.101 292.874 156.002 299.281 152.658 299.052C150.753 298.947 148.884 298.523 147.143 297.802C147.143 297.802 145.651 294.242 143.048 292.682C140.445 291.121 119.18 271.87 119.677 265.718C120.174 259.565 128.098 252.538 128.098 252.538Z" fill="#2F2E41"/>
<path d="M61.2773 294.877C61.2773 294.877 81.2828 309.164 108.471 295.739L110.814 294.153C110.814 294.153 106.86 302.337 106.493 304.556C106.068 307.129 95.7731 322.201 94.0931 322.923C92.4132 323.645 92.043 324.311 92.043 324.311L99.1721 331.532L101.808 329.747C101.808 329.747 112.086 316.348 115.092 313.897C118.098 311.446 132.421 286.169 132.421 286.169C132.421 286.169 137.897 276.644 124.23 275.928C110.564 275.212 104.276 278.639 104.276 278.639L80.0214 282.184L61.2773 294.877Z" fill="#2F2E41"/>
<path d="M158.333 291.471L168.452 297.913C168.452 297.913 181.361 301.634 173.409 304.111C165.457 306.588 144.502 307.483 144.027 304.066C143.551 300.649 144.853 295.271 145.899 295.565C146.944 295.859 154.2 297.593 158.333 291.471Z" fill="#2F2E41"/>
<path d="M102.704 327.534L104.576 336.997C104.576 336.997 109.902 346.368 103.508 343.461C97.1136 340.553 83.9401 329.508 85.8854 327.192C87.8307 324.877 92.1242 322.365 92.5602 323.12C92.9963 323.875 96.2234 328.927 102.704 327.534Z" fill="#2F2E41"/>
<path d="M83.4087 285.291C83.4087 285.291 69.8095 299.9 61.5533 296.351C53.297 292.802 19.519 251.698 23.3759 244.101C27.2327 236.504 28.5259 238.121 28.5259 238.121L45.9666 239.605L40.9484 232.202C40.9484 232.202 43.2915 230.616 45.5241 232.843C47.7568 235.07 56.7206 240.632 59.8432 248.488C62.9659 256.344 72.1338 255.952 72.1338 255.952L83.4087 285.291Z" fill="white"/>
<path d="M138.327 255.166L114.753 278.191L93.6357 243.885L113.711 221.566L138.327 255.166Z" fill="#3F3D56"/>
<path d="M136.548 254.917L115.256 275.15L95.9629 243.971L113.657 223.474L136.548 254.917Z" fill="white"/>
<path d="M113.599 277.312L114.754 278.191L114.013 279.523L81.0499 288.55L80.7383 287.511L82.2379 286.084L113.599 277.312Z" fill="#B3B3B3"/>
<path d="M115.046 277.993L80.9114 287.813L60.1035 251.635L93.6355 243.885L115.046 277.993Z" fill="#D0CDE1"/>
<path d="M112.477 273.086L111.012 274.077L94.7588 248.11L96.4386 247.388L112.477 273.086Z" fill="#3F3D56"/>
<path d="M109.116 274.53L94.6769 278.492L78.2852 251.787L92.5702 248.761L109.116 274.53Z" fill="#3F3D56"/>
<path d="M68.4381 254.717L71.4277 253.939C71.4277 253.939 88.1001 252.204 88.3435 257.024C88.5869 261.845 69.1899 259.608 69.1899 259.608L66.6035 256.374L68.4381 254.717Z" fill="#FBBEBE"/>
<path d="M83.0609 276.387L87.222 274.816C87.222 274.816 99.7827 269.634 96.1795 266.258C92.5762 262.882 81.4634 268.745 81.4634 268.745L79.3359 270.601L83.0609 276.387Z" fill="#FBBEBE"/>
<path d="M79.3518 268.928C79.3518 268.928 86.1272 275.141 84.5855 276.601C83.0437 278.06 57.7625 297.256 51.4955 291.114C45.2285 284.972 14.6949 254.134 26.576 251.489C38.4572 248.845 41.5963 255.028 41.5963 255.028L57.2808 279.719L79.3518 268.928Z" fill="white"/>
<path d="M59.0651 250.054L70.1947 253.527L70.013 260.92L58.2422 259.751L59.0651 250.054Z" fill="white"/>
<path opacity="0.2" d="M69.096 272.757L57.1047 279.216L43.4043 259.828L56.6291 275.799L69.096 272.757Z" fill="black"/>
<path d="M26.5803 233.016C36.6218 233.016 44.7621 225.526 44.7621 216.286C44.7621 207.047 36.6218 199.557 26.5803 199.557C16.5387 199.557 8.39844 207.047 8.39844 216.286C8.39844 225.526 16.5387 233.016 26.5803 233.016Z" fill="#2F2E41"/>
<path d="M124.821 256.626L112.09 239.49L117.487 233.343L130.715 250.973L124.821 256.626Z" fill="#019A40"/>
<path d="M124.463 263.516L105.081 237.59L106.037 236.527L125.328 262.514L124.463 263.516Z" fill="#E6E6E6"/>
<path d="M121.965 266.038L102.583 240.112L103.539 239.049L122.83 265.037L121.965 266.038Z" fill="#E6E6E6"/>
<path d="M119.837 267.894L100.455 241.968L101.411 240.905L120.702 266.893L119.837 267.894Z" fill="#E6E6E6"/>
<path d="M34.6328 205.117H40.2574C43.1052 205.117 45.8363 206.158 47.8501 208.011C49.8638 209.864 50.9951 212.377 50.9951 214.997H34.6328V205.117Z" fill="#2F2E41"/>
<path d="M112.109 198.83L111.089 198.76C111.05 199.248 111.022 199.738 110.988 200.228L106.411 200.087L111.212 208.365L116.604 200.401L112.01 200.259C112.043 199.783 112.071 199.305 112.109 198.83Z" fill="#3F3D56"/>
<path d="M138.953 131.354L139.766 131.926C140.985 130.456 142.259 128.989 143.552 127.565L142.767 126.962C141.465 128.396 140.181 129.874 138.953 131.354Z" fill="#3F3D56"/>
<path d="M146.787 122.728L147.542 123.363C148.899 121.996 150.307 120.638 151.728 119.327L151.004 118.663C149.573 119.983 148.154 121.351 146.787 122.728Z" fill="#3F3D56"/>
<path d="M155.411 114.772L156.103 115.465C157.586 114.212 159.118 112.973 160.656 111.785L159.998 111.064C158.449 112.262 156.906 113.509 155.411 114.772Z" fill="#3F3D56"/>
<path d="M131.974 140.586L132.838 141.088C133.913 139.524 135.042 137.958 136.193 136.436L135.353 135.898C134.193 137.432 133.056 139.009 131.974 140.586Z" fill="#3F3D56"/>
<path d="M164.757 107.546L165.38 108.292C166.977 107.163 168.621 106.054 170.265 104.996L169.679 104.225C168.022 105.291 166.366 106.409 164.757 107.546Z" fill="#3F3D56"/>
<path d="M125.905 150.352L126.815 150.783C127.736 149.134 128.71 147.482 129.71 145.874L128.822 145.406C127.815 147.027 126.833 148.691 125.905 150.352Z" fill="#3F3D56"/>
<path d="M116.042 176.839L115.052 176.604C114.546 178.409 114.079 180.25 113.661 182.076L114.662 182.27C115.076 180.458 115.541 178.63 116.042 176.839Z" fill="#3F3D56"/>
<path d="M174.754 101.107L175.303 101.901C176.998 100.909 178.74 99.9376 180.482 99.0148L179.972 98.1992C178.217 99.1292 176.461 100.107 174.754 101.107Z" fill="#3F3D56"/>
<path d="M113.545 187.753L112.536 187.6C112.207 189.437 111.919 191.309 111.679 193.164L112.694 193.275C112.933 191.434 113.219 189.576 113.545 187.753Z" fill="#3F3D56"/>
<path d="M120.801 160.581L121.748 160.935C122.506 159.218 123.317 157.492 124.159 155.806L123.23 155.414C122.382 157.112 121.565 158.851 120.801 160.581Z" fill="#3F3D56"/>
<path d="M116.705 171.194L117.683 171.469C118.273 169.693 118.914 167.907 119.588 166.159L118.624 165.845C117.945 167.605 117.299 169.405 116.705 171.194Z" fill="#3F3D56"/>
<path d="M243.93 82.3522C245.935 82.2884 247.977 82.2628 249.996 82.2803L250.005 81.3393C247.972 81.3219 245.914 81.3474 243.896 81.4117L243.93 82.3522Z" fill="#3F3D56"/>
<path d="M185.324 95.5081L185.795 96.3434C187.58 95.492 189.409 94.667 191.229 93.8913L190.799 93.0376C188.965 93.8191 187.123 94.6503 185.324 95.5081Z" fill="#3F3D56"/>
<path d="M268.129 83.5255C270.124 83.7854 272.137 84.0895 274.113 84.4297L274.301 83.5049C272.31 83.1621 270.282 82.8554 268.272 82.5938L268.129 83.5255Z" fill="#3F3D56"/>
<path d="M280.049 85.5778C282.007 85.9986 283.984 86.4664 285.922 86.9679L286.199 86.0618C284.246 85.5566 282.255 85.0857 280.282 84.6616L280.049 85.5778Z" fill="#3F3D56"/>
<path d="M291.721 88.5968C293.63 89.1764 295.553 89.804 297.436 90.4624L297.799 89.583C295.902 88.9195 293.965 88.2871 292.041 87.7031L291.721 88.5968Z" fill="#3F3D56"/>
<path d="M256.059 82.4513C258.072 82.5485 260.107 82.6882 262.107 82.866L262.206 81.9296C260.191 81.7502 258.141 81.6096 256.113 81.5117L256.059 82.4513Z" fill="#3F3D56"/>
<path d="M231.722 82.2921L231.846 83.2261C233.839 83.0005 235.869 82.8124 237.878 82.6672L237.798 81.729C235.773 81.8753 233.729 82.0649 231.722 82.2921Z" fill="#3F3D56"/>
<path d="M207.865 86.9999L208.168 87.8986C210.09 87.3512 212.051 86.8361 213.997 86.3677L213.738 85.4575C211.778 85.9291 209.801 86.4481 207.865 86.9999Z" fill="#3F3D56"/>
<path d="M196.385 90.7937L196.773 91.6643C198.632 90.9623 200.532 90.2903 202.418 89.6666L202.072 88.7812C200.171 89.4093 198.258 90.0866 196.385 90.7937Z" fill="#3F3D56"/>
<path d="M219.68 84.1572L219.894 85.0774C221.859 84.6899 223.862 84.3373 225.848 84.0297L225.678 83.1016C223.677 83.4117 221.659 83.7669 219.68 84.1572Z" fill="#3F3D56"/>
<path d="M312.694 96.2807L306.979 88.5098L304.97 92.3156C304.483 92.1158 303.999 91.9116 303.514 91.7181L303.107 92.5818C303.582 92.7708 304.051 92.9689 304.522 93.1625L302.522 96.9503L312.694 96.2807Z" fill="#3F3D56"/>
</g>
<defs>
<clipPath id="clip0">
<rect y="0.0200195" width="463" height="344" fill="white"/>
</clipPath>
</defs>
</svg>
