<svg width="674" height="423" viewBox="0 0 674 423" fill="none" xmlns="http://www.w3.org/2000/svg">
<ellipse cx="464.852" cy="321.496" rx="98.1378" ry="97.9682" fill="white"/>
<path d="M513.285 256.479L383.121 294.296C380.187 295.149 378.545 298.059 379.455 300.796L402.814 371.085C403.723 373.822 406.84 375.35 409.774 374.497L539.938 336.68C542.873 335.828 544.515 332.918 543.605 330.18L520.246 259.892C519.336 257.154 516.22 255.627 513.285 256.479Z" fill="url(#paint0_linear)"/>
<path d="M387.776 287.575L518.076 263.495C520.836 262.985 523.5 264.669 524.073 267.188L539.866 336.519C540.44 339.038 538.727 341.531 535.967 342.041L405.667 366.12C402.908 366.63 400.244 364.946 399.67 362.428L383.878 293.096C383.304 290.577 385.017 288.085 387.776 287.575Z" fill="white" stroke="#B6B6B6"/>
<path d="M446.973 345.748L411.923 355.901L413.522 360.698L448.572 350.545L446.973 345.748Z" fill="#BDBDBD"/>
<path d="M470.001 330.203L409.226 347.808L410.824 352.604L471.6 334.999L470.001 330.203Z" fill="#E0E0E0"/>
<path d="M542.063 283.425H404.897C401.823 283.425 399.331 285.748 399.331 288.613V362.278C399.331 365.144 401.823 367.467 404.897 367.467H542.063C545.137 367.467 547.629 365.144 547.629 362.278V288.613C547.629 285.748 545.137 283.425 542.063 283.425Z" fill="url(#paint1_linear)"/>
<path d="M406.581 284.782H539.907C542.739 284.782 544.973 286.913 544.973 289.47V360.081C544.973 362.638 542.739 364.769 539.907 364.769H406.581C403.75 364.769 401.516 362.638 401.516 360.081V289.47C401.516 286.913 403.75 284.782 406.581 284.782Z" fill="white" stroke="#019A40"/>
<path d="M439.577 323.597H435.368V334.741H439.577V323.597Z" fill="#E0E0E0"/>
<path d="M444.965 323.597H440.756V334.741H444.965V323.597Z" fill="#E0E0E0"/>
<path d="M450.353 323.597H446.144V334.741H450.353V323.597Z" fill="#E0E0E0"/>
<path d="M459.781 323.597H455.572V334.741H459.781V323.597Z" fill="#E0E0E0"/>
<path d="M465.169 323.597H460.96V334.741H465.169V323.597Z" fill="#E0E0E0"/>
<path d="M470.556 323.597H466.347V334.741H470.556V323.597Z" fill="#E0E0E0"/>
<path d="M479.985 323.597H475.775V334.741H479.985V323.597Z" fill="#E0E0E0"/>
<path d="M485.372 323.597H481.163V334.741H485.372V323.597Z" fill="#E0E0E0"/>
<path d="M490.76 323.597H486.551V334.741H490.76V323.597Z" fill="#E0E0E0"/>
<path d="M500.189 323.597H495.979V334.741H500.189V323.597Z" fill="#E0E0E0"/>
<path d="M505.576 323.597H501.367V334.741H505.576V323.597Z" fill="#E0E0E0"/>
<path d="M510.964 323.597H506.755V334.741H510.964V323.597Z" fill="#E0E0E0"/>
<path d="M527.02 296.758H501.924V309.587H527.02V296.758Z" fill="#019A40"/>
<path opacity="0.1" d="M523.139 347.573H507.758V361.912H523.139V347.573Z" fill="#019A40"/>
<path opacity="0.1" d="M530.831 347.573H515.449V361.912H530.831V347.573Z" fill="#019A40"/>
<path d="M457.69 325.42C457.689 329.459 456.64 333.422 454.655 336.889C452.669 340.355 449.822 343.195 446.414 345.107C446.159 345.252 445.899 345.39 445.636 345.523C442.712 347.001 439.504 347.767 436.254 347.761C433.005 347.755 429.8 346.977 426.881 345.487C426.378 345.231 425.887 344.954 425.407 344.656C424.92 344.358 424.446 344.037 423.986 343.698C420.964 341.479 418.543 338.481 416.959 334.995C415.376 331.509 414.684 327.655 414.95 323.807C415.217 319.959 416.433 316.249 418.481 313.038C420.529 309.826 423.338 307.223 426.635 305.482C427.938 304.79 429.306 304.243 430.717 303.848C431.339 303.672 431.972 303.526 432.615 303.409C433.829 303.189 435.06 303.079 436.292 303.08C436.546 303.08 436.797 303.084 437.049 303.097C437.233 303.101 437.417 303.109 437.602 303.121C439.528 303.242 441.429 303.635 443.254 304.29C443.411 304.346 443.567 304.404 443.722 304.464C444.261 304.671 444.788 304.901 445.303 305.155C449.003 306.948 452.136 309.809 454.33 313.399C456.525 316.99 457.691 321.161 457.69 325.42Z" fill="#019A40"/>
<path d="M444.644 302.576C442.698 297.78 437.742 296.874 437.742 296.874C437.742 296.874 432.971 295.545 428.986 301.874C425.272 307.774 420.482 313.301 426.556 315.656L428.161 312.138L428.353 316.187C429.236 316.379 430.129 316.52 431.027 316.61C437.765 317.325 444.116 318.513 444.233 315.971C444.39 312.592 446.517 307.19 444.644 302.576Z" fill="#2F2E41"/>
<path d="M427.342 341.661L427.183 342.989L426.882 345.487C426.379 345.231 425.887 344.954 425.408 344.656C424.92 344.358 424.447 344.037 423.987 343.698L424.035 342.409L424.088 340.98L426.288 341.441L427.342 341.661Z" fill="#FFB8B8"/>
<path d="M449.478 343.017C448.516 343.804 447.491 344.503 446.415 345.107L445.377 341.352L445.24 340.858L444.899 339.623L445.266 339.563L449.018 338.944L449.139 340.01L449.478 343.017Z" fill="#FFB8B8"/>
<path d="M437.745 312.464C440.978 312.464 443.598 309.729 443.598 306.354C443.598 302.979 440.978 300.243 437.745 300.243C434.513 300.243 431.893 302.979 431.893 306.354C431.893 309.729 434.513 312.464 437.745 312.464Z" fill="#FFB8B8"/>
<path d="M433.735 308.73C433.735 308.73 434.169 316.425 432.868 316.878C431.568 317.33 439.588 316.878 439.588 316.878C439.588 316.878 438.504 312.125 439.588 310.767C440.672 309.409 433.735 308.73 433.735 308.73Z" fill="#FFB8B8"/>
<path d="M439.697 315.633C439.697 315.633 434.061 315.18 432.977 315.633C431.893 316.085 428.858 318.349 428.858 318.349L430.376 332.607L442.732 335.323L444.683 332.381L446.633 328.08L445.766 322.649L445.55 319.48L439.697 315.633Z" fill="#D0CDE1"/>
<path d="M427.774 319.254C427.774 319.254 424.956 319.933 424.739 322.196C424.522 324.459 424.522 330.117 424.739 331.023C424.956 331.928 424.739 332.38 424.522 332.607C424.306 332.833 423.872 332.38 424.306 333.059C424.739 333.738 424.739 333.738 424.522 334.417C424.306 335.096 423.655 334.191 424.089 335.323C424.522 336.454 424.739 336.681 424.522 336.907C424.306 337.133 423.655 342.339 423.655 342.339L427.34 343.018L431.025 329.665L427.774 319.254Z" fill="#D0CDE1"/>
<path d="M444.682 319.254C445.094 319.278 445.492 319.416 445.835 319.655C446.178 319.894 446.454 320.224 446.633 320.612C447.284 321.97 449.018 330.796 448.801 331.475C448.584 332.154 448.151 331.249 448.584 332.607C449.018 333.965 448.584 333.738 448.801 334.644C449.018 335.549 447.934 334.644 448.801 335.549C449.668 336.454 450.102 336.681 449.668 337.133C449.235 337.586 448.584 336.681 449.235 337.586C449.885 338.491 449.885 339.849 449.885 339.849L444.682 340.981L443.165 328.307L444.682 319.254Z" fill="#D0CDE1"/>
<path d="M445.376 341.352L445.636 345.523C442.712 347.002 439.504 347.767 436.255 347.761C433.006 347.755 429.8 346.977 426.881 345.487C426.378 345.231 425.887 344.954 425.407 344.656C425.574 344.017 425.742 343.38 425.914 342.755C426.037 342.31 426.161 341.872 426.287 341.441C427.26 338.117 428.308 335.29 429.29 334.191C429.29 334.191 429.29 331.703 429.724 331.475C429.933 331.304 430.092 331.077 430.184 330.817C430.346 330.444 430.482 330.059 430.592 329.665L429.875 327.923L426.665 320.121C426.574 319.898 426.568 319.646 426.647 319.419C426.727 319.191 426.887 319.003 427.095 318.894L428.159 318.338C428.267 318.282 428.384 318.249 428.504 318.24C428.624 318.232 428.745 318.248 428.859 318.289C428.973 318.329 429.078 318.393 429.168 318.476C429.259 318.559 429.333 318.659 429.386 318.772L434.277 329.212L439.696 332.834L443.496 331.07L443.597 331.022C443.597 331.022 446.416 326.496 445.549 324.233C445.178 323.267 444.77 321.976 444.419 320.812C444.215 320.125 444.033 319.482 443.89 318.977C443.868 318.897 443.87 318.811 443.895 318.732C443.921 318.653 443.969 318.584 444.034 318.535C444.098 318.485 444.176 318.458 444.256 318.456C444.336 318.454 444.414 318.478 444.481 318.524L445.22 319.039C445.387 319.156 445.52 319.32 445.602 319.513C445.636 319.588 445.662 319.667 445.677 319.749L447.282 327.855L445.115 332.607V337.133L445.265 339.563L445.345 340.835L445.376 341.352Z" fill="#2F2E41"/>
<path d="M443.543 300.833L438.577 298.117L431.719 299.228L430.3 305.771L433.832 305.629L434.819 303.225V305.59L436.449 305.524L437.395 301.697L437.986 305.771L443.78 305.648L443.543 300.833Z" fill="#2F2E41"/>
<path d="M431.784 307.542C432.143 307.542 432.434 307.01 432.434 306.354C432.434 305.697 432.143 305.166 431.784 305.166C431.425 305.166 431.134 305.697 431.134 306.354C431.134 307.01 431.425 307.542 431.784 307.542Z" fill="#FFB8B8"/>
<path d="M456.222 294.687H453.216V299.864H451.52V287.067H455.756C457.198 287.067 458.305 287.395 459.078 288.051C459.858 288.708 460.247 289.663 460.247 290.917C460.247 291.713 460.031 292.408 459.597 293C459.169 293.591 458.572 294.034 457.804 294.327L460.81 299.758V299.864H458.999L456.222 294.687ZM453.216 293.307H455.809C456.647 293.307 457.312 293.09 457.804 292.657C458.302 292.223 458.551 291.643 458.551 290.917C458.551 290.125 458.314 289.519 457.839 289.097C457.37 288.675 456.691 288.461 455.8 288.456H453.216V293.307ZM469.854 293.949H464.308V298.484H470.75V299.864H462.62V287.067H470.662V288.456H464.308V292.569H469.854V293.949ZM482.686 299.864H480.99L474.547 290.002V299.864H472.851V287.067H474.547L481.007 296.972V287.067H482.686V299.864ZM487.493 299.864H485.806V287.067H487.493V299.864ZM497.821 293.949H492.275V298.484H498.717V299.864H490.587V287.067H498.629V288.456H492.275V292.569H497.821V293.949ZM479.724 316.803C479.566 318.157 479.065 319.203 478.221 319.941C477.383 320.673 476.267 321.04 474.872 321.04C473.361 321.04 472.148 320.498 471.234 319.414C470.325 318.33 469.871 316.879 469.871 315.063V313.833C469.871 312.643 470.082 311.597 470.504 310.695C470.932 309.792 471.535 309.101 472.315 308.621C473.094 308.134 473.996 307.891 475.022 307.891C476.381 307.891 477.471 308.272 478.291 309.034C479.112 309.79 479.589 310.838 479.724 312.18H478.028C477.881 311.161 477.562 310.422 477.07 309.965C476.583 309.508 475.901 309.28 475.022 309.28C473.944 309.28 473.097 309.678 472.482 310.475C471.872 311.272 471.568 312.406 471.568 313.876V315.116C471.568 316.504 471.858 317.609 472.438 318.429C473.018 319.25 473.829 319.66 474.872 319.66C475.81 319.66 476.528 319.449 477.026 319.027C477.53 318.599 477.864 317.858 478.028 316.803H479.724Z" fill="white"/>
<ellipse cx="98.7277" cy="98.0742" rx="98.1378" ry="97.9682" fill="white"/>
<g clip-path="url(#clip0)">
<path d="M134.569 147.016L116.691 136.718C116.691 136.718 106.451 122.988 104.715 114.201C102.979 105.414 95.1689 89.7611 95.1689 89.7611V81.523C95.1689 81.523 86.1433 78.7769 85.4491 86.3285C84.7548 93.8802 87.3583 103.629 87.3583 103.629C87.3583 103.629 89.9618 115.986 84.0605 119.144L62.5381 147.016C62.5381 147.016 83.1927 161.982 99.3345 163.904L134.569 183.264V147.016Z" fill="#FFB8B8"/>
<path d="M41.6235 107.542H41.0342C35.7246 107.542 32.74 112.5 36.2288 115.666C37.3518 116.686 39.0585 117.391 41.6235 117.427V107.542Z" fill="#FFB8B8"/>
<path d="M41.6235 117.427H41.0342C35.7246 117.427 32.74 122.386 36.2288 125.552C37.3518 126.571 39.0585 127.277 41.6235 127.313V117.427Z" fill="#FFB8B8"/>
<path d="M41.6235 127.313H41.0342C35.7246 127.313 32.74 132.272 36.2288 135.438C37.3518 136.457 39.0585 137.163 41.6235 137.199V127.313Z" fill="#FFB8B8"/>
<path d="M41.6235 137.199H41.0342C35.7246 137.199 32.74 142.158 36.2288 145.324C37.3518 146.343 39.0585 147.049 41.6235 147.085V137.199Z" fill="#FFB8B8"/>
<path d="M87.7061 105.181H87.1895V93.9871C87.1895 93.1363 86.9777 92.2938 86.5661 91.5078C86.1545 90.7217 85.5512 90.0075 84.7907 89.4059C84.0302 88.8043 83.1273 88.3271 82.1336 88.0015C81.14 87.6759 80.075 87.5083 78.9994 87.5083H49.0192C47.9436 87.5083 46.8786 87.6759 45.885 88.0015C44.8913 88.3271 43.9884 88.8043 43.2279 89.4059C42.4674 90.0075 41.8641 90.7217 41.4525 91.5078C41.0409 92.2938 40.8291 93.1363 40.8291 93.9871V155.398C40.8291 156.249 41.0409 157.092 41.4525 157.878C41.8641 158.664 42.4674 159.378 43.2279 159.98C43.9884 160.581 44.8913 161.058 45.885 161.384C46.8786 161.71 47.9436 161.877 49.0192 161.877H78.9994C80.075 161.877 81.14 161.71 82.1336 161.384C83.1273 161.058 84.0302 160.581 84.7907 159.98C85.5512 159.378 86.1545 158.664 86.5661 157.878C86.9777 157.092 87.1895 156.249 87.1895 155.398V113.149H87.7061V105.181Z" fill="#3F3D56"/>
<path d="M85.4454 94.0324V155.353C85.4441 156.07 85.242 156.778 84.8537 157.426C84.4653 158.074 83.9004 158.646 83.1995 159.101C83.0444 159.202 82.8828 159.296 82.7152 159.383C81.7125 159.911 80.534 160.193 79.3289 160.191H49.2044C48.7161 160.192 48.2295 160.146 47.7551 160.054C46.4239 159.797 45.2403 159.194 44.394 158.342C43.5477 157.489 43.0877 156.437 43.0879 155.353V94.0324C43.088 92.7491 43.7325 91.5185 44.8795 90.6111C46.0266 89.7038 47.5823 89.194 49.2044 89.1938H52.8598C52.6798 89.5428 52.6111 89.9215 52.6597 90.2964C52.7083 90.6714 52.8728 91.0311 53.1386 91.3439C53.4044 91.6567 53.7634 91.913 54.1839 92.0902C54.6044 92.2674 55.0736 92.3601 55.5501 92.36H72.7246C73.2009 92.3596 73.6698 92.2667 74.0901 92.0894C74.5104 91.9121 74.8692 91.6559 75.135 91.3433C75.4008 91.0306 75.5656 90.6711 75.6147 90.2963C75.6638 89.9216 75.5958 89.543 75.4167 89.1938H79.3289C80.951 89.194 82.5067 89.7038 83.6538 90.6111C84.8008 91.5185 85.4453 92.7491 85.4454 94.0324Z" fill="#019A40"/>
<path d="M57.9453 135.404C57.9453 135.404 60.9024 141.901 58.6024 145.54C56.3025 149.179 62.2166 153.338 62.2166 153.338C62.2166 153.338 77.6591 147.1 75.6877 143.981C73.7164 140.862 70.4307 136.703 71.0878 134.104L57.9453 135.404Z" fill="#FFB8B8"/>
<path d="M63.6957 137.873C69.5024 137.873 74.2097 134.149 74.2097 129.555C74.2097 124.962 69.5024 121.238 63.6957 121.238C57.8889 121.238 53.1816 124.962 53.1816 129.555C53.1816 134.149 57.8889 137.873 63.6957 137.873Z" fill="#FFB8B8"/>
<path d="M84.1375 158.741C83.8611 159.02 83.5468 159.274 83.2002 159.499C83.0452 159.599 82.8835 159.693 82.716 159.78C81.7457 160.291 80.5828 160.452 79.3296 160.452H52.7217L53.1816 150.349L56.1392 145.151C56.8032 145.563 57.5138 145.925 58.262 146.234C58.439 146.309 58.6265 146.385 58.8226 146.459C61.5927 147.518 66.1211 148.449 70.5107 145.856C71.8923 145.041 73.26 143.875 74.5565 142.255L82.7524 145.93L83.1829 149.912L84.1375 158.741Z" fill="white"/>
<path d="M59.451 141.261L59.0396 144.662L58.8227 146.459L58.4981 149.135L57.1113 160.589H49.2052C48.7169 160.589 48.2303 160.543 47.756 160.451L44.6387 149.049L44.7289 149.002L59.451 141.261Z" fill="#2F2E41"/>
<path d="M85.4455 143.598V155.75C85.4442 156.467 85.2421 157.176 84.8537 157.824C84.4654 158.472 83.9005 159.044 83.1995 159.499C83.0445 159.599 82.8829 159.693 82.7153 159.78C81.7126 160.309 80.534 160.59 79.329 160.589H68.75C68.9808 156.748 69.3887 153 69.866 149.735C70.0709 148.344 70.2878 147.041 70.51 145.856C71.2251 142.037 71.9922 139.443 72.5425 139.093L76.1805 140.992L85.4455 143.598Z" fill="#2F2E41"/>
<path d="M52.195 158.406L51.8166 160.589H49.2044C48.7161 160.589 48.2295 160.543 47.7551 160.451C46.4239 160.195 45.2403 159.592 44.394 158.739C43.5477 157.887 43.0877 156.834 43.0879 155.75V155.311L44.3098 149.049L44.7281 149.002L46.6096 148.789L52.195 158.406Z" fill="#2F2E41"/>
<path d="M85.4459 145.182V155.75C85.4445 156.467 85.2424 157.176 84.8541 157.824C84.4658 158.472 83.9008 159.044 83.1999 159.499C83.0449 159.599 82.8832 159.693 82.7156 159.78L81.1084 154.247L83.1825 149.912L85.4459 145.182Z" fill="#2F2E41"/>
<path d="M73.7218 122.033C72.1319 119.991 69.6432 118.486 66.7348 117.808L64.5986 119.16L65.4291 117.583C64.7306 117.498 64.0238 117.466 63.3177 117.486L61.3957 119.441L62.1912 117.553C58.8701 117.888 55.7127 119.319 53.7988 121.502C51.3525 124.292 50.9398 128.173 53.3458 130.985C54.0063 129.379 54.8079 127.873 55.4684 126.267C55.6208 126.319 56.1984 126.315 57.0333 126.273L57.8369 124.79L58.0614 126.21C60.552 126.039 64.2463 125.662 66.6075 125.317L66.3779 124.227L67.7516 125.132C68.475 125.001 68.9046 124.881 68.8691 124.79C70.6252 127.029 72.3652 128.46 74.1212 130.699C74.7878 127.54 75.9646 124.915 73.7218 122.033Z" fill="#2F2E41"/>
<path d="M73.1395 130.42C73.5326 130.42 73.8512 129.916 73.8512 129.294C73.8512 128.672 73.5326 128.168 73.1395 128.168C72.7464 128.168 72.4277 128.672 72.4277 129.294C72.4277 129.916 72.7464 130.42 73.1395 130.42Z" fill="#FFB8B8"/>
<path d="M96.2977 158.687C103.535 158.687 109.402 148.298 109.402 135.483C109.402 122.668 103.535 112.279 96.2977 112.279C89.0604 112.279 83.1934 122.668 83.1934 135.483C83.1934 148.298 89.0604 158.687 96.2977 158.687Z" fill="#FFB8B8"/>
<path opacity="0.2" d="M49.1667 106.512C48.4801 106.512 47.809 106.351 47.2381 106.049C46.6672 105.748 46.2223 105.319 45.9596 104.817C45.6968 104.315 45.6281 103.763 45.762 103.23C45.896 102.698 46.2266 102.208 46.7121 101.824C47.1975 101.44 47.8161 101.179 48.4894 101.073C49.1628 100.967 49.8608 101.021 50.4951 101.229C51.1294 101.437 51.6716 101.789 52.053 102.24C52.4344 102.692 52.638 103.223 52.638 103.766C52.637 104.494 52.2709 105.192 51.6201 105.707C50.9694 106.222 50.087 106.511 49.1667 106.512ZM49.1667 101.295C48.5488 101.295 47.9447 101.44 47.431 101.711C46.9172 101.983 46.5167 102.369 46.2803 102.82C46.0438 103.272 45.9819 103.769 46.1025 104.248C46.223 104.728 46.5206 105.168 46.9575 105.514C47.3944 105.859 47.9511 106.095 48.5572 106.19C49.1632 106.285 49.7914 106.236 50.3623 106.049C50.9331 105.862 51.4211 105.546 51.7644 105.139C52.1077 104.733 52.2909 104.255 52.2909 103.766C52.29 103.111 51.9605 102.483 51.3748 102.019C50.7891 101.556 49.995 101.295 49.1667 101.295Z" fill="black"/>
<path opacity="0.2" d="M47.7785 103.491C48.0661 103.491 48.2992 103.307 48.2992 103.079C48.2992 102.852 48.0661 102.667 47.7785 102.667C47.4909 102.667 47.2578 102.852 47.2578 103.079C47.2578 103.307 47.4909 103.491 47.7785 103.491Z" fill="black"/>
<path opacity="0.2" d="M50.382 103.491C50.6696 103.491 50.9027 103.307 50.9027 103.079C50.9027 102.852 50.6696 102.667 50.382 102.667C50.0945 102.667 49.8613 102.852 49.8613 103.079C49.8613 103.307 50.0945 103.491 50.382 103.491Z" fill="black"/>
<path opacity="0.2" d="M50.3816 104.727H47.7781C47.732 104.727 47.6879 104.713 47.6553 104.687C47.6228 104.661 47.6045 104.626 47.6045 104.59C47.6045 104.554 47.6228 104.519 47.6553 104.493C47.6879 104.467 47.732 104.453 47.7781 104.453H50.3816C50.4276 104.453 50.4718 104.467 50.5043 104.493C50.5369 104.519 50.5551 104.554 50.5551 104.59C50.5551 104.626 50.5369 104.661 50.5043 104.687C50.4718 104.713 50.4276 104.727 50.3816 104.727Z" fill="black"/>
<path opacity="0.2" d="M79.3678 106.512C78.6813 106.512 78.0101 106.351 77.4393 106.049C76.8684 105.748 76.4235 105.319 76.1607 104.817C75.898 104.315 75.8292 103.763 75.9632 103.23C76.0971 102.698 76.4277 102.208 76.9132 101.824C77.3987 101.44 78.0172 101.179 78.6906 101.073C79.364 100.967 80.062 101.021 80.6963 101.229C81.3306 101.437 81.8727 101.789 82.2542 102.24C82.6356 102.692 82.8392 103.223 82.8392 103.766C82.8382 104.494 82.4721 105.192 81.8213 105.707C81.1705 106.222 80.2882 106.511 79.3678 106.512ZM79.3678 101.295C78.7499 101.295 78.1459 101.44 77.6321 101.711C77.1183 101.983 76.7179 102.369 76.4814 102.82C76.245 103.272 76.1831 103.769 76.3037 104.248C76.4242 104.728 76.7218 105.168 77.1587 105.514C77.5956 105.859 78.1523 106.095 78.7583 106.19C79.3644 106.285 79.9926 106.236 80.5634 106.049C81.1343 105.862 81.6223 105.546 81.9656 105.139C82.3088 104.733 82.4921 104.255 82.4921 103.766C82.4911 103.111 82.1617 102.483 81.576 102.019C80.9903 101.556 80.1962 101.295 79.3678 101.295Z" fill="black"/>
<path opacity="0.2" d="M77.9787 103.491C78.2663 103.491 78.4994 103.307 78.4994 103.079C78.4994 102.852 78.2663 102.667 77.9787 102.667C77.6911 102.667 77.458 102.852 77.458 103.079C77.458 103.307 77.6911 103.491 77.9787 103.491Z" fill="black"/>
<path opacity="0.2" d="M80.5832 103.491C80.8708 103.491 81.1039 103.307 81.1039 103.079C81.1039 102.852 80.8708 102.667 80.5832 102.667C80.2956 102.667 80.0625 102.852 80.0625 103.079C80.0625 103.307 80.2956 103.491 80.5832 103.491Z" fill="black"/>
<path opacity="0.2" d="M80.5829 105.001C80.5526 105.001 80.5228 104.995 80.4965 104.983C80.1331 104.801 79.7116 104.704 79.2813 104.704C78.851 104.704 78.4296 104.801 78.0662 104.983C78.0464 104.992 78.0246 104.998 78.002 105C77.9794 105.003 77.9564 105.002 77.9343 104.997C77.9123 104.992 77.8916 104.984 77.8735 104.973C77.8554 104.962 77.8402 104.948 77.8288 104.933C77.8174 104.917 77.81 104.9 77.8071 104.882C77.8042 104.864 77.8057 104.846 77.8117 104.828C77.8176 104.811 77.8279 104.795 77.8418 104.78C77.8558 104.766 77.8732 104.754 77.893 104.745C78.3094 104.54 78.7905 104.431 79.2813 104.431C79.7722 104.431 80.2532 104.54 80.6697 104.745C80.7029 104.76 80.7288 104.784 80.7434 104.811C80.7581 104.839 80.7607 104.87 80.7508 104.9C80.7409 104.929 80.7191 104.955 80.6887 104.973C80.6584 104.992 80.6212 105.001 80.5829 105.001Z" fill="black"/>
<path d="M64.4405 109.341C63.0465 109.341 61.6839 109.014 60.5249 108.401C59.3659 107.789 58.4625 106.918 57.9291 105.899C57.3956 104.881 57.2561 103.76 57.528 102.678C57.8 101.597 58.4712 100.603 59.4569 99.8234C60.4425 99.0437 61.6983 98.5127 63.0655 98.2976C64.4327 98.0824 65.8498 98.1928 67.1376 98.6148C68.4254 99.0368 69.5262 99.7514 70.3006 100.668C71.075 101.585 71.4884 102.663 71.4884 103.766C71.4863 105.244 70.743 106.661 69.4217 107.706C68.1005 108.751 66.3091 109.339 64.4405 109.341ZM64.4405 98.748C63.1859 98.748 61.9596 99.0422 60.9164 99.5936C59.8733 100.145 59.0603 100.929 58.5802 101.846C58.1001 102.762 57.9745 103.771 58.2193 104.745C58.464 105.718 59.0681 106.612 59.9552 107.314C60.8423 108.016 61.9726 108.493 63.203 108.687C64.4335 108.881 65.7088 108.781 66.8679 108.402C68.0269 108.022 69.0176 107.379 69.7146 106.553C70.4116 105.728 70.7836 104.758 70.7836 103.766C70.7817 102.435 70.1128 101.16 68.9237 100.219C67.7345 99.2786 66.1222 98.7495 64.4405 98.748V98.748Z" fill="white"/>
<path d="M61.6216 103.208C62.2055 103.208 62.6788 102.834 62.6788 102.372C62.6788 101.91 62.2055 101.536 61.6216 101.536C61.0378 101.536 60.5645 101.91 60.5645 102.372C60.5645 102.834 61.0378 103.208 61.6216 103.208Z" fill="white"/>
<path d="M66.9078 103.208C67.4916 103.208 67.965 102.834 67.965 102.372C67.965 101.91 67.4916 101.536 66.9078 101.536C66.3239 101.536 65.8506 101.91 65.8506 102.372C65.8506 102.834 66.3239 103.208 66.9078 103.208Z" fill="white"/>
<path d="M64.4444 106.488C63.4965 106.488 62.4916 106.216 61.4298 105.673C61.3515 105.632 61.2967 105.569 61.2772 105.497C61.2578 105.425 61.2754 105.349 61.3262 105.287C61.377 105.225 61.4569 105.182 61.5482 105.166C61.6395 105.151 61.7348 105.165 61.8132 105.205C63.681 106.163 65.2724 106.17 66.6796 105.226C66.7509 105.178 66.8432 105.155 66.9363 105.161C67.0293 105.167 67.1155 105.202 67.1759 105.259C67.2362 105.315 67.2659 105.388 67.2583 105.462C67.2506 105.535 67.2064 105.603 67.1352 105.651C66.3038 106.209 65.4044 106.488 64.4444 106.488Z" fill="white"/>
<path d="M76.0694 112.965H71.4883V112.408H75.3646V109.341H76.0694V112.965Z" fill="white"/>
<path d="M53.5163 98.1904H52.8115V94.5664H57.3927V95.1239H53.5163V98.1904Z" fill="white"/>
</g>
<path d="M42.121 47.6709H38.4033V52.9971H37.3134V40.2002H41.4706C42.8359 40.2002 43.9023 40.5312 44.6699 41.1934C45.4374 41.8555 45.8212 42.7812 45.8212 43.9707C45.8212 44.791 45.581 45.5146 45.1005 46.1416C44.62 46.7686 43.9755 47.2021 43.1669 47.4424L46.3661 52.8828V52.9971H45.2148L42.121 47.6709ZM38.4033 46.748H41.7167C42.6249 46.748 43.3544 46.4902 43.9052 45.9746C44.456 45.459 44.7314 44.791 44.7314 43.9707C44.7314 43.0684 44.4443 42.3682 43.87 41.8701C43.2958 41.3721 42.4902 41.123 41.4531 41.123H38.4033V46.748ZM52.2021 53.1729C51.3935 53.1729 50.6611 52.9736 50.0048 52.5752C49.3544 52.1768 48.8476 51.623 48.4843 50.9141C48.121 50.1992 47.9394 49.3994 47.9394 48.5146V48.1367C47.9394 47.2227 48.1152 46.3994 48.4667 45.667C48.8242 44.9346 49.3193 44.3604 49.9521 43.9443C50.5849 43.5225 51.2704 43.3115 52.0087 43.3115C53.163 43.3115 54.0771 43.707 54.7509 44.498C55.4306 45.2832 55.7704 46.3584 55.7704 47.7236V48.3125H48.9853V48.5146C48.9853 49.5928 49.2929 50.4922 49.9081 51.2129C50.5292 51.9277 51.3085 52.2852 52.246 52.2852C52.8085 52.2852 53.3036 52.1826 53.7314 51.9775C54.165 51.7725 54.5575 51.4443 54.9091 50.9932L55.5683 51.4941C54.7949 52.6133 53.6728 53.1729 52.2021 53.1729ZM52.0087 44.208C51.2177 44.208 50.5497 44.498 50.0048 45.0781C49.4658 45.6582 49.1376 46.4375 49.0204 47.416H54.7245V47.3018C54.6952 46.3877 54.4345 45.6436 53.9423 45.0693C53.4501 44.4951 52.8056 44.208 52.0087 44.208ZM61.3339 52.2852C62.0663 52.2852 62.6786 52.0801 63.1708 51.6699C63.6689 51.2539 63.9384 50.7178 63.9794 50.0615H64.9902C64.9609 50.6416 64.7792 51.1719 64.4452 51.6523C64.1113 52.127 63.6659 52.499 63.1093 52.7686C62.5585 53.0381 61.9667 53.1729 61.3339 53.1729C60.0859 53.1729 59.0956 52.7393 58.3632 51.8721C57.6367 51.0049 57.2734 49.8389 57.2734 48.374V48.0576C57.2734 47.1201 57.4374 46.291 57.7656 45.5703C58.0937 44.8496 58.5624 44.293 59.1718 43.9004C59.787 43.5078 60.5048 43.3115 61.3251 43.3115C62.3681 43.3115 63.2265 43.6221 63.9003 44.2432C64.58 44.8643 64.9433 45.6816 64.9902 46.6953H63.9794C63.9325 45.9512 63.663 45.3506 63.1708 44.8936C62.6845 44.4365 62.0693 44.208 61.3251 44.208C60.3759 44.208 59.6376 44.5508 59.1103 45.2363C58.5888 45.9219 58.3281 46.8828 58.3281 48.1191V48.4268C58.3281 49.6396 58.5888 50.5859 59.1103 51.2656C59.6376 51.9453 60.3788 52.2852 61.3339 52.2852ZM66.5195 48.1016C66.5195 47.1875 66.6952 46.3643 67.0468 45.6318C67.4042 44.8994 67.9052 44.3311 68.5497 43.9268C69.2001 43.5166 69.9355 43.3115 70.7558 43.3115C72.0214 43.3115 73.0468 43.7568 73.832 44.6475C74.6171 45.5322 75.0097 46.707 75.0097 48.1719V48.3916C75.0097 49.3115 74.831 50.1406 74.4736 50.8789C74.122 51.6113 73.624 52.1768 72.9794 52.5752C72.3349 52.9736 71.5995 53.1729 70.7734 53.1729C69.5136 53.1729 68.4882 52.7305 67.6972 51.8457C66.912 50.9551 66.5195 49.7773 66.5195 48.3125V48.1016ZM67.5742 48.3916C67.5742 49.5283 67.8671 50.4629 68.4531 51.1953C69.0449 51.9219 69.8183 52.2852 70.7734 52.2852C71.7226 52.2852 72.4902 51.9219 73.0761 51.1953C73.6679 50.4629 73.9638 49.499 73.9638 48.3037V48.1016C73.9638 47.375 73.829 46.71 73.5595 46.1064C73.29 45.5029 72.912 45.0371 72.4257 44.709C71.9394 44.375 71.3827 44.208 70.7558 44.208C69.8183 44.208 69.0536 44.5771 68.4618 45.3154C67.87 46.0479 67.5742 47.0088 67.5742 48.1982V48.3916ZM78.1913 43.4873L78.2265 45.1133C78.5839 44.5273 79.0292 44.082 79.5624 43.7773C80.0956 43.4668 80.6845 43.3115 81.329 43.3115C82.3486 43.3115 83.1074 43.5986 83.6054 44.1729C84.1034 44.7471 84.3554 45.6084 84.3613 46.7568V52.9971H83.3154V46.748C83.3095 45.8984 83.1279 45.2656 82.7704 44.8496C82.4189 44.4336 81.8534 44.2256 81.0742 44.2256C80.4238 44.2256 79.8466 44.4307 79.3427 44.8408C78.8447 45.2451 78.4755 45.793 78.2353 46.4844V52.9971H77.1894V43.4873H78.1913ZM86.5058 48.1016C86.5058 47.1875 86.6816 46.3643 87.0331 45.6318C87.3906 44.8994 87.8915 44.3311 88.5361 43.9268C89.1865 43.5166 89.9218 43.3115 90.7421 43.3115C92.0077 43.3115 93.0331 43.7568 93.8183 44.6475C94.6034 45.5322 94.996 46.707 94.996 48.1719V48.3916C94.996 49.3115 94.8173 50.1406 94.4599 50.8789C94.1083 51.6113 93.6103 52.1768 92.9658 52.5752C92.3212 52.9736 91.5859 53.1729 90.7597 53.1729C89.4999 53.1729 88.4745 52.7305 87.6835 51.8457C86.8984 50.9551 86.5058 49.7773 86.5058 48.3125V48.1016ZM87.5605 48.3916C87.5605 49.5283 87.8534 50.4629 88.4394 51.1953C89.0312 51.9219 89.8046 52.2852 90.7597 52.2852C91.7089 52.2852 92.4765 51.9219 93.0624 51.1953C93.6542 50.4629 93.9501 49.499 93.9501 48.3037V48.1016C93.9501 47.375 93.8154 46.71 93.5458 46.1064C93.2763 45.5029 92.8984 45.0371 92.412 44.709C91.9257 44.375 91.3691 44.208 90.7421 44.208C89.8046 44.208 89.04 44.5771 88.4482 45.3154C87.8564 46.0479 87.5605 47.0088 87.5605 48.1982V48.3916ZM100.691 52.2852C101.424 52.2852 102.036 52.0801 102.528 51.6699C103.026 51.2539 103.296 50.7178 103.337 50.0615H104.348C104.318 50.6416 104.137 51.1719 103.803 51.6523C103.469 52.127 103.023 52.499 102.467 52.7686C101.916 53.0381 101.324 53.1729 100.691 53.1729C99.4433 53.1729 98.4531 52.7393 97.7206 51.8721C96.9941 51.0049 96.6308 49.8389 96.6308 48.374V48.0576C96.6308 47.1201 96.7949 46.291 97.123 45.5703C97.4511 44.8496 97.9199 44.293 98.5292 43.9004C99.1445 43.5078 99.8622 43.3115 100.683 43.3115C101.726 43.3115 102.584 43.6221 103.258 44.2432C103.937 44.8643 104.301 45.6816 104.348 46.6953H103.337C103.29 45.9512 103.02 45.3506 102.528 44.8936C102.042 44.4365 101.427 44.208 100.683 44.208C99.7333 44.208 98.995 44.5508 98.4677 45.2363C97.9462 45.9219 97.6855 46.8828 97.6855 48.1191V48.4268C97.6855 49.6396 97.9462 50.5859 98.4677 51.2656C98.995 51.9453 99.7363 52.2852 100.691 52.2852ZM107.635 52.9971H106.58V43.4873H107.635V52.9971ZM106.395 40.7363C106.395 40.5371 106.46 40.3701 106.589 40.2354C106.718 40.0947 106.893 40.0244 107.116 40.0244C107.339 40.0244 107.515 40.0947 107.643 40.2354C107.778 40.3701 107.846 40.5371 107.846 40.7363C107.846 40.9355 107.778 41.1025 107.643 41.2373C107.515 41.3721 107.339 41.4395 107.116 41.4395C106.893 41.4395 106.718 41.3721 106.589 41.2373C106.46 41.1025 106.395 40.9355 106.395 40.7363ZM111.458 43.4873L111.493 45.0342C111.845 44.46 112.284 44.0293 112.811 43.7422C113.339 43.4551 113.925 43.3115 114.569 43.3115C116.069 43.3115 117.021 43.9268 117.426 45.1572C117.766 44.5654 118.22 44.1113 118.788 43.7949C119.356 43.4727 119.983 43.3115 120.669 43.3115C122.708 43.3115 123.748 44.4248 123.789 46.6514V52.9971H122.734V46.7305C122.728 45.8809 122.544 45.251 122.181 44.8408C121.823 44.4307 121.237 44.2256 120.423 44.2256C119.667 44.2373 119.028 44.4834 118.507 44.9639C117.985 45.4385 117.695 46.0186 117.637 46.7041V52.9971H116.582V46.6514C116.576 45.8369 116.383 45.2305 116.002 44.832C115.627 44.4277 115.047 44.2256 114.262 44.2256C113.6 44.2256 113.031 44.416 112.557 44.7969C112.082 45.1719 111.73 45.7314 111.502 46.4756V52.9971H110.447V43.4873H111.458ZM127.639 52.9971H126.584V43.4873H127.639V52.9971ZM126.399 40.7363C126.399 40.5371 126.464 40.3701 126.593 40.2354C126.722 40.0947 126.897 40.0244 127.12 40.0244C127.343 40.0244 127.518 40.0947 127.647 40.2354C127.782 40.3701 127.85 40.5371 127.85 40.7363C127.85 40.9355 127.782 41.1025 127.647 41.2373C127.518 41.3721 127.343 41.4395 127.12 41.4395C126.897 41.4395 126.722 41.3721 126.593 41.2373C126.464 41.1025 126.399 40.9355 126.399 40.7363ZM134.186 53.1729C133.378 53.1729 132.645 52.9736 131.989 52.5752C131.339 52.1768 130.832 51.623 130.469 50.9141C130.105 50.1992 129.924 49.3994 129.924 48.5146V48.1367C129.924 47.2227 130.1 46.3994 130.451 45.667C130.809 44.9346 131.304 44.3604 131.936 43.9443C132.569 43.5225 133.255 43.3115 133.993 43.3115C135.147 43.3115 136.061 43.707 136.735 44.498C137.415 45.2832 137.755 46.3584 137.755 47.7236V48.3125H130.97V48.5146C130.97 49.5928 131.277 50.4922 131.893 51.2129C132.514 51.9277 133.293 52.2852 134.23 52.2852C134.793 52.2852 135.288 52.1826 135.716 51.9775C136.149 51.7725 136.542 51.4443 136.893 50.9932L137.553 51.4941C136.779 52.6133 135.657 53.1729 134.186 53.1729ZM133.993 44.208C133.202 44.208 132.534 44.498 131.989 45.0781C131.45 45.6582 131.122 46.4375 131.005 47.416H136.709V47.3018C136.68 46.3877 136.419 45.6436 135.927 45.0693C135.435 44.4951 134.79 44.208 133.993 44.208ZM140.805 43.4873L140.84 45.1133C141.197 44.5273 141.643 44.082 142.176 43.7773C142.709 43.4668 143.298 43.3115 143.942 43.3115C144.962 43.3115 145.721 43.5986 146.219 44.1729C146.717 44.7471 146.969 45.6084 146.975 46.7568V52.9971H145.929V46.748C145.923 45.8984 145.741 45.2656 145.384 44.8496C145.032 44.4336 144.467 44.2256 143.687 44.2256C143.037 44.2256 142.46 44.4307 141.956 44.8408C141.458 45.2451 141.089 45.793 140.849 46.4844V52.9971H139.803V43.4873H140.805ZM151.334 41.0527V43.4873H153.303V44.3486H151.334V50.6855C151.334 51.2129 151.428 51.6055 151.615 51.8633C151.809 52.1211 152.128 52.25 152.573 52.25C152.749 52.25 153.033 52.2207 153.426 52.1621L153.47 53.0234C153.194 53.123 152.819 53.1729 152.345 53.1729C151.624 53.1729 151.1 52.9648 150.771 52.5488C150.443 52.127 150.279 51.5088 150.279 50.6943V44.3486H148.53V43.4873H150.279V41.0527H151.334ZM154.727 48.1016C154.727 47.1875 154.902 46.3643 155.254 45.6318C155.611 44.8994 156.112 44.3311 156.757 43.9268C157.407 43.5166 158.143 43.3115 158.963 43.3115C160.228 43.3115 161.254 43.7568 162.039 44.6475C162.824 45.5322 163.217 46.707 163.217 48.1719V48.3916C163.217 49.3115 163.038 50.1406 162.681 50.8789C162.329 51.6113 161.831 52.1768 161.186 52.5752C160.542 52.9736 159.807 53.1729 158.98 53.1729C157.721 53.1729 156.695 52.7305 155.904 51.8457C155.119 50.9551 154.727 49.7773 154.727 48.3125V48.1016ZM155.781 48.3916C155.781 49.5283 156.074 50.4629 156.66 51.1953C157.252 51.9219 158.025 52.2852 158.98 52.2852C159.93 52.2852 160.697 51.9219 161.283 51.1953C161.875 50.4629 162.171 49.499 162.171 48.3037V48.1016C162.171 47.375 162.036 46.71 161.767 46.1064C161.497 45.5029 161.119 45.0371 160.633 44.709C160.146 44.375 159.59 44.208 158.963 44.208C158.025 44.208 157.261 44.5771 156.669 45.3154C156.077 46.0479 155.781 47.0088 155.781 48.1982V48.3916ZM80.6874 73.9971V65.3486H79.1142V64.4873H80.6874V63.3359C80.6874 62.3633 80.9335 61.6162 81.4257 61.0947C81.9238 60.5732 82.6152 60.3125 83.4999 60.3125C83.8984 60.3125 84.2704 60.3623 84.6161 60.4619L84.537 61.3408C84.2441 61.2705 83.9247 61.2354 83.579 61.2354C82.999 61.2354 82.5478 61.417 82.2255 61.7803C81.9033 62.1377 81.7421 62.6475 81.7421 63.3096V64.4873H84.0097V65.3486H81.7421V73.9971H80.6874ZM91.8935 73.9971C91.788 73.6982 91.7206 73.2559 91.6913 72.6699C91.3222 73.1504 90.8505 73.5225 90.2763 73.7861C89.7079 74.0439 89.1044 74.1729 88.4658 74.1729C87.5517 74.1729 86.8105 73.918 86.2421 73.4082C85.6796 72.8984 85.3984 72.2539 85.3984 71.4746C85.3984 70.5488 85.7822 69.8164 86.5497 69.2773C87.3232 68.7383 88.3984 68.4688 89.7753 68.4688H91.6825V67.3877C91.6825 66.708 91.4716 66.1748 91.0497 65.7881C90.6337 65.3955 90.0243 65.1992 89.2216 65.1992C88.4892 65.1992 87.8827 65.3867 87.4023 65.7617C86.9218 66.1367 86.6816 66.5879 86.6816 67.1152L85.6269 67.1064C85.6269 66.3506 85.9784 65.6973 86.6816 65.1465C87.3847 64.5898 88.249 64.3115 89.2743 64.3115C90.3349 64.3115 91.1699 64.5781 91.7792 65.1113C92.3945 65.6387 92.7109 66.377 92.7284 67.3262V71.8262C92.7284 72.7461 92.8251 73.4346 93.0185 73.8916V73.9971H91.8935ZM88.5888 73.2412C89.2919 73.2412 89.9189 73.0713 90.4697 72.7314C91.0263 72.3916 91.4306 71.9375 91.6825 71.3691V69.2773H89.8017C88.7529 69.2891 87.9325 69.4824 87.3408 69.8574C86.749 70.2266 86.4531 70.7363 86.4531 71.3867C86.4531 71.9199 86.6493 72.3623 87.0419 72.7139C87.4404 73.0654 87.956 73.2412 88.5888 73.2412ZM99.0566 73.2852C99.789 73.2852 100.401 73.0801 100.893 72.6699C101.392 72.2539 101.661 71.7178 101.702 71.0615H102.713C102.684 71.6416 102.502 72.1719 102.168 72.6523C101.834 73.127 101.389 73.499 100.832 73.7686C100.281 74.0381 99.6894 74.1729 99.0566 74.1729C97.8085 74.1729 96.8183 73.7393 96.0859 72.8721C95.3593 72.0049 94.996 70.8389 94.996 69.374V69.0576C94.996 68.1201 95.1601 67.291 95.4882 66.5703C95.8163 65.8496 96.2851 65.293 96.8945 64.9004C97.5097 64.5078 98.2275 64.3115 99.0478 64.3115C100.091 64.3115 100.949 64.6221 101.623 65.2432C102.303 65.8643 102.666 66.6816 102.713 67.6953H101.702C101.655 66.9512 101.386 66.3506 100.893 65.8936C100.407 65.4365 99.7919 65.208 99.0478 65.208C98.0986 65.208 97.3603 65.5508 96.8329 66.2363C96.3115 66.9219 96.0507 67.8828 96.0507 69.1191V69.4268C96.0507 70.6396 96.3115 71.5859 96.8329 72.2656C97.3603 72.9453 98.1015 73.2852 99.0566 73.2852ZM106 73.9971H104.945V64.4873H106V73.9971ZM104.761 61.7363C104.761 61.5371 104.825 61.3701 104.954 61.2354C105.083 61.0947 105.259 61.0244 105.481 61.0244C105.704 61.0244 105.88 61.0947 106.009 61.2354C106.143 61.3701 106.211 61.5371 106.211 61.7363C106.211 61.9355 106.143 62.1025 106.009 62.2373C105.88 62.3721 105.704 62.4395 105.481 62.4395C105.259 62.4395 105.083 62.3721 104.954 62.2373C104.825 62.1025 104.761 61.9355 104.761 61.7363ZM114.868 73.9971C114.763 73.6982 114.695 73.2559 114.666 72.6699C114.297 73.1504 113.825 73.5225 113.251 73.7861C112.683 74.0439 112.079 74.1729 111.44 74.1729C110.526 74.1729 109.785 73.918 109.217 73.4082C108.654 72.8984 108.373 72.2539 108.373 71.4746C108.373 70.5488 108.757 69.8164 109.524 69.2773C110.298 68.7383 111.373 68.4688 112.75 68.4688H114.657V67.3877C114.657 66.708 114.446 66.1748 114.024 65.7881C113.608 65.3955 112.999 65.1992 112.196 65.1992C111.464 65.1992 110.857 65.3867 110.377 65.7617C109.896 66.1367 109.656 66.5879 109.656 67.1152L108.601 67.1064C108.601 66.3506 108.953 65.6973 109.656 65.1465C110.359 64.5898 111.224 64.3115 112.249 64.3115C113.31 64.3115 114.144 64.5781 114.754 65.1113C115.369 65.6387 115.685 66.377 115.703 67.3262V71.8262C115.703 72.7461 115.8 73.4346 115.993 73.8916V73.9971H114.868ZM111.563 73.2412C112.267 73.2412 112.893 73.0713 113.444 72.7314C114.001 72.3916 114.405 71.9375 114.657 71.3691V69.2773H112.776C111.727 69.2891 110.907 69.4824 110.315 69.8574C109.724 70.2266 109.428 70.7363 109.428 71.3867C109.428 71.9199 109.624 72.3623 110.017 72.7139C110.415 73.0654 110.931 73.2412 111.563 73.2412ZM119.693 73.9971H118.639V60.4971H119.693V73.9971Z" fill="#373838" fill-opacity="0.71"/>
<ellipse cx="575.643" cy="98.1904" rx="98.1378" ry="97.9682" fill="white"/>
<path d="M628.534 97.0045H624.506V89.1013C624.506 80.1831 617.468 72.7693 608.64 72.6342C606.512 72.6116 604.399 73.0148 602.426 73.8206C600.452 74.6264 598.656 75.8188 597.14 77.3291C595.625 78.8395 594.42 80.6379 593.596 82.6207C592.772 84.6035 592.344 86.7315 592.337 88.8821V97.0045H588.319C586.543 97.0101 584.841 97.7252 583.585 98.9939C582.33 100.263 581.622 101.982 581.616 103.776V136.271C581.622 138.066 582.33 139.785 583.585 141.053C584.841 142.322 586.543 143.037 588.319 143.043H628.534C630.309 143.037 632.011 142.322 633.266 141.053C634.521 139.784 635.228 138.065 635.233 136.271V103.776C635.228 101.982 634.521 100.263 633.266 98.9941C632.011 97.7253 630.309 97.0101 628.534 97.0045ZM610.774 118.129V129.767C610.778 130.384 610.55 130.978 610.136 131.431C609.722 131.884 609.153 132.161 608.545 132.206C608.227 132.221 607.91 132.171 607.612 132.058C607.314 131.946 607.042 131.773 606.812 131.552C606.582 131.33 606.399 131.063 606.274 130.768C606.149 130.473 606.084 130.155 606.084 129.834V118.123C604.997 117.587 604.121 116.695 603.6 115.592C603.079 114.489 602.944 113.24 603.216 112.049C603.488 110.858 604.152 109.796 605.099 109.035C606.045 108.274 607.219 107.86 608.429 107.86C609.639 107.86 610.813 108.274 611.76 109.035C612.706 109.796 613.37 110.858 613.642 112.049C613.914 113.24 613.779 114.489 613.258 115.592C612.737 116.695 611.862 117.587 610.774 118.123V118.129ZM619.822 97.0045H597.027V88.8821C597.027 85.8296 598.228 82.9021 600.364 80.7436C602.501 78.5851 605.399 77.3725 608.42 77.3725C611.442 77.3725 614.34 78.5851 616.476 80.7436C618.613 82.9021 619.813 85.8296 619.813 88.8821L619.822 97.0045Z" fill="#019A40"/>
<path opacity="0.1" d="M621.707 90.1896H617.679V82.2863C617.679 73.3682 610.641 65.9544 601.813 65.8193C599.684 65.7967 597.572 66.1999 595.599 67.0057C593.625 67.8114 591.829 69.0039 590.313 70.5142C588.798 72.0245 587.593 73.8229 586.769 75.8057C585.944 77.7885 585.517 79.9166 585.51 82.0671V90.1896H581.492C579.716 90.1951 578.014 90.9103 576.758 92.1789C575.502 93.4476 574.795 95.1666 574.789 96.9608V129.457C574.795 131.251 575.502 132.97 576.758 134.238C578.014 135.507 579.716 136.222 581.492 136.228H621.707C623.482 136.222 625.183 135.507 626.439 134.238C627.694 132.969 628.401 131.25 628.406 129.457V96.9608C628.401 95.1669 627.694 93.4479 626.439 92.1791C625.183 90.9104 623.482 90.1951 621.707 90.1896ZM603.947 111.314V122.953C603.951 123.569 603.723 124.164 603.309 124.616C602.895 125.069 602.326 125.346 601.718 125.391C601.4 125.406 601.083 125.356 600.785 125.243C600.487 125.131 600.215 124.958 599.985 124.737C599.755 124.515 599.572 124.248 599.447 123.953C599.321 123.658 599.257 123.34 599.257 123.019V111.308C598.17 110.772 597.294 109.88 596.773 108.777C596.252 107.674 596.117 106.425 596.389 105.234C596.661 104.043 597.325 102.981 598.271 102.22C599.218 101.459 600.392 101.045 601.602 101.045C602.812 101.045 603.986 101.459 604.933 102.22C605.879 102.981 606.543 104.043 606.815 105.234C607.087 106.425 606.952 107.674 606.431 108.777C605.91 109.88 605.034 110.772 603.947 111.308V111.314ZM612.995 90.1896H590.2V82.0671C590.2 79.0146 591.401 76.0871 593.537 73.9287C595.674 71.7702 598.572 70.5576 601.593 70.5576C604.615 70.5576 607.512 71.7702 609.649 73.9287C611.786 76.0871 612.986 79.0146 612.986 82.0671L612.995 90.1896Z" fill="black"/>
<path d="M509.08 146.957C509.08 148.507 509.193 150.054 509.42 151.585C510.512 158.82 514.111 165.399 519.547 170.094C519.695 170.222 519.847 170.351 520.001 170.476C520.319 170.742 520.643 170.999 520.973 171.25C521.448 171.612 521.934 171.96 522.431 172.291C526.337 174.892 530.787 176.493 535.412 176.96C540.037 177.427 544.703 176.747 549.022 174.976C549.227 174.892 549.433 174.806 549.635 174.716C549.959 174.574 550.278 174.426 550.596 174.27C551.404 173.882 552.191 173.455 552.959 172.989C553.75 172.511 554.516 171.998 555.255 171.448C555.592 171.197 555.919 170.943 556.246 170.677L556.251 170.675C560.572 167.167 563.849 162.473 565.708 157.129V157.126C567.929 150.697 567.977 143.679 565.842 137.219C563.708 130.758 559.518 125.236 553.956 121.554C553.699 121.387 553.44 121.219 553.178 121.063C552.908 120.89 552.633 120.728 552.354 120.572C548.611 118.425 544.453 117.163 540.181 116.879C539.541 116.834 538.895 116.812 538.245 116.812C538.212 116.812 538.18 116.812 538.147 116.815C537.273 116.815 536.408 116.857 535.555 116.94C528.317 117.633 521.589 121.095 516.692 126.648C511.795 132.201 509.08 139.444 509.08 146.957Z" fill="#3F3D56"/>
<path d="M568.304 157.31C568.304 157.31 576.822 148.212 579.093 153.788C581.364 159.364 570.575 162.299 570.575 162.299L568.304 157.31Z" fill="#FFB8B8"/>
<path d="M520.001 170.477C520.32 170.742 520.644 170.999 520.973 171.25C521.448 171.613 521.934 171.96 522.431 172.291C526.338 174.892 530.788 176.493 535.412 176.96C540.037 177.427 544.703 176.747 549.022 174.976C549.228 174.892 549.433 174.806 549.635 174.716C549.959 174.574 550.278 174.426 550.597 174.27L549.849 173.159C549.306 172.634 548.699 172.186 548.042 171.828C542.925 168.955 533.287 169.045 526.766 169.516C525.837 169.583 524.972 169.659 524.195 169.734C523.709 169.779 523.255 169.826 522.842 169.871C522.674 169.89 522.515 169.907 522.364 169.924C520.908 170.091 520.036 170.223 520.036 170.223L520.001 170.477Z" fill="#2F2E41"/>
<path d="M545.027 129.782C549.534 129.782 553.187 126.006 553.187 121.348C553.187 116.69 549.534 112.915 545.027 112.915C540.521 112.915 536.868 116.69 536.868 121.348C536.868 126.006 540.521 129.782 545.027 129.782Z" fill="#FFB8B8"/>
<path d="M539.627 124.147L533.664 130.603L531.961 140.582L547.009 143.223L545.873 134.125C545.873 134.125 546.157 129.723 547.293 128.843C548.429 127.962 539.627 124.147 539.627 124.147Z" fill="#FFB8B8"/>
<path d="M522.023 171.104C522.521 170.939 523.027 170.8 523.538 170.689C524.826 170.399 526.135 170.226 527.451 170.172C530.566 170.003 533.674 170.625 536.503 171.984C540.64 174.035 545.55 174.594 548.925 174.7C549.171 174.708 549.408 174.714 549.635 174.716C549.959 174.574 550.278 174.426 550.597 174.27C551.404 173.882 552.192 173.455 552.959 172.989L552.949 171.956L552.77 151.524V151.521L552.687 141.755L547.294 135.298L545.909 133.685L545.25 134.296L541.331 137.942L535.62 132.474L533.665 130.604L524.286 163.236L523.077 167.445L522.364 169.924L522.253 170.303V170.306L522.023 171.104Z" fill="#575A89"/>
<path d="M543.813 142.662C543.827 144.128 543.946 145.591 544.17 147.038C545.142 153.455 545.976 164.123 548.042 171.827C548.312 172.843 548.607 173.804 548.925 174.7L549.023 174.976C549.228 174.892 549.433 174.806 549.636 174.716C549.96 174.574 550.278 174.426 550.597 174.27C551.404 173.882 552.192 173.455 552.96 172.988C553.751 172.511 554.516 171.998 555.255 171.448L555.169 171.096V171.093L553.824 165.528C553.824 165.528 554.688 160.869 555.379 155.658V155.655C556.173 149.69 556.74 143.008 555.528 141.754L546.014 132.758L546.012 132.761C545.715 133.249 545.46 133.763 545.25 134.296C544.602 135.884 543.781 138.687 543.813 142.662Z" fill="#D0CDE1"/>
<path d="M514.214 164.04C515.717 166.299 517.511 168.336 519.547 170.094C519.696 170.222 519.847 170.351 520.001 170.476C520.32 170.741 520.644 170.999 520.973 171.249C521.448 171.612 521.934 171.959 522.431 172.291C522.799 171.763 523.168 171.227 523.538 170.688C523.757 170.373 523.976 170.055 524.195 169.734C524.54 169.226 524.886 168.715 525.226 168.201C525.269 168.14 525.31 168.079 525.35 168.017C525.782 167.372 526.209 166.725 526.625 166.08C529.693 161.343 532.236 156.796 532.528 154.08C532.879 150.829 533.589 145.799 534.31 140.995C534.775 137.875 535.245 134.849 535.62 132.473C536.074 129.587 536.387 127.656 536.387 127.656C536.387 127.656 521.508 126.118 519.423 127.628H519.42C519.36 127.663 519.309 127.712 519.268 127.769C519.228 127.827 519.199 127.893 519.185 127.963C518.959 129.598 520.174 144.8 520.676 150.94V150.943C520.806 152.517 520.889 153.494 520.889 153.494C520.889 153.494 520.039 154.669 518.791 156.553C517.519 158.477 515.831 161.137 514.214 164.04Z" fill="#D0CDE1"/>
<path d="M554.675 149.973L556.095 161.418L568.588 155.842L572.563 164.353L552.12 172.277C552.12 172.277 548.429 152.027 554.675 149.973Z" fill="#D0CDE1"/>
<path d="M553.18 122.892C553.18 122.892 554.288 121.654 554.176 120.105C554.102 119.224 554.157 118.336 554.338 117.471C554.338 117.471 553.991 114.935 553.479 113.465C552.966 111.996 553.398 111.484 551.196 110.682C548.993 109.879 550.395 106.977 543.901 109.29C543.654 109.548 543.339 109.724 542.995 109.797C542.651 109.87 542.294 109.836 541.969 109.699C540.77 109.245 540.048 110.948 540.048 110.948C540.048 110.948 539.3 110.313 538.88 110.973C538.46 111.632 536.431 110.129 535.687 114.926C534.942 119.723 537.497 124 537.497 124C537.497 124 537.856 116.324 542.073 116.185C546.291 116.046 551.06 114.395 551.652 117.627C551.961 119.438 552.474 121.204 553.18 122.892Z" fill="#2F2E41"/>
<path d="M519.547 170.094C519.695 170.222 519.847 170.351 520.001 170.476C520.319 170.742 520.643 170.999 520.973 171.25C521.448 171.612 521.934 171.96 522.431 172.291C524.824 173.891 527.431 175.117 530.17 175.931C530.84 174.155 529.236 171.947 527.451 170.172C527.224 169.946 526.992 169.726 526.765 169.516C526.225 169.022 525.693 168.576 525.226 168.202C525.204 168.185 525.185 168.171 525.166 168.154C524.283 167.451 523.643 167.018 523.643 167.018L523.076 167.445L519.547 170.094Z" fill="#FFB8B8"/>
<path d="M509.421 151.586C510.512 158.821 514.111 165.399 519.547 170.094C519.696 170.223 519.847 170.351 520.001 170.477C520.32 170.742 520.644 171 520.973 171.25L522.253 170.307V170.304L522.842 169.871L525.167 168.154L525.351 168.018L527.136 166.7L526.625 166.081L524.287 163.236L518.791 156.554L517.482 154.963L520.676 150.944V150.941L524.011 146.746L521.173 127.963C520.636 127.673 520.026 127.556 519.423 127.628H519.421C518.778 127.743 518.122 128.201 517.765 129.429C517.12 131.653 511.908 145.171 509.421 151.586Z" fill="#D0CDE1"/>
<path d="M536.941 40.4609H532.556V52.335H531.475V40.4609H527.098V39.5381H536.941V40.4609ZM537.311 47.4395C537.311 46.5254 537.486 45.7021 537.838 44.9697C538.195 44.2373 538.696 43.6689 539.341 43.2646C539.991 42.8545 540.727 42.6494 541.547 42.6494C542.813 42.6494 543.838 43.0947 544.623 43.9854C545.408 44.8701 545.801 46.0449 545.801 47.5098V47.7295C545.801 48.6494 545.622 49.4785 545.265 50.2168C544.913 50.9492 544.415 51.5146 543.771 51.9131C543.126 52.3115 542.391 52.5107 541.564 52.5107C540.305 52.5107 539.279 52.0684 538.488 51.1836C537.703 50.293 537.311 49.1152 537.311 47.6504V47.4395ZM538.365 47.7295C538.365 48.8662 538.658 49.8008 539.244 50.5332C539.836 51.2598 540.609 51.623 541.564 51.623C542.514 51.623 543.281 51.2598 543.867 50.5332C544.459 49.8008 544.755 48.8369 544.755 47.6416V47.4395C544.755 46.7129 544.62 46.0479 544.351 45.4443C544.081 44.8408 543.703 44.375 543.217 44.0469C542.73 43.7129 542.174 43.5459 541.547 43.5459C540.609 43.5459 539.845 43.915 539.253 44.6533C538.661 45.3857 538.365 46.3467 538.365 47.5361V47.7295ZM550.239 47.5449L549.035 48.7051V52.335H547.98V38.835H549.035V47.4746L550.028 46.4023L553.667 42.8252H554.994L550.96 46.833L555.346 52.335H554.089L550.239 47.5449ZM560.312 52.5107C559.503 52.5107 558.771 52.3115 558.114 51.9131C557.464 51.5146 556.957 50.9609 556.594 50.252C556.23 49.5371 556.049 48.7373 556.049 47.8525V47.4746C556.049 46.5605 556.225 45.7373 556.576 45.0049C556.934 44.2725 557.429 43.6982 558.062 43.2822C558.694 42.8604 559.38 42.6494 560.118 42.6494C561.272 42.6494 562.187 43.0449 562.86 43.8359C563.54 44.6211 563.88 45.6963 563.88 47.0615V47.6504H557.095V47.8525C557.095 48.9307 557.402 49.8301 558.018 50.5508C558.639 51.2656 559.418 51.623 560.355 51.623C560.918 51.623 561.413 51.5205 561.841 51.3154C562.274 51.1104 562.667 50.7822 563.019 50.3311L563.678 50.832C562.904 51.9512 561.782 52.5107 560.312 52.5107ZM560.118 43.5459C559.327 43.5459 558.659 43.8359 558.114 44.416C557.575 44.9961 557.247 45.7754 557.13 46.7539H562.834V46.6396C562.805 45.7256 562.544 44.9814 562.052 44.4072C561.56 43.833 560.915 43.5459 560.118 43.5459ZM566.93 42.8252L566.965 44.4512C567.322 43.8652 567.768 43.4199 568.301 43.1152C568.834 42.8047 569.423 42.6494 570.067 42.6494C571.087 42.6494 571.846 42.9365 572.344 43.5107C572.842 44.085 573.094 44.9463 573.1 46.0947V52.335H572.054V46.0859C572.048 45.2363 571.866 44.6035 571.509 44.1875C571.157 43.7715 570.592 43.5635 569.813 43.5635C569.162 43.5635 568.585 43.7686 568.081 44.1787C567.583 44.583 567.214 45.1309 566.974 45.8223V52.335H565.928V42.8252H566.93ZM579.779 47.4922C579.779 46.0156 580.107 44.8408 580.764 43.9678C581.426 43.0889 582.322 42.6494 583.453 42.6494C584.736 42.6494 585.715 43.1562 586.389 44.1699V38.835H587.435V52.335H586.45L586.406 51.0693C585.732 52.0303 584.742 52.5107 583.436 52.5107C582.34 52.5107 581.455 52.0713 580.781 51.1924C580.113 50.3076 579.779 49.1152 579.779 47.6152V47.4922ZM580.843 47.6768C580.843 48.8896 581.086 49.8477 581.572 50.5508C582.059 51.248 582.744 51.5967 583.629 51.5967C584.924 51.5967 585.844 51.0254 586.389 49.8828V45.418C585.844 44.1816 584.93 43.5635 583.646 43.5635C582.762 43.5635 582.073 43.9121 581.581 44.6094C581.089 45.3008 580.843 46.3232 580.843 47.6768ZM591.381 52.335H590.326V42.8252H591.381V52.335ZM590.142 40.0742C590.142 39.875 590.206 39.708 590.335 39.5732C590.464 39.4326 590.64 39.3623 590.862 39.3623C591.085 39.3623 591.261 39.4326 591.39 39.5732C591.524 39.708 591.592 39.875 591.592 40.0742C591.592 40.2734 591.524 40.4404 591.39 40.5752C591.261 40.71 591.085 40.7773 590.862 40.7773C590.64 40.7773 590.464 40.71 590.335 40.5752C590.206 40.4404 590.142 40.2734 590.142 40.0742ZM593.824 47.4922C593.824 46.0039 594.152 44.8262 594.809 43.959C595.471 43.0859 596.367 42.6494 597.498 42.6494C598.793 42.6494 599.777 43.165 600.451 44.1963L600.504 42.8252H601.488V52.1416C601.488 53.3662 601.146 54.3359 600.46 55.0508C599.774 55.7656 598.846 56.123 597.674 56.123C597.012 56.123 596.379 55.9736 595.775 55.6748C595.178 55.3818 594.706 54.9893 594.36 54.4971L594.949 53.8643C595.693 54.7783 596.578 55.2354 597.604 55.2354C598.482 55.2354 599.168 54.9746 599.66 54.4531C600.152 53.9375 600.407 53.2197 600.425 52.2998V51.1045C599.751 52.042 598.77 52.5107 597.48 52.5107C596.379 52.5107 595.494 52.0713 594.826 51.1924C594.158 50.3135 593.824 49.127 593.824 47.6328V47.4922ZM594.888 47.6768C594.888 48.8896 595.131 49.8477 595.617 50.5508C596.104 51.248 596.789 51.5967 597.674 51.5967C598.969 51.5967 599.886 51.0166 600.425 49.8564V45.4355C600.179 44.8262 599.824 44.3633 599.361 44.0469C598.898 43.7246 598.342 43.5635 597.691 43.5635C596.807 43.5635 596.118 43.9121 595.626 44.6094C595.134 45.3008 594.888 46.3232 594.888 47.6768ZM605.408 52.335H604.354V42.8252H605.408V52.335ZM604.169 40.0742C604.169 39.875 604.233 39.708 604.362 39.5732C604.491 39.4326 604.667 39.3623 604.89 39.3623C605.112 39.3623 605.288 39.4326 605.417 39.5732C605.552 39.708 605.619 39.875 605.619 40.0742C605.619 40.2734 605.552 40.4404 605.417 40.5752C605.288 40.71 605.112 40.7773 604.89 40.7773C604.667 40.7773 604.491 40.71 604.362 40.5752C604.233 40.4404 604.169 40.2734 604.169 40.0742ZM609.908 40.3906V42.8252H611.877V43.6865H609.908V50.0234C609.908 50.5508 610.002 50.9434 610.189 51.2012C610.383 51.459 610.702 51.5879 611.147 51.5879C611.323 51.5879 611.607 51.5586 612 51.5L612.044 52.3613C611.769 52.4609 611.394 52.5107 610.919 52.5107C610.198 52.5107 609.674 52.3027 609.346 51.8867C609.018 51.4648 608.854 50.8467 608.854 50.0322V43.6865H607.104V42.8252H608.854V40.3906H609.908ZM620.06 52.335C619.954 52.0361 619.887 51.5938 619.857 51.0078C619.488 51.4883 619.017 51.8604 618.442 52.124C617.874 52.3818 617.271 52.5107 616.632 52.5107C615.718 52.5107 614.977 52.2559 614.408 51.7461C613.846 51.2363 613.564 50.5918 613.564 49.8125C613.564 48.8867 613.948 48.1543 614.716 47.6152C615.489 47.0762 616.564 46.8066 617.941 46.8066H619.849V45.7256C619.849 45.0459 619.638 44.5127 619.216 44.126C618.8 43.7334 618.19 43.5371 617.388 43.5371C616.655 43.5371 616.049 43.7246 615.568 44.0996C615.088 44.4746 614.848 44.9258 614.848 45.4531L613.793 45.4443C613.793 44.6885 614.145 44.0352 614.848 43.4844C615.551 42.9277 616.415 42.6494 617.44 42.6494C618.501 42.6494 619.336 42.916 619.945 43.4492C620.561 43.9766 620.877 44.7148 620.895 45.6641V50.1641C620.895 51.084 620.991 51.7725 621.185 52.2295V52.335H620.06ZM616.755 51.5791C617.458 51.5791 618.085 51.4092 618.636 51.0693C619.192 50.7295 619.597 50.2754 619.849 49.707V47.6152H617.968C616.919 47.627 616.099 47.8203 615.507 48.1953C614.915 48.5645 614.619 49.0742 614.619 49.7246C614.619 50.2578 614.815 50.7002 615.208 51.0518C615.606 51.4033 616.122 51.5791 616.755 51.5791ZM624.885 52.335H623.83V38.835H624.885V52.335Z" fill="#373838" fill-opacity="0.71"/>
<ellipse cx="337.218" cy="99.8686" rx="98.1378" ry="97.9682" fill="white"/>
<g clip-path="url(#clip1)">
<path d="M363.216 147.319H285.444C282.894 147.319 280.448 146.325 278.645 144.557C276.841 142.788 275.828 140.389 275.828 137.887V102.939C275.828 102.431 275.934 101.929 276.138 101.463C276.342 100.997 276.641 100.576 277.017 100.227L318.228 61.9108C319.876 60.3788 322.06 59.5249 324.33 59.5249C326.6 59.5249 328.784 60.3788 330.432 61.9108L369.725 98.4433C370.706 99.3559 371.488 100.455 372.022 101.674C372.556 102.893 372.832 104.205 372.832 105.532V137.887C372.832 139.126 372.583 140.352 372.1 141.497C371.617 142.641 370.908 143.681 370.015 144.557C369.123 145.432 368.062 146.127 366.896 146.601C365.729 147.075 364.479 147.319 363.216 147.319Z" fill="#999999"/>
<path opacity="0.1" d="M275.828 103.513H372.024V141.624C372.024 143.134 371.412 144.583 370.323 145.651C369.234 146.719 367.757 147.319 366.217 147.319H281.635C280.095 147.319 278.618 146.719 277.529 145.651C276.44 144.583 275.828 143.134 275.828 141.624V103.513Z" fill="black"/>
<path d="M354.708 73.4824H293.75C290.828 73.4824 288.459 75.8059 288.459 78.672V138.462C288.459 141.329 290.828 143.652 293.75 143.652H354.708C357.63 143.652 359.999 141.329 359.999 138.462V78.672C359.999 75.8059 357.63 73.4824 354.708 73.4824Z" fill="#019A40"/>
<path opacity="0.1" d="M359.999 105.089V143.652H288.459V105.089L324.229 122.047L359.999 105.089Z" fill="black"/>
<path d="M324.229 124.227L278.396 102.499C278.113 102.364 277.799 102.303 277.485 102.32C277.17 102.337 276.866 102.432 276.599 102.596C276.332 102.76 276.112 102.988 275.96 103.258C275.807 103.528 275.728 103.832 275.728 104.141V141.525C275.728 142.273 275.878 143.013 276.17 143.704C276.461 144.395 276.889 145.023 277.428 145.552C277.967 146.081 278.608 146.501 279.312 146.787C280.016 147.073 280.772 147.22 281.534 147.22H366.925C367.687 147.22 368.442 147.073 369.147 146.787C369.851 146.501 370.491 146.081 371.031 145.552C371.57 145.023 371.998 144.395 372.289 143.704C372.581 143.013 372.731 142.273 372.731 141.525V104.781C372.731 104.404 372.634 104.034 372.448 103.704C372.262 103.374 371.994 103.096 371.668 102.896C371.343 102.696 370.971 102.58 370.587 102.559C370.203 102.538 369.821 102.613 369.475 102.777L324.229 124.227Z" fill="#B6B6B6"/>
<path d="M314.63 79.9248H294.623V82.6999H314.63V79.9248Z" fill="#F2F2F2"/>
<path d="M352.421 90.0337H293.006V91.6194H352.421V90.0337Z" fill="#F2F2F2"/>
<path d="M352.421 95.3857H293.006V96.9715H352.421V95.3857Z" fill="#F2F2F2"/>
<path d="M352.421 100.738H293.006V102.324H352.421V100.738Z" fill="#F2F2F2"/>
<path d="M372.581 58.8699C372.46 59.9312 371.634 60.7862 371.328 61.8113C370.868 63.3541 371.664 65.0097 372.753 66.2113C373.631 67.1706 374.695 67.9494 375.883 68.5024C377.07 69.0555 378.358 69.3719 379.671 69.4333C380.057 69.4665 380.446 69.425 380.815 69.311C381.145 69.1808 381.442 68.9817 381.685 68.7276C382.505 67.9201 382.945 66.8012 383.121 65.6746C383.296 64.548 383.228 63.4002 383.159 62.2625C383.16 62.0274 383.116 61.7941 383.031 61.5743C382.919 61.3649 382.765 61.1798 382.579 61.0298C381.989 60.4986 381.339 60.0353 380.641 59.6489C380.326 59.5103 380.048 59.3016 379.829 59.0394C379.697 58.8147 379.612 58.5667 379.578 58.3097L379.364 57.2395C379.326 56.9311 379.218 56.6348 379.05 56.372C378.671 55.8716 377.948 55.8035 377.313 55.779L374.988 55.6896C374.265 55.6617 373.312 55.4583 372.606 55.5976C371.947 55.7277 372.166 56.3236 372.285 56.8662C372.459 57.5214 372.558 58.1933 372.581 58.8699Z" fill="#FFB8B8"/>
<path d="M387.373 106.643C387.043 110.185 386.714 113.727 386.384 117.269C386.126 120.056 385.864 122.854 385.358 125.606C385.183 126.554 384.978 127.497 384.736 128.432C384.06 131.028 383.08 133.565 382.764 136.227C382.754 136.304 382.746 136.382 382.738 136.46C382.702 137.049 382.589 137.63 382.4 138.19C382.242 138.596 381.999 138.967 381.828 139.368C381.486 140.171 381.442 141.059 381.4 141.928C380.2 141.267 378.887 140.826 377.525 140.629C376.868 140.533 376.136 140.465 375.689 139.983C375.193 139.451 375.248 138.637 375.331 137.922C375.592 135.703 375.853 133.485 376.113 131.268C376.198 130.314 376.363 129.369 376.607 128.442C376.697 128.133 376.805 127.83 376.915 127.526C377.066 127.108 377.219 126.691 377.334 126.262C377.499 125.568 377.615 124.864 377.68 124.155C377.948 121.923 378.271 119.695 378.553 117.465L378.568 117.347C378.993 113.966 379.315 110.569 379.222 107.163C379.209 106.659 379.187 106.155 379.154 105.649C379.107 104.916 379.039 104.528 379.658 104.069C380.342 103.563 381.242 103.209 382.024 102.878C382.445 102.699 387.08 101.085 387.188 101.439C387.405 102.194 387.519 102.974 387.527 103.759C387.531 104.722 387.479 105.685 387.373 106.643Z" fill="#605D82"/>
<path opacity="0.1" d="M385.357 125.606C385.182 126.554 384.978 127.497 384.735 128.432C384.06 131.028 383.08 133.566 382.764 136.227C382.754 136.304 382.745 136.382 382.737 136.46C380.671 133.566 378.93 130.452 376.914 127.526C377.065 127.109 377.219 126.691 377.333 126.262C377.499 125.568 377.614 124.864 377.679 124.155C377.947 121.923 378.27 119.695 378.553 117.465L378.568 117.347C378.686 117.821 378.855 118.281 379.072 118.72C380.426 121.418 383.644 122.783 385.217 125.366C385.266 125.446 385.312 125.526 385.357 125.606Z" fill="black"/>
<path d="M368.591 101.873C368.659 104.038 369.012 106.183 369.365 108.321L370.092 112.732C370.49 115.146 370.905 117.61 372.07 119.772C372.941 121.39 374.196 122.77 375.332 124.221C378.124 127.789 380.221 131.83 382.869 135.502C383.638 136.57 384.738 137.724 386.052 137.501C386.914 137.355 387.54 136.651 388.217 136.108C389.016 135.468 389.979 135 390.607 134.198C391.235 133.396 391.359 132.063 390.507 131.493C390.199 131.325 389.872 131.194 389.533 131.101C388.213 130.609 387.358 129.345 386.815 128.066C386.271 126.788 385.942 125.413 385.217 124.224C383.644 121.641 380.426 120.277 379.071 117.577C378.312 116.065 378.24 114.322 378.182 112.638L378.034 108.344C378.018 107.874 378.006 107.386 378.2 106.957C378.718 105.814 380.283 105.707 381.549 105.562C382.987 105.397 384.38 104.966 385.654 104.292C386.383 103.906 387.096 103.413 387.487 102.695C387.843 102.041 387.892 101.273 387.934 100.532L388.372 92.7504C388.41 92.0809 388.444 91.3887 388.204 90.7611C387.6 89.1851 385.571 88.6702 383.856 88.7453C380.665 88.8853 377.719 90.2316 374.71 91.1409C373.965 91.3714 373.209 91.565 372.443 91.7208C371.768 91.8537 370.951 91.7986 370.307 92.0115C369.162 92.3903 369.191 94.8469 369.028 95.866C368.693 97.8507 368.546 99.8618 368.591 101.873Z" fill="#605D82"/>
<path d="M385.619 137.827C385.9 138.105 385.992 138.513 386.066 138.899C386.472 141.036 386.683 143.205 386.697 145.379C386.679 145.582 386.72 145.785 386.816 145.966C386.896 146.073 387.003 146.158 387.127 146.211C387.94 146.591 388.884 146.061 389.562 145.479C390.818 144.4 391.881 142.951 391.953 141.314C391.94 140.893 391.955 140.471 391.998 140.051C392.108 139.435 392.475 138.898 392.798 138.359C393.348 137.441 393.792 136.465 394.121 135.451C394.244 135.069 394.326 134.589 394.022 134.323C393.914 134.24 393.791 134.178 393.66 134.139L389.986 132.801C389.668 132.685 388.876 134.681 388.75 134.899C388.442 135.433 388.136 135.736 387.519 135.859C386.89 135.985 386.14 135.804 385.552 136.112C384.558 136.634 385.056 137.27 385.619 137.827Z" fill="#535070"/>
<path d="M379.95 139.059C379.882 138.926 379.787 138.807 379.671 138.711C379.5 138.605 379.307 138.541 379.106 138.523C378.407 138.407 377.578 138.33 377.095 138.84C376.643 139.318 376.721 140.097 376.342 140.633C376.223 140.803 376.06 140.943 375.956 141.123C375.827 141.397 375.769 141.699 375.787 142.001C375.768 142.832 375.748 143.665 375.807 144.495C375.856 145.19 375.975 145.919 376.419 146.464C377.13 147.338 378.413 147.464 379.553 147.521L380.475 147.567C380.729 147.597 380.987 147.574 381.231 147.499C381.382 147.43 381.518 147.332 381.63 147.211C381.742 147.091 381.828 146.949 381.883 146.795C382.364 145.624 381.603 144.363 381.135 143.187C380.596 141.836 380.693 140.336 379.95 139.059Z" fill="#535070"/>
<path d="M372.315 52.8892C372.303 52.7705 372.321 52.6509 372.366 52.5403C372.502 52.3059 372.854 52.3697 373.121 52.4356C374.191 52.7002 375.319 52.4606 376.421 52.5225C377.523 52.5843 378.765 53.1247 378.986 54.1855C379.786 53.6292 380.476 52.9342 381.021 52.1348C381.327 51.6859 381.593 51.1716 381.552 50.6332C381.492 49.8565 380.827 49.2757 380.212 48.7832L378.379 47.315C378.138 47.0981 377.86 46.9247 377.558 46.803C377.134 46.6611 376.673 46.7287 376.225 46.729C374.89 46.7299 373.467 46.134 372.28 46.7326C371.784 46.9826 371.411 47.411 371.051 47.8288L369.415 49.7289C369.291 49.85 369.201 49.9997 369.153 50.164C369.106 50.3959 369.228 50.6248 369.27 50.8575C369.348 51.282 369.161 51.7351 369.304 52.1427C369.542 52.8194 370.38 52.9152 370.892 53.3032C371.083 53.4478 371.382 53.9379 371.61 53.9319C372.02 53.9211 372.304 53.2019 372.315 52.8892Z" fill="#3F3D56"/>
<path d="M375.091 58.4902C377.985 58.4902 380.332 56.1889 380.332 53.3501C380.332 50.5113 377.985 48.21 375.091 48.21C372.197 48.21 369.851 50.5113 369.851 53.3501C369.851 56.1889 372.197 58.4902 375.091 58.4902Z" fill="#FFB8B8"/>
<path d="M376.319 64.5996C376.141 64.1001 375.806 63.6691 375.361 63.3691C374.917 63.0692 374.387 62.9159 373.847 62.9314C373.693 62.9596 373.534 62.9398 373.392 62.8749C373.311 62.8143 373.247 62.7354 373.204 62.6451C372.886 62.0831 372.629 61.4891 372.44 60.8734C372.357 60.6013 372.242 60.2805 371.962 60.2098C371.845 60.1949 371.727 60.2112 371.62 60.2571C371.512 60.3029 371.42 60.3765 371.352 60.4701C371.218 60.6583 371.073 60.8379 370.916 61.0075C370.257 61.5856 369.088 61.0587 368.389 61.589C368.274 61.6756 368.18 61.7866 368.06 61.8654C367.94 61.9363 367.81 61.9908 367.675 62.0272C366.324 62.4598 365 62.9685 363.709 63.5509C364.174 66.2995 364.651 69.0961 365.742 71.6689C366.261 72.8932 366.849 74.0923 367.265 75.354C368.186 78.1496 368.227 81.1408 368.237 84.0787C368.244 86.0895 368.234 88.1431 367.571 90.0458C367.392 90.4662 367.266 90.9064 367.196 91.3565C367.156 91.8099 367.291 92.3098 367.665 92.5784C367.882 92.7177 368.131 92.8033 368.389 92.8278C369.538 92.9932 370.697 92.6932 371.828 92.4361C374.861 91.7472 377.955 91.3529 381.042 90.9597L386.216 90.3009C386.586 90.2762 386.949 90.1842 387.286 90.0295C388.233 89.5211 388.322 88.1244 387.735 87.2366C387.453 86.811 387.055 86.4618 386.818 86.0105C386.581 85.5593 386.561 84.9283 386.969 84.6158C387.798 83.98 387.551 82.8005 387.59 81.7689C387.701 78.8843 387.686 75.9986 387.546 73.1117C387.504 72.5142 387.494 71.9149 387.516 71.3163C387.608 70.302 387.799 69.2987 388.087 68.3202L389.659 62.2492C389.248 61.6127 388.462 61.2088 387.717 61.0255C386.972 60.8421 386.196 60.7882 385.463 60.5652C383.96 60.1085 382.622 58.9493 381.053 59.0574C380.934 59.0595 380.817 59.0874 380.711 59.1392C380.357 59.3359 380.413 59.8362 380.39 60.2346C380.34 61.1161 379.679 61.8528 378.949 62.3693C378.219 62.8858 377.386 63.2624 376.715 63.8515C376.597 63.9393 376.499 64.052 376.431 64.1815C376.362 64.3109 376.324 64.4538 376.319 64.5996Z" fill="#3F3D56"/>
<path d="M355.554 70.3579C355.207 70.5791 354.837 70.7655 354.452 70.9143C354.074 71.0244 353.718 71.1942 353.396 71.4169C353.248 71.5427 353.123 71.6934 353.029 71.8619C352.851 72.1704 352.762 72.52 352.769 72.8742C352.776 73.2284 352.88 73.5741 353.071 73.8753C353.261 74.1765 353.53 74.4222 353.849 74.5866C354.169 74.7511 354.528 74.8283 354.889 74.8102C355.368 74.7575 355.834 74.6212 356.265 74.4078L359.961 72.8368C360.587 72.5709 361.262 72.2593 361.558 71.6567C361.593 71.6005 361.605 71.5341 361.594 71.4694C361.564 71.4011 361.51 71.3455 361.442 71.3129C360.609 70.7818 359.879 70.1075 359.29 69.3223C359.138 69.1203 358.953 68.6435 358.738 68.5224C357.956 68.0805 356.18 69.9593 355.554 70.3579Z" fill="#FFB8B8"/>
<path d="M395.068 69.0688L396.431 70.5957C396.724 70.9235 397.017 71.2517 397.283 71.6C397.938 72.4853 398.463 73.456 398.844 74.484C399.14 75.2464 399.386 76.0585 399.283 76.868C399.214 77.283 399.1 77.6895 398.942 78.0804C398.692 78.8323 398.382 79.5637 398.016 80.2679C397.707 80.8029 397.359 81.3149 396.974 81.7995C395.919 83.1711 394.764 84.4663 393.519 85.6752C393.053 86.1275 392.858 86.8589 392.655 87.4704C392.281 88.5982 391.391 89.4766 390.53 90.3095C390.254 90.596 389.948 90.8541 389.618 91.0796C389.123 91.392 388.546 91.5534 387.957 91.5434C387.7 91.5452 387.445 91.4934 387.21 91.3916C386.621 91.1172 386.321 90.4492 386.26 89.8125C386.205 89.2346 386.304 88.6527 386.546 88.1235C387.328 86.4244 389.336 85.6882 390.756 84.4485C391.588 83.7215 392.225 82.8084 392.852 81.9052C393.279 81.3413 393.635 80.7293 393.913 80.0823C394.23 79.2527 394.106 78.2706 394.383 77.4273C394.5 77.0708 394.708 76.749 394.834 76.3954C394.96 76.0418 394.992 75.6221 394.772 75.3162C394.606 75.1217 394.394 74.9697 394.155 74.8731C393.248 74.4217 392.232 73.8408 392.059 72.8581C391.99 72.3131 392.135 71.7627 392.465 71.319C392.794 70.8813 393.178 70.4863 393.608 70.1436C394.005 69.7997 394.672 69.4128 395.068 69.0688Z" fill="#FFB8B8"/>
<path d="M354.679 72.4895C354.438 72.0128 354.137 71.5264 353.652 71.2893C353.416 71.1891 353.162 71.1368 352.906 71.1358C352.649 71.1347 352.395 71.1848 352.159 71.2832C351.688 71.4823 351.247 71.7437 350.849 72.0602L349.674 72.9094C349.408 73.0808 349.172 73.2941 348.977 73.5408C348.791 73.8401 348.668 74.1722 348.614 74.5182C348.409 75.3074 348.346 76.1256 348.429 76.9358C348.615 78.235 349.414 79.3692 350.293 80.3582C350.842 80.9762 351.52 81.5998 352.356 81.6262C352.716 81.6376 353.117 81.4981 353.267 81.1763C353.319 81.0487 353.347 80.9128 353.349 80.7754C353.439 79.3263 352.91 77.9108 352.294 76.5908C352.098 76.2452 351.982 75.8612 351.954 75.4664C351.95 75.3999 351.967 75.3339 352.004 75.278C352.057 75.2238 352.129 75.1897 352.205 75.182C353.048 75.0183 354.501 75.6611 355.093 74.7423C355.477 74.1466 354.951 73.0297 354.679 72.4895Z" fill="#FFB8B8"/>
<path d="M372.039 51.272C372.028 51.1533 372.046 51.0337 372.091 50.9231C372.226 50.6888 372.579 50.7525 372.845 50.8184C373.916 51.0831 375.043 50.8435 376.146 50.9053C377.248 50.9671 378.489 51.5076 378.711 52.5683C379.511 52.012 380.2 51.3171 380.746 50.5176C381.051 50.0687 381.318 49.5544 381.276 49.016C381.216 48.2394 380.552 47.6586 379.937 47.166L378.103 45.6978C377.863 45.4809 377.585 45.3075 377.282 45.1859C376.859 45.0439 376.397 45.1115 375.95 45.1118C374.615 45.1127 373.192 44.5169 372.005 45.1154C371.509 45.3654 371.136 45.7938 370.776 46.2116L369.139 48.1117C369.016 48.2328 368.926 48.3825 368.878 48.5468C368.831 48.7788 368.953 49.0076 368.995 49.2403C369.072 49.6648 368.886 50.1179 369.029 50.5255C369.267 51.2023 370.105 51.2981 370.617 51.686C370.808 51.8306 371.107 52.3207 371.334 52.3147C371.745 52.3039 372.028 51.5847 372.039 51.272Z" fill="#3F3D56"/>
<path d="M360.909 65.3581C360.697 65.4919 360.511 65.6615 360.36 65.8589C360.168 66.1439 360.129 66.5036 359.964 66.8044C359.611 67.4481 358.785 67.6772 358.269 68.2053C358.188 68.2779 358.131 68.3736 358.107 68.4793C358.104 68.6226 358.153 68.7622 358.245 68.8737L360.73 72.7056C361.557 72.777 362.351 72.2686 363.179 72.3361C363.488 72.3613 363.804 72.466 364.101 72.3764C364.313 72.2841 364.512 72.1648 364.692 72.0216C365.186 71.7153 365.844 71.6796 366.258 71.2755C366.656 70.8878 366.706 70.281 366.702 69.7311C366.708 69.2535 366.659 68.7767 366.554 68.3102C366.188 66.8394 365.041 65.7107 364.322 64.4078C363.972 63.7735 363.782 63.4022 363.041 63.8377C362.296 64.2755 361.61 64.8554 360.909 65.3581Z" fill="#3F3D56"/>
<path d="M391.089 63.4203C391.556 63.7178 391.977 64.0795 392.339 64.4944C392.718 64.9732 392.932 65.5591 393.296 66.0489C393.649 66.5237 394.128 66.8913 394.528 67.3285C395.135 67.9915 395.545 68.8003 395.949 69.5983C394.964 70.8585 393.889 72.0492 392.734 73.1617C392.606 73.3103 392.436 73.4196 392.246 73.4764C392.117 73.4899 391.986 73.4718 391.866 73.4236C391.745 73.3755 391.639 73.2988 391.556 73.2005C391.377 73.0163 391.25 72.7893 391.079 72.5981C390.675 72.1895 390.137 71.9342 389.56 71.8773C388.988 71.8231 388.412 71.8153 387.838 71.8541C387.712 71.8678 387.585 71.8468 387.471 71.7935C387.386 71.7359 387.317 71.6583 387.27 71.5678C386.597 70.4449 386.814 69.035 387.051 67.7534L387.596 64.8128C387.675 64.2511 387.827 63.7018 388.049 63.1784C388.255 62.7459 388.717 62.0126 389.284 62.1421C389.856 62.2726 390.608 63.0809 391.089 63.4203Z" fill="#3F3D56"/>
<path d="M291.389 82.7293C295.965 82.7293 299.675 79.0842 299.675 74.5876C299.675 70.091 295.965 66.4458 291.389 66.4458C286.813 66.4458 283.104 70.091 283.104 74.5876C283.104 79.0842 286.813 82.7293 291.389 82.7293Z" fill="white"/>
<path d="M291.39 65.0581C289.431 65.0581 287.517 65.6277 285.888 66.695C284.26 67.7622 282.991 69.2792 282.241 71.0539C281.492 72.8287 281.295 74.7816 281.678 76.6657C282.06 78.5498 283.003 80.2804 284.388 81.6388C285.773 82.9971 287.537 83.9222 289.458 84.2969C291.379 84.6717 293.37 84.4794 295.179 83.7442C296.989 83.0091 298.535 81.7642 299.623 80.1669C300.711 78.5697 301.292 76.6918 301.292 74.7708C301.285 72.1972 300.239 69.7311 298.383 67.9112C296.528 66.0914 294.014 65.0656 291.39 65.0581ZM289.357 79.9494L284.282 74.9716L285.705 73.5754L289.362 77.1617L297.079 69.5923L298.502 70.9885L289.357 79.9494L289.357 79.9494Z" fill="#57B894"/>
</g>
<path d="M326.208 32.5322C326.208 31.8232 325.959 31.2637 325.461 30.8535C324.963 30.4375 324.052 30.0449 322.728 29.6758C321.404 29.3008 320.437 28.8936 319.828 28.4541C318.96 27.833 318.527 27.0186 318.527 26.0107C318.527 25.0322 318.928 24.2383 319.731 23.6289C320.539 23.0137 321.571 22.7061 322.825 22.7061C323.674 22.7061 324.433 22.8701 325.101 23.1982C325.775 23.5264 326.296 23.9834 326.665 24.5693C327.035 25.1553 327.219 25.8086 327.219 26.5293H326.129C326.129 25.6562 325.83 24.9561 325.233 24.4287C324.635 23.8955 323.832 23.6289 322.825 23.6289C321.846 23.6289 321.067 23.8486 320.487 24.2881C319.907 24.7217 319.617 25.29 319.617 25.9932C319.617 26.6436 319.877 27.1738 320.399 27.584C320.92 27.9941 321.755 28.3574 322.904 28.6738C324.052 28.9844 324.922 29.3096 325.514 29.6494C326.106 29.9834 326.551 30.3848 326.85 30.8535C327.149 31.3223 327.298 31.876 327.298 32.5146C327.298 33.5225 326.894 34.3311 326.085 34.9404C325.283 35.5498 324.222 35.8545 322.904 35.8545C322.001 35.8545 321.172 35.6934 320.416 35.3711C319.666 35.0488 319.095 34.5977 318.703 34.0176C318.316 33.4375 318.122 32.7725 318.122 32.0225H319.203C319.203 32.9248 319.54 33.6367 320.214 34.1582C320.888 34.6797 321.785 34.9404 322.904 34.9404C323.9 34.9404 324.7 34.7207 325.303 34.2812C325.907 33.8418 326.208 33.2588 326.208 32.5322ZM331.069 22.8818L335.788 34.1758L340.526 22.8818H341.967V35.6787H340.886V30.1064L340.974 24.3936L336.21 35.6787H335.375L330.629 24.4375L330.717 30.0713V35.6787H329.636V22.8818H331.069ZM352.453 32.5322C352.453 31.8232 352.203 31.2637 351.705 30.8535C351.207 30.4375 350.296 30.0449 348.972 29.6758C347.648 29.3008 346.681 28.8936 346.072 28.4541C345.204 27.833 344.771 27.0186 344.771 26.0107C344.771 25.0322 345.172 24.2383 345.975 23.6289C346.784 23.0137 347.815 22.7061 349.069 22.7061C349.918 22.7061 350.677 22.8701 351.345 23.1982C352.019 23.5264 352.54 23.9834 352.91 24.5693C353.279 25.1553 353.463 25.8086 353.463 26.5293H352.373C352.373 25.6562 352.075 24.9561 351.477 24.4287C350.879 23.8955 350.077 23.6289 349.069 23.6289C348.09 23.6289 347.311 23.8486 346.731 24.2881C346.151 24.7217 345.861 25.29 345.861 25.9932C345.861 26.6436 346.121 27.1738 346.643 27.584C347.164 27.9941 347.999 28.3574 349.148 28.6738C350.296 28.9844 351.166 29.3096 351.758 29.6494C352.35 29.9834 352.795 30.3848 353.094 30.8535C353.393 31.3223 353.542 31.876 353.542 32.5146C353.542 33.5225 353.138 34.3311 352.329 34.9404C351.527 35.5498 350.466 35.8545 349.148 35.8545C348.245 35.8545 347.416 35.6934 346.661 35.3711C345.911 35.0488 345.339 34.5977 344.947 34.0176C344.56 33.4375 344.367 32.7725 344.367 32.0225H345.448C345.448 32.9248 345.785 33.6367 346.458 34.1582C347.132 34.6797 348.029 34.9404 349.148 34.9404C350.144 34.9404 350.944 34.7207 351.547 34.2812C352.151 33.8418 352.453 33.2588 352.453 32.5322Z" fill="#373838" fill-opacity="0.71"/>
<ellipse cx="209.268" cy="324.66" rx="98.1378" ry="97.9682" fill="white"/>
<path d="M123.132 322.901C124.314 299.475 141.541 280.374 162.965 278.773C172.841 278.015 182.653 281.01 190.739 287.25C198.826 293.49 204.69 302.592 207.338 313.015C207.858 312.994 208.377 312.972 208.902 312.972C218.174 312.973 227.196 316.255 234.619 322.327C242.042 328.398 247.467 336.932 250.081 346.652C256.225 343.702 263.091 343.062 269.604 344.832C276.116 346.602 281.908 350.682 286.071 356.433H152.195C135.748 356.433 122.431 341.548 123.101 323.593C123.11 323.363 123.12 323.132 123.132 322.901Z" fill="#C4C4C4"/>
<path d="M148.471 331.051L147.4 326.854C145.5 326.055 143.557 325.362 141.579 324.78L141.444 326.731L140.896 324.582C138.443 323.886 136.774 323.58 136.774 323.58C136.774 323.58 139.028 332.094 143.756 338.603L149.264 339.564L144.985 340.177C145.58 340.888 146.219 341.561 146.899 342.192C153.776 348.533 161.436 351.442 164.007 348.69C166.579 345.938 163.089 338.566 156.212 332.225C154.08 330.26 151.402 328.682 148.721 327.44L148.471 331.051Z" fill="#E6E6E6"/>
<path d="M162.795 349.058C166.466 348.04 167.323 340.078 164.709 331.274C163.898 328.544 162.411 325.866 160.745 323.469L158.631 326.38L159.91 322.309C158.688 320.678 157.372 319.115 155.967 317.627L154.825 319.2L155.48 317.116C153.725 315.293 152.443 314.193 152.443 314.193C152.443 314.193 149.916 322.492 150.583 330.353L154.841 333.941L150.818 332.298" fill="#E6E6E6"/>
<path d="M187.453 304.555H187.106V295.371C187.106 294.673 186.964 293.982 186.687 293.337C186.411 292.692 186.005 292.106 185.494 291.612C184.983 291.119 184.376 290.727 183.708 290.46C183.041 290.193 182.325 290.056 181.602 290.056H161.454C160.731 290.056 160.016 290.193 159.348 290.46C158.68 290.727 158.073 291.119 157.562 291.612C157.051 292.106 156.646 292.692 156.369 293.337C156.093 293.982 155.95 294.673 155.95 295.371V345.754C155.95 346.452 156.093 347.143 156.369 347.788C156.646 348.433 157.051 349.018 157.562 349.512C158.073 350.006 158.68 350.397 159.348 350.664C160.016 350.931 160.731 351.069 161.454 351.069H181.602C182.325 351.069 183.041 350.931 183.708 350.664C184.376 350.397 184.983 350.006 185.494 349.512C186.005 349.018 186.411 348.433 186.687 347.788C186.964 347.143 187.106 346.452 187.106 345.754V311.092H187.453V304.555Z" fill="#3F3D56"/>
<path d="M181.93 291.397H179.272C179.394 291.684 179.441 291.995 179.408 292.303C179.375 292.611 179.263 292.907 179.083 293.164C178.902 293.421 178.658 293.631 178.373 293.777C178.087 293.923 177.769 293.999 177.445 293.999H165.782C165.458 293.999 165.14 293.923 164.854 293.777C164.568 293.631 164.325 293.421 164.144 293.164C163.964 292.907 163.852 292.611 163.819 292.303C163.786 291.995 163.833 291.684 163.955 291.397H161.473C160.371 291.397 159.315 291.816 158.536 292.561C157.757 293.307 157.319 294.318 157.319 295.372V345.753C157.319 346.275 157.427 346.792 157.635 347.274C157.844 347.757 158.15 348.195 158.536 348.564C158.922 348.933 159.379 349.226 159.883 349.426C160.387 349.625 160.927 349.728 161.473 349.728H181.93C182.475 349.728 183.015 349.625 183.519 349.426C184.023 349.226 184.481 348.933 184.867 348.564C185.252 348.195 185.558 347.757 185.767 347.274C185.976 346.792 186.083 346.275 186.083 345.753V295.372C186.083 294.85 185.976 294.333 185.767 293.851C185.558 293.369 185.252 292.93 184.866 292.561C184.481 292.192 184.023 291.899 183.519 291.7C183.015 291.5 182.475 291.397 181.93 291.397Z" fill="white"/>
<path d="M179.919 307.488H166.907V308.159H179.919V307.488Z" fill="#019A40"/>
<path d="M179.919 309.5H166.907V310.17H179.919V309.5Z" fill="#019A40"/>
<path d="M179.919 307.488H166.907V308.159H179.919V307.488Z" fill="#019A40"/>
<path d="M179.919 309.5H166.907V310.17H179.919V309.5Z" fill="#019A40"/>
<path d="M165.538 304.806H160.06V310.17H165.538V304.806Z" fill="#019A40"/>
<path d="M179.919 320.897H166.907V321.568H179.919V320.897Z" fill="#019A40"/>
<path d="M179.919 322.909H166.907V323.58H179.919V322.909Z" fill="#019A40"/>
<path d="M165.538 318.216H160.06V323.58H165.538V318.216Z" fill="#019A40"/>
<path d="M179.919 334.307H166.907V334.978H179.919V334.307Z" fill="#019A40"/>
<path d="M179.919 336.318H166.907V336.989H179.919V336.318Z" fill="#019A40"/>
<path d="M165.538 332.296H160.06V336.989H165.538V332.296Z" fill="#019A40"/>
<path d="M192.197 329.934L181.083 332.591L179.542 339.551C179.44 340.013 179.533 340.487 179.81 340.91C180.086 341.334 180.533 341.686 181.091 341.923C181.649 342.159 182.293 342.267 182.938 342.234C183.583 342.2 184.199 342.027 184.705 341.735L191.807 337.646L192.197 329.934Z" fill="#2F2E41"/>
<path d="M222.323 301.169L191.827 337.454L182.323 332.661L212.819 296.376C213.64 295.401 214.928 294.718 216.399 294.477C217.87 294.237 219.404 294.458 220.665 295.092C221.919 295.731 222.797 296.728 223.108 297.866C223.418 299.004 223.136 300.191 222.323 301.169Z" fill="#019A40"/>
<path d="M224.486 298.358L221.662 302.576C219.734 302.666 217.827 302.163 216.21 301.139C214.592 300.115 213.348 298.622 212.651 296.872L215.475 292.654C216.254 291.493 217.475 290.68 218.869 290.393C220.264 290.107 221.718 290.37 222.914 291.125C224.103 291.886 224.936 293.072 225.23 294.427C225.524 295.781 225.257 297.194 224.486 298.358Z" fill="#2F2E41"/>
<path d="M228.934 391.997C237.799 391.997 244.985 390.576 244.985 388.824C244.985 387.071 237.799 385.65 228.934 385.65C220.069 385.65 212.883 387.071 212.883 388.824C212.883 390.576 220.069 391.997 228.934 391.997Z" fill="#E6E6E6"/>
<path d="M225.122 321.188L219.156 323.442L209.914 317.29C209.914 317.29 207.557 312.677 204.728 314.874C203.76 315.626 207.66 318.554 208.029 318.828C208.95 319.512 217.382 327.349 218.574 326.942C219.766 326.535 224.977 325.799 224.977 325.799L225.122 321.188Z" fill="#FFB8B8"/>
<path d="M237.146 314.38C232.038 312.601 227.178 311.76 223.238 314.38V305.923C223.238 304.204 223.971 302.556 225.275 301.34C226.579 300.125 228.348 299.442 230.192 299.442H230.192C232.037 299.442 233.805 300.125 235.109 301.34C236.414 302.556 237.146 304.204 237.146 305.923V314.38Z" fill="#2F2E41"/>
<path d="M227.717 309.767C227.717 309.767 230.546 315.259 229.838 316.357L235.732 313.501C235.732 313.501 232.667 309.767 232.667 309.108L227.717 309.767Z" fill="#FFB8B8"/>
<path d="M240.564 314.71C240.564 314.71 237.678 312.074 235.114 312.733C232.55 313.392 233.139 314.6 229.839 315.259L229.485 316.687C229.485 316.687 227.615 317.4 226.892 318.005C226.085 318.681 225.524 323.859 226.538 328.22C227.205 331.086 225.688 333.945 226.421 335.139L239.621 333.602C239.621 333.602 240.8 332.503 240.093 331.844C239.386 331.185 240.564 326.352 240.564 326.352L240.564 314.71Z" fill="#CFCCE0"/>
<path d="M232.785 377.316L232.55 382.589L234.671 385.225L237.264 383.028L237.029 377.097L232.785 377.316Z" fill="#FFB8B8"/>
<path d="M255.651 372.923C255.651 372.923 257.301 375.998 257.537 376.657C257.773 377.316 261.073 377.097 261.073 377.097L262.252 374.241L258.244 370.726L255.651 372.923Z" fill="#FFB8B8"/>
<path d="M226.303 334.151L226.892 345.025C226.892 345.025 228.778 360.621 229.485 363.257C230.192 365.893 232.785 378.635 232.785 378.635L239.15 377.756L237.264 359.962L237.5 356.448L241.036 361.5L254.472 374.68L259.658 370.726L246.222 356.008L242.686 342.828C242.686 342.828 243.157 336.018 239.15 333.382L226.303 334.151Z" fill="#2F2E41"/>
<path d="M234.199 383.467C234.199 383.467 233.728 381.513 232.549 382.16C231.371 382.808 228.542 386.103 228.542 386.103C228.542 386.103 221.234 390.716 224.535 391.156C227.835 391.595 231.135 389.838 231.135 389.838C231.135 389.838 233.728 388.52 234.199 388.52C234.671 388.52 238.678 387.421 238.678 386.543C238.678 385.664 237.244 382.532 237.244 382.532C237.244 382.532 235.614 383.907 234.199 383.467Z" fill="#2F2E41"/>
<path d="M260.174 376.016C260.174 376.016 258.904 374.399 258.101 375.432C257.298 376.465 256.118 380.538 256.118 380.538C256.118 380.538 251.396 387.488 254.61 386.662C257.823 385.836 260.096 382.997 260.096 382.997C260.096 382.997 261.908 380.823 262.34 380.648C262.772 380.472 265.975 377.973 265.598 377.168C265.222 376.362 262.565 374.025 262.565 374.025C262.565 374.025 261.659 375.892 260.174 376.016Z" fill="#2F2E41"/>
<path d="M229.485 311.415C232.349 311.415 234.671 309.251 234.671 306.582C234.671 303.913 232.349 301.749 229.485 301.749C226.621 301.749 224.299 303.913 224.299 306.582C224.299 309.251 226.621 311.415 229.485 311.415Z" fill="#FFB8B8"/>
<path d="M229.602 316.577C229.602 316.577 226.891 317.346 226.184 318.444C225.477 319.542 223.355 320.86 223.355 320.86L225.006 327.011L227.599 324.155L229.602 316.577Z" fill="#CFCCE0"/>
<path d="M234.553 301.096V300.98L234.405 300.988C233.564 300.391 232.589 299.981 231.553 299.788C230.516 299.595 229.446 299.624 228.424 299.874C229.404 300.115 230.315 300.554 231.093 301.159L226.067 301.419L223.945 305.813H225.381L226.538 303.836V305.813H231.394L231.724 304.275L232.641 305.813H233.595C233.601 305.923 233.61 306.031 233.61 306.142L232.667 314.6L237.146 312.843V306.142C237.147 305.174 236.914 304.218 236.466 303.344C236.017 302.471 235.363 301.703 234.553 301.096Z" fill="#2F2E41"/>
<path d="M233.775 307.131C234.1 307.131 234.364 306.688 234.364 306.142C234.364 305.596 234.1 305.154 233.775 305.154C233.449 305.154 233.186 305.596 233.186 306.142C233.186 306.688 233.449 307.131 233.775 307.131Z" fill="#FFB8B8"/>
<path d="M238.063 321.746L240.482 327.306L233.881 335.918C233.881 335.918 228.93 338.115 231.288 340.751C232.095 341.654 235.237 338.019 235.531 337.676C236.265 336.817 244.675 328.959 244.238 327.849C243.802 326.738 243.011 321.881 243.011 321.881L238.063 321.746Z" fill="#FFB8B8"/>
<path d="M235.614 315.368L237.5 323.936C237.5 323.936 241.272 321.519 244.1 324.155L240.565 314.709L235.614 315.368Z" fill="#CFCCE0"/>
<path d="M236.428 338.586L230.835 336.25L228.907 340.26L234.501 342.595L236.428 338.586Z" fill="#2F2E41"/>
<path opacity="0.2" d="M232.889 343.962L232.445 344.11L237.16 356.412L237.604 356.264L232.889 343.962Z" fill="black"/>
<path d="M186.507 257.44H182.789V262.767H181.699V249.97H185.856C187.222 249.97 188.288 250.301 189.056 250.963C189.823 251.625 190.207 252.551 190.207 253.74C190.207 254.561 189.967 255.284 189.486 255.911C189.006 256.538 188.361 256.972 187.553 257.212L190.752 262.652V262.767H189.601L186.507 257.44ZM182.789 256.518H186.103C187.011 256.518 187.74 256.26 188.291 255.744C188.842 255.229 189.117 254.561 189.117 253.74C189.117 252.838 188.83 252.138 188.256 251.64C187.682 251.142 186.876 250.893 185.839 250.893H182.789V256.518ZM199.022 261.562C198.39 262.482 197.379 262.942 195.99 262.942C194.977 262.942 194.206 262.649 193.679 262.063C193.151 261.472 192.882 260.599 192.87 259.444V253.257H193.916V259.312C193.916 261.123 194.648 262.028 196.113 262.028C197.637 262.028 198.601 261.398 199.005 260.139V253.257H200.06V262.767H199.04L199.022 261.562ZM197.625 249.267H198.899L196.869 251.728H195.946L197.625 249.267ZM210.457 258.108C210.457 259.591 210.129 260.769 209.473 261.642C208.816 262.509 207.935 262.942 206.827 262.942C205.503 262.942 204.501 262.45 203.821 261.466L203.777 262.767H202.793V249.267H203.839V254.637C204.507 253.6 205.497 253.081 206.81 253.081C207.935 253.081 208.822 253.512 209.473 254.373C210.129 255.229 210.457 256.421 210.457 257.95V258.108ZM209.402 257.924C209.402 256.67 209.159 255.703 208.673 255.023C208.187 254.338 207.501 253.995 206.616 253.995C205.942 253.995 205.371 254.162 204.902 254.496C204.434 254.824 204.079 255.308 203.839 255.946V260.235C204.366 261.431 205.298 262.028 206.634 262.028C207.501 262.028 208.178 261.686 208.664 261C209.156 260.314 209.402 259.289 209.402 257.924ZM217.181 254.153C216.958 254.112 216.721 254.092 216.469 254.092C215.813 254.092 215.256 254.276 214.799 254.646C214.348 255.009 214.025 255.539 213.832 256.236V262.767H212.786V253.257H213.814L213.832 254.769C214.389 253.644 215.282 253.081 216.513 253.081C216.806 253.081 217.037 253.119 217.207 253.195L217.181 254.153ZM220.028 262.767H218.974V253.257H220.028V262.767ZM218.789 250.506C218.789 250.307 218.854 250.14 218.982 250.005C219.111 249.864 219.287 249.794 219.51 249.794C219.732 249.794 219.908 249.864 220.037 250.005C220.172 250.14 220.239 250.307 220.239 250.506C220.239 250.705 220.172 250.872 220.037 251.007C219.908 251.142 219.732 251.209 219.51 251.209C219.287 251.209 219.111 251.142 218.982 251.007C218.854 250.872 218.789 250.705 218.789 250.506ZM226.409 262.055C227.142 262.055 227.754 261.85 228.246 261.439C228.744 261.023 229.014 260.487 229.055 259.831H230.065C230.036 260.411 229.854 260.941 229.521 261.422C229.187 261.896 228.741 262.269 228.185 262.538C227.634 262.808 227.042 262.942 226.409 262.942C225.161 262.942 224.171 262.509 223.438 261.642C222.712 260.774 222.349 259.608 222.349 258.144V257.827C222.349 256.89 222.513 256.061 222.841 255.34C223.169 254.619 223.638 254.062 224.247 253.67C224.862 253.277 225.58 253.081 226.4 253.081C227.443 253.081 228.302 253.392 228.976 254.013C229.655 254.634 230.019 255.451 230.065 256.465H229.055C229.008 255.721 228.738 255.12 228.246 254.663C227.76 254.206 227.145 253.978 226.4 253.978C225.451 253.978 224.713 254.32 224.186 255.006C223.664 255.691 223.403 256.652 223.403 257.889V258.196C223.403 259.409 223.664 260.355 224.186 261.035C224.713 261.715 225.454 262.055 226.409 262.055ZM238.178 262.767C238.072 262.468 238.005 262.025 237.976 261.439C237.606 261.92 237.135 262.292 236.561 262.556C235.992 262.813 235.389 262.942 234.75 262.942C233.836 262.942 233.095 262.688 232.526 262.178C231.964 261.668 231.683 261.023 231.683 260.244C231.683 259.318 232.066 258.586 232.834 258.047C233.607 257.508 234.683 257.238 236.06 257.238H237.967V256.157C237.967 255.478 237.756 254.944 237.334 254.558C236.918 254.165 236.309 253.969 235.506 253.969C234.773 253.969 234.167 254.156 233.687 254.531C233.206 254.906 232.966 255.357 232.966 255.885L231.911 255.876C231.911 255.12 232.263 254.467 232.966 253.916C233.669 253.359 234.533 253.081 235.559 253.081C236.619 253.081 237.454 253.348 238.063 253.881C238.679 254.408 238.995 255.146 239.013 256.096V260.596C239.013 261.516 239.109 262.204 239.303 262.661V262.767H238.178ZM234.873 262.011C235.576 262.011 236.203 261.841 236.754 261.501C237.311 261.161 237.715 260.707 237.967 260.139V258.047H236.086C235.037 258.059 234.217 258.252 233.625 258.627C233.033 258.996 232.737 259.506 232.737 260.156C232.737 260.689 232.934 261.132 233.326 261.483C233.725 261.835 234.24 262.011 234.873 262.011Z" fill="#373838" fill-opacity="0.71"/>
<path d="M444.483 249.609H440.766V254.935H439.676V242.138H443.833C445.198 242.138 446.265 242.469 447.032 243.131C447.8 243.793 448.184 244.719 448.184 245.909C448.184 246.729 447.943 247.453 447.463 248.08C446.982 248.707 446.338 249.14 445.529 249.38L448.729 254.821V254.935H447.577L444.483 249.609ZM440.766 248.686H444.079C444.987 248.686 445.717 248.428 446.268 247.913C446.818 247.397 447.094 246.729 447.094 245.909C447.094 245.006 446.807 244.306 446.232 243.808C445.658 243.31 444.853 243.061 443.815 243.061H440.766V248.686ZM454.564 255.111C453.756 255.111 453.023 254.912 452.367 254.513C451.717 254.115 451.21 253.561 450.847 252.852C450.483 252.137 450.302 251.337 450.302 250.453V250.075C450.302 249.161 450.478 248.337 450.829 247.605C451.187 246.873 451.682 246.298 452.314 245.882C452.947 245.46 453.633 245.25 454.371 245.25C455.525 245.25 456.439 245.645 457.113 246.436C457.793 247.221 458.133 248.296 458.133 249.662V250.25H451.348V250.453C451.348 251.531 451.655 252.43 452.271 253.151C452.892 253.866 453.671 254.223 454.608 254.223C455.171 254.223 455.666 254.121 456.094 253.916C456.527 253.71 456.92 253.382 457.271 252.931L457.931 253.432C457.157 254.551 456.035 255.111 454.564 255.111ZM454.371 246.146C453.58 246.146 452.912 246.436 452.367 247.016C451.828 247.596 451.5 248.375 451.383 249.354H457.087V249.24C457.058 248.326 456.797 247.582 456.305 247.007C455.813 246.433 455.168 246.146 454.371 246.146ZM461.183 245.425L461.218 247.051C461.575 246.465 462.021 246.02 462.554 245.715C463.087 245.405 463.676 245.25 464.32 245.25C465.34 245.25 466.099 245.537 466.597 246.111C467.095 246.685 467.347 247.546 467.353 248.695V254.935H466.307V248.686C466.301 247.836 466.119 247.204 465.762 246.788C465.41 246.372 464.845 246.164 464.065 246.164C463.415 246.164 462.838 246.369 462.334 246.779C461.836 247.183 461.467 247.731 461.227 248.422V254.935H460.181V245.425H461.183ZM471.255 254.935H470.2V245.425H471.255V254.935ZM470.016 242.674C470.016 242.475 470.08 242.308 470.209 242.173C470.338 242.033 470.514 241.962 470.736 241.962C470.959 241.962 471.135 242.033 471.264 242.173C471.398 242.308 471.466 242.475 471.466 242.674C471.466 242.874 471.398 243.041 471.264 243.175C471.135 243.31 470.959 243.377 470.736 243.377C470.514 243.377 470.338 243.31 470.209 243.175C470.08 243.041 470.016 242.874 470.016 242.674ZM477.803 255.111C476.994 255.111 476.262 254.912 475.605 254.513C474.955 254.115 474.448 253.561 474.085 252.852C473.722 252.137 473.54 251.337 473.54 250.453V250.075C473.54 249.161 473.716 248.337 474.067 247.605C474.425 246.873 474.92 246.298 475.553 245.882C476.186 245.46 476.871 245.25 477.609 245.25C478.764 245.25 479.678 245.645 480.352 246.436C481.031 247.221 481.371 248.296 481.371 249.662V250.25H474.586V250.453C474.586 251.531 474.894 252.43 475.509 253.151C476.13 253.866 476.909 254.223 477.847 254.223C478.409 254.223 478.904 254.121 479.332 253.916C479.766 253.71 480.158 253.382 480.51 252.931L481.169 253.432C480.396 254.551 479.273 255.111 477.803 255.111ZM477.609 246.146C476.818 246.146 476.15 246.436 475.605 247.016C475.066 247.596 474.738 248.375 474.621 249.354H480.325V249.24C480.296 248.326 480.035 247.582 479.543 247.007C479.051 246.433 478.406 246.146 477.609 246.146ZM486.935 254.223C487.667 254.223 488.279 254.018 488.771 253.608C489.27 253.192 489.539 252.656 489.58 252H490.591C490.562 252.58 490.38 253.11 490.046 253.59C489.712 254.065 489.267 254.437 488.71 254.707C488.159 254.976 487.567 255.111 486.935 255.111C485.687 255.111 484.696 254.677 483.964 253.81C483.237 252.943 482.874 251.777 482.874 250.312V249.996C482.874 249.058 483.038 248.229 483.366 247.508C483.694 246.788 484.163 246.231 484.772 245.838C485.388 245.446 486.105 245.25 486.926 245.25C487.969 245.25 488.827 245.56 489.501 246.181C490.181 246.802 490.544 247.62 490.591 248.633H489.58C489.533 247.889 489.264 247.289 488.771 246.832C488.285 246.375 487.67 246.146 486.926 246.146C485.977 246.146 485.238 246.489 484.711 247.174C484.189 247.86 483.929 248.821 483.929 250.057V250.365C483.929 251.578 484.189 252.524 484.711 253.204C485.238 253.883 485.979 254.223 486.935 254.223Z" fill="#373838" fill-opacity="0.71"/>
<defs>
<linearGradient id="paint0_linear" x1="461.762" y1="374.918" x2="462.173" y2="256.061" gradientUnits="userSpaceOnUse">
<stop stop-color="#808080" stop-opacity="0.25"/>
<stop offset="0.53514" stop-color="#808080" stop-opacity="0.12"/>
<stop offset="1" stop-color="#808080" stop-opacity="0.1"/>
</linearGradient>
<linearGradient id="paint1_linear" x1="81862.6" y1="57370.9" x2="81862.6" y2="19935.4" gradientUnits="userSpaceOnUse">
<stop stop-color="#808080" stop-opacity="0.25"/>
<stop offset="0.53514" stop-color="#808080" stop-opacity="0.12"/>
<stop offset="1" stop-color="#808080" stop-opacity="0.1"/>
</linearGradient>
<clipPath id="clip0">
<rect x="34.7246" y="81.0361" width="99.8446" height="102.228" fill="white"/>
</clipPath>
<clipPath id="clip1">
<rect x="227.134" y="26.6055" width="204.809" height="120.969" fill="white"/>
</clipPath>
</defs>
</svg>
