<svg width="426" height="337" viewBox="0 0 426 337" fill="none" xmlns="http://www.w3.org/2000/svg">
<g clip-path="url(#clip0)">
<path d="M137.074 52.3037H136.205V100.119H137.074V52.3037Z" fill="#3F3D56"/>
<path d="M137.074 114.352H136.205V156.425H137.074V114.352Z" fill="#3F3D56"/>
<path d="M202.246 163.128H134.902V164.022H202.246V163.128Z" fill="#3F3D56"/>
<path d="M107.096 175.193H106.227V213.177H107.096V175.193Z" fill="#3F3D56"/>
<path d="M216.148 219.88H114.047V220.774H216.148V219.88Z" fill="#3F3D56"/>
<path d="M301.306 21.9165H300.437V67.0504H301.306V21.9165Z" fill="#3F3D56"/>
<path d="M293.92 74.2007H230.037V75.0944H293.92V74.2007Z" fill="#3F3D56"/>
<path d="M223.535 81.3506H222.666V141.678H223.535V81.3506Z" fill="#3F3D56"/>
<path d="M136.64 114.865C135.179 114.865 133.751 114.42 132.537 113.585C131.322 112.75 130.375 111.564 129.816 110.176C129.257 108.788 129.111 107.26 129.396 105.787C129.681 104.313 130.384 102.959 131.417 101.897C132.45 100.834 133.766 100.111 135.199 99.8178C136.632 99.5247 138.117 99.6752 139.467 100.25C140.816 100.825 141.97 101.799 142.781 103.048C143.593 104.297 144.026 105.766 144.026 107.269C144.024 109.283 143.245 111.214 141.86 112.638C140.476 114.062 138.598 114.863 136.64 114.865ZM136.64 100.566C135.351 100.566 134.091 100.959 133.019 101.695C131.948 102.432 131.112 103.479 130.619 104.704C130.126 105.928 129.997 107.276 130.248 108.576C130.5 109.877 131.12 111.071 132.032 112.008C132.943 112.946 134.104 113.584 135.369 113.843C136.633 114.102 137.943 113.969 139.134 113.461C140.325 112.954 141.343 112.095 142.059 110.993C142.775 109.89 143.157 108.594 143.157 107.269C143.155 105.492 142.468 103.788 141.246 102.531C140.024 101.274 138.368 100.568 136.64 100.566Z" fill="#3F3D56"/>
<path d="M107.095 227.924C105.634 227.924 104.206 227.479 102.992 226.644C101.777 225.809 100.83 224.623 100.271 223.234C99.7122 221.846 99.5659 220.319 99.8509 218.845C100.136 217.372 100.839 216.018 101.872 214.956C102.905 213.893 104.221 213.17 105.654 212.876C107.087 212.583 108.572 212.734 109.922 213.309C111.271 213.884 112.425 214.857 113.236 216.107C114.048 217.356 114.481 218.825 114.481 220.327C114.479 222.341 113.7 224.272 112.315 225.697C110.931 227.121 109.053 227.922 107.095 227.924ZM107.095 213.624C105.806 213.624 104.546 214.017 103.474 214.754C102.403 215.49 101.567 216.537 101.074 217.762C100.581 218.987 100.452 220.335 100.703 221.635C100.955 222.935 101.575 224.13 102.487 225.067C103.398 226.004 104.559 226.643 105.824 226.902C107.088 227.16 108.398 227.027 109.589 226.52C110.78 226.013 111.798 225.154 112.514 224.051C113.23 222.949 113.612 221.653 113.612 220.327C113.61 218.55 112.923 216.846 111.701 215.59C110.479 214.333 108.823 213.626 107.095 213.624Z" fill="#3F3D56"/>
<path d="M137.075 170.725C140.914 170.725 144.026 167.524 144.026 163.575C144.026 159.626 140.914 156.425 137.075 156.425C133.235 156.425 130.123 159.626 130.123 163.575C130.123 167.524 133.235 170.725 137.075 170.725Z" fill="#019A40"/>
<path d="M388.636 106.822H316.513V107.716H388.636V106.822Z" fill="#3F3D56"/>
<path d="M309.995 114.352H309.126V156.425H309.995V114.352Z" fill="#3F3D56"/>
<path d="M302.175 163.128H244.39V164.022H302.175V163.128Z" fill="#3F3D56"/>
<path d="M406.014 167.149H346.057V168.043H406.014V167.149Z" fill="#3F3D56"/>
<path d="M339.974 175.193H339.105V213.177H339.974V175.193Z" fill="#3F3D56"/>
<path d="M332.153 219.88H230.052V220.774H332.153V219.88Z" fill="#3F3D56"/>
<path d="M223.535 185.471H222.666V213.177H223.535V185.471Z" fill="#3F3D56"/>
<path d="M309.561 114.419C313.4 114.419 316.513 111.218 316.513 107.269C316.513 103.32 313.4 100.119 309.561 100.119C305.722 100.119 302.609 103.32 302.609 107.269C302.609 111.218 305.722 114.419 309.561 114.419Z" fill="#019A40"/>
<path d="M300.871 81.7971C299.411 81.7971 297.983 81.3516 296.768 80.5168C295.553 79.6821 294.607 78.4956 294.048 77.1075C293.489 75.7194 293.342 74.1919 293.627 72.7183C293.912 71.2446 294.616 69.891 295.649 68.8286C296.682 67.7661 297.998 67.0426 299.43 66.7495C300.863 66.4564 302.348 66.6068 303.698 67.1818C305.048 67.7568 306.201 68.7305 307.013 69.9798C307.824 71.2291 308.258 72.6978 308.258 74.2003C308.255 76.2144 307.476 78.1454 306.092 79.5696C304.707 80.9938 302.83 81.7949 300.871 81.7971ZM300.871 67.4973C299.582 67.4973 298.322 67.8904 297.251 68.6269C296.179 69.3635 295.344 70.4103 294.85 71.6352C294.357 72.86 294.228 74.2078 294.48 75.508C294.731 76.8083 295.352 78.0027 296.263 78.9401C297.175 79.8775 298.336 80.5159 299.6 80.7746C300.864 81.0332 302.175 80.9005 303.365 80.3931C304.556 79.8858 305.574 79.0267 306.29 77.9243C307.006 76.822 307.389 75.5261 307.389 74.2003C307.387 72.4232 306.699 70.7194 305.478 69.4627C304.256 68.2061 302.599 67.4992 300.871 67.4973Z" fill="#3F3D56"/>
<path d="M223.1 81.7971C221.639 81.7971 220.211 81.3516 218.996 80.5168C217.782 79.6821 216.835 78.4956 216.276 77.1075C215.717 75.7194 215.571 74.1919 215.856 72.7183C216.141 71.2446 216.844 69.891 217.877 68.8286C218.91 67.7661 220.226 67.0426 221.659 66.7495C223.092 66.4564 224.577 66.6068 225.926 67.1818C227.276 67.7568 228.43 68.7305 229.241 69.9798C230.053 71.2291 230.486 72.6978 230.486 74.2003C230.484 76.2144 229.705 78.1454 228.32 79.5696C226.936 80.9938 225.058 81.7949 223.1 81.7971ZM223.1 67.4973C221.811 67.4973 220.551 67.8904 219.479 68.6269C218.407 69.3635 217.572 70.4103 217.079 71.6352C216.586 72.86 216.457 74.2078 216.708 75.508C216.96 76.8083 217.58 78.0027 218.492 78.9401C219.403 79.8775 220.564 80.5159 221.829 80.7746C223.093 81.0332 224.403 80.9005 225.594 80.3931C226.785 79.8858 227.803 79.0267 228.519 77.9243C229.235 76.822 229.617 75.5261 229.617 74.2003C229.615 72.4232 228.928 70.7194 227.706 69.4627C226.484 68.2061 224.828 67.4992 223.1 67.4973Z" fill="#3F3D56"/>
<path d="M339.105 175.64C337.644 175.64 336.216 175.195 335.001 174.36C333.787 173.525 332.84 172.339 332.281 170.951C331.722 169.563 331.576 168.035 331.861 166.562C332.146 165.088 332.849 163.734 333.882 162.672C334.915 161.609 336.231 160.886 337.664 160.593C339.097 160.3 340.582 160.45 341.931 161.025C343.281 161.6 344.435 162.574 345.246 163.823C346.058 165.072 346.491 166.541 346.491 168.044C346.489 170.058 345.71 171.989 344.325 173.413C342.94 174.837 341.063 175.638 339.105 175.64ZM339.105 161.341C337.816 161.341 336.556 161.734 335.484 162.47C334.412 163.207 333.577 164.254 333.084 165.478C332.591 166.703 332.461 168.051 332.713 169.351C332.964 170.652 333.585 171.846 334.497 172.783C335.408 173.721 336.569 174.359 337.833 174.618C339.098 174.876 340.408 174.744 341.599 174.236C342.79 173.729 343.807 172.87 344.524 171.768C345.24 170.665 345.622 169.369 345.622 168.044C345.62 166.266 344.933 164.563 343.711 163.306C342.489 162.049 340.833 161.342 339.105 161.341Z" fill="#3F3D56"/>
<path d="M339.105 227.477C342.944 227.477 346.056 224.276 346.056 220.327C346.056 216.378 342.944 213.177 339.105 213.177C335.266 213.177 332.153 216.378 332.153 220.327C332.153 224.276 335.266 227.477 339.105 227.477Z" fill="#019A40"/>
<path d="M223.1 227.924C221.639 227.924 220.211 227.479 218.996 226.644C217.782 225.809 216.835 224.623 216.276 223.234C215.717 221.846 215.571 220.319 215.856 218.845C216.141 217.372 216.844 216.018 217.877 214.956C218.91 213.893 220.226 213.17 221.659 212.876C223.092 212.583 224.577 212.734 225.926 213.309C227.276 213.884 228.43 214.857 229.241 216.107C230.053 217.356 230.486 218.825 230.486 220.327C230.484 222.341 229.705 224.272 228.32 225.697C226.936 227.121 225.058 227.922 223.1 227.924ZM223.1 213.624C221.811 213.624 220.551 214.017 219.479 214.754C218.407 215.49 217.572 216.537 217.079 217.762C216.586 218.987 216.457 220.335 216.708 221.635C216.96 222.935 217.58 224.13 218.492 225.067C219.403 226.004 220.564 226.643 221.829 226.902C223.093 227.16 224.403 227.027 225.594 226.52C226.785 226.013 227.803 225.154 228.519 224.051C229.235 222.949 229.617 221.653 229.617 220.327C229.615 218.55 228.928 216.846 227.706 215.59C226.484 214.333 224.828 213.626 223.1 213.624Z" fill="#3F3D56"/>
<path d="M309.126 171.172C307.666 171.172 306.237 170.726 305.023 169.891C303.808 169.057 302.862 167.87 302.302 166.482C301.743 165.094 301.597 163.566 301.882 162.093C302.167 160.619 302.871 159.266 303.904 158.203C304.937 157.141 306.253 156.417 307.685 156.124C309.118 155.831 310.603 155.981 311.953 156.556C313.303 157.131 314.456 158.105 315.268 159.354C316.079 160.604 316.512 162.072 316.512 163.575C316.51 165.589 315.731 167.52 314.347 168.944C312.962 170.368 311.085 171.169 309.126 171.172ZM309.126 156.872C307.837 156.872 306.577 157.265 305.506 158.001C304.434 158.738 303.599 159.785 303.105 161.01C302.612 162.235 302.483 163.582 302.734 164.883C302.986 166.183 303.607 167.377 304.518 168.315C305.429 169.252 306.591 169.89 307.855 170.149C309.119 170.408 310.43 170.275 311.62 169.768C312.811 169.26 313.829 168.401 314.545 167.299C315.261 166.197 315.643 164.901 315.643 163.575C315.642 161.798 314.954 160.094 313.733 158.837C312.511 157.581 310.854 156.874 309.126 156.872Z" fill="#3F3D56"/>
<path d="M107.096 152.85C105.377 152.85 103.697 153.374 102.268 154.356C100.839 155.338 99.7254 156.734 99.0677 158.367C98.41 160 98.2379 161.797 98.5732 163.531C98.9085 165.264 99.7361 166.857 100.951 168.107C102.167 169.357 103.715 170.208 105.401 170.553C107.086 170.898 108.833 170.721 110.421 170.044C112.009 169.368 113.366 168.222 114.321 166.752C115.276 165.283 115.785 163.555 115.785 161.787C115.779 159.419 114.861 157.15 113.233 155.475C111.605 153.8 109.398 152.857 107.096 152.85ZM107.096 155.531C107.611 155.531 108.115 155.688 108.544 155.983C108.973 156.277 109.307 156.696 109.504 157.186C109.701 157.676 109.753 158.215 109.653 158.735C109.552 159.255 109.304 159.733 108.939 160.108C108.574 160.483 108.11 160.738 107.604 160.842C107.099 160.945 106.574 160.892 106.098 160.689C105.622 160.486 105.215 160.143 104.928 159.702C104.642 159.261 104.489 158.742 104.489 158.212C104.491 157.502 104.767 156.821 105.255 156.319C105.743 155.816 106.405 155.533 107.096 155.531ZM107.096 168.439C106.066 168.434 105.053 168.171 104.144 167.672C103.236 167.173 102.459 166.454 101.882 165.577C101.924 163.789 105.358 162.805 107.096 162.805C108.834 162.805 112.268 163.789 112.309 165.577C111.732 166.453 110.955 167.172 110.047 167.671C109.138 168.169 108.125 168.433 107.096 168.439Z" fill="#3F3D56"/>
<path d="M137.074 30.854C135.356 30.854 133.676 31.3782 132.247 32.3602C130.818 33.3423 129.704 34.7381 129.046 36.3712C128.389 38.0043 128.216 39.8013 128.552 41.535C128.887 43.2687 129.715 44.8612 130.93 46.1111C132.145 47.361 133.693 48.2122 135.379 48.5571C137.065 48.902 138.812 48.725 140.4 48.0485C141.987 47.3721 143.345 46.2265 144.299 44.7568C145.254 43.287 145.764 41.5591 145.764 39.7914C145.757 37.4232 144.839 35.154 143.211 33.4794C141.583 31.8048 139.377 30.8609 137.074 30.854ZM137.074 33.5352C137.59 33.5352 138.094 33.6925 138.523 33.9871C138.951 34.2817 139.285 34.7005 139.483 35.1904C139.68 35.6803 139.732 36.2194 139.631 36.7395C139.53 37.2596 139.282 37.7374 138.918 38.1124C138.553 38.4873 138.089 38.7427 137.583 38.8462C137.077 38.9496 136.553 38.8965 136.077 38.6936C135.6 38.4906 135.193 38.147 134.907 37.7061C134.62 37.2651 134.467 36.7467 134.467 36.2165C134.47 35.5061 134.745 34.8255 135.233 34.3232C135.722 33.8208 136.384 33.5376 137.074 33.5352ZM137.074 46.4429C136.044 46.4381 135.031 46.1749 134.123 45.6762C133.214 45.1776 132.438 44.4584 131.861 43.5812C131.902 41.7937 135.336 40.8098 137.074 40.8098C138.812 40.8098 142.246 41.7937 142.288 43.5812C141.71 44.4578 140.933 45.1764 140.025 45.675C139.117 46.1736 138.104 46.4372 137.074 46.4429Z" fill="#3F3D56"/>
<path d="M300.871 0.0200195C299.153 0.0200195 297.472 0.544192 296.044 1.52625C294.615 2.5083 293.501 3.90414 292.843 5.53724C292.185 7.17033 292.013 8.96735 292.349 10.701C292.684 12.4347 293.511 14.0272 294.727 15.2771C295.942 16.5271 297.49 17.3783 299.176 17.7231C300.862 18.068 302.609 17.891 304.196 17.2145C305.784 16.5381 307.141 15.3925 308.096 13.9228C309.051 12.453 309.561 10.7251 309.561 8.95743C309.554 6.58922 308.636 4.31997 307.008 2.64538C305.38 0.970795 303.174 0.0269516 300.871 0.0200195ZM300.871 2.70124C301.387 2.70124 301.891 2.8585 302.319 3.15311C302.748 3.44773 303.082 3.86648 303.28 4.35641C303.477 4.84634 303.529 5.38544 303.428 5.90555C303.327 6.42566 303.079 6.90341 302.714 7.27838C302.35 7.65336 301.885 7.90872 301.38 8.01217C300.874 8.11563 300.35 8.06253 299.874 7.8596C299.397 7.65666 298.99 7.313 298.704 6.87208C298.417 6.43115 298.264 5.91276 298.264 5.38247C298.267 4.67209 298.542 3.99149 299.03 3.48918C299.519 2.98686 300.181 2.70361 300.871 2.70124ZM300.871 15.6089C299.841 15.6041 298.828 15.3409 297.92 14.8423C297.011 14.3436 296.235 13.6244 295.657 12.7472C295.699 10.9598 299.133 9.97579 300.871 9.97579C302.609 9.97579 306.043 10.9598 306.085 12.7472C305.507 13.6238 304.73 14.3424 303.822 14.841C302.914 15.3396 301.901 15.6032 300.871 15.6089Z" fill="#3F3D56"/>
<path d="M400.801 97.8848C399.082 97.8848 397.402 98.4089 395.973 99.391C394.544 100.373 393.43 101.769 392.773 103.402C392.115 105.035 391.943 106.832 392.278 108.566C392.614 110.299 393.441 111.892 394.656 113.142C395.872 114.392 397.42 115.243 399.106 115.588C400.791 115.933 402.538 115.756 404.126 115.079C405.714 114.403 407.071 113.257 408.026 111.788C408.981 110.318 409.49 108.59 409.49 106.822C409.484 104.454 408.566 102.185 406.938 100.51C405.31 98.8355 403.103 97.8917 400.801 97.8848ZM400.801 100.566C401.316 100.566 401.82 100.723 402.249 101.018C402.678 101.312 403.012 101.731 403.209 102.221C403.407 102.711 403.458 103.25 403.358 103.77C403.257 104.29 403.009 104.768 402.644 105.143C402.28 105.518 401.815 105.773 401.309 105.877C400.804 105.98 400.28 105.927 399.803 105.724C399.327 105.521 398.92 105.178 398.633 104.737C398.347 104.296 398.194 103.778 398.194 103.247C398.196 102.537 398.472 101.856 398.96 101.354C399.448 100.852 400.11 100.568 400.801 100.566ZM400.801 113.474C399.771 113.469 398.758 113.206 397.849 112.707C396.941 112.208 396.164 111.489 395.587 110.612C395.629 108.825 399.063 107.841 400.801 107.841C402.539 107.841 405.973 108.825 406.015 110.612C405.437 111.489 404.66 112.207 403.752 112.706C402.843 113.204 401.83 113.468 400.801 113.474Z" fill="#3F3D56"/>
<path d="M417.311 158.212C415.592 158.212 413.912 158.737 412.483 159.719C411.054 160.701 409.94 162.097 409.283 163.73C408.625 165.363 408.453 167.16 408.788 168.893C409.123 170.627 409.951 172.22 411.166 173.47C412.381 174.719 413.93 175.571 415.615 175.916C417.301 176.26 419.048 176.083 420.636 175.407C422.224 174.73 423.581 173.585 424.536 172.115C425.49 170.645 426 168.917 426 167.15C425.993 164.782 425.076 162.512 423.448 160.838C421.819 159.163 419.613 158.219 417.311 158.212ZM417.311 160.894C417.826 160.894 418.33 161.051 418.759 161.345C419.188 161.64 419.522 162.059 419.719 162.549C419.916 163.039 419.968 163.578 419.867 164.098C419.767 164.618 419.518 165.096 419.154 165.471C418.789 165.846 418.325 166.101 417.819 166.205C417.313 166.308 416.789 166.255 416.313 166.052C415.837 165.849 415.429 165.505 415.143 165.064C414.857 164.624 414.704 164.105 414.704 163.575C414.706 162.864 414.981 162.184 415.47 161.682C415.958 161.179 416.62 160.896 417.311 160.894ZM417.311 173.801C416.281 173.797 415.268 173.533 414.359 173.035C413.451 172.536 412.674 171.817 412.097 170.94C412.139 169.152 415.573 168.168 417.311 168.168C419.048 168.168 422.482 169.152 422.524 170.94C421.946 171.816 421.17 172.535 420.261 173.033C419.353 173.532 418.34 173.796 417.311 173.801Z" fill="#3F3D56"/>
<path d="M66.0401 327.708C64.8038 339.271 -0.0982361 338.3 0.000111658 327.707C1.23636 316.144 66.1384 317.115 66.0401 327.708Z" fill="#E6E6E6"/>
<path d="M45.0781 298.6L47.7093 304.463L52.5324 304.012L55.602 293.638L50.7784 290.933L45.0781 298.6Z" fill="#FFB8B8"/>
<path d="M28.5199 312.102L28.416 316.188L35.8703 316.639V311.678L28.5199 312.102Z" fill="#FFB8B8"/>
<path d="M31.0468 237.714L32.8007 273.794L28.416 313.031L41.5706 314.835L49.9021 265.225L52.5329 231.4L31.0468 237.714Z" fill="#2F2E41"/>
<path d="M10.4381 224.635C10.4381 224.635 5.17622 260.264 16.1385 271.99C27.1008 283.716 42.0095 304.462 42.0095 304.462L52.5333 290.932L25.7853 261.617L31.0472 241.773L52.5333 231.4L49.0254 206.595L17.454 206.144L10.4381 224.635Z" fill="#2F2E41"/>
<path d="M36.3089 142.102C41.6367 142.102 45.9557 137.66 45.9557 132.18C45.9557 126.7 41.6367 122.258 36.3089 122.258C30.9811 122.258 26.6621 126.7 26.6621 132.18C26.6621 137.66 30.9811 142.102 36.3089 142.102Z" fill="#FFB8B8"/>
<path d="M27.977 134.435C27.977 134.435 27.5385 148.416 25.3461 150.22C23.1536 152.024 33.2389 159.691 33.2389 159.691L39.8163 148.867V138.945L27.977 134.435Z" fill="#FFB8B8"/>
<path d="M32.3627 153.377L27.0391 145.109L24.0312 149.318L19.6465 161.946L23.1544 211.105L43.7633 211.556L46.3945 155.181L39.817 147.063L32.3627 153.377Z" fill="#D0CDE1"/>
<path d="M54.7257 156.534L58.2337 156.083C58.2337 156.083 59.1106 156.534 59.5491 159.691C59.9876 162.848 65.2495 190.81 65.2495 190.81L58.2337 225.086L50.3408 214.262L55.1642 195.32L50.3408 176.378L54.7257 156.534Z" fill="#2F2E41"/>
<path d="M9.99928 156.083H7.3681L0.791016 192.614L6.92971 221.027L13.0684 210.654L11.3144 199.379L12.1916 189.457L15.2612 183.594L9.99928 156.083Z" fill="#2F2E41"/>
<path d="M49.0255 302.658C49.0255 302.658 46.3945 301.756 46.3945 303.56C46.3945 305.364 48.1485 310.776 48.1485 310.776C48.1485 310.776 45.5176 327.463 49.464 326.561C53.4104 325.659 56.4798 317.992 56.9183 315.737C57.3568 313.482 59.5493 301.756 59.5493 301.756C59.5493 301.756 63.0572 293.187 60.8648 292.736C58.6723 292.285 52.5334 290.481 52.5334 290.481C52.5334 290.481 56.0413 301.756 49.0255 302.658Z" fill="#2F2E41"/>
<path d="M36.3085 316.639C36.3085 316.639 29.2927 312.129 27.9772 315.737C27.1047 318.369 26.5165 321.091 26.2232 323.855C26.2232 323.855 24.4692 329.718 31.4851 328.816C38.501 327.914 37.624 327.914 38.0625 325.208C38.501 322.502 36.3085 316.639 36.3085 316.639Z" fill="#2F2E41"/>
<path d="M30.6086 132.179L32.3625 131.728C32.3625 131.728 33.678 124.061 36.7474 124.963C39.8169 125.865 47.7097 126.767 47.7097 123.159C47.7097 119.551 40.2554 116.394 35.8705 116.845C31.4856 117.296 24.0312 118.649 24.4697 125.414C24.9082 132.179 27.7377 138.76 27.7377 138.76L27.9662 134.749L30.6086 132.179Z" fill="#2F2E41"/>
<path d="M39.8166 158.789L32.3623 153.377L39.8166 147.063L42.4048 150.257L39.8166 158.789Z" fill="#D0CDE1"/>
<path d="M25.7852 158.338L32.3627 153.377L27.1008 145.259L24.0312 149.318L25.7852 158.338Z" fill="#D0CDE1"/>
<path d="M57.7951 156.083L43.7634 150.22L40.4747 147.739L30.6087 192.614L24.0313 172.319L26.0045 146.386L7.80713 156.083L13.946 186.751L14.823 198.477L12.1921 207.948C12.1921 207.948 2.98373 214.713 6.05317 221.929C9.12261 229.145 12.6305 229.596 12.6305 229.596C12.6305 229.596 27.5392 215.164 28.4162 211.556C29.2932 207.948 30.6087 201.634 30.6087 201.634C30.6087 201.634 38.063 230.498 46.8329 230.047C55.6027 229.596 55.6027 220.125 55.6027 220.125L53.4102 210.203L49.9023 199.83L51.6563 182.692L57.7951 156.083Z" fill="#2F2E41"/>
<ellipse cx="223.187" cy="163.379" rx="17.5956" ry="17.6354" fill="#019A40"/>
</g>
<defs>
<clipPath id="clip0">
<rect y="0.0200195" width="426" height="336" fill="white"/>
</clipPath>
</defs>
</svg>
