<svg width="1080" height="504" viewBox="0 0 1080 504" fill="none" xmlns="http://www.w3.org/2000/svg">
<path opacity="0.5" d="M601.027 420.302C359.137 427.775 99.5548 460.782 0 476.351V502.881H1080C1021.13 472.241 842.918 412.829 601.027 420.302Z" fill="url(#paint0_linear)"/>
<g clip-path="url(#clip0)">
<path opacity="0.1" d="M265.372 122.188C280.293 155.713 261.26 194.317 238.856 223.386C231.358 233.133 223.08 243.353 222.04 255.58C220.787 270.536 230.968 284.284 243.045 293.271C265.074 309.649 295.16 314.714 321.378 306.448C344.034 299.308 363.082 283.181 385.937 276.68C424.155 265.791 464.667 283.843 497.397 306.334C520.565 322.234 545.377 341.608 573.307 338.201C592.959 335.806 609.638 322.082 620.958 305.924C626.423 298.122 631.178 289.378 639.135 284.116C643.866 280.984 649.423 279.326 654.98 278.14C705.727 267.35 759.584 293.682 809.658 280.14C843.482 271.015 870.449 244.402 887.219 213.782C903.99 183.162 911.817 148.588 918.337 114.333C922.969 90.0014 926.814 63.7154 916.166 41.3377C904.899 17.6446 878.819 3.28121 852.609 0.589504C826.398 -2.10221 800.111 5.32661 775.965 15.8045C745.795 28.9285 716.222 47.299 683.293 47.3599C660.866 47.4055 639.479 38.8437 618.038 32.3121C582.189 21.4008 544.911 15.9794 507.762 10.9762C472.196 6.18582 436.278 1.73006 400.498 4.55864C375.182 6.55841 352.824 16.1847 328.257 20.6405C312.244 23.5451 296.154 21.4008 280.438 26.2672C261.084 32.2893 241.18 46.2421 240.11 68.2168C239.101 89.1346 257.461 104.403 265.372 122.188Z" fill="#009688"/>
<path d="M657.076 152.041C653.812 143.578 645.396 123.687 639.854 127.633C632.853 132.621 646.856 154.657 646.856 154.657C647.254 158.702 639.381 167.119 635.161 171.316C635.161 170.982 635.161 170.792 635.161 170.792C635.121 170.951 635.059 171.105 634.978 171.248L634.626 171.058C634.532 171.393 634.362 171.703 634.129 171.963C634.129 171.392 634.091 171.058 634.091 171.058C633.281 174.472 619.14 178.798 619.14 178.798C619.14 178.798 618.758 178.798 618.101 178.798C614.172 178.798 603.944 177.916 599.205 170.373C596.754 166.287 593.618 162.648 589.933 159.614C588.671 158.631 587.138 158.053 585.538 157.957C572.445 157.12 561.843 150.528 559.725 149.121L559.336 148.855L559.252 149.098C558.755 148.391 558.273 147.638 557.822 146.863L557.593 146.445C560.762 144.862 563.429 142.437 565.298 139.439C567.166 136.44 568.164 132.986 568.179 129.458C568.179 129.329 568.179 129.192 568.179 129.063C569.331 127.082 569.938 124.834 569.937 122.546V120.265L572.926 117.619C574.294 116.41 575.708 115.133 576.404 113.467C576.683 112.794 576.809 112.066 576.771 111.338C576.838 110.715 576.744 110.084 576.498 109.507C576.252 108.929 575.862 108.424 575.364 108.038C573.071 106.464 569.249 108.038 567.591 105.848C566.826 104.86 566.964 103.514 566.589 102.351C565.825 99.986 563.073 98.7086 560.528 98.6706C557.983 98.6326 555.544 99.5526 553.098 100.245C547.959 101.696 542.596 102.196 537.276 101.72C535.837 101.465 534.359 101.517 532.942 101.872C532.076 102.228 531.307 102.782 530.696 103.488C530.085 104.195 529.65 105.035 529.426 105.94C529.237 106.62 529.124 107.318 529.089 108.023C526.957 110.416 525.777 113.501 525.772 116.699V122.546C525.777 125.668 526.902 128.685 528.944 131.055C529.185 133.806 530.026 136.472 531.408 138.867C532.79 141.262 534.68 143.329 536.947 144.924C536.947 145.076 536.947 145.231 536.947 145.388L537.046 145.449C536.923 147.261 536.642 149.06 536.206 150.824V150.437C536.206 150.437 525.504 156.101 514.039 156.238H512.778C510.516 156.162 508.317 156.983 506.663 158.519C503.269 161.698 497.322 166.724 493.668 166.724C492.904 166.724 473.611 170.472 470.416 171.096L464.446 165.279L464.263 165.621L463.911 165.279C463.259 165.329 462.61 165.423 461.97 165.56C458.912 161.956 452.797 153.577 451.383 142.331C451.383 142.331 464.584 127.375 459.73 113.437C455.587 101.56 444.175 127.017 440.934 134.689C440.367 136.028 440.297 137.524 440.736 138.909L451.46 173.293C450.439 175.958 450.146 178.844 450.611 181.657H450.489L458.301 191.626C458.301 191.626 464.179 194.12 473.374 194.074C480.114 194.085 486.793 192.81 493.049 190.318H494.861L494.517 190.447H503.819L509.735 208.248C509.537 209.867 506.678 232.473 504.385 237.529C503.704 239.219 503.397 241.034 503.483 242.852C503.603 246.345 504.176 249.808 505.187 253.155L510.37 252.965L510.171 253.368C505.784 262.317 498.453 278.262 494.119 293.166L486.575 308.373L492.231 376.578H492.461L492.896 376.647C493.508 376.738 494.425 376.875 495.633 377.027L495.19 377.787L482.723 398.317C482.723 398.317 473.833 416.422 493.5 413.008C493.5 413.008 500.769 410.909 503.735 398.561L516.668 386.494C516.668 386.494 517.272 378.479 513.611 375.278C513.382 371.575 512.801 360.763 513.695 358.162C514.773 355.014 509.109 318.813 509.109 318.813C509.109 318.813 529.579 276.574 541.977 275.525C542.886 275.462 543.798 275.581 544.66 275.875C554.849 279.175 567.193 303.682 570.824 311.308L570.992 311.658V311.726L571.13 312.023V312.107L571.252 312.365V312.433L571.359 312.669V312.722L571.451 312.913V312.989L571.52 313.133V313.194L571.566 313.3V313.361V313.43L571.604 313.521L573.217 361.006L573.377 361.09H573.454L573.316 362.07L572.613 366.975C572.613 366.975 581.502 385.604 580.96 387.961C580.417 390.318 586.884 399.77 596.041 397.146C605.198 394.523 599.748 379.734 599.748 379.734L590.927 361.652L590.537 360.846C591.416 360.31 592.245 359.697 593.014 359.014C593.014 359.014 590.323 339.602 593.014 335.404C595.704 331.207 596.515 312.053 596.515 312.053C596.515 312.053 594.627 298.937 591.393 293.166L577.849 245.072C581.907 248.828 585.064 250.296 587.701 250.197H588.137C589.296 250.219 590.441 249.936 591.455 249.376C591.999 249.07 592.511 248.711 592.983 248.304C593.073 248.227 593.158 248.143 593.235 248.053C597.004 244.905 588.924 232.572 584.346 225.242C579.935 218.17 586.012 198.956 586.471 197.526C586.879 197.228 587.317 196.974 587.778 196.766C588.726 196.362 589.743 196.142 590.774 196.12C595.162 196.272 600.558 198.781 607.239 200.043C611.882 200.829 616.587 201.193 621.296 201.13H621.571C623.443 201.13 625.14 201.092 626.516 201.039C627.772 200.99 628.999 200.66 630.109 200.074C631.06 199.522 631.92 198.83 632.662 198.021L644.387 184.843L644.081 184.988C644.65 183.493 644.65 181.844 644.081 180.35L656.472 159.059C657.097 158.01 657.477 156.834 657.581 155.619C657.686 154.404 657.513 153.181 657.076 152.041Z" fill="url(#paint1_linear)"/>
<path d="M517.867 384.691L505.385 396.591C502.526 408.757 495.502 410.817 495.502 410.817C476.523 414.178 485.099 396.37 485.099 396.37L497.138 376.107L498.62 373.605C498.62 373.605 507.204 371.02 512.922 372.571C513.644 372.768 514.311 373.127 514.871 373.62C518.456 376.715 517.867 384.691 517.867 384.691Z" fill="#444176"/>
<path d="M594.833 395.299C585.989 397.884 579.752 388.577 580.31 386.243C580.868 383.908 572.23 365.576 572.23 365.576L572.903 360.74L573.53 356.261L588.053 357.295L589.421 360.154L597.936 377.985C597.936 377.985 603.677 392.713 594.833 395.299Z" fill="#444176"/>
<path opacity="0.1" d="M515.01 375.643C513.642 377.977 502.551 376.798 497.146 376.068L498.629 373.567C498.629 373.567 507.213 370.982 512.931 372.533C513.653 372.73 514.319 373.089 514.88 373.582C514.956 374.844 515.01 375.643 515.01 375.643Z" fill="black"/>
<path opacity="0.1" d="M589.435 360.139C581.998 365.066 574.079 361.34 572.887 360.724L573.514 356.246L588.037 357.28L589.435 360.139Z" fill="black"/>
<path d="M591.454 334.256C588.855 338.392 591.454 357.539 591.454 357.539C582.87 365.302 572.734 359.607 572.734 359.607L571.205 312.791C571.205 312.791 554.305 274.248 542.343 275.282C530.38 276.316 510.621 317.961 510.621 317.961C510.621 317.961 516.079 353.653 515.039 356.74C514 359.827 515.039 374.845 515.039 374.845C513.22 377.947 494.241 374.845 494.241 374.845L488.783 307.59L496.029 292.58C500.195 277.89 507.273 262.165 511.508 253.345C513.61 248.958 515.016 246.281 515.016 246.281L528.852 243.415L573.758 234.153L589.894 292.58C593.013 298.268 594.832 311.202 594.832 311.202C594.832 311.202 594.053 330.12 591.454 334.256Z" fill="#565387"/>
<g opacity="0.1">
<path opacity="0.1" d="M576.894 359.606L575.365 312.79C575.365 312.79 558.465 274.247 546.503 275.281C545.968 275.333 545.441 275.45 544.936 275.631C556.6 279.486 571.207 312.79 571.207 312.79L572.736 359.606C575.925 361.223 579.52 361.875 583.078 361.484C580.921 361.226 578.828 360.591 576.894 359.606Z" fill="black"/>
<path opacity="0.1" d="M498.37 374.867L492.912 307.612L500.189 292.58C504.355 277.889 511.433 262.165 515.667 253.345C517.769 248.957 519.176 246.281 519.176 246.281L533.011 243.414L574.004 234.936L573.782 234.123L528.853 243.414L515.018 246.281C515.018 246.281 513.611 248.957 511.509 253.345C507.259 262.165 500.197 277.92 496.031 292.58L488.754 307.582L494.211 374.837C494.211 374.837 504.576 376.532 510.722 376.16C506.585 375.936 502.463 375.505 498.37 374.867Z" fill="black"/>
</g>
<path d="M466.747 166.518C466.747 166.518 451.926 167.278 454.005 182.813L458.163 183.33L464.4 176.608L467.519 170.921V169.628L466.747 166.518Z" fill="#CED2DF"/>
<path opacity="0.1" d="M466.747 166.518C466.747 166.518 451.926 167.278 454.005 182.813L458.163 183.33L464.4 176.608L467.519 170.921V169.628L466.747 166.518Z" fill="black"/>
<path d="M631.63 172.206C631.63 172.206 643.86 178.669 640.733 186.174L636.835 187.695L631.637 184.851L630.873 178.129L631.393 173.476L631.63 172.206Z" fill="#CED2DF"/>
<path opacity="0.1" d="M631.63 172.206C631.63 172.206 643.86 178.669 640.733 186.174L636.835 187.695L631.637 184.851L630.873 178.129L631.393 173.476L631.63 172.206Z" fill="black"/>
<path d="M553.106 105.468H542.703C533.799 105.468 526.582 112.648 526.582 121.504C526.582 130.361 533.799 137.541 542.703 137.541H553.106C562.009 137.541 569.226 130.361 569.226 121.504C569.226 112.648 562.009 105.468 553.106 105.468Z" fill="#88455E"/>
<path d="M466.647 168.716L457.543 183.163L456.779 180.593L444.411 140.506C443.988 139.139 444.056 137.669 444.602 136.347C447.729 128.789 458.751 103.651 462.748 115.398C467.426 129.085 454.684 143.851 454.684 143.851C456.137 155.835 462.901 164.518 465.561 167.529C466.234 168.313 466.647 168.716 466.647 168.716Z" fill="#EC8C9C"/>
<path d="M629.68 174.92C629.68 174.92 643.981 161.469 643.438 156.04C643.438 156.04 629.917 134.316 636.681 129.427C642.032 125.534 650.157 145.152 653.306 153.493C653.723 154.604 653.89 155.792 653.796 156.974C653.702 158.156 653.35 159.304 652.764 160.336L635.672 190.439L629.68 174.92Z" fill="#EC8C9C"/>
<path d="M537.107 137.419C537.107 137.419 539.706 153.972 532.17 160.185C524.633 166.397 553.755 166.359 553.755 166.359L564.159 156.786C564.159 156.786 552.196 145.661 555.834 137.389L537.107 137.419Z" fill="#EC8C9C"/>
<path opacity="0.1" d="M536.587 156.299C536.587 156.299 547.769 164.579 558.944 155.265L577.144 192.774L576.105 238.556C576.105 238.556 538.398 257.953 522.797 246.06C507.196 234.168 520.198 227.956 520.198 227.956L516.56 192.781L520.458 170.016C520.458 170.016 527.475 159.15 528.003 159.15C528.53 159.15 536.587 156.299 536.587 156.299Z" fill="black"/>
<path d="M536.587 155.782C536.587 155.782 547.769 164.077 558.952 154.748L577.152 192.257L576.112 238.038C576.112 238.038 538.406 257.436 522.805 245.543C507.204 233.651 520.206 227.439 520.206 227.439L516.568 192.264L520.466 169.499C520.466 169.499 527.483 158.633 528.01 158.633C528.538 158.633 536.587 155.782 536.587 155.782Z" fill="#EBF1F6"/>
<path opacity="0.1" d="M536.588 151.912C536.588 151.912 525.986 157.919 514.475 157.622C513.395 157.588 512.319 157.769 511.31 158.152C510.301 158.536 509.378 159.116 508.597 159.857C505.317 162.99 499.577 167.948 496.023 167.948C495.258 167.948 473.137 172.343 473.137 172.343L467.29 166.526C467.29 166.526 458.576 183.467 454.418 182.691L461.962 192.523C461.962 192.523 476.264 198.728 494.983 191.23H505.906L511.624 208.818C511.624 208.818 508.765 232.617 506.426 237.788C504.087 242.958 507.19 253.048 507.19 253.048L527.729 252.288C527.729 252.288 528.768 242.198 530.328 240.883C531.887 239.567 524.87 195.101 524.87 195.101C524.87 195.101 520.192 170.008 537.352 160.96L536.588 151.912Z" fill="black"/>
<path opacity="0.1" d="M528.844 243.445C528.087 246.513 527.548 249.631 527.231 252.775L511.508 253.368C513.61 248.98 515.016 246.304 515.016 246.304L528.844 243.445Z" fill="black"/>
<path opacity="0.1" d="M466.647 168.716L457.544 183.163L456.779 180.593C460.12 177.293 464.033 170.396 465.592 167.522C466.235 168.313 466.647 168.716 466.647 168.716Z" fill="black"/>
<path d="M536.588 151.912C536.588 151.912 525.458 157.919 513.955 157.622C512.875 157.588 511.799 157.769 510.79 158.152C509.781 158.536 508.858 159.116 508.077 159.858C504.797 162.99 499.057 167.948 495.503 167.948C494.738 167.948 472.617 172.343 472.617 172.343L466.747 166.518C466.747 166.518 458.033 183.459 453.875 182.684L461.419 192.515C461.419 192.515 475.721 198.72 494.44 191.223H505.363L511.081 208.803C511.081 208.803 508.222 232.602 505.883 237.773C503.544 242.943 506.647 253.033 506.647 253.033L527.186 252.273C527.186 252.273 528.225 242.183 529.785 240.867C531.344 239.552 524.327 195.085 524.327 195.085C524.327 195.085 519.649 169.993 536.809 160.945L536.588 151.912Z" fill="#CED2DF"/>
<path opacity="0.1" d="M558.952 150.345C558.952 150.345 569.562 158.39 583.725 159.318C585.275 159.414 586.757 159.985 587.968 160.952C591.54 163.967 594.567 167.567 596.918 171.598C602.636 180.912 616.677 179.878 616.677 179.878C616.677 179.878 630.329 175.612 631.109 172.274C631.109 172.274 631.499 190.523 640.082 186.113L628.793 199.055C628.081 199.872 627.209 200.536 626.229 201.005C625.25 201.475 624.184 201.74 623.098 201.784C618.856 201.952 611.487 202.005 605.265 200.803C595.902 198.994 589.145 194.599 584.207 198.477C584.207 198.477 577.71 218.649 582.128 225.896C586.546 233.142 594.358 245.293 590.712 248.403C587.066 251.512 582.648 251.246 575.371 243.749C568.094 236.252 567.307 223.576 567.307 223.576L569.126 190.987C569.126 190.987 562.109 166.412 555.367 161.5L558.952 150.345Z" fill="black"/>
<path opacity="0.1" d="M641.115 185.786L629.795 198.781C629.042 199.643 628.112 200.333 627.066 200.803C626.136 201.221 625.135 201.456 624.116 201.495C619.873 201.67 612.505 201.723 606.283 200.514C597.523 198.819 591.041 194.865 586.195 197.534C585.852 197.722 585.524 197.938 585.217 198.18C585.217 198.18 578.72 218.353 583.138 225.599C587.556 232.845 595.368 244.996 591.721 248.106C591.111 248.64 590.426 249.083 589.688 249.421C586.417 250.889 582.358 249.619 576.381 243.453C569.104 235.948 568.316 223.28 568.316 223.28L570.136 190.691C570.136 190.691 563.119 166.115 556.377 161.203L559.35 150.596C561.399 151.98 571.626 158.481 584.269 159.31C585.819 159.407 587.3 159.978 588.511 160.945C592.083 163.96 595.11 167.56 597.462 171.59C603.179 180.905 617.221 179.87 617.221 179.87C620.587 178.802 623.874 177.501 627.058 175.977C629.053 175.004 630.811 173.94 631.645 172.936C631.878 172.674 632.049 172.362 632.141 172.023C632.141 172.023 632.539 190.181 641.115 185.786Z" fill="black"/>
<path d="M640.595 186.044L629.282 199.054C628.66 199.768 627.915 200.366 627.081 200.818C626.013 201.395 624.825 201.721 623.611 201.769C619.369 201.944 612 201.997 605.778 200.788C597.332 199.153 590.995 195.412 586.218 197.549C585.672 197.785 585.158 198.089 584.689 198.454C584.689 198.454 578.192 218.626 582.61 225.872C587.028 233.119 594.84 245.27 591.194 248.379C590.722 248.783 590.21 249.137 589.665 249.436C586.302 251.284 582.144 250.197 575.838 243.726C568.561 236.221 567.773 223.553 567.773 223.553L569.593 190.964C569.593 190.964 562.576 166.389 555.834 161.477L558.953 150.353L559.327 150.611C561.376 151.995 571.603 158.496 584.246 159.325C585.795 159.422 587.277 159.993 588.488 160.96C592.06 163.975 595.087 167.575 597.439 171.605C603.156 180.919 617.198 179.885 617.198 179.885C620.564 178.817 623.851 177.516 627.035 175.992C629.397 174.791 631.323 173.475 631.621 172.274C631.621 172.274 631.621 172.51 631.621 172.928C631.851 176.068 632.997 189.93 640.595 186.044Z" fill="#CED2DF"/>
<path opacity="0.1" d="M556.064 137.807H536.955C537.375 140.829 537.496 143.885 537.314 146.931C540.231 148.973 543.652 150.186 547.21 150.441C550.768 150.695 554.328 149.981 557.509 148.376C555.675 145 554.559 141.167 556.064 137.807Z" fill="black"/>
<path d="M548.55 150.087C559.032 150.087 567.529 141.634 567.529 131.207C567.529 120.78 559.032 112.327 548.55 112.327C538.068 112.327 529.57 120.78 529.57 131.207C529.57 141.634 538.068 150.087 548.55 150.087Z" fill="#EC8C9C"/>
<path opacity="0.1" d="M544.605 127.846C546.722 127.595 548.84 126.85 550.927 127.268C552.822 127.648 554.435 128.948 556.331 129.344C559.984 130.104 563.378 127.427 566.138 124.933L572.1 119.535C573.422 118.341 574.783 117.086 575.463 115.444C576.143 113.802 575.906 111.642 574.454 110.608C572.275 109.087 568.522 110.608 566.948 108.449C566.237 107.475 566.344 106.168 565.977 105.004C565.213 102.677 562.583 101.408 560.122 101.377C557.661 101.347 555.306 102.244 552.952 102.898C547.993 104.329 542.807 104.822 537.665 104.35C536.277 104.098 534.85 104.147 533.484 104.495C532.642 104.852 531.897 105.401 531.307 106.097C530.718 106.793 530.301 107.616 530.09 108.502C528.913 112.638 530.923 119.307 532.941 123.01C534.959 126.713 540.577 128.34 544.605 127.846Z" fill="black"/>
<path d="M544.605 127.329C546.722 127.078 548.84 126.332 550.927 126.751C552.822 127.131 554.435 128.431 556.331 128.827C559.984 129.587 563.378 126.91 566.138 124.416L572.1 119.018C573.422 117.824 574.783 116.569 575.463 114.927C576.143 113.285 575.906 111.125 574.454 110.091C572.275 108.57 568.522 110.091 566.948 107.932C566.237 106.958 566.344 105.65 565.977 104.487C565.213 102.16 562.583 100.891 560.122 100.86C557.661 100.83 555.306 101.727 552.952 102.381C547.993 103.812 542.807 104.305 537.665 103.833C536.277 103.58 534.85 103.63 533.484 103.978C532.642 104.335 531.897 104.884 531.307 105.58C530.718 106.275 530.301 107.099 530.09 107.985C528.913 112.121 530.923 118.79 532.941 122.493C534.959 126.196 540.577 127.785 544.605 127.329Z" fill="#88455E"/>
<path opacity="0.1" d="M511.5 208.939C511.5 208.939 515.658 209.456 517.737 212.042C519.816 214.627 523.455 215.403 523.455 215.403" fill="black"/>
<path opacity="0.1" d="M474.054 174.791C474.054 174.791 477.448 182.326 475.354 183.087C473.259 183.847 474.054 189.291 474.054 189.291" fill="black"/>
<g opacity="0.1">
<path opacity="0.1" d="M475.223 172.206C475.223 172.206 497.321 167.811 498.086 167.811C501.648 167.811 507.38 162.853 510.66 159.72C511.657 158.77 512.884 158.092 514.222 157.751H513.939C512.859 157.717 511.783 157.898 510.774 158.282C509.765 158.665 508.843 159.245 508.061 159.987C504.782 163.119 499.041 168.077 495.487 168.077C494.868 168.077 480.727 170.867 474.986 172L475.223 172.206Z" fill="black"/>
<path opacity="0.1" d="M536.618 152.999V152.033C531.302 154.73 525.582 156.55 519.68 157.424C525.536 156.906 531.262 155.41 536.618 152.999Z" fill="black"/>
<path opacity="0.1" d="M509.292 252.904C509.292 252.904 506.173 242.814 508.527 237.643C510.881 232.473 513.725 208.673 513.725 208.673L508.023 191.086H497.069L496.404 191.344H505.386L511.08 208.939C511.08 208.939 508.221 232.739 505.882 237.91C503.544 243.08 506.647 253.17 506.647 253.17L527.185 252.41V252.25L509.292 252.904Z" fill="black"/>
</g>
<g opacity="0.1">
<path opacity="0.1" d="M591.454 244.243C590.982 244.647 590.47 245.001 589.925 245.3C586.562 247.148 582.403 246.06 576.097 239.59C570.319 233.636 568.637 224.382 568.186 220.877L568.033 223.553C568.033 223.553 568.798 236.229 576.097 243.726C582.403 250.22 586.562 251.284 589.925 249.436C590.47 249.138 590.982 248.783 591.454 248.38C592.547 247.444 592.608 245.688 592.034 243.498C591.892 243.782 591.695 244.035 591.454 244.243Z" fill="black"/>
<path opacity="0.1" d="M636.919 186.432L629.558 194.895C628.936 195.609 628.191 196.207 627.357 196.659C626.289 197.236 625.101 197.561 623.887 197.61C619.644 197.784 612.276 197.838 606.054 196.629C597.608 194.994 591.271 191.253 586.494 193.39C585.948 193.626 585.434 193.93 584.965 194.294C584.965 194.294 580.769 207.327 581.411 216.201C581.907 207.905 584.965 198.431 584.965 198.431C585.434 198.066 585.948 197.762 586.494 197.526C591.279 195.389 597.608 199.13 606.054 200.765C612.276 201.966 619.637 201.913 623.887 201.746C625.101 201.698 626.289 201.373 627.357 200.796C628.189 200.35 628.934 199.76 629.558 199.054L640.879 186.06C640.293 186.422 639.63 186.645 638.943 186.71C638.256 186.774 637.563 186.679 636.919 186.432Z" fill="black"/>
</g>
<path d="M304.502 279.57C304.593 279.656 304.71 279.712 304.835 279.728C304.96 279.744 305.088 279.72 305.198 279.66C304.963 279.664 304.728 279.634 304.502 279.57Z" fill="url(#paint2_linear)"/>
<path d="M382.398 153.615C381.022 153.219 379.058 152.573 376.696 151.752C379.151 148.611 380.947 145.012 381.978 141.168L381.779 141.244C381.848 141.008 381.917 140.78 381.978 140.536C377.445 142.369 372.431 139.267 369.236 135.282C366.041 131.298 363.885 126.356 360.384 122.691C358.926 121.233 357.357 119.888 355.691 118.668C354.659 117.908 353.551 117.049 352.29 117.011C350.249 116.95 348.651 118.942 346.687 119.527C345.394 119.817 344.048 119.767 342.781 119.383C337.713 118.227 332.844 116.091 327.669 115.528C324.901 115.188 322.091 115.503 319.468 116.448C316.869 117.429 315.684 119.383 313.582 120.949C311.289 122.63 306.81 122.592 304.142 122.888C300.905 123.256 297.645 123.391 294.389 123.291C292.517 123.13 290.633 123.199 288.778 123.497C284.903 124.341 281.792 127.405 278.887 130.34C278.094 131.004 277.524 131.892 277.251 132.887C277.214 133.167 277.214 133.451 277.251 133.731C277.222 134.498 277.355 135.262 277.641 135.974C278.535 138.614 279.799 141.114 281.394 143.403C282.579 145.091 283.963 146.68 284.635 148.68C284.954 149.663 285.122 150.689 285.132 151.721C285.099 152.818 284.984 153.911 284.788 154.991C284.275 157.977 283.432 160.896 282.273 163.697C281.554 165.135 281.059 166.674 280.806 168.26C280.784 168.584 280.784 168.909 280.806 169.233C280.615 174.251 285.705 177.863 286.691 182.851C286.772 183.265 286.821 183.684 286.837 184.106C286.73 187.216 284.949 190.257 282.319 191.466C282.548 191.557 282.785 191.633 283.022 191.709C282.796 191.851 282.561 191.978 282.319 192.09C282.801 192.272 283.29 192.432 283.787 192.561C280.798 195.15 278.287 198.238 276.365 201.685C267.521 218.064 207.625 250.144 207.625 250.144L208.511 250.646L207.793 251.109C202.611 254.539 190.449 264.538 201.441 277.183C201.441 277.183 210.025 263.709 216.041 257.968C216.308 257.709 216.576 257.474 216.805 257.253C216.937 257.456 217.026 257.683 217.065 257.921C217.105 258.16 217.094 258.403 217.034 258.637L256.415 236.624C256.415 236.624 270.41 226.876 274.316 224.679C277.065 222.975 280.057 221.693 283.191 220.877L282.732 221.067C284.204 220.664 285.722 220.45 287.249 220.429C294.22 220.535 301.772 225.614 304.257 245.726C307.589 272.658 306.045 277.517 304.975 278.179C304.843 278.169 304.713 278.146 304.585 278.11C304.618 278.139 304.654 278.164 304.692 278.186C304.547 278.176 304.404 278.151 304.264 278.11C304.341 278.181 304.435 278.23 304.537 278.254C304.639 278.278 304.745 278.276 304.845 278.247C304.918 278.269 304.994 278.275 305.069 278.266C305.144 278.257 305.216 278.232 305.281 278.194C305.457 278.204 305.633 278.204 305.808 278.194C305.808 278.442 305.79 278.696 305.755 278.954C305.701 278.954 305.441 279.099 305.755 279.114C305.671 280.635 305.678 282.285 305.755 284.011C302.292 284.201 298.83 284.406 295.818 284.589L296.086 283.167L296.208 282.528C298.868 282.315 301.39 281.539 301.688 279.395C302.338 274.681 295.833 272.164 290.299 271.852C284.765 271.541 251.576 273.738 251.576 273.738C251.576 273.738 246.6 280.148 262.384 282.102C262.853 282.345 263.34 282.599 263.844 282.863C270.028 286.368 278.413 292.823 282.434 296.002L282.992 296.443L281.188 297.903C290.949 300.1 300.389 337.206 305.594 354.17C310.8 371.134 322.189 370.518 331.629 368.001C340.473 365.644 341.566 340.096 341.711 336.887V336.56L357.442 355.888L358.634 357.356C359.093 357.594 359.546 357.817 359.995 358.025C371.904 363.659 385.058 352.855 381.321 340.537C377.537 328.12 371.667 309.757 367.753 301.993C364.474 295.492 360.239 284.695 357.671 277.935C358.004 277.802 358.329 277.647 358.642 277.472C358.642 277.472 358.581 277.167 358.481 276.612L358.642 276.529C358.642 276.529 354.82 256.972 354.652 243.072C354.652 242.829 354.652 242.576 354.652 242.312C354.652 242.16 354.652 242.008 354.652 241.863C357.495 241.217 359.299 240.966 359.299 240.966L359.353 240.358L359.024 240.426L360.606 222.413C360.606 222.413 366.415 210.118 361.967 205.001C360.614 203.504 359.711 201.66 359.36 199.678C358.596 194.971 359.36 187.117 369.717 180.593C385.662 170.533 391.884 162.344 391.884 162.344C391.884 162.344 392.159 156.474 382.398 153.615ZM350.73 166.115V157.789C353.689 157.645 356.708 157.987 359.681 157.789C361.141 157.688 362.587 157.446 364 157.067L364.718 157.561C360.368 160.89 355.68 163.757 350.73 166.115ZM305.518 296.625C306.687 297.431 307.864 298.268 309.019 299.112C309.737 303.218 310.372 306.115 310.417 306.32C309.098 302.941 307.458 299.694 305.518 296.625Z" fill="url(#paint3_linear)"/>
<path d="M330.788 289.782L330.1 293.5L329.572 296.344L328.609 301.545L319.269 308.046C319.269 308.046 318.428 307.331 317.037 306.198C313.215 303.065 305.166 296.709 299.257 293.272C297.739 292.307 296.096 291.553 294.373 291.029L330.788 289.782Z" fill="#FFBDC6"/>
<path opacity="0.1" d="M330.788 289.782L330.1 293.5C328.041 293.614 325.975 293.509 323.939 293.188L302.147 293.5C301.115 293.439 300.152 293.355 299.25 293.264C297.731 292.3 296.088 291.545 294.365 291.021L330.788 289.782Z" fill="black"/>
<path d="M323.939 292.58C323.939 292.58 334.839 294.435 335.458 289.789C336.077 285.144 329.855 282.695 324.573 282.345C319.291 281.996 287.516 284.216 287.516 284.216C287.516 284.216 281.914 291.645 302.147 292.884L323.939 292.58Z" fill="#7679B4"/>
<path opacity="0.1" d="M330.788 289.782L330.1 293.5L329.572 296.344L328.609 301.545L319.269 308.046C319.269 308.046 318.428 307.331 317.037 306.198C313.215 303.065 305.166 296.709 299.257 293.272C297.739 292.307 296.096 291.553 294.373 291.029L330.788 289.782Z" fill="black"/>
<path opacity="0.1" d="M330.788 289.782L330.1 293.5C328.041 293.614 325.975 293.509 323.939 293.188L302.147 293.5C301.115 293.439 300.152 293.355 299.25 293.264C297.731 292.3 296.088 291.545 294.365 291.021L330.788 289.782Z" fill="black"/>
<path opacity="0.1" d="M323.939 292.58C323.939 292.58 334.839 294.435 335.458 289.789C336.077 285.144 329.855 282.695 324.573 282.345C319.291 281.996 287.516 284.216 287.516 284.216C287.516 284.216 281.914 291.645 302.147 292.884L323.939 292.58Z" fill="black"/>
<path d="M347.75 139.89H290.781V207.092H347.75V139.89Z" fill="#A66477"/>
<path opacity="0.1" d="M347.75 139.89H290.781V207.092H347.75V139.89Z" fill="black"/>
<path d="M224.005 254.941C223.065 255.177 221.872 256.074 220.534 257.382C214.779 263.039 206.569 276.308 206.569 276.308C196.052 263.853 207.693 254.006 212.684 250.623C213.892 249.801 214.702 249.36 214.702 249.36L224.005 254.941Z" fill="#FFBDC6"/>
<path d="M330.169 161.104C330.169 161.104 332.974 180.616 342.621 185.261C352.267 189.907 330.169 198.576 330.169 198.576L299.969 187.428C299.969 187.428 317.091 181.855 313.666 165.439L330.169 161.104Z" fill="#FFBDC6"/>
<path d="M297.821 278.475L297.133 282.193L296.606 285.037L295.642 290.238L286.302 296.739C286.302 296.739 285.461 296.024 284.07 294.892C280.248 291.759 272.199 285.402 266.291 281.965C264.772 281.001 263.129 280.246 261.406 279.722L297.821 278.475Z" fill="#FFBDC6"/>
<path opacity="0.1" d="M297.821 278.475L297.133 282.193C295.074 282.307 293.009 282.203 290.972 281.882L269.18 282.193C268.148 282.133 267.185 282.049 266.283 281.958C264.764 280.993 263.121 280.239 261.398 279.714L297.821 278.475Z" fill="black"/>
<path d="M290.941 281.266C290.941 281.266 301.841 283.121 302.46 278.475C303.079 273.829 296.857 271.351 291.56 271.046C286.263 270.742 254.511 272.902 254.511 272.902C254.511 272.902 248.908 280.331 269.141 281.57L290.941 281.266Z" fill="#7679B4"/>
<path opacity="0.1" d="M296.575 285.045L295.612 290.246L286.271 296.747C286.271 296.747 285.43 296.032 284.039 294.899L296.391 284.824L296.575 285.045Z" fill="black"/>
<path d="M358.207 355.942C357.779 355.734 357.345 355.513 356.907 355.28L355.768 353.836L340.726 334.826V335.161C340.626 338.316 339.541 363.485 331.087 365.804C322.06 368.283 311.16 368.898 306.184 352.178C301.208 335.457 292.173 298.914 282.832 296.747L296.682 285.44C296.682 285.44 305.855 296.085 309.6 306.335C309.463 305.681 303.126 276.247 308.354 271.046H353.804C353.804 271.046 360.806 290.922 365.636 300.777C369.382 308.426 375 326.508 378.631 338.742C382.223 350.847 369.672 361.492 358.207 355.942Z" fill="#7679B4"/>
<path opacity="0.1" d="M356.938 276.612C349.928 280.741 319.109 279.061 309.065 278.391L306.336 278.194C306.038 278.194 306.382 278.026 306.382 278.026L306.665 275.213L314.133 256.325L354.14 233.271C353.33 235.697 353.055 239.415 353.124 243.68C353.322 257.352 356.938 276.612 356.938 276.612Z" fill="black"/>
<path d="M356.937 275.692C349.928 279.821 319.108 278.14 309.065 277.471L306.336 277.274H305.885L306.382 277.144L308.843 276.498L314.132 255.436L354.14 232.366C353.329 234.792 353.054 238.51 353.123 242.776C353.322 256.424 356.937 275.692 356.937 275.692Z" fill="#F2F1F2"/>
<path opacity="0.1" d="M353.123 242.745C344.99 244.608 327.089 250.09 320.209 263.275C315.623 272.08 311.801 275.859 309.073 277.441L306.344 277.243L306.39 277.076L308.851 276.43L314.14 255.367L354.148 232.298C353.322 234.792 353.055 238.48 353.123 242.745Z" fill="black"/>
<path opacity="0.1" d="M214.664 249.368L224.005 254.942C223.065 255.177 221.872 256.075 220.535 257.382C219.77 255.101 214.863 251.969 212.646 250.63C213.854 249.809 214.664 249.368 214.664 249.368Z" fill="black"/>
<path opacity="0.1" d="M304.701 277.63C304.597 277.687 304.477 277.71 304.358 277.695C304.24 277.68 304.129 277.628 304.043 277.547C304.257 277.607 304.479 277.635 304.701 277.63Z" fill="black"/>
<path d="M325.804 184.022C325.804 184.022 317.396 184.949 311.48 178.76C311.48 178.76 286.577 185.885 278.169 201.989C269.76 218.094 212.479 249.68 212.479 249.68C212.479 249.68 222.415 255.253 221.506 258.044L259.174 236.366C259.174 236.366 272.558 226.762 276.296 224.595C280.034 222.428 300.58 209.114 304.937 245.346C309.294 281.577 304.937 277.281 304.937 277.281C304.937 277.281 311.167 279.448 320.224 262.074C329.282 244.699 357.273 240.707 357.273 240.707L358.802 222.458C358.802 222.458 364.359 210.353 360.102 205.305C358.803 203.819 357.941 202.006 357.61 200.066C356.899 195.427 357.61 187.694 367.547 181.269C382.834 171.384 388.72 163.309 388.72 163.309C388.72 163.309 389.033 157.424 379.692 154.641C370.352 151.858 332.37 136.681 332.37 136.681L331.124 141.943L361.011 163.005C361.011 163.005 346.068 175.08 334.258 174.776C334.212 174.722 336.391 183.71 325.804 184.022Z" fill="#00953A"/>
<path opacity="0.1" d="M331.576 169.598C330.84 167.102 330.265 164.563 329.856 161.994L313.353 166.359C314.076 169.491 313.946 172.759 312.979 175.825C316.351 176.72 319.914 176.606 323.222 175.497C326.53 174.388 329.436 172.334 331.576 169.59V169.598Z" fill="black"/>
<path d="M317.87 175.506C327.672 175.506 335.618 167.601 335.618 157.85C335.618 148.099 327.672 140.194 317.87 140.194C308.067 140.194 300.121 148.099 300.121 157.85C300.121 167.601 308.067 175.506 317.87 175.506Z" fill="#FFBDC6"/>
<path opacity="0.1" d="M327.303 117.695C332.226 118.25 336.911 120.356 341.758 121.497C342.968 121.874 344.259 121.924 345.495 121.641C347.376 121.063 348.904 119.101 350.846 119.162C352.046 119.162 353.139 120.014 354.102 120.797C355.698 122.001 357.198 123.326 358.589 124.759C361.929 128.37 364.008 133.237 367.058 137.16C370.108 141.084 374.916 144.14 379.25 142.338C376.307 153.744 366.646 162.465 356.204 163.172C352.038 163.454 347.796 162.595 343.737 163.811C342.731 164.219 341.67 164.475 340.588 164.572C338.295 164.572 336.399 162.45 334.947 160.389C331.553 155.538 328.832 150.033 325.01 145.616C323.749 144.156 322.258 142.764 320.477 142.498C318.696 142.232 317.053 143.076 315.463 143.897C312.841 145.251 310.158 146.65 308.125 148.961C306.092 151.273 304.808 154.732 305.649 157.865C306.1 159.553 307.139 161.074 307.177 162.845C307.177 165.659 304.716 167.719 304.219 170.449C304.11 171.602 304.069 172.759 304.097 173.916C303.875 177.673 301.414 180.76 298.83 183.109C297.829 184.029 296.713 185.01 296.423 186.432C296.224 187.398 296.423 188.424 296.293 189.405C295.918 191.846 293.472 193.078 291.309 193.397C288.783 193.766 286.203 193.461 283.833 192.515C286.891 191.093 288.718 187.04 288.015 183.391C287.051 178.365 281.976 174.76 282.404 169.636C282.643 168.066 283.118 166.541 283.811 165.111C284.918 162.347 285.723 159.471 286.211 156.534C286.711 154.274 286.661 151.928 286.065 149.691C285.416 147.722 284.093 146.155 282.962 144.49C281.43 142.226 280.221 139.762 279.37 137.168C279.061 136.401 278.943 135.572 279.026 134.75C279.272 133.78 279.804 132.907 280.554 132.241C283.337 129.344 286.318 126.325 290.017 125.489C291.785 125.196 293.583 125.127 295.368 125.283C298.484 125.382 301.604 125.25 304.701 124.888C307.254 124.591 311.58 124.629 313.736 122.972C315.746 121.451 316.885 119.512 319.369 118.539C321.904 117.615 324.629 117.326 327.303 117.695Z" fill="black"/>
<path opacity="0.1" d="M337.17 300.001C337.17 300.001 347.443 320.128 344.332 326.325L337.17 300.001Z" fill="black"/>
<path opacity="0.1" d="M355.798 353.835L340.755 334.826V335.161C340.755 335.161 339.884 329.017 342.75 331.085C349.026 335.602 359.07 343.008 359.284 344.285C359.498 345.563 357.251 350.688 355.798 353.835Z" fill="black"/>
<g opacity="0.1">
<path opacity="0.1" d="M334.51 174.723C334.51 174.723 335.778 179.954 331.674 182.57C337.995 181.49 338.27 176.601 338.079 174.472C336.899 174.662 335.705 174.746 334.51 174.723Z" fill="black"/>
<path opacity="0.1" d="M216.223 248.44C216.223 248.44 273.505 216.855 281.913 200.75C287.944 189.192 302.475 182.265 310.195 179.27C304.561 181.148 285.605 188.348 278.481 201.989C270.073 218.094 212.791 249.68 212.791 249.68L216.223 248.44Z" fill="black"/>
<path opacity="0.1" d="M345.654 172.266C355.4 169.225 364.718 161.72 364.718 161.72L334.831 140.658L335.511 137.768L332.652 136.628L331.406 141.89L361.293 162.952C356.497 166.702 351.242 169.832 345.654 172.266Z" fill="black"/>
<path opacity="0.1" d="M345.846 243.635C349.665 242.338 353.584 241.354 357.564 240.692L357.617 240.091C353.607 240.968 349.671 242.152 345.846 243.635Z" fill="black"/>
<path opacity="0.1" d="M309.622 276.08H309.347C309.242 276.138 309.122 276.161 309.004 276.146C308.886 276.131 308.775 276.078 308.689 275.996C308.903 276.056 309.125 276.084 309.347 276.08C310.371 275.487 311.907 270.864 308.689 244.099C305.25 215.524 291.751 217.767 284.359 221.052C291.911 218.984 302.307 220.77 305.265 245.338C308.483 272.103 306.947 276.734 305.922 277.319C307.25 277.27 308.535 276.84 309.622 276.08Z" fill="black"/>
<path opacity="0.1" d="M305.922 277.326C305.7 277.33 305.478 277.302 305.264 277.243C305.35 277.324 305.46 277.376 305.579 277.391C305.697 277.406 305.818 277.383 305.922 277.326Z" fill="black"/>
</g>
<path d="M327.303 117.094C332.226 117.649 336.911 119.755 341.758 120.896C342.968 121.274 344.259 121.324 345.495 121.04C347.376 120.463 348.904 118.501 350.846 118.562C352.046 118.562 353.139 119.413 354.102 120.196C355.698 121.401 357.198 122.725 358.589 124.158C361.929 127.77 364.008 132.636 367.058 136.56C370.108 140.483 374.916 143.54 379.25 141.738C376.307 153.143 366.646 161.865 356.204 162.572C352.038 162.853 347.796 161.994 343.737 163.211C342.731 163.618 341.67 163.875 340.588 163.971C338.295 163.971 336.399 161.849 334.947 159.789C331.553 154.938 328.832 149.433 325.01 145.015C323.749 143.555 322.258 142.164 320.477 141.897C318.696 141.631 317.053 142.475 315.463 143.296C312.841 144.65 310.158 146.049 308.125 148.361C306.092 150.672 304.808 154.132 305.649 157.264C306.1 158.952 307.139 160.473 307.177 162.245C307.177 165.058 304.716 167.119 304.219 169.849C304.11 171.001 304.069 172.159 304.097 173.316C303.875 177.072 301.414 180.159 298.83 182.509C297.829 183.429 296.713 184.41 296.423 185.832C296.224 186.797 296.423 187.824 296.293 188.805C295.918 191.245 293.472 192.477 291.309 192.797C288.783 193.165 286.203 192.861 283.833 191.915C286.891 190.493 288.718 186.44 288.015 182.79C287.051 177.764 281.976 174.16 282.404 169.035C282.643 167.466 283.118 165.941 283.811 164.511C284.918 161.746 285.723 158.87 286.211 155.934C286.711 153.674 286.661 151.328 286.065 149.091C285.416 147.121 284.093 145.555 282.962 143.89C281.43 141.626 280.221 139.161 279.37 136.567C279.061 135.8 278.943 134.971 279.026 134.149C279.272 133.18 279.804 132.306 280.554 131.64C283.337 128.743 286.318 125.724 290.017 124.888C291.785 124.595 293.583 124.526 295.368 124.683C298.484 124.781 301.604 124.649 304.701 124.287C307.254 123.991 311.58 124.029 313.736 122.371C315.746 120.85 316.885 118.911 319.369 117.938C321.904 117.015 324.629 116.725 327.303 117.094Z" fill="#A66477"/>
<path d="M834.104 77.4639C834.104 77.3651 834.104 77.2738 834.104 77.1826C834.104 77.0914 834.104 76.9849 834.058 76.8937H833.936C833.936 76.6884 833.936 76.4831 833.936 76.2625C833.63 69.2139 823.831 54.2118 819.902 58.5916C816.463 62.439 821.653 72.1718 824.297 76.5515L824.534 76.9469L824.404 76.8632C824.404 76.8632 813.466 109.316 812.174 110.578C810.883 111.84 801.878 137.358 790.008 140.232C787.661 140.788 785.712 141.289 784.076 141.753L784.206 141.32C784.97 138.833 785.911 136.484 786.293 133.716C786.675 130.948 786.293 127.595 784.886 126.249C784.198 125.58 783.358 125.489 782.792 124.424C782.425 123.491 782.228 122.499 782.211 121.497L781.202 109.194L781.905 108.981C786.155 107.628 790.275 104.419 790.757 100.1C790.609 100.156 790.458 100.204 790.306 100.245C790.362 99.9935 790.405 99.7397 790.436 99.4843C786.866 100.883 783.556 97.2031 780.117 95.5531C774.453 92.793 767.979 95.3935 762.131 96.0246C755.504 96.7469 749.213 94.0096 742.441 94.5038C738.757 94.7852 734.66 97.2716 734.858 100.883C734.973 102.868 736.387 104.548 736.968 106.449C738.436 111.049 735.172 115.665 732.313 119.588C730.433 122.166 728.629 125.306 728.308 128.333C721.726 121.489 714.61 113.582 713.785 110.608L694.744 78.1559C694.744 78.1559 694.293 78.6349 693.567 79.342C693.452 78.9923 693.315 78.5817 693.162 78.1711C690.731 71.3962 683.852 54.9798 675.13 57.9909C666.409 61.0019 678.746 77.8289 684.112 84.5354L684.876 85.463C684.426 85.573 683.954 85.5519 683.516 85.4022L704.75 121.634C704.75 121.634 708.61 128.568 712.149 130.454C712.149 130.454 738.527 163.538 738.848 170.153C739.169 176.768 750.711 194.416 750.711 194.416C750.711 194.416 754.571 223.09 747.814 228.131H747.898H747.952H748.036H748.112H748.265H748.365H748.464H748.594H748.701H748.854H748.93C748.609 228.443 748.281 228.785 747.944 229.158C742.938 234.678 736.54 246.509 745.284 266.629C758.149 296.283 760.083 307.902 760.083 307.902C760.083 307.902 735.623 309.164 730.807 310.107C726.542 310.943 709.963 311.529 706.171 311.628C704.819 310.061 700.821 306.594 695.424 311.628C688.667 317.931 683.844 339.001 683.844 339.001C683.844 339.001 681.268 356.018 689.959 351.6C689.959 351.6 700.255 337.419 703.145 336.788C704.582 336.476 706.103 334.37 707.265 332.34L707.326 332.378C707.394 332.378 707.677 332.226 708.136 332.043C710.276 331.199 716.169 329.169 720.817 330.181C723.362 330.736 734.277 330.865 745.72 330.834C743.136 336.993 738.504 352.885 738.504 352.885C738.504 352.885 736.571 367.705 742.991 367.096C747.577 366.648 754.61 354.991 758.279 348.338C760.939 346.399 768.559 339.449 774.193 339.974L812.151 325.481C812.151 325.481 821.156 320.44 816.333 303.742C812.511 290.466 801.634 263.291 797.338 252.699L797.208 252.425C796.169 249.863 795.542 248.342 795.542 248.342C793.777 243.506 792.619 238.473 792.094 233.355C792.056 232.952 792.026 232.541 791.995 232.138C792.527 231.916 793.028 231.628 793.486 231.279C793.486 231.279 789.947 195.679 793.486 191.892L793.547 191.824V191.778L793.608 191.702L793.745 191.527L793.914 191.314C794.105 191.063 794.334 190.751 794.594 190.371C796.619 187.421 800.395 180.684 799.31 172.731C799.264 172.386 799.208 172.039 799.142 171.689C798.726 169.532 797.984 167.45 796.94 165.515C796.788 164.709 796.693 163.893 796.658 163.074C796.658 162.61 796.658 162.101 796.658 161.553V161.462C796.658 161.315 796.658 161.168 796.658 161.021V160.915C796.658 160.557 796.719 160.154 796.772 159.82V159.683C796.772 159.546 796.795 159.406 796.841 159.265V159.09C796.841 158.953 796.902 158.816 796.933 158.679V158.535C796.979 158.352 797.025 158.17 797.086 157.987V157.896C797.132 157.744 797.183 157.594 797.239 157.447L797.307 157.272L797.46 156.907L797.537 156.725C797.598 156.588 797.667 156.451 797.735 156.314L797.789 156.2C797.881 156.033 797.977 155.868 798.079 155.706L798.164 155.577L798.416 155.219L798.538 155.06L798.806 154.74L798.928 154.603C799.065 154.459 799.203 154.315 799.356 154.178C803.537 150.376 822.195 122.356 822.195 122.356C822.195 122.356 826.697 116.053 826.697 111.962C826.95 111.871 834.907 85.4858 834.104 77.4639ZM784.015 312.989C783.556 308.67 783.098 303.317 782.677 297.781L789.954 309.065C789.954 309.065 789.266 312.502 784.015 312.989Z" fill="url(#paint4_linear)"/>
<path d="M708.142 310.601C708.142 310.601 703.785 303.757 697.242 309.985C690.699 316.212 686.037 336.925 686.037 336.925C686.037 336.925 683.545 353.653 691.953 349.311C691.953 349.311 701.89 335.373 704.718 334.758C707.546 334.142 710.634 326.394 710.634 326.394L708.142 310.601Z" fill="#493545"/>
<path d="M754.839 327.322C754.839 327.322 748.923 324.531 747.058 326.706C745.193 328.88 738.963 350.551 738.963 350.551C738.963 350.551 737.098 364.8 743.32 364.177C749.542 363.553 760.442 341.244 760.442 341.244L754.839 327.322Z" fill="#493545"/>
<path opacity="0.05" d="M754.839 327.322C754.839 327.322 748.923 324.531 747.058 326.706C745.193 328.88 738.963 350.551 738.963 350.551C738.963 350.551 737.098 364.8 743.32 364.177C749.542 363.553 760.442 341.244 760.442 341.244L754.839 327.322Z" fill="black"/>
<path d="M775.384 285.205L788.768 305.955C788.768 305.955 787.836 310.601 779.741 309.673L752.032 327.017C752.032 327.017 749.625 348.133 757.322 346.217C758.568 345.905 767.259 336.925 773.511 337.549L810.255 323.299C810.255 323.299 818.969 318.342 814.298 301.933C809.628 285.524 794.188 247.475 794.188 247.475L769.781 261.055L775.384 285.205Z" fill="#3E3D77"/>
<path opacity="0.05" d="M775.384 285.205L788.768 305.955C788.768 305.955 787.836 310.601 779.741 309.673L752.032 327.017C752.032 327.017 749.625 348.133 757.322 346.217C758.568 345.905 767.259 336.925 773.511 337.549L810.255 323.299C810.255 323.299 818.969 318.342 814.298 301.933C809.628 285.524 794.188 247.475 794.188 247.475L769.781 261.055L775.384 285.205Z" fill="black"/>
<path d="M783.793 315.863C785.658 327.633 775.079 328.561 775.079 328.561C775.079 328.561 727.443 329.488 721.84 328.249C716.237 327.01 708.762 330.416 708.762 330.416C699.108 324.531 706.897 309.977 706.897 309.977C706.897 309.977 726.824 309.361 731.494 308.457C736.164 307.552 759.822 306.267 759.822 306.267C759.822 306.267 757.957 294.808 745.497 265.701C737.036 245.931 743.204 234.298 748.073 228.876C749.316 227.438 750.754 226.179 752.346 225.135L790.641 226.991C790.6 228.912 790.672 230.834 790.855 232.747C791.51 239.314 793.226 245.733 795.938 251.756C793.76 251.756 779.749 264.766 779.749 264.766C779.749 264.766 781.92 304.1 783.793 315.863Z" fill="#3E3D77"/>
<path opacity="0.1" d="M709.695 311.217C709.695 311.217 729.622 310.601 734.292 309.696C738.963 308.791 762.62 307.529 762.62 307.529C762.62 307.529 760.755 296.07 748.296 266.963C739.834 247.194 746.002 235.56 750.871 230.139C752.114 228.7 753.552 227.441 755.144 226.398L790.626 228.116C790.626 227.751 790.626 227.356 790.626 227.014L752.331 225.158C750.739 226.201 749.301 227.461 748.059 228.899C743.212 234.328 737.021 245.954 745.483 265.724C757.972 294.808 759.822 306.267 759.822 306.267C759.822 306.267 736.127 307.506 731.495 308.434C726.863 309.362 706.897 309.955 706.897 309.955C706.897 309.955 699.116 324.516 708.762 330.424C708.762 330.424 709.053 330.287 709.527 330.089C703.114 323.527 709.695 311.217 709.695 311.217Z" fill="black"/>
<path d="M766.664 111.467H747.363V160.085H766.664V111.467Z" fill="#493545"/>
<path opacity="0.1" d="M766.664 111.467H747.363V160.085H766.664V111.467Z" fill="black"/>
<path d="M777.7 104.335C778.365 104.518 779.114 104.541 779.565 105.453C779.845 106.182 779.998 106.954 780.016 107.734L781.232 122.759C781.249 123.743 781.44 124.716 781.797 125.633C782.309 126.652 783.158 126.774 783.823 127.428C785.161 128.751 785.55 132.066 785.183 134.765C784.817 137.465 783.892 139.776 783.166 142.217C782.126 145.715 781.438 149.646 779.978 152.596C778.518 155.546 775.866 157.158 774.154 154.679C772.441 152.201 772.671 147.197 772.35 143.099C771.815 136.256 769.132 130.355 768.948 123.466C768.795 117.893 770.301 112.692 771.241 107.407C771.914 103.78 771.952 99.3777 772.931 96.1157C773.749 99.9936 775.308 103.681 777.7 104.335Z" fill="#493545"/>
<path opacity="0.1" d="M777.7 104.335C778.365 104.518 779.114 104.541 779.565 105.453C779.845 106.182 779.998 106.954 780.016 107.734L781.232 122.759C781.249 123.743 781.44 124.716 781.797 125.633C782.309 126.652 783.158 126.774 783.823 127.428C785.161 128.751 785.55 132.066 785.183 134.765C784.817 137.465 783.892 139.776 783.166 142.217C782.126 145.715 781.438 149.646 779.978 152.596C778.518 155.546 775.866 157.158 774.154 154.679C772.441 152.201 772.671 147.197 772.35 143.099C771.815 136.256 769.132 130.355 768.948 123.466C768.795 117.893 770.301 112.692 771.241 107.407C771.914 103.78 771.952 99.3777 772.931 96.1157C773.749 99.9936 775.308 103.681 777.7 104.335Z" fill="black"/>
<path d="M695.998 82.9766L688.53 89.1736C688.53 89.1736 687.643 88.1395 686.321 86.4667C681.131 79.8743 669.199 63.3363 677.63 60.3784C686.061 57.4206 692.726 73.548 695.081 80.2089C695.677 81.8969 695.998 82.9766 695.998 82.9766Z" fill="#C77485"/>
<path d="M830.801 80.8095C827.69 85.4553 823.333 80.8095 823.333 80.8095C823.333 80.8095 822.775 79.9807 821.988 78.6424C819.427 74.3311 814.405 64.7733 817.73 60.9866C821.552 56.6601 831.023 71.4265 831.313 78.3535C831.403 79.2052 831.224 80.0636 830.801 80.8095Z" fill="#C77485"/>
<path d="M754.211 130.978C754.211 130.978 760.441 150.801 758.568 156.679C756.695 162.557 771.96 169.4 771.96 169.4H789.395C789.395 169.4 795.625 156.702 794.065 152.984C792.506 149.265 779.122 146.482 779.122 146.482C779.122 146.482 771.341 146.482 771.654 125.732L754.211 130.978Z" fill="#C77485"/>
<path opacity="0.1" d="M695.997 82.9762L688.529 89.1733C688.529 89.1733 687.643 88.1391 686.32 86.4663C689.034 85.9873 693.246 82.0486 695.088 80.2085C695.676 81.8965 695.997 82.9762 695.997 82.9762Z" fill="black"/>
<path opacity="0.1" d="M830.802 80.8094C827.691 85.4553 823.334 80.8094 823.334 80.8094C823.334 80.8094 822.776 79.9806 821.988 78.6423L822.088 78.3306C824.106 79.7677 830.381 78.5435 831.314 78.3306C831.409 79.1898 831.229 80.057 830.802 80.8094Z" fill="black"/>
<path opacity="0.1" d="M790.84 232.739C781.209 237.111 749.916 229.325 748.035 228.861C749.278 227.423 750.716 226.163 752.308 225.12L790.603 226.975C790.569 228.9 790.648 230.824 790.84 232.739Z" fill="black"/>
<path d="M758.262 148.011C758.262 148.011 750.794 150.49 740.207 140.886C740.207 140.886 716.512 117.657 714.983 112.084L696.638 80.148C696.638 80.148 688.857 88.5121 685.738 87.2727L706.285 122.888C706.285 122.888 710.022 129.732 713.447 131.557C713.447 131.557 738.977 164.078 739.282 170.579C739.588 177.08 750.786 194.492 750.786 194.492C750.786 194.492 754.524 222.672 747.981 227.629C747.981 227.629 784.403 236.921 792.185 230.724C792.185 230.724 788.76 195.747 792.185 192.014C792.185 192.014 802.771 179.627 795.609 166.001C795.609 166.001 794.08 158.573 798.101 154.854C802.121 151.136 820.206 123.573 820.206 123.573C820.206 123.573 824.563 117.376 824.563 113.353C824.563 113.353 832.658 86.1017 831.443 78.9771C831.443 78.9771 824.281 80.4978 822.102 78.9771C822.102 78.9771 811.516 110.913 810.27 112.114C809.024 113.315 800.333 138.438 788.791 141.229C777.249 144.019 775.407 145.251 775.407 145.251C775.407 145.251 797.818 159.188 786.926 165.378C776.033 171.567 758.262 148.011 758.262 148.011Z" fill="#F19B0A"/>
<path opacity="0.1" d="M772.412 135.746C772.042 132.829 771.891 129.888 771.961 126.949L754.525 132.21C754.984 133.366 755.35 134.556 755.618 135.769C757.613 136.643 760.304 138.712 762.62 138.712C766.124 138.826 769.566 137.783 772.412 135.746Z" fill="black"/>
<path d="M762.306 137.791C771.248 137.791 778.496 130.581 778.496 121.687C778.496 112.792 771.248 105.582 762.306 105.582C753.365 105.582 746.117 112.792 746.117 121.687C746.117 130.581 753.365 137.791 762.306 137.791Z" fill="#C77485"/>
<path opacity="0.1" d="M743.045 96.8759C739.483 97.1496 735.508 99.598 735.707 103.149C735.814 105.103 737.159 106.753 737.748 108.624C739.162 113.148 736.012 117.687 733.245 121.55C730.478 125.413 727.895 130.53 730.264 134.621C730.94 135.606 731.67 136.552 732.45 137.457C735.378 141.388 735.34 146.695 736.639 151.417C738.299 157.458 742.221 162.637 747.601 165.89C752.981 169.143 759.408 170.222 765.563 168.906C763.246 165.964 762.091 162.28 762.314 158.55C762.49 155.843 763.369 153.014 762.314 150.512C760.954 147.296 756.964 146.026 754.908 143.213C752.852 140.399 752.989 136.499 753.983 133.146C754.977 129.792 756.696 126.682 757.522 123.261C757.726 122.262 757.981 121.275 758.286 120.303C759.723 116.243 764.019 113.885 768.223 112.874C772.427 111.863 776.845 111.802 780.95 110.471C785.055 109.141 789.045 106.023 789.518 101.742C786.064 103.119 782.861 99.5296 779.528 97.8796C774.04 95.1727 767.78 97.7199 762.123 98.3434C755.68 99.0582 749.565 96.4045 743.045 96.8759Z" fill="black"/>
<path d="M742.73 96.2602C739.168 96.5339 735.193 98.9823 735.392 102.533C735.499 104.487 736.844 106.137 737.433 108.008C738.847 112.532 735.698 117.072 732.931 120.934C730.164 124.797 727.58 129.914 729.95 134.005C730.625 134.99 731.355 135.937 732.136 136.841C735.064 140.772 735.025 146.08 736.325 150.802C737.984 156.842 741.907 162.021 747.286 165.274C752.666 168.527 759.094 169.606 765.249 168.29C762.932 165.348 761.776 161.665 762 157.934C762.176 155.227 763.055 152.398 762 149.897C760.639 146.68 756.649 145.41 754.593 142.597C752.537 139.784 752.675 135.883 753.668 132.53C754.662 129.177 756.382 126.067 757.207 122.645C757.411 121.647 757.666 120.659 757.972 119.687C759.409 115.627 763.705 113.27 767.909 112.258C772.113 111.247 776.531 111.186 780.635 109.856C784.74 108.525 788.73 105.407 789.204 101.127C785.749 102.503 782.546 98.9139 779.214 97.2639C773.725 94.5569 767.465 97.1042 761.809 97.7277C755.381 98.4348 749.288 95.7507 742.73 96.2602Z" fill="#493545"/>
<path opacity="0.1" d="M778.342 157.462C778.342 157.462 784.824 163.218 786.1 165.758L778.342 157.462Z" fill="black"/>
<path opacity="0.1" d="M792.369 191.838C792.369 191.838 784.274 191.838 780.537 192.766C776.799 193.694 767.771 192.766 767.771 192.766" fill="black"/>
<g opacity="0.1">
<path opacity="0.1" d="M786.904 165.355C786.206 165.752 785.45 166.04 784.664 166.207C786.694 166.654 788.819 166.352 790.642 165.355C801.542 159.158 779.123 145.228 779.123 145.228H775.385C775.385 145.228 797.804 159.166 786.904 165.355Z" fill="black"/>
<path opacity="0.1" d="M831.499 79.5168C831.499 79.3191 831.453 79.129 831.422 78.9541C830.142 79.218 828.848 79.4135 827.547 79.5396C828.861 79.6833 830.187 79.6757 831.499 79.5168Z" fill="black"/>
<path opacity="0.1" d="M751.728 227.607C758.264 222.649 754.533 194.47 754.533 194.47C754.533 194.47 743.328 177.126 743.014 170.624C742.701 164.123 717.179 131.602 717.179 131.602C713.754 129.747 710.017 122.934 710.017 122.934C710.017 122.934 688.843 88.5578 685.732 87.3184L706.279 122.934C706.279 122.934 710.016 129.777 713.441 131.602C713.441 131.602 738.971 164.123 739.277 170.624C739.582 177.126 750.788 194.492 750.788 194.492C750.788 194.492 754.526 222.672 747.983 227.629C747.983 227.629 770.371 233.34 783.794 232.823C770.341 232.351 751.728 227.607 751.728 227.607Z" fill="black"/>
<path opacity="0.1" d="M758.446 148.253L758.263 148.019C758.05 148.081 757.833 148.129 757.613 148.162C757.904 148.2 758.179 148.231 758.446 148.253Z" fill="black"/>
</g>
<g opacity="0.1">
<path opacity="0.1" d="M831.42 78.916L831.228 78.954C830.9 88.4663 824.265 110.814 824.265 110.814C824.265 114.836 819.908 121.033 819.908 121.033C819.908 121.033 801.854 148.596 797.802 152.315C793.751 156.033 795.311 163.462 795.311 163.462L795.349 163.538C795.227 161.036 795.532 157.158 798.108 154.786C802.152 151.068 820.214 123.504 820.214 123.504C820.214 123.504 824.571 117.307 824.571 113.285C824.571 113.33 832.665 86.0787 831.42 78.916Z" fill="black"/>
<path opacity="0.1" d="M791.887 189.512C792.353 192.142 792.04 189.36 792.2 191.99C792.2 191.99 799.844 183.071 797.757 172.046C798.384 181.9 791.887 189.512 791.887 189.512Z" fill="black"/>
</g>
<path d="M429.376 440.092C429.376 440.092 418.246 402.492 431.462 374.822C437.083 363.25 438.778 350.176 436.293 337.564C435.066 331.585 433.29 325.731 430.989 320.075" stroke="#535461" stroke-width="2" stroke-miterlimit="10"/>
<path d="M439.23 302.601C439.23 307.209 430.822 320.569 430.822 320.569C430.822 320.569 422.414 307.209 422.414 302.601C422.328 301.454 422.482 300.302 422.864 299.216C423.247 298.131 423.851 297.135 424.638 296.292C425.425 295.449 426.378 294.777 427.438 294.317C428.498 293.857 429.642 293.62 430.799 293.62C431.955 293.62 433.099 293.857 434.159 294.317C435.219 294.777 436.173 295.449 436.96 296.292C437.747 297.135 438.35 298.131 438.733 299.216C439.116 300.302 439.269 301.454 439.184 302.601H439.23Z" fill="#009688"/>
<path d="M453.071 328.12C450.556 331.99 436.217 338.666 436.217 338.666C436.217 338.666 436.477 322.919 438.991 319.049C439.549 318.044 440.309 317.164 441.223 316.464C442.138 315.764 443.187 315.259 444.306 314.979C445.425 314.7 446.59 314.653 447.729 314.841C448.867 315.029 449.954 315.448 450.922 316.072C451.891 316.696 452.72 317.511 453.358 318.468C453.996 319.424 454.429 320.501 454.631 321.631C454.832 322.761 454.798 323.92 454.529 325.037C454.261 326.153 453.765 327.203 453.071 328.12Z" fill="#009688"/>
<path d="M452.467 371.742C448.332 373.818 432.594 372.381 432.594 372.381C432.594 372.381 440.811 358.915 444.946 356.839C445.937 356.247 447.041 355.864 448.187 355.716C449.334 355.567 450.499 355.655 451.61 355.975C452.72 356.294 453.753 356.838 454.643 357.573C455.533 358.307 456.261 359.216 456.781 360.243C457.302 361.27 457.604 362.393 457.669 363.541C457.734 364.69 457.56 365.839 457.158 366.918C456.756 367.996 456.134 368.98 455.333 369.809C454.531 370.638 453.566 371.293 452.498 371.734L452.467 371.742Z" fill="#009688"/>
<path d="M444.542 404.636C440.819 407.373 425.027 408.612 425.027 408.612C425.027 408.612 430.837 393.96 434.567 391.215C436.362 390.13 438.5 389.753 440.561 390.157C442.622 390.562 444.455 391.719 445.702 393.401C446.948 395.083 447.516 397.168 447.294 399.246C447.072 401.324 446.077 403.244 444.503 404.628L444.542 404.636Z" fill="#009688"/>
<path d="M418.591 339.563C421.916 342.772 437.394 346.102 437.394 346.102C437.394 346.102 433.573 330.811 430.278 327.595C429.509 326.738 428.571 326.047 427.523 325.567C426.474 325.086 425.337 324.825 424.182 324.801C423.028 324.776 421.881 324.989 420.812 325.425C419.744 325.861 418.777 326.511 417.973 327.335C417.168 328.159 416.543 329.139 416.136 330.214C415.729 331.289 415.548 332.436 415.606 333.583C415.664 334.73 415.959 335.853 416.473 336.882C416.986 337.911 417.707 338.824 418.591 339.563Z" fill="#009688"/>
<path d="M409.824 378.16C413.959 380.236 429.698 378.798 429.698 378.798C429.698 378.798 421.511 365.332 417.376 363.295C415.415 362.485 413.219 362.443 411.229 363.177C409.238 363.911 407.601 365.367 406.645 367.253C405.689 369.138 405.485 371.314 406.075 373.343C406.665 375.371 408.004 377.103 409.824 378.19V378.16Z" fill="#009688"/>
<path d="M406.461 416.832C410.183 419.569 425.975 420.809 425.975 420.809C425.975 420.809 420.166 406.156 416.436 403.412C415.561 402.642 414.536 402.062 413.424 401.709C412.312 401.356 411.138 401.237 409.978 401.359C408.817 401.482 407.695 401.843 406.682 402.421C405.67 402.999 404.789 403.78 404.097 404.714C403.404 405.649 402.915 406.717 402.66 407.85C402.405 408.983 402.39 410.157 402.616 411.296C402.842 412.435 403.304 413.515 403.973 414.467C404.641 415.419 405.501 416.221 406.499 416.824L406.461 416.832Z" fill="#009688"/>
<path opacity="0.1" d="M439.23 302.601C439.23 307.209 430.822 320.569 430.822 320.569C430.822 320.569 422.414 307.209 422.414 302.601C422.328 301.454 422.482 300.302 422.864 299.216C423.247 298.131 423.851 297.135 424.638 296.292C425.425 295.449 426.378 294.777 427.438 294.317C428.498 293.857 429.642 293.62 430.799 293.62C431.955 293.62 433.099 293.857 434.159 294.317C435.219 294.777 436.173 295.449 436.96 296.292C437.747 297.135 438.35 298.131 438.733 299.216C439.116 300.302 439.269 301.454 439.184 302.601H439.23Z" fill="#009688"/>
<path opacity="0.1" d="M453.071 328.12C450.556 331.99 436.217 338.666 436.217 338.666C436.217 338.666 436.477 322.919 438.991 319.049C439.549 318.044 440.309 317.164 441.223 316.464C442.138 315.764 443.187 315.259 444.306 314.979C445.425 314.7 446.59 314.653 447.729 314.841C448.867 315.029 449.954 315.448 450.922 316.072C451.891 316.696 452.72 317.511 453.358 318.468C453.996 319.424 454.429 320.501 454.631 321.631C454.832 322.761 454.798 323.92 454.529 325.037C454.261 326.153 453.765 327.203 453.071 328.12Z" fill="#009688"/>
<path opacity="0.1" d="M452.467 371.742C448.332 373.818 432.594 372.381 432.594 372.381C432.594 372.381 440.811 358.915 444.946 356.839C445.937 356.247 447.041 355.864 448.187 355.716C449.334 355.567 450.499 355.655 451.61 355.975C452.72 356.294 453.753 356.838 454.643 357.573C455.533 358.307 456.261 359.216 456.781 360.243C457.302 361.27 457.604 362.393 457.669 363.541C457.734 364.69 457.56 365.839 457.158 366.918C456.756 367.996 456.134 368.98 455.333 369.809C454.531 370.638 453.566 371.293 452.498 371.734L452.467 371.742Z" fill="#009688"/>
<path opacity="0.1" d="M444.542 404.636C440.819 407.373 425.027 408.612 425.027 408.612C425.027 408.612 430.837 393.96 434.567 391.215C436.362 390.13 438.5 389.753 440.561 390.157C442.622 390.562 444.455 391.719 445.702 393.401C446.948 395.083 447.516 397.168 447.294 399.246C447.072 401.324 446.077 403.244 444.503 404.628L444.542 404.636Z" fill="#009688"/>
<path opacity="0.1" d="M418.591 339.563C421.916 342.772 437.394 346.102 437.394 346.102C437.394 346.102 433.573 330.811 430.278 327.595C429.509 326.738 428.571 326.047 427.523 325.567C426.474 325.086 425.337 324.825 424.182 324.801C423.028 324.776 421.881 324.989 420.812 325.425C419.744 325.861 418.777 326.511 417.973 327.335C417.168 328.159 416.543 329.139 416.136 330.214C415.729 331.289 415.548 332.436 415.606 333.583C415.664 334.73 415.959 335.853 416.473 336.882C416.986 337.911 417.707 338.824 418.591 339.563Z" fill="#009688"/>
<path opacity="0.1" d="M409.824 378.16C413.959 380.236 429.698 378.798 429.698 378.798C429.698 378.798 421.511 365.332 417.376 363.295C415.415 362.485 413.219 362.443 411.229 363.177C409.238 363.911 407.601 365.367 406.645 367.253C405.689 369.138 405.485 371.314 406.075 373.343C406.665 375.371 408.004 377.103 409.824 378.19V378.16Z" fill="#009688"/>
<path opacity="0.1" d="M406.461 416.832C410.183 419.569 425.975 420.809 425.975 420.809C425.975 420.809 420.166 406.156 416.436 403.412C415.561 402.642 414.536 402.062 413.424 401.709C412.312 401.356 411.138 401.237 409.978 401.359C408.817 401.482 407.695 401.843 406.682 402.421C405.67 402.999 404.789 403.78 404.097 404.714C403.404 405.649 402.915 406.717 402.66 407.85C402.405 408.983 402.39 410.157 402.616 411.296C402.842 412.435 403.304 413.515 403.973 414.467C404.641 415.419 405.501 416.221 406.499 416.824L406.461 416.832Z" fill="#009688"/>
<path d="M654.591 440.632C654.591 440.632 643.461 403.031 656.677 375.361C662.298 363.789 663.993 350.715 661.508 338.103C660.281 332.125 658.505 326.271 656.203 320.615" stroke="#535461" stroke-width="2" stroke-miterlimit="10"/>
<path d="M664.428 303.134C664.428 307.742 656.019 321.102 656.019 321.102C656.019 321.102 647.611 307.742 647.611 303.134C647.768 301.028 648.719 299.059 650.275 297.623C651.83 296.186 653.874 295.387 655.997 295.387C658.119 295.387 660.163 296.186 661.718 297.623C663.274 299.059 664.225 301.028 664.382 303.134H664.428Z" fill="#009688"/>
<path d="M678.294 328.652C675.779 332.522 661.439 339.198 661.439 339.198C661.439 339.198 661.699 323.451 664.214 319.581C664.772 318.576 665.532 317.696 666.446 316.996C667.36 316.296 668.41 315.791 669.529 315.512C670.648 315.232 671.813 315.185 672.951 315.373C674.09 315.561 675.177 315.98 676.145 316.604C677.114 317.228 677.943 318.044 678.58 319C679.218 319.956 679.652 321.033 679.853 322.163C680.055 323.293 680.02 324.453 679.752 325.569C679.484 326.685 678.987 327.735 678.294 328.652Z" fill="#009688"/>
<path d="M677.713 372.274C673.578 374.35 657.84 372.913 657.84 372.913C657.84 372.913 666.057 359.447 670.192 357.371C671.184 356.774 672.291 356.387 673.441 356.235C674.591 356.083 675.76 356.17 676.874 356.49C677.989 356.809 679.025 357.355 679.918 358.092C680.81 358.83 681.54 359.743 682.06 360.774C682.581 361.805 682.881 362.933 682.942 364.085C683.003 365.237 682.824 366.39 682.416 367.47C682.008 368.55 681.379 369.535 680.57 370.362C679.761 371.188 678.788 371.84 677.713 372.274Z" fill="#009688"/>
<path d="M669.757 405.168C666.034 407.905 650.242 409.145 650.242 409.145C650.242 409.145 656.051 394.492 659.782 391.747C661.577 390.662 663.715 390.285 665.776 390.69C667.836 391.094 669.67 392.251 670.916 393.933C672.163 395.615 672.731 397.7 672.509 399.778C672.287 401.856 671.292 403.776 669.718 405.16L669.757 405.168Z" fill="#009688"/>
<path d="M643.821 340.095C647.146 343.304 662.625 346.635 662.625 346.635C662.625 346.635 658.803 331.344 655.509 328.127C654.74 327.27 653.802 326.58 652.753 326.099C651.704 325.618 650.567 325.357 649.413 325.333C648.258 325.309 647.111 325.521 646.043 325.957C644.974 326.393 644.008 327.043 643.203 327.867C642.399 328.691 641.773 329.671 641.366 330.746C640.959 331.821 640.779 332.968 640.837 334.115C640.895 335.262 641.19 336.385 641.703 337.414C642.217 338.443 642.938 339.356 643.821 340.095Z" fill="#009688"/>
<path d="M635.038 378.692C639.174 380.768 654.912 379.331 654.912 379.331C654.912 379.331 646.695 365.865 642.56 363.789C640.599 362.979 638.403 362.937 636.413 363.671C634.422 364.405 632.784 365.861 631.829 367.747C630.873 369.633 630.669 371.808 631.259 373.837C631.848 375.866 633.188 377.597 635.008 378.684L635.038 378.692Z" fill="#009688"/>
<path d="M631.682 417.364C635.405 420.102 651.197 421.341 651.197 421.341C651.197 421.341 645.387 406.689 641.657 403.944C639.862 402.859 637.724 402.481 635.663 402.886C633.602 403.29 631.768 404.447 630.522 406.13C629.276 407.812 628.708 409.897 628.93 411.975C629.152 414.052 630.147 415.972 631.72 417.357L631.682 417.364Z" fill="#009688"/>
<path opacity="0.1" d="M664.428 303.134C664.428 307.742 656.019 321.102 656.019 321.102C656.019 321.102 647.611 307.742 647.611 303.134C647.768 301.028 648.719 299.059 650.275 297.623C651.83 296.186 653.874 295.387 655.997 295.387C658.119 295.387 660.163 296.186 661.718 297.623C663.274 299.059 664.225 301.028 664.382 303.134H664.428Z" fill="#009688"/>
<path opacity="0.1" d="M678.294 328.652C675.779 332.522 661.439 339.198 661.439 339.198C661.439 339.198 661.699 323.451 664.214 319.581C664.772 318.576 665.532 317.696 666.446 316.996C667.36 316.296 668.41 315.791 669.529 315.512C670.648 315.232 671.813 315.185 672.951 315.373C674.09 315.561 675.177 315.98 676.145 316.604C677.114 317.228 677.943 318.044 678.58 319C679.218 319.956 679.652 321.033 679.853 322.163C680.055 323.293 680.02 324.453 679.752 325.569C679.484 326.685 678.987 327.735 678.294 328.652Z" fill="#009688"/>
<path opacity="0.1" d="M677.713 372.274C673.578 374.35 657.84 372.913 657.84 372.913C657.84 372.913 666.057 359.447 670.192 357.371C671.184 356.774 672.291 356.387 673.441 356.235C674.591 356.083 675.76 356.17 676.874 356.49C677.989 356.809 679.025 357.355 679.918 358.092C680.81 358.83 681.54 359.743 682.06 360.774C682.581 361.805 682.881 362.933 682.942 364.085C683.003 365.237 682.824 366.39 682.416 367.47C682.008 368.55 681.379 369.535 680.57 370.362C679.761 371.188 678.788 371.84 677.713 372.274Z" fill="#009688"/>
<path opacity="0.1" d="M669.757 405.168C666.034 407.905 650.242 409.145 650.242 409.145C650.242 409.145 656.051 394.492 659.782 391.747C661.577 390.662 663.715 390.285 665.776 390.69C667.836 391.094 669.67 392.251 670.916 393.933C672.163 395.615 672.731 397.7 672.509 399.778C672.287 401.856 671.292 403.776 669.718 405.16L669.757 405.168Z" fill="#009688"/>
<path opacity="0.1" d="M643.821 340.095C647.146 343.304 662.625 346.635 662.625 346.635C662.625 346.635 658.803 331.344 655.509 328.127C654.74 327.27 653.802 326.58 652.753 326.099C651.704 325.618 650.567 325.357 649.413 325.333C648.258 325.309 647.111 325.521 646.043 325.957C644.974 326.393 644.008 327.043 643.203 327.867C642.399 328.691 641.773 329.671 641.366 330.746C640.959 331.821 640.779 332.968 640.837 334.115C640.895 335.262 641.19 336.385 641.703 337.414C642.217 338.443 642.938 339.356 643.821 340.095Z" fill="#009688"/>
<path opacity="0.1" d="M635.038 378.692C639.174 380.768 654.912 379.331 654.912 379.331C654.912 379.331 646.695 365.865 642.56 363.789C640.599 362.979 638.403 362.937 636.413 363.671C634.422 364.405 632.784 365.861 631.829 367.747C630.873 369.633 630.669 371.808 631.259 373.837C631.848 375.866 633.188 377.597 635.008 378.684L635.038 378.692Z" fill="#009688"/>
<path opacity="0.1" d="M631.682 417.364C635.405 420.102 651.197 421.341 651.197 421.341C651.197 421.341 645.387 406.689 641.657 403.944C639.862 402.859 637.724 402.481 635.663 402.886C633.602 403.29 631.768 404.447 630.522 406.13C629.276 407.812 628.708 409.897 628.93 411.975C629.152 414.052 630.147 415.972 631.72 417.357L631.682 417.364Z" fill="#009688"/>
<path opacity="0.5" d="M709.053 11.6611H704.253C704.707 11.6827 705.162 11.6122 705.588 11.454C706.015 11.2958 706.404 11.0531 706.734 10.7407C707.063 10.4283 707.325 10.0526 707.505 9.63633C707.684 9.22011 707.776 8.77204 707.776 8.31926C707.776 7.86648 707.684 7.41842 707.505 7.0022C707.325 6.58598 707.063 6.21027 706.734 5.89782C706.404 5.58538 706.015 5.34271 705.588 5.18451C705.162 5.0263 704.707 4.95586 704.253 4.97743H665.331C664.468 5.01841 663.653 5.38838 663.057 6.0106C662.461 6.63283 662.128 7.45955 662.128 8.31926C662.128 9.17897 662.461 10.0057 663.057 10.6279C663.653 11.2501 664.468 11.6201 665.331 11.6611H670.131C669.268 11.7021 668.454 12.072 667.857 12.6943C667.261 13.3165 666.928 14.1432 666.928 15.0029C666.928 15.8626 667.261 16.6893 667.857 17.3116C668.454 17.9338 669.268 18.3038 670.131 18.3447H663.412C662.958 18.3232 662.503 18.3936 662.077 18.5518C661.65 18.71 661.261 18.9527 660.931 19.2651C660.602 19.5776 660.339 19.9533 660.16 20.3695C659.981 20.7857 659.889 21.2338 659.889 21.6866C659.889 22.1393 659.981 22.5874 660.16 23.0036C660.339 23.4198 660.602 23.7956 660.931 24.108C661.261 24.4204 661.65 24.6631 662.077 24.8213C662.503 24.9795 662.958 25.05 663.412 25.0284H702.303C702.758 25.05 703.212 24.9795 703.639 24.8213C704.065 24.6631 704.455 24.4204 704.785 24.108C705.114 23.7956 705.376 23.4198 705.555 23.0036C705.735 22.5874 705.827 22.1393 705.827 21.6866C705.827 21.2338 705.735 20.7857 705.555 20.3695C705.376 19.9533 705.114 19.5776 704.785 19.2651C704.455 18.9527 704.065 18.71 703.639 18.5518C703.212 18.3936 702.758 18.3232 702.303 18.3447H709.053C709.916 18.3038 710.73 17.9338 711.327 17.3116C711.923 16.6893 712.256 15.8626 712.256 15.0029C712.256 14.1432 711.923 13.3165 711.327 12.6943C710.73 12.072 709.916 11.7021 709.053 11.6611Z" fill="#DEE3F3"/>
<path opacity="0.5" d="M484.159 31.1571H480.505C480.852 31.176 481.2 31.1242 481.527 31.0049C481.854 30.8857 482.153 30.7014 482.405 30.4633C482.658 30.2253 482.859 29.9385 482.997 29.6205C483.134 29.3025 483.205 28.9599 483.205 28.6136C483.205 28.2674 483.134 27.9248 482.997 27.6068C482.859 27.2888 482.658 27.002 482.405 26.7639C482.153 26.5259 481.854 26.3416 481.527 26.2223C481.2 26.1031 480.852 26.0513 480.505 26.0702H450.908C450.255 26.1058 449.639 26.3893 449.189 26.8624C448.739 27.3354 448.488 27.9622 448.488 28.6136C448.488 29.2651 448.739 29.8919 449.189 30.3649C449.639 30.838 450.255 31.1215 450.908 31.1571H454.562C454.215 31.1382 453.867 31.1899 453.54 31.3092C453.213 31.4285 452.915 31.6128 452.662 31.8508C452.409 32.0889 452.208 32.3756 452.07 32.6937C451.933 33.0117 451.862 33.3543 451.862 33.7005C451.862 34.0468 451.933 34.3893 452.07 34.7074C452.208 35.0254 452.409 35.3122 452.662 35.5502C452.915 35.7883 453.213 35.9725 453.54 36.0918C453.867 36.2111 454.215 36.2629 454.562 36.244H449.449C449.101 36.2251 448.753 36.2768 448.427 36.3961C448.1 36.5154 447.801 36.6997 447.548 36.9377C447.295 37.1757 447.094 37.4625 446.957 37.7806C446.819 38.0986 446.748 38.4412 446.748 38.7874C446.748 39.1336 446.819 39.4762 446.957 39.7942C447.094 40.1123 447.295 40.3991 447.548 40.6371C447.801 40.8751 448.1 41.0594 448.427 41.1787C448.753 41.298 449.101 41.3498 449.449 41.3308H479.045C479.393 41.3498 479.74 41.298 480.067 41.1787C480.394 41.0594 480.693 40.8751 480.945 40.6371C481.198 40.3991 481.399 40.1123 481.537 39.7942C481.675 39.4762 481.745 39.1336 481.745 38.7874C481.745 38.4412 481.675 38.0986 481.537 37.7806C481.399 37.4625 481.198 37.1757 480.945 36.9377C480.693 36.6997 480.394 36.5154 480.067 36.3961C479.74 36.2768 479.393 36.2251 479.045 36.244H484.159C484.813 36.2084 485.428 35.9249 485.878 35.4518C486.328 34.9787 486.579 34.352 486.579 33.7005C486.579 33.049 486.328 32.4223 485.878 31.9492C485.428 31.4761 484.813 31.1927 484.159 31.1571Z" fill="#DEE3F3"/>
<path d="M235.738 391.428C235.738 391.428 249.115 417.547 238.215 431.834C227.315 446.122 239.208 485.06 239.208 485.06" stroke="#009688" stroke-miterlimit="10"/>
<path d="M239.729 383.262C239.729 388.295 236.014 392.386 236.014 392.386C236.014 392.386 232.299 388.303 232.299 383.262C232.299 378.22 236.014 374.137 236.014 374.137C236.014 374.137 239.729 378.228 239.729 383.262Z" fill="#009688"/>
<path d="M242.671 391.428C242.671 391.428 229.294 417.547 240.194 431.834C251.094 446.122 239.201 485.06 239.201 485.06" stroke="#009688" stroke-miterlimit="10"/>
<path d="M238.711 383.262C238.711 388.295 242.426 392.386 242.426 392.386C242.426 392.386 246.141 388.303 246.141 383.262C246.141 378.22 242.426 374.137 242.426 374.137C242.426 374.137 238.711 378.228 238.711 383.262Z" fill="#009688"/>
<path opacity="0.1" d="M238.711 383.262C238.711 388.295 242.426 392.386 242.426 392.386C242.426 392.386 246.141 388.303 246.141 383.262C246.141 378.22 242.426 374.137 242.426 374.137C242.426 374.137 238.711 378.228 238.711 383.262Z" fill="black"/>
<path d="M248.137 391.428C248.137 391.428 261.513 417.547 250.613 431.834C239.713 446.122 251.607 485.06 251.607 485.06" stroke="#009688" stroke-miterlimit="10"/>
<path d="M252.088 383.262C252.088 388.295 248.373 392.386 248.373 392.386C248.373 392.386 244.658 388.303 244.658 383.262C244.658 378.22 248.373 374.137 248.373 374.137C248.373 374.137 252.088 378.228 252.088 383.262Z" fill="#009688"/>
<path d="M250.002 404.187C246.493 407.814 240.967 408.194 240.967 408.194C240.967 408.194 241.135 402.689 244.643 399.07C248.152 395.45 253.678 395.062 253.678 395.062C253.678 395.062 253.487 400.552 250.002 404.187Z" fill="#009688"/>
<path d="M250.353 422.208C246.845 425.835 241.318 426.215 241.318 426.215C241.318 426.215 241.487 420.71 244.995 417.091C248.503 413.471 254.03 413.083 254.03 413.083C254.03 413.083 253.862 418.573 250.353 422.208Z" fill="#009688"/>
<path d="M231.32 432.116C234.637 435.918 234.522 441.423 234.522 441.423C234.522 441.423 229.026 440.761 225.709 436.959C222.392 433.157 222.506 427.652 222.506 427.652C222.506 427.652 228.002 428.314 231.32 432.116Z" fill="#009688"/>
<path d="M234.378 393.709C238.597 396.492 239.965 401.83 239.965 401.83C239.965 401.83 234.492 402.659 230.273 399.876C226.054 397.093 224.686 391.755 224.686 391.755C224.686 391.755 230.181 390.911 234.378 393.709Z" fill="#009688"/>
<path opacity="0.1" d="M234.378 393.709C238.597 396.492 239.965 401.83 239.965 401.83C239.965 401.83 234.492 402.659 230.273 399.876C226.054 397.093 224.686 391.755 224.686 391.755C224.686 391.755 230.181 390.911 234.378 393.709Z" fill="black"/>
<path d="M255.054 391.428C255.054 391.428 241.677 417.547 252.577 431.834C263.477 446.122 251.583 485.06 251.583 485.06" stroke="#009688" stroke-miterlimit="10"/>
<path d="M251.094 383.262C251.094 388.295 254.809 392.386 254.809 392.386C254.809 392.386 258.523 388.303 258.523 383.262C258.523 378.22 254.809 374.137 254.809 374.137C254.809 374.137 251.094 378.228 251.094 383.262Z" fill="#009688"/>
<path opacity="0.1" d="M251.094 383.262C251.094 388.295 254.809 392.386 254.809 392.386C254.809 392.386 258.523 388.303 258.523 383.262C258.523 378.22 254.809 374.137 254.809 374.137C254.809 374.137 251.094 378.228 251.094 383.262Z" fill="black"/>
<path d="M252.166 404.575C248.611 408.164 248.344 413.699 248.344 413.699C248.344 413.699 253.87 413.388 257.424 409.799C260.979 406.21 261.246 400.674 261.246 400.674C261.246 400.674 255.72 400.986 252.166 404.575Z" fill="#009688"/>
<path opacity="0.1" d="M252.166 404.575C248.611 408.164 248.344 413.699 248.344 413.699C248.344 413.699 253.87 413.388 257.424 409.799C260.979 406.21 261.246 400.674 261.246 400.674C261.246 400.674 255.72 400.986 252.166 404.575Z" fill="black"/>
<path d="M259.128 429.523C255.574 433.112 255.307 438.647 255.307 438.647C255.307 438.647 260.833 438.335 264.387 434.747C267.942 431.158 268.209 425.622 268.209 425.622C268.209 425.622 262.66 425.934 259.128 429.523Z" fill="#009688"/>
<path d="M248.9 424.041C248.9 424.041 256.949 411.418 268.254 411.114" stroke="#009688" stroke-miterlimit="10"/>
<path d="M242.61 416.414C242.61 416.414 234.561 403.791 223.256 403.487" stroke="#009688" stroke-miterlimit="10"/>
<path d="M241.562 434.435C241.562 434.435 249.611 421.812 260.916 421.508" stroke="#009688" stroke-miterlimit="10"/>
<path d="M267.864 413.121C269.017 413.121 269.951 412.192 269.951 411.046C269.951 409.899 269.017 408.97 267.864 408.97C266.712 408.97 265.777 409.899 265.777 411.046C265.777 412.192 266.712 413.121 267.864 413.121Z" fill="#009688"/>
<path d="M223.454 405.67C224.606 405.67 225.541 404.74 225.541 403.594C225.541 402.447 224.606 401.518 223.454 401.518C222.301 401.518 221.367 402.447 221.367 403.594C221.367 404.74 222.301 405.67 223.454 405.67Z" fill="#009688"/>
<path d="M247.487 438.571C247.487 438.571 239.438 425.949 228.133 425.645" stroke="#009688" stroke-miterlimit="10"/>
<path d="M228.331 427.842C229.483 427.842 230.418 426.913 230.418 425.766C230.418 424.62 229.483 423.69 228.331 423.69C227.178 423.69 226.244 424.62 226.244 425.766C226.244 426.913 227.178 427.842 228.331 427.842Z" fill="#009688"/>
<path d="M261.069 423.691C262.222 423.691 263.156 422.761 263.156 421.615C263.156 420.468 262.222 419.539 261.069 419.539C259.917 419.539 258.982 420.468 258.982 421.615C258.982 422.761 259.917 423.691 261.069 423.691Z" fill="#009688"/>
<path d="M291.996 469.86C291.996 469.86 272.596 465.998 267.414 460.85C262.231 455.702 238.964 446.699 236.373 453.132C233.781 459.565 201.449 481.441 223.44 485.303C245.43 489.166 275.18 490.451 281.646 487.874C288.113 485.296 291.996 469.86 291.996 469.86Z" fill="#A8A8A8"/>
<path opacity="0.2" d="M223.44 482.908C245.431 486.771 275.181 488.056 281.647 485.479C286.57 483.517 289.994 474.073 291.347 469.724L291.997 469.861C291.997 469.861 288.114 485.304 281.647 487.874C275.181 490.444 245.431 489.159 223.44 485.304C217.096 484.186 215.277 481.57 215.965 478.263C216.5 480.392 218.717 482.08 223.44 482.908Z" fill="black"/>
<path d="M880.983 397.344C880.983 397.344 887.389 405.708 878.025 418.254C868.661 430.8 860.941 441.453 864.068 449.3C864.068 449.3 878.193 425.934 889.689 425.607C901.185 425.28 893.633 411.388 880.983 397.344Z" fill="#009688"/>
<path opacity="0.1" d="M880.982 397.344C881.54 398.15 881.98 399.03 882.289 399.959C893.51 413.068 899.48 425.303 888.702 425.614C878.658 425.903 866.612 443.764 863.723 448.281C863.818 448.629 863.933 448.972 864.067 449.307C864.067 449.307 878.192 425.941 889.688 425.614C901.184 425.287 893.632 411.388 880.982 397.344Z" fill="#019A40"/>
<path d="M892.892 407.958C892.892 410.894 892.563 413.281 892.128 413.281C891.692 413.281 891.363 410.901 891.363 407.958C891.363 405.016 891.776 406.438 892.181 406.438C892.586 406.438 892.892 405.031 892.892 407.958Z" fill="#FFD037"/>
<path d="M896.98 411.464C894.389 412.871 892.134 413.745 891.943 413.357C891.752 412.969 893.685 411.57 896.277 410.171C898.868 408.772 897.844 409.791 898.042 410.171C898.241 410.551 899.564 410.057 896.98 411.464Z" fill="#FFD037"/>
<path d="M847.151 397.344C847.151 397.344 840.746 405.708 850.109 418.254C859.473 430.8 867.193 441.453 864.067 449.3C864.067 449.3 849.941 425.934 838.445 425.607C826.949 425.28 834.501 411.388 847.151 397.344Z" fill="#019A40"/>
<path opacity="0.1" d="M847.151 397.344C846.593 398.15 846.153 399.03 845.844 399.959C834.623 413.068 828.654 425.303 839.431 425.614C849.475 425.903 861.522 443.764 864.411 448.281C864.316 448.629 864.201 448.972 864.067 449.307C864.067 449.307 849.941 425.941 838.445 425.614C826.949 425.287 834.501 411.388 847.151 397.344Z" fill="black"/>
<path d="M835.242 407.958C835.242 410.894 835.571 413.281 836.007 413.281C836.442 413.281 836.771 410.901 836.771 407.958C836.771 405.016 836.358 406.438 835.953 406.438C835.548 406.438 835.242 405.031 835.242 407.958Z" fill="#FFD037"/>
<path d="M831.154 411.464C833.745 412.871 836 413.745 836.191 413.357C836.382 412.969 834.448 411.57 831.857 410.171C829.266 408.772 830.29 409.791 830.092 410.171C829.893 410.551 828.563 410.057 831.154 411.464Z" fill="#FFD037"/>
<path d="M837.283 448.205C837.283 448.205 855.192 447.657 860.589 443.833C865.985 440.008 888.106 435.469 889.474 441.552C890.843 447.635 916.388 472.05 896.17 472.21C875.953 472.37 849.192 469.077 843.803 465.815C838.414 462.553 837.283 448.205 837.283 448.205Z" fill="#A8A8A8"/>
<path opacity="0.2" d="M896.53 470.103C876.312 470.263 849.551 466.971 844.163 463.709C840.058 461.222 838.422 452.303 837.879 448.189H837.283C837.283 448.189 838.414 462.56 843.803 465.822C849.192 469.084 875.953 472.384 896.17 472.217C902.01 472.171 904.02 470.103 903.913 467.047C903.103 468.91 900.909 470.065 896.53 470.103Z" fill="black"/>
<path opacity="0.5" d="M332.936 56.7739H328.136C328.59 56.7955 329.045 56.725 329.471 56.5668C329.898 56.4086 330.287 56.1659 330.617 55.8535C330.946 55.541 331.209 55.1653 331.388 54.7491C331.567 54.3329 331.659 53.8848 331.659 53.4321C331.659 52.9793 331.567 52.5312 331.388 52.115C331.209 51.6988 330.946 51.3231 330.617 51.0106C330.287 50.6982 329.898 50.4555 329.471 50.2973C329.045 50.1391 328.59 50.0686 328.136 50.0902H289.245C288.381 50.1312 287.567 50.5012 286.971 51.1234C286.374 51.7456 286.042 52.5723 286.042 53.4321C286.042 54.2918 286.374 55.1185 286.971 55.7407C287.567 56.3629 288.381 56.7329 289.245 56.7739H294.045C293.182 56.8149 292.367 57.1848 291.771 57.8071C291.175 58.4293 290.842 59.256 290.842 60.1157C290.842 60.9754 291.175 61.8021 291.771 62.4244C292.367 63.0466 293.182 63.4166 294.045 63.4575H287.326C286.463 63.4985 285.648 63.8685 285.052 64.4907C284.456 65.1129 284.123 65.9397 284.123 66.7994C284.123 67.6591 284.456 68.4858 285.052 69.108C285.648 69.7302 286.463 70.1002 287.326 70.1412H326.217C326.672 70.1628 327.126 70.0923 327.553 69.9341C327.979 69.7759 328.369 69.5332 328.698 69.2208C329.028 68.9084 329.29 68.5326 329.469 68.1164C329.648 67.7002 329.741 67.2521 329.741 66.7994C329.741 66.3466 329.648 65.8985 329.469 65.4823C329.29 65.0661 329.028 64.6904 328.698 64.3779C328.369 64.0655 327.979 63.8228 327.553 63.6646C327.126 63.5064 326.672 63.436 326.217 63.4575H332.936C333.799 63.4166 334.614 63.0466 335.21 62.4244C335.806 61.8021 336.139 60.9754 336.139 60.1157C336.139 59.256 335.806 58.4293 335.21 57.8071C334.614 57.1848 333.799 56.8149 332.936 56.7739Z" fill="#DEE3F3"/>
</g>
<defs>
<linearGradient id="paint0_linear" x1="594" y1="406.558" x2="594.362" y2="554.134" gradientUnits="userSpaceOnUse">
<stop stop-color="#DDEBE9"/>
</linearGradient>
<linearGradient id="paint1_linear" x1="548.994" y1="413.479" x2="548.994" y2="98.6858" gradientUnits="userSpaceOnUse">
<stop stop-color="#808080" stop-opacity="0.25"/>
<stop offset="0.54" stop-color="#808080" stop-opacity="0.12"/>
<stop offset="1" stop-color="#808080" stop-opacity="0.1"/>
</linearGradient>
<linearGradient id="paint2_linear" x1="489.908" y1="359.04" x2="489.908" y2="359.004" gradientUnits="userSpaceOnUse">
<stop stop-color="#808080" stop-opacity="0.25"/>
<stop offset="0.54" stop-color="#808080" stop-opacity="0.12"/>
<stop offset="1" stop-color="#808080" stop-opacity="0.1"/>
</linearGradient>
<linearGradient id="paint3_linear" x1="49419.1" y1="153746" x2="49419.1" y2="68931.7" gradientUnits="userSpaceOnUse">
<stop stop-color="#808080" stop-opacity="0.25"/>
<stop offset="0.54" stop-color="#808080" stop-opacity="0.12"/>
<stop offset="1" stop-color="#808080" stop-opacity="0.1"/>
</linearGradient>
<linearGradient id="paint4_linear" x1="138855" y1="186370" x2="138855" y2="60407.9" gradientUnits="userSpaceOnUse">
<stop stop-color="#808080" stop-opacity="0.25"/>
<stop offset="0.54" stop-color="#808080" stop-opacity="0.12"/>
<stop offset="1" stop-color="#808080" stop-opacity="0.1"/>
</linearGradient>
<clipPath id="clip0">
<rect x="197" y="0.0200195" width="726" height="503" fill="white"/>
</clipPath>
</defs>
</svg>
