<svg width="28" height="34" viewBox="0 0 28 34" fill="none" xmlns="http://www.w3.org/2000/svg">
<path d="M7.94324 21.168C7.63658 21.168 7.42991 21.198 7.32324 21.228V23.1913C7.44991 23.2213 7.60824 23.2296 7.82657 23.2296C8.62491 23.2296 9.11658 22.8263 9.11658 22.1446C9.11658 21.5346 8.69324 21.168 7.94324 21.168ZM13.7549 21.188C13.4216 21.188 13.2049 21.218 13.0766 21.248V25.598C13.2049 25.628 13.4116 25.628 13.5982 25.628C14.9599 25.638 15.8466 24.888 15.8466 23.3013C15.8566 21.918 15.0482 21.188 13.7549 21.188Z" fill="#DA251C"/>
<path d="M17.4982 0.034668H4.16488C2.32488 0.034668 0.831543 1.528 0.831543 3.368V30.0347C0.831543 31.8747 2.32488 33.368 4.16488 33.368H24.1649C26.0049 33.368 27.4982 31.8747 27.4982 30.0347V10.0347L17.4982 0.034668ZM9.99487 23.6847C9.47988 24.168 8.71987 24.3847 7.83487 24.3847C7.63654 24.3847 7.45821 24.3747 7.32154 24.3547V26.7313H5.83154V20.1713C6.29488 20.0947 6.94654 20.0347 7.86321 20.0347C8.79154 20.0347 9.45154 20.2113 9.89654 20.5663C10.3199 20.903 10.6065 21.4547 10.6065 22.1047C10.6049 22.758 10.3882 23.3097 9.99487 23.6847ZM16.3399 25.943C15.6399 26.5247 14.5749 26.8013 13.2732 26.8013C12.4932 26.8013 11.9415 26.7513 11.5665 26.7013V20.173C12.1182 20.083 12.8382 20.0347 13.5982 20.0347C14.8599 20.0347 15.6799 20.2613 16.3199 20.7447C17.0115 21.258 17.4449 22.0763 17.4449 23.2513C17.4449 24.523 16.9799 25.4013 16.3399 25.943ZM22.4982 21.318H19.9449V22.8363H22.3315V24.0597H19.9449V26.733H18.4349V20.0847H22.4982V21.318ZM17.4982 11.7013C16.5765 11.7013 15.8315 11.7013 15.8315 11.7013V3.368L24.1649 11.7013H17.4982Z" fill="#DA251C"/>
</svg>
