<svg width="352" height="252" viewBox="0 0 352 252" fill="none" xmlns="http://www.w3.org/2000/svg">
<g clip-path="url(#clip0)">
<path opacity="0.1" d="M326.421 206.781C325.322 207.833 324.199 208.855 323.051 209.846C322.858 210.016 322.659 210.18 322.463 210.353C318.37 213.811 314.072 216.972 309.598 219.816L308.761 220.346C308.559 220.48 308.36 220.603 308.149 220.727C303.474 223.665 298.625 226.37 293.718 228.932L293.666 228.962L293.295 229.152C289.338 231.218 285.321 233.195 281.245 235.083L281.147 235.123C279.309 235.965 277.471 236.786 275.633 237.584C274.882 237.918 274.129 238.228 273.375 238.545C271.957 239.135 270.536 239.716 269.102 240.273L268.924 240.346L268.618 240.463L268.235 240.616C264.496 242.071 260.707 243.414 256.868 244.646L256.8 244.666C254.123 245.515 251.428 246.301 248.716 247.024L248.346 247.124C244.363 248.171 240.317 249.072 236.246 249.792L235.309 249.956C232.331 250.465 229.333 250.881 226.315 251.203C209.348 252.988 192.179 251.537 175.316 249.048C141.265 244.018 107.665 234.589 77.0201 219.809C71.1387 216.974 65.3717 213.939 59.7191 210.704C59.6731 210.677 59.6333 210.65 59.5874 210.627C56.2035 208.69 52.8657 206.672 49.5737 204.573C48.6088 203.966 47.65 203.345 46.6974 202.722C45.5252 201.952 44.3581 201.174 43.1961 200.387C41.6645 199.346 40.1329 198.279 38.6013 197.188L37.8845 196.668L37.6088 196.464C37.2198 196.181 36.8369 195.897 36.4509 195.61C22.0538 184.937 9.21588 172.002 3.15072 155.815C-3.85792 137.136 0.626631 113.454 17.9859 102.413C23.953 98.6109 30.8881 96.5462 37.8968 94.8418L38.6135 94.6683C39.799 94.3848 40.9845 94.1113 42.1638 93.8378C46.2961 92.8838 50.4498 91.9366 54.5637 90.8792C56.708 90.3289 58.8308 89.7518 60.9413 89.1281L61.8051 88.8679C66.8951 87.381 71.8731 85.472 76.6954 83.1575H76.7261C77.2437 82.9074 77.7553 82.6472 78.2577 82.3804C78.5824 82.2136 78.9071 82.0468 79.2318 81.8634C84.4392 79.0415 89.953 75.129 94.1956 70.466C94.5356 70.0924 94.8664 69.7122 95.188 69.3319C95.4362 69.035 95.6812 68.7349 95.9171 68.4347C98.8915 64.6589 100.95 60.4662 101.342 56.0166C101.474 54.5214 101.412 53.0135 101.158 51.537C100.677 48.7386 100.212 46.0001 99.8686 43.3284C99.2284 38.3085 99.0109 33.5087 99.8993 28.8824C100.803 24.166 102.852 19.6264 106.764 15.2235C107.354 14.5564 107.99 13.8893 108.672 13.2222C111.836 10.2001 115.415 7.73745 119.28 5.92414C119.758 5.70178 120.239 5.47941 120.723 5.25705C131.469 0.520642 144.38 -0.466664 156.443 0.187093C167.713 0.818629 178.911 2.51499 189.912 5.25705C190.785 5.47052 191.658 5.694 192.525 5.92414C201.882 8.39244 211.09 11.4927 220.094 15.2068C243.49 24.7897 265.573 38.095 286.204 52.7778C286.406 52.9213 286.608 53.0647 286.817 53.2115C287.678 53.823 288.535 54.4367 289.387 55.0527C291.035 56.2423 292.668 57.4398 294.288 58.645L295.381 59.4555C295.92 59.8558 296.457 60.2571 296.99 60.6596L298.631 61.8971C298.709 61.9477 298.782 62.0046 298.852 62.0672L300.249 63.1212C301.057 63.735 301.86 64.352 302.666 64.9724L304.393 66.3066C304.752 66.5868 305.113 66.8636 305.472 67.1472L307.309 68.6081L307.72 68.9417C307.806 69.0084 307.891 69.0751 307.974 69.1485L308.026 69.1852C313.007 73.1644 317.868 77.2904 322.423 81.6632L323.012 82.2303L323.073 82.2903C323.569 82.7706 324.065 83.2576 324.552 83.7479C330.501 89.6451 335.831 95.9825 340.187 102.987C360.196 135.341 354.256 180.14 326.421 206.781Z" fill="#019A40"/>
<path d="M248.599 117.997C248.599 117.997 250.381 107.823 256.11 107.77L260.3 117.156L257.482 119.241C257.482 119.241 251.429 119.451 248.599 117.997Z" fill="#65617D"/>
<path opacity="0.1" d="M260.288 117.143L257.482 119.241C257.482 119.241 253.212 119.387 250.161 118.573C249.624 118.438 249.101 118.244 248.599 117.996C248.599 117.996 248.599 117.94 248.629 117.833C248.628 117.82 248.628 117.806 248.629 117.793C248.893 116.517 249.256 115.267 249.714 114.057C249.888 113.6 250.09 113.13 250.305 112.66C251.144 110.902 252.323 109.177 253.938 108.323C254.534 108.005 255.183 107.82 255.846 107.78H256.018H256.1L256.195 107.987L257.611 111.159L260.288 117.143Z" fill="black"/>
<path d="M307.865 159.407C307.865 159.407 313.884 158.78 314.414 159.25C314.944 159.72 318.362 162.135 320.387 160.614C322.412 159.093 321.061 153.796 321.061 153.586C321.061 153.376 320.868 145.878 320.868 145.878L317.257 140.581L312.729 131.302L303.484 130.301L303.723 145.037L303.677 152.589L307.865 159.407Z" fill="#65617D"/>
<path opacity="0.1" d="M307.865 159.407C307.865 159.407 313.884 158.78 314.414 159.25C314.944 159.72 318.362 162.135 320.387 160.614C322.412 159.093 321.061 153.796 321.061 153.586C321.061 153.376 320.868 145.878 320.868 145.878L317.257 140.581L312.729 131.302L303.484 130.301L303.723 145.037L303.677 152.589L307.865 159.407Z" fill="black"/>
<path d="M254.893 107.496C254.893 107.496 254.418 113.894 250.743 113.994C250.743 113.994 249.707 113.327 248.31 112.176C245.094 109.558 239.994 104.521 241.403 99.8347C243.425 93.1237 253.248 105.505 253.248 105.505L254.005 106.426L254.893 107.496Z" fill="#D9919B"/>
<path opacity="0.1" d="M254.893 107.496C254.893 107.496 254.418 113.894 250.742 113.994C250.742 113.994 249.707 113.327 248.31 112.176L248.004 111.739C248.625 112.094 249.31 112.295 250.01 112.329C250.929 112.349 251.965 111.996 252.629 110.532C253.013 109.708 253.352 108.861 253.643 107.993C253.817 107.484 253.94 106.956 254.011 106.419L254.893 107.496Z" fill="black"/>
<path d="M253.303 119.084L252.479 117.93L249.723 114.044L248.292 112.059C248.912 112.412 249.596 112.612 250.295 112.646C251.214 112.669 252.25 112.313 252.914 110.848C253.3 110.026 253.638 109.178 253.928 108.31C254.385 106.896 254.376 106.169 254.213 105.922C254.051 105.675 255.236 106.872 255.806 107.463L255.827 107.483L256.091 107.756L256.192 107.97L257.586 111.008C257.586 111.008 257.586 111.052 257.586 111.135C257.714 112.099 258.183 118.216 253.303 119.084Z" fill="#E7EFFD"/>
<path d="M306.518 77.5005L299.39 85.7892C299.39 85.7892 290.243 81.7866 291.205 80.4524C291.579 79.9254 291.511 78.2609 291.303 76.4231C290.966 73.5179 290.243 70.1724 290.243 70.1724C290.243 70.1724 306.23 67.3405 304.879 70.2791C304.389 71.3498 304.472 72.614 304.778 73.7614C305.171 75.1007 305.759 76.3629 306.518 77.5005Z" fill="#D9919B"/>
<path opacity="0.1" d="M304.879 70.2655C304.389 71.3362 304.153 71.4396 304.46 72.6004C302.37 75.042 299.712 77.7137 296.406 77.7137C294.636 77.7173 292.888 77.2719 291.303 76.4128C290.966 73.5076 290.243 70.1621 290.243 70.1621C290.243 70.1621 306.23 67.3269 304.879 70.2655Z" fill="black"/>
<path d="M307.868 64.9153C307.868 68.2255 306.661 71.4002 304.511 73.741C302.362 76.0817 299.446 77.3967 296.406 77.3967C293.366 77.3967 290.45 76.0817 288.301 73.741C286.151 71.4002 284.943 68.2255 284.943 64.9153C284.943 64.8552 284.943 64.7952 284.943 64.7351C285.009 61.4574 286.257 58.3394 288.417 56.0551C290.577 53.7708 293.475 52.5035 296.486 52.5272C299.497 52.5508 302.378 53.8635 304.507 56.1815C306.637 58.4996 307.843 61.6368 307.865 64.9153H307.868Z" fill="#D9919B"/>
<path opacity="0.1" d="M309.525 147.249C307.993 147.249 302.951 147.309 297.303 147.406H297.232L295.367 147.439H295.309C288.609 147.556 282.008 146.132 279.358 146.402C273.722 146.979 281.38 140.731 281.38 140.731C285.579 141.841 289.897 142.316 294.215 142.146L295.835 142.052C300.954 141.739 306.1 141.215 308.79 140.334C308.977 141.962 309.249 144.32 309.525 147.249Z" fill="black"/>
<path d="M309.525 146.935C307.993 146.935 302.951 146.992 297.303 147.092H297.232L295.367 147.126H295.309C288.609 147.242 282.008 145.818 279.358 146.088C273.722 146.662 281.38 140.418 281.38 140.418C285.579 141.527 289.898 142.002 294.215 141.829L295.835 141.739C300.954 141.425 306.1 140.898 308.79 140.021C308.977 141.649 309.249 144.014 309.525 146.935Z" fill="#5F5D7E"/>
<path opacity="0.1" d="M293.321 80.9722L284.459 85.4818L277.625 143.046C277.625 143.046 281.668 141.044 283.981 142.312C286.294 143.579 293.419 142.419 293.419 142.419C293.419 142.419 298.626 142.085 299.389 142.732C300.152 143.379 309.216 140.111 309.216 140.111C309.216 140.111 310.852 136.125 309.599 135.498C308.346 134.87 309.985 128.67 309.985 128.67L309.216 87.1395L307.684 81.8027L303.543 79.0776L299.306 82.7467L297.285 83.0635L293.321 80.9722Z" fill="black"/>
<path d="M293.321 80.332L284.462 84.8416L277.625 142.419C277.625 142.419 281.668 140.418 283.981 141.685C286.294 142.953 293.419 141.788 293.419 141.788C293.419 141.788 298.626 141.475 299.389 142.102C300.152 142.729 309.216 139.48 309.216 139.48C309.216 139.48 310.852 135.498 309.599 134.867C308.346 134.237 309.985 128.05 309.985 128.05L309.216 86.5193L307.684 81.1825L303.543 78.4541L299.306 82.1231L297.285 82.4367L293.321 80.332Z" fill="#E7EFFD"/>
<path opacity="0.1" d="M293.177 83.0071C293.177 83.0071 295.732 86.3092 295.683 86.993C295.634 87.6767 295.539 89.2978 295.539 89.2978L293.628 93.5472C293.628 93.5472 292.568 98.844 292.568 99.9447C292.568 101.045 290.883 110.588 290.883 110.588L288.861 125.264L286.307 144.51L288.907 149.387L291.989 146.555L296.078 112.266L296.945 105.502C296.945 105.502 297.864 93.3371 297.864 92.0796C297.864 90.8221 297.334 87.5166 297.334 87.5166C297.334 87.5166 297.962 84.3713 300.563 83.6375C303.163 82.9036 300.37 83.4774 300.37 83.4774L298.878 82.1665L297.576 82.7435C297.576 82.7435 293.949 81.5394 293.177 83.0071Z" fill="black"/>
<path d="M292.889 82.6936C292.889 82.6936 295.441 85.9957 295.395 86.6762C295.349 87.3566 295.248 88.9843 295.248 88.9843L293.321 93.2337C293.321 93.2337 292.261 98.5272 292.261 99.6279C292.261 100.729 290.576 110.275 290.576 110.275L288.552 124.951L286 144.193L288.601 149.07L291.682 146.238L295.772 111.953L296.639 105.188C296.639 105.188 297.557 93.0236 297.557 91.7628C297.557 90.502 297.028 87.2032 297.028 87.2032C297.028 87.2032 297.64 84.0545 300.253 83.3206C302.866 82.5868 300.063 83.1639 300.063 83.1639L298.568 81.853L297.27 82.4301C297.27 82.4301 293.661 81.2226 292.889 82.6936Z" fill="#019A40"/>
<path opacity="0.1" d="M291.204 77.1865C291.204 77.1865 290.818 77.5001 290.723 79.5981C290.628 81.6961 289.277 86.4158 289.277 86.4158C289.277 86.4158 294.286 82.6401 296.791 83.0603L291.204 77.1865Z" fill="black"/>
<path d="M291.204 76.5562C291.204 76.5562 290.818 76.873 290.723 78.9677C290.628 81.0624 289.277 85.7855 289.277 85.7855C289.277 85.7855 294.286 82.0097 296.791 82.43L291.204 76.5562Z" fill="#E7EFFD"/>
<path opacity="0.1" d="M304.882 75.5088L296.997 83.0604C296.997 83.0604 303.644 87.3598 304.511 88.3972C305.378 89.4345 306.245 78.1205 306.245 78.1205L304.882 75.5088Z" fill="black"/>
<path d="M305.169 74.8784L297.272 82.43C297.272 82.43 303.917 86.7294 304.783 87.7667C305.65 88.8041 306.517 77.4868 306.517 77.4868L305.169 74.8784Z" fill="#E7EFFD"/>
<path opacity="0.1" d="M291.483 77.1865C291.483 77.1865 290.616 76.7128 289.798 78.0771C288.98 79.4413 287.439 80.0784 287.439 80.0784C287.439 80.0784 278.673 81.5993 278.336 82.8568L274.243 83.117C274.243 83.117 272.797 83.3071 272.662 86.6426C272.528 89.9781 271.744 90.2583 271.744 90.2583C271.744 90.2583 270.056 93.5104 270.212 95.1881C270.368 96.8659 268.91 97.7065 268.91 97.7065L274.942 114.731C274.942 114.731 275.135 121.759 274.023 124.327C272.911 126.895 270.843 138.276 270.843 138.276C270.843 138.276 271.71 138.066 271.661 138.696C271.612 139.327 270.601 146.195 270.601 146.195C270.601 146.195 270.313 148.92 269.832 149.864C269.351 150.808 269.302 155.737 269.302 155.737L268.509 159.303C268.509 159.303 270.347 163.759 273.134 163.129C275.922 162.498 280.982 150.597 280.982 150.597L284.208 137.752L286.713 125.061L287.436 116.462L288.591 97.4263L290.276 84.8414C290.276 84.8414 292.166 78.0771 291.483 77.1865Z" fill="black"/>
<path d="M291.204 76.5564C291.204 76.5564 290.338 76.086 289.52 77.4503C288.702 78.8145 287.158 79.4516 287.158 79.4516C287.158 79.4516 278.394 80.9725 278.057 82.23L273.965 82.4935C273.965 82.4935 272.519 82.7037 272.375 86.0058C272.231 89.3079 271.456 89.6248 271.456 89.6248C271.456 89.6248 269.771 92.8769 269.924 94.5547C270.077 96.2324 268.625 97.0696 268.625 97.0696L274.636 114.101C274.636 114.101 274.828 121.129 273.717 123.697C272.605 126.265 270.54 137.646 270.54 137.646C270.54 137.646 271.407 137.436 271.358 138.066C271.309 138.697 270.298 145.564 270.298 145.564C270.298 145.564 270.01 148.289 269.529 149.233C269.048 150.177 268.999 155.107 268.999 155.107L268.233 158.69C268.233 158.69 270.071 163.146 272.856 162.519C275.64 161.892 280.707 149.984 280.707 149.984L283.932 137.139L286.438 124.464L287.158 115.865L288.316 96.8328L290.001 84.248C290.001 84.248 291.878 77.4503 291.204 76.5564Z" fill="#65617D"/>
<path opacity="0.1" d="M260.287 117.143L257.481 119.241C257.481 119.241 253.211 119.387 250.16 118.574L248.604 117.823L248.298 117.673L248.619 117.783C250.231 118.303 251.49 118.293 252.473 117.933C256.428 116.485 255.99 109.378 255.843 107.77C255.843 107.61 255.818 107.506 255.812 107.466C255.811 107.46 255.811 107.453 255.812 107.446L255.836 107.486C255.889 107.584 255.949 107.677 256.017 107.763C256.072 107.835 256.132 107.903 256.195 107.967L257.589 111.005C257.589 111.005 257.589 111.049 257.589 111.132L260.287 117.143Z" fill="black"/>
<path d="M269.967 96.6494L268.619 97.0697L268.426 100.072C268.426 100.072 266.837 99.8115 266.405 101.856C265.973 103.901 265.201 104.858 265.201 104.858C265.201 104.858 262.551 107.27 262.407 109.314L260.768 110.415C260.768 110.415 256.964 109.471 256.097 107.793C256.097 107.793 257.831 121.322 248.586 118.02C248.586 118.02 258.94 122.95 259.421 123.63C259.901 124.311 263.081 126.299 265.97 124.631C268.858 122.963 269.486 120.331 269.486 120.331C269.486 120.331 272.28 116.085 272.375 115.455C272.47 114.825 274.639 114.091 274.639 114.091L278.78 103.187L269.967 96.6494Z" fill="#65617D"/>
<path opacity="0.1" d="M303.772 81.7996L305.169 74.8784C305.169 74.8784 305.782 77.1332 306.422 77.6569C307.062 78.1806 308.493 79.388 308.493 79.388C308.493 79.388 310.563 80.4387 311.283 80.4387C312.003 80.4387 315.909 81.5394 316.389 82.1064C316.87 82.6735 318.797 82.2632 318.797 82.2632C318.797 82.2632 320.387 82.8402 321.784 83.2071C323.181 83.5741 323.854 86.0923 323.563 87.0863C323.447 87.5819 323.448 88.1015 323.566 88.5966C323.684 89.0917 323.915 89.5464 324.237 89.9182C324.816 90.5486 325.104 92.5866 325.104 92.5866C325.814 92.838 326.403 93.3848 326.743 94.1075C327.224 95.2616 327.08 97.7766 327.08 97.7766L319.906 108.784C319.906 108.784 320.001 113.03 319.713 113.974C319.425 114.918 320.724 130.965 320.724 130.965L322.216 158.546C322.216 158.546 320.243 160.381 319.808 160.591C319.373 160.801 318.941 150.838 318.941 150.471C318.941 150.104 307.819 132.326 307.819 132.326C307.819 132.326 306.324 129.704 306.324 129.127C306.324 128.55 304.927 123.256 304.927 123.256L302.816 113.053L303.772 81.7996Z" fill="black"/>
<path d="M327.678 97.193C327.678 97.5533 327.66 97.7934 327.66 97.7934L320.489 108.801C320.489 108.801 320.587 113.05 320.299 113.994C320.13 114.541 320.498 120.185 320.838 124.818C321.08 128.153 321.309 130.982 321.309 130.982L321.941 142.683L322.798 158.566C322.798 158.566 320.825 160.401 320.394 160.611C319.962 160.821 319.527 150.858 319.527 150.488C319.527 150.117 308.395 132.339 308.395 132.339C308.395 132.339 306.903 129.714 306.903 129.137C306.903 128.56 305.506 123.263 305.506 123.263L303.39 113.04L304.352 81.7864L305.169 74.8652C305.169 74.8652 306.373 77.1234 307.007 77.6437C307.641 78.164 309.075 79.3748 309.075 79.3748C309.075 79.3748 311.146 80.4255 311.869 80.4255C312.592 80.4255 316.491 81.5262 316.975 82.0932C317.459 82.6603 319.383 82.25 319.383 82.25C319.383 82.25 320.969 82.8271 322.366 83.194C323.763 83.5609 324.437 86.0792 324.149 87.0731C324.032 87.5687 324.032 88.0885 324.15 88.5838C324.268 89.0791 324.5 89.5337 324.823 89.905C325.399 90.5321 325.69 92.5734 325.69 92.5734C326.399 92.8258 326.988 93.3723 327.329 94.0944C327.656 94.9216 327.687 96.3758 327.678 97.193Z" fill="#65617D"/>
<path opacity="0.1" d="M275.637 237.584C274.887 237.917 274.133 238.228 273.38 238.545C271.018 237.794 268.812 236.91 268.812 236.91C271.097 236.999 273.375 237.224 275.637 237.584Z" fill="black"/>
<path opacity="0.1" d="M298.428 209.589C298.428 209.589 304.159 211.057 304.496 212.054L298.428 209.589Z" fill="black"/>
<path opacity="0.1" d="M276.323 214.099C276.323 214.099 273.336 215.043 276.228 216.93C279.119 218.818 276.323 214.099 276.323 214.099Z" fill="black"/>
<path opacity="0.1" d="M289.565 163.693C289.902 163.693 295.153 161.805 296.981 162.645C298.81 163.486 301.077 163.483 301.077 163.483L289.565 163.693Z" fill="black"/>
<path opacity="0.1" d="M290.258 169.696L290.206 170.217L285.715 183.005C285.715 183.005 284.992 186.884 284.364 189.086C283.97 190.582 283.657 192.102 283.427 193.639L287.409 166.801L290.258 169.696Z" fill="black"/>
<path d="M297.233 147.092L295.368 147.125H295.309L294.216 141.839C294.752 141.812 295.294 141.782 295.836 141.745L297.233 147.092Z" fill="#3F3D56"/>
<path d="M319.952 140.678L318.755 141.755L314.763 145.348C314.763 145.348 303.929 151.642 300.945 145.661C298.314 140.394 310.597 136.635 313.556 135.815C313.958 135.705 314.187 135.648 314.187 135.648L319.952 140.678Z" fill="#D9919B"/>
<path opacity="0.1" d="M273.677 89.1411C273.677 89.1411 275.793 90.1918 276.274 91.6594C276.755 93.1271 273.677 89.1411 273.677 89.1411Z" fill="black"/>
<path opacity="0.1" d="M267.124 104.875C267.124 104.875 264.042 108.964 265.286 110.545C266.53 112.126 267.124 104.875 267.124 104.875Z" fill="black"/>
<path opacity="0.1" d="M322.216 91.4492C322.216 91.4492 319.328 91.7628 319.229 94.4912L322.216 91.4492Z" fill="black"/>
<path opacity="0.1" d="M295.44 134.447C295.747 134.133 302.376 123.44 303.916 124.38L295.44 134.447Z" fill="black"/>
<path opacity="0.1" d="M307.868 64.9156C307.87 66.971 307.404 68.9948 306.511 70.8061H306.426C305.7 70.6393 305.323 69.7187 304.768 69.1383C304.427 68.7851 303.993 68.5569 303.527 68.4858C303.06 68.4146 302.585 68.504 302.168 68.7414C301.746 69.0158 301.402 69.4133 301.177 69.8889C300.951 70.3646 300.852 70.8994 300.89 71.4331C300.523 69.7654 300.639 67.9676 300.278 66.2865C299.916 64.6054 298.841 62.901 297.365 62.8709C296.728 62.8709 295.986 63.1278 295.527 62.6074C295.248 62.2939 295.193 61.8002 294.985 61.42C293.928 59.5621 290.718 60.5027 289.406 61.4567C288.095 62.4106 286.573 63.9316 284.943 64.7488C285.009 61.471 286.257 58.3531 288.417 56.0688C290.577 53.7845 293.475 52.5172 296.486 52.5409C299.497 52.5645 302.378 53.8772 304.507 56.1952C306.637 58.5132 307.843 61.6505 307.865 64.9289L307.868 64.9156Z" fill="black"/>
<path d="M294.987 61.0931C295.196 61.4733 295.251 61.967 295.53 62.2805C295.989 62.7975 296.73 62.5307 297.368 62.544C298.844 62.5707 299.922 64.2751 300.281 65.9562C300.639 67.6373 300.523 69.4251 300.893 71.1029C300.855 70.5697 300.955 70.0355 301.18 69.5606C301.406 69.0856 301.749 68.6886 302.171 68.4145C302.588 68.1768 303.062 68.0873 303.528 68.1585C303.994 68.2297 304.428 68.458 304.768 68.8114C305.323 69.3851 305.687 70.3057 306.429 70.4792C307.17 70.6526 307.856 69.8854 308.12 69.0516C308.383 68.2177 308.361 67.3038 308.533 66.4399C308.861 64.8021 309.841 63.4613 310.371 61.9069C311.017 60.0145 310.999 57.9291 310.322 56.0498C309.96 55.0491 309.424 54.1786 309.057 53.1946C308.505 51.7003 308.358 50.0159 307.685 48.5916C306.551 46.2067 303.88 45.016 301.687 45.9232C300.639 46.3535 299.729 47.184 298.666 47.5543C297.245 48.0513 295.723 47.6777 294.249 47.4542C292.776 47.2307 291.146 47.2107 289.961 48.2647C288.598 49.4789 288.224 51.7603 286.943 53.0945C286.404 53.6549 285.737 54.0118 285.17 54.5288C284.603 55.0458 284.113 55.8163 284.177 56.6569C284.263 57.7442 285.24 58.7315 284.879 59.7355C284.749 60.0276 284.567 60.2885 284.343 60.5027C283.271 61.7282 282.473 63.2063 282.012 64.8221C284.591 65.6994 287.378 62.604 289.397 61.1531C290.723 60.1758 293.934 59.2319 294.987 61.0931Z" fill="#4C3E42"/>
<path opacity="0.1" d="M319.952 140.678L318.755 141.755C317.698 139.837 313.357 136.008 313.357 136.008L313.544 135.811C313.946 135.701 314.175 135.645 314.175 135.645L319.952 140.678Z" fill="black"/>
<path d="M321.111 138.747C321.111 138.747 320.679 139.914 320.235 140.925C319.79 141.935 319.316 142.849 319.279 142.106C319.23 140.635 313.646 135.705 313.646 135.705L314.402 134.904L315.281 133.974L321.111 138.747Z" fill="#E7EFFD"/>
<path opacity="0.1" d="M321.304 130.985L321.935 142.686C320.44 140.154 316.332 133.66 313.691 133.87L320.097 125.865C320.364 125.542 320.61 125.199 320.832 124.837C321.074 128.166 321.304 130.985 321.304 130.985Z" fill="black"/>
<path opacity="0.1" d="M321.11 138.747C321.11 138.747 320.678 139.914 320.234 140.925C318.556 138.417 316.252 135.458 314.414 134.904L315.293 133.974L321.11 138.747Z" fill="black"/>
<path d="M325.926 96.3159L327.66 97.7835C327.66 97.7835 330.548 97.8369 330.836 100.452C331.124 103.067 333.774 104.281 333.774 104.281C333.774 104.281 335.75 106.429 335.75 107.426C335.75 108.424 337.241 110.205 337.241 110.362C337.241 110.518 338.687 113.717 338.494 114.294C338.301 114.871 340.026 117.39 339.505 118.334C339.07 119.18 338.684 120.056 338.35 120.955C338.35 120.955 336.087 125.675 334.929 126.566C333.771 127.456 328.478 134.954 328.478 134.954C328.478 134.954 322.795 142.086 322.795 144.294C322.795 144.294 317.257 134.224 313.982 134.487L320.388 126.465C320.388 126.465 321.493 125.155 321.542 124.367C321.591 123.58 324.624 119.961 326.07 119.804C326.07 119.804 326.309 117.653 325.684 117.603C325.059 117.553 324.529 115.872 324.529 115.872C324.529 115.872 320.29 110.418 320.241 106.956C320.192 103.494 325.926 96.3159 325.926 96.3159Z" fill="#65617D"/>
<path opacity="0.1" d="M328.478 101.319C328.478 101.319 324.432 104.568 325.299 105.618C326.165 106.669 328.478 101.319 328.478 101.319Z" fill="black"/>
<path opacity="0.1" d="M328.671 114.731C328.671 114.731 336.182 112.109 336.942 114.731H328.671Z" fill="black"/>
<path opacity="0.1" d="M275.673 100.679C275.673 100.679 275.673 112.633 274.733 113.814C273.793 114.995 275.673 100.679 275.673 100.679Z" fill="black"/>
<path opacity="0.1" d="M319.086 104.531L320.483 108.804C320.483 108.804 321.037 104.611 319.086 104.531Z" fill="black"/>
<g opacity="0.1">
<path opacity="0.1" d="M285.051 58.6982C285.403 57.7143 284.481 56.7503 284.359 55.6963C284.238 55.9938 284.185 56.3189 284.205 56.6436C284.267 57.4407 284.818 58.1812 284.95 58.9184C284.99 58.8485 285.024 58.7748 285.051 58.6982Z" fill="black"/>
<path opacity="0.1" d="M301.019 69.9923C300.673 68.3246 300.774 66.5868 300.425 64.9357C300.076 63.2847 298.988 61.5469 297.512 61.5202C296.875 61.5202 296.134 61.7737 295.674 61.2567C295.395 60.9431 295.34 60.4495 295.132 60.0692C294.078 58.2114 290.868 59.152 289.554 60.1059C287.584 61.5302 284.879 64.5121 282.352 63.8383C282.233 64.1552 282.119 64.4754 282.024 64.8056C284.604 65.6829 287.391 62.5875 289.41 61.1366C290.724 60.186 293.931 59.242 294.988 61.1032C295.196 61.4835 295.251 61.9771 295.53 62.2907C295.99 62.8077 296.731 62.5408 297.368 62.5542C298.845 62.5809 299.923 64.2853 300.281 65.9664C300.64 67.6475 300.523 69.4353 300.894 71.1131C300.867 70.7341 300.909 70.353 301.019 69.9923Z" fill="black"/>
<path opacity="0.1" d="M308.261 68.0245C307.997 68.8584 307.311 69.6222 306.57 69.4521C305.828 69.282 305.467 68.3647 304.913 67.7843C304.571 67.4321 304.136 67.2048 303.67 67.1343C303.204 67.0637 302.729 67.1534 302.312 67.3908C301.91 67.6512 301.58 68.024 301.355 68.4703C301.131 68.9167 301.02 69.4204 301.034 69.9291C301.228 69.2885 301.631 68.7481 302.168 68.4114C302.585 68.1738 303.059 68.0842 303.525 68.1554C303.991 68.2266 304.425 68.4549 304.765 68.8083C305.32 69.382 305.684 70.3026 306.426 70.4761C307.167 70.6495 307.853 69.8824 308.117 69.0485C308.253 68.5574 308.341 68.052 308.38 67.5409C308.348 67.7043 308.308 67.8657 308.261 68.0245Z" fill="black"/>
<path opacity="0.1" d="M310.525 60.8829C309.983 62.4373 308.993 63.7781 308.687 65.4125C308.619 65.7461 308.583 66.0796 308.546 66.4132C308.874 64.7855 309.851 63.4479 310.384 61.8969C310.625 61.1984 310.775 60.4663 310.828 59.7222C310.755 60.1172 310.654 60.5054 310.525 60.8829Z" fill="black"/>
</g>
<path d="M240.931 98.851C240.997 98.851 241.05 98.7928 241.05 98.7209C241.05 98.6491 240.997 98.5908 240.931 98.5908C240.865 98.5908 240.812 98.6491 240.812 98.7209C240.812 98.7928 240.865 98.851 240.931 98.851Z" fill="#E6E8EC"/>
<path d="M144.663 171.908C144.663 171.908 148.033 169.277 151.534 170.908C151.534 170.908 150.554 173.169 146.204 173.139L144.663 171.908Z" fill="#019A40"/>
<path d="M144.243 172.062C144.243 172.062 143.343 176.474 146.081 179.336C146.081 179.336 147.613 177.468 145.876 173.122L144.243 172.062Z" fill="#019A40"/>
<path d="M139.777 168.046C139.777 168.046 139.903 164.32 147.65 165.231C147.65 165.231 147.772 167.629 145.107 168.876C142.442 170.124 141.171 169.22 139.777 168.046Z" fill="#019A40"/>
<path d="M139.303 168.029C139.303 168.029 136.086 169.303 139.266 177.051C139.266 177.051 141.41 176.438 141.668 173.292C141.925 170.147 140.755 169.123 139.303 168.029Z" fill="#019A40"/>
<path d="M134.757 162.952C134.757 162.952 134.102 156.858 141.999 157.155C141.999 157.155 142.752 162.665 136.2 164.363L134.757 162.952Z" fill="#019A40"/>
<path d="M129.311 156.268C129.311 156.268 130.147 149.293 138.09 151.031C138.09 151.031 138.329 157.035 130.652 157.865L129.311 156.268Z" fill="#019A40"/>
<path d="M125.258 149.29C125.258 149.29 126.826 142.452 134.696 144.164C134.696 144.164 133.054 150.308 125.812 150.501L125.258 149.29Z" fill="#019A40"/>
<path d="M121.401 142.472C121.401 142.472 122.933 135.394 130.521 137.185C130.521 137.185 128.242 143.943 121.944 143.646L121.401 142.472Z" fill="#019A40"/>
<path d="M118.837 135.951C118.837 135.951 119.894 127.336 126.988 128.93C126.988 128.93 125.224 136.809 119.404 137.176L118.837 135.951Z" fill="#019A40"/>
<path d="M116.374 128.043C116.374 128.043 117.7 119.34 124.884 121.555C124.884 121.555 122.387 129.831 116.919 129.227L116.374 128.043Z" fill="#019A40"/>
<path d="M114.76 120.665C114.76 120.665 117.045 111.922 122.546 111.926C122.546 111.926 120.218 121.155 115.281 122.376L114.76 120.665Z" fill="#019A40"/>
<path d="M113.648 113.43C113.648 113.43 116.099 102.92 120.596 103.534C120.596 103.534 118.926 111.559 113.857 115.041L113.648 113.43Z" fill="#019A40"/>
<path d="M112.855 104.774C112.855 104.774 115.19 96.0021 119.595 95.4751C119.595 95.4751 118.097 104.071 113.036 107.019L112.855 104.774Z" fill="#019A40"/>
<path d="M112.037 96.7192C112.037 96.7192 115.024 87.9136 117.934 87.5967C117.934 87.5967 116.803 96.1922 112.377 98.1302L112.037 96.7192Z" fill="#019A40"/>
<path d="M111.406 89.2144C111.406 89.2144 113.1 79.7116 115.983 78.811C115.983 78.811 115.857 86.5294 111.725 89.9049L111.406 89.2144Z" fill="#019A40"/>
<path d="M109.963 79.4182C109.963 79.4182 111.828 71.8233 114.147 70.5825C114.147 70.5825 113.991 79.4483 110.576 81.2294L109.963 79.4182Z" fill="#019A40"/>
<path d="M108.827 72.9905L107.933 59.772C107.933 59.772 112.684 69.5783 109.222 75.302L108.827 72.9905Z" fill="#019A40"/>
<path d="M104.958 59.9789C104.958 59.9789 101.448 50.4494 100.67 49.9424C100.67 49.9424 107.103 55.9463 106.796 64.0415L104.958 59.9789Z" fill="#019A40"/>
<path d="M134.539 162.916C134.539 162.916 128.927 162.355 129.396 170.941C129.396 170.941 134.475 171.608 135.872 164.45L134.539 162.916Z" fill="#019A40"/>
<path d="M129.038 156.048C129.038 156.048 122.584 156.295 123.42 165.054C123.42 165.054 128.873 165.881 130.371 157.642L129.038 156.048Z" fill="#019A40"/>
<path d="M125.215 149.864C125.215 149.864 119.251 147.115 115.774 154.991C115.774 154.991 121.273 157.259 125.776 151.088L125.215 149.864Z" fill="#019A40"/>
<path d="M121.273 142.543C121.273 142.543 115.161 139.611 111.905 147.299C111.905 147.299 118.237 149.38 121.809 143.717L121.273 142.543Z" fill="#019A40"/>
<path d="M118.92 136.135C118.92 136.135 112.938 130.371 108.545 136.635C108.545 136.635 114.616 141.328 119.232 137.459L118.92 136.135Z" fill="#019A40"/>
<path d="M116.696 127.826C116.696 127.826 110.671 121.925 106.327 128.54C106.327 128.54 113.023 133.306 116.947 129.103L116.696 127.826Z" fill="#019A40"/>
<path d="M115.349 120.388C115.349 120.388 110.604 112.91 105.399 114.838C105.399 114.838 110.325 122.763 115.361 122.176L115.349 120.388Z" fill="#019A40"/>
<path d="M113.777 113.377C113.777 113.377 108.928 103.904 104.726 105.759C104.726 105.759 108.236 113.047 113.952 114.995L113.777 113.377Z" fill="#019A40"/>
<path d="M113.146 104.267C113.146 104.267 108.244 96.8592 103.938 97.9699C103.938 97.9699 107.993 105.518 113.672 106.449L113.146 104.267Z" fill="#019A40"/>
<path d="M112.521 96.5293C112.521 96.5293 108.63 88.1505 105.705 88.1906C105.705 88.1906 107.73 96.5894 112.328 97.9669L112.521 96.5293Z" fill="#019A40"/>
<path d="M111.544 89.0213C111.544 89.0213 107.255 80.5492 104.247 80.6593C104.247 80.6593 106.551 87.9607 111.436 89.7885L111.544 89.0213Z" fill="#019A40"/>
<path d="M110.622 79.9188C110.622 79.9188 107.384 72.8942 104.885 72.1904C104.885 72.1904 106.683 80.8394 110.362 81.83L110.622 79.9188Z" fill="#019A40"/>
<path d="M108.462 72.7536L101.398 61.96C101.398 61.96 103.494 72.807 109.51 74.8183L108.462 72.7536Z" fill="#019A40"/>
<path d="M103.46 60.9327C103.46 60.9327 95.4958 55.4258 95.1895 54.4985C95.1895 54.4985 99.4351 62.5037 106.799 63.6344L103.46 60.9327Z" fill="#019A40"/>
<path d="M102.903 58.331C102.903 58.331 93.6704 49.3819 91.3975 49.4853C91.3975 49.4853 98.7492 49.5453 103.099 57.824L102.903 58.331Z" fill="#019A40"/>
<path d="M110.585 81.306L110.261 81.3661C108.086 67.1735 105.359 58.8448 102.557 57.9175L102.652 57.584C105.614 58.5579 108.355 66.7666 110.585 81.306Z" fill="#444053"/>
<path d="M114.243 115.308L113.756 115.375C113.606 114.041 113.48 112.686 113.376 111.332C112.494 99.5445 111.388 88.7341 110.15 80.6455L110.42 80.252C111.645 88.3539 112.984 99.4844 113.869 111.272C113.967 112.636 114.096 113.994 114.243 115.308Z" fill="#444053"/>
<path d="M154.048 178.319C153.96 178.279 145.184 174.446 135.874 164.81C130.424 159.171 125.828 152.628 122.258 145.424C117.795 136.418 114.873 125.238 113.642 114.311L114.162 114.551C116.919 139.073 127.806 155.464 136.306 164.27C145.524 173.819 154.202 177.612 154.287 177.655L154.048 178.319Z" fill="#444053"/>
<g opacity="0.7">
<path opacity="0.7" d="M160.147 167.438C160.147 167.438 164.087 166.021 166.978 168.702C166.978 168.702 165.425 170.547 161.281 169.106L160.147 167.438Z" fill="#019A40"/>
<path opacity="0.7" d="M159.703 167.445C159.703 167.445 157.639 171.367 159.477 174.99C159.477 174.99 161.446 173.699 160.978 168.986L159.703 167.445Z" fill="#019A40"/>
<path opacity="0.7" d="M156.536 162.168C156.536 162.168 157.676 158.649 164.807 162.032C164.807 162.032 164.268 164.366 161.382 164.7C158.497 165.033 157.547 163.739 156.536 162.168Z" fill="#019A40"/>
<path opacity="0.7" d="M156.089 162.025C156.089 162.025 152.667 162.202 153.589 170.627C153.589 170.627 155.789 170.734 156.907 167.819C158.025 164.903 157.176 163.513 156.089 162.025Z" fill="#019A40"/>
<path opacity="0.7" d="M153.133 155.687C153.133 155.687 154.174 149.657 161.63 152.498C161.63 152.498 160.843 158.002 154.125 157.502L153.133 155.687Z" fill="#019A40"/>
<path opacity="0.7" d="M149.76 147.532C149.76 147.532 152.465 141.145 159.562 145.377C159.562 145.377 158.156 151.171 150.596 149.49L149.76 147.532Z" fill="#019A40"/>
<path opacity="0.7" d="M147.797 139.557C147.797 139.557 151.166 133.536 158.212 137.719C158.212 137.719 154.965 143.056 147.999 140.908L147.797 139.557Z" fill="#019A40"/>
<path opacity="0.7" d="M145.98 131.798C145.98 131.798 149.368 125.534 156.135 129.704C156.135 129.704 152.113 135.417 146.173 133.093L145.98 131.798Z" fill="#019A40"/>
<path opacity="0.7" d="M145.315 124.741C145.315 124.741 148.685 116.852 155.007 120.678C155.007 120.678 151.169 127.626 145.511 126.092L145.315 124.741Z" fill="#019A40"/>
<path opacity="0.7" d="M145.122 116.395C145.122 116.395 148.767 108.517 155.019 112.959C155.019 112.959 150.372 120.051 145.315 117.686L145.122 116.395Z" fill="#019A40"/>
<path opacity="0.7" d="M145.601 108.82C145.601 108.82 150.171 101.215 155.421 103C155.421 103 150.676 111.058 145.619 110.625L145.601 108.82Z" fill="#019A40"/>
<path opacity="0.7" d="M146.513 101.559C146.513 101.559 151.721 92.3161 155.85 94.3641C155.85 94.3641 152.061 101.482 146.277 103.166L146.513 101.559Z" fill="#019A40"/>
<path opacity="0.7" d="M148.124 93.0367C148.124 93.0367 152.749 85.4218 157.093 86.3424C157.093 86.3424 153.316 94.064 147.677 95.2414L148.124 93.0367Z" fill="#019A40"/>
<path opacity="0.7" d="M149.54 85.0848C149.54 85.0848 154.799 77.6433 157.663 78.2837C157.663 78.2837 154.236 86.1221 149.481 86.5424L149.54 85.0848Z" fill="#019A40"/>
<path opacity="0.7" d="M150.988 77.7135C150.988 77.7135 155.2 69.1913 158.202 69.2646C158.202 69.2646 155.972 76.6027 151.102 78.4773L150.988 77.7135Z" fill="#019A40"/>
<path opacity="0.7" d="M152.29 67.8938C152.29 67.8938 156.144 61.2495 158.698 60.8125C158.698 60.8125 156.125 69.228 152.379 69.8183L152.29 67.8938Z" fill="#019A40"/>
<path opacity="0.7" d="M152.958 61.386L155.715 48.481C155.715 48.481 157.574 59.378 152.713 63.7342L152.958 61.386Z" fill="#019A40"/>
<path opacity="0.7" d="M152.82 47.714C152.82 47.714 152.072 37.4774 151.463 36.7402C151.463 36.7402 155.975 44.5653 153.454 52.1836L152.82 47.714Z" fill="#019A40"/>
<path opacity="0.7" d="M152.936 155.574C152.936 155.574 147.729 153.216 145.836 161.578C145.836 161.578 150.495 163.876 153.8 157.478L152.936 155.574Z" fill="#019A40"/>
<path opacity="0.7" d="M149.561 147.232C149.561 147.232 143.333 145.377 141.734 154.023C141.734 154.023 146.712 156.581 150.397 149.2L149.561 147.232Z" fill="#019A40"/>
<path opacity="0.7" d="M147.6 140.091C147.6 140.091 142.66 135.534 137.186 141.928C137.186 141.928 141.814 145.874 147.8 141.441L147.6 140.091Z" fill="#019A40"/>
<path opacity="0.7" d="M145.836 131.825C145.836 131.825 140.806 127.046 135.596 133.34C135.596 133.34 141.07 137.376 146.029 133.123L145.836 131.825Z" fill="#019A40"/>
<path opacity="0.7" d="M145.343 124.944C145.343 124.944 141.205 117.502 135.302 122.059C135.302 122.059 139.814 128.51 145.279 126.308L145.343 124.944Z" fill="#019A40"/>
<path opacity="0.7" d="M145.49 116.288C145.49 116.288 141.349 108.707 135.382 113.62C135.382 113.62 140.473 120.341 145.368 117.599L145.49 116.288Z" fill="#019A40"/>
<path opacity="0.7" d="M146.231 108.75C146.231 108.75 143.747 100.078 138.248 100.228C138.248 100.228 140.787 109.394 145.753 110.478L146.231 108.75Z" fill="#019A40"/>
<path opacity="0.7" d="M146.651 101.549C146.651 101.549 144.608 90.9353 140.09 91.3456C140.09 91.3456 141.45 99.4408 146.376 103.15L146.651 101.549Z" fill="#019A40"/>
<path opacity="0.7" d="M148.538 92.6465C148.538 92.6465 145.882 83.9742 141.465 83.6406C141.465 83.6406 143.278 92.1662 148.443 94.8913L148.538 92.6465Z" fill="#019A40"/>
<path opacity="0.7" d="M150.054 85.0583C150.054 85.0583 148.63 75.7989 145.824 74.895C145.824 74.895 145.462 83.5673 149.478 86.3758L150.054 85.0583Z" fill="#019A40"/>
<path opacity="0.7" d="M151.187 77.5734C151.187 77.5734 149.402 68.094 146.507 67.2334C146.507 67.2334 146.709 74.9484 150.878 78.2772L151.187 77.5734Z" fill="#019A40"/>
<path opacity="0.7" d="M152.78 68.5874C152.78 68.5874 151.607 60.8324 149.411 59.3447C149.411 59.3447 148.765 68.1871 152.005 70.3252L152.78 68.5874Z" fill="#019A40"/>
<path opacity="0.7" d="M152.676 61.0461L148.88 48.4546C148.88 48.4546 147.915 59.4918 153.111 63.3609L152.676 61.0461Z" fill="#019A40"/>
<path opacity="0.7" d="M151.129 48.1412C151.129 48.1412 145.03 40.3027 145.003 39.3154C145.003 39.3154 146.868 48.3213 153.58 51.7969L151.129 48.1412Z" fill="#019A40"/>
<path opacity="0.7" d="M151.307 45.4758C151.307 45.4758 144.939 33.9383 142.73 33.3013C142.73 33.3013 149.739 35.7429 151.614 45.0556L151.307 45.4758Z" fill="#019A40"/>
<path opacity="0.7" d="M152.364 69.8982L152.039 69.8482C153.841 55.5956 153.504 46.7566 151.09 44.9654L151.277 44.6719C153.834 46.5698 154.211 55.2888 152.364 69.8982Z" fill="#444053"/>
<path opacity="0.7" d="M146.568 103.547L146.084 103.45C146.305 102.133 146.553 100.782 146.828 99.4675C149.205 87.93 151.117 77.2498 152.131 69.1145L152.495 68.8276C151.466 76.9629 149.689 88.0201 147.306 99.5709C147.037 100.905 146.785 102.236 146.568 103.547Z" fill="#444053"/>
<path opacity="0.7" d="M167.355 176.597C167.282 176.534 159.948 170.027 153.696 157.815C150.027 150.667 147.423 142.931 145.98 134.894C144.179 124.847 144.449 113.213 146.253 102.399L146.685 102.796C142.626 127.105 148.523 146.278 154.242 157.438C160.432 169.54 167.68 175.977 167.754 176.04L167.355 176.597Z" fill="#444053"/>
</g>
<path d="M94.1508 145.871C93.4306 146.194 92.6825 146.438 91.9177 146.598C90.5812 146.871 89.2248 147.01 87.8651 147.015C87.9049 147.405 87.9355 147.769 87.9661 148.099C88.0397 149.006 88.0826 149.63 88.0826 149.63L86.6459 149.523L74.7974 148.643L67.8684 147.526C68.2028 148.014 68.5661 148.479 68.9558 148.916C69.3595 149.382 69.8265 149.777 70.3404 150.087C70.3404 150.087 76.5924 155.601 77.6738 155.651C77.8269 155.651 77.8759 155.818 77.8514 156.081C80.4827 156.081 88.6646 156.498 86.3947 161.458C86.0192 162.342 85.357 163.044 84.5354 163.429C81.9102 164.64 77.9494 162.462 75.9093 161.124C75.7102 161.548 75.5203 161.942 75.3518 162.278C75.0057 162.989 74.7637 163.459 74.7637 163.459L74.5585 163.299L64.0455 155.147L61.742 153.019C61.0653 152.985 60.3953 152.859 59.7478 152.642L59.4415 152.535C59.4282 152.564 59.4169 152.595 59.4078 152.625C59.3239 152.886 59.2614 153.154 59.221 153.426C59.221 153.466 59.221 153.506 59.221 153.546C59.178 153.857 59.1493 154.17 59.1352 154.483C59.1352 154.697 59.1199 154.924 59.1199 155.15C59.1015 159.693 60.774 166.995 60.774 166.995C60.774 166.995 65.1084 179.033 63.5707 181.811C63.4915 181.952 63.3874 182.074 63.2644 182.171C62.7222 182.598 62.3975 183.359 62.229 184.263C61.6562 187.211 62.6609 191.711 62.6609 191.711C62.6609 191.711 62.569 191.878 62.4128 192.138C62.0748 192.726 61.6937 193.284 61.2733 193.806C61.209 193.886 61.1416 193.969 61.0711 194.046C60.8814 194.263 60.6766 194.463 60.4585 194.646C60.4983 194.776 60.5412 194.91 60.5841 195.053C60.627 195.196 60.6821 195.42 60.725 195.62C61.0661 197.259 60.9323 198.973 60.3421 200.527C59.9406 201.659 59.681 202.845 59.5702 204.052C59.371 206.263 59.4234 208.493 59.7264 210.69C59.6804 210.663 59.6406 210.636 59.5947 210.613C56.2068 208.685 52.8668 206.672 49.5749 204.572C48.61 203.965 47.6512 203.345 46.6985 202.721C45.5263 201.952 44.3593 201.174 43.1973 200.386C41.6657 199.346 40.1341 198.278 38.6025 197.188L37.8857 196.667L37.61 196.464C37.221 196.18 36.838 195.897 36.4521 195.61C34.8684 193.381 33.4215 191.041 32.1207 188.605C31.9032 188.182 31.7072 187.778 31.5448 187.408V187.388L31.4407 187.145L31.0088 186.978C30.197 186.668 29.6824 186.451 29.6824 186.451C30.057 184.963 30.2365 183.424 30.2154 181.881C30.1909 178.879 29.4281 174.877 26.2853 171.668C21.6414 166.888 21.0012 162.168 20.9338 160.357C20.9338 160.23 20.9338 160.117 20.9338 160.024C20.9323 159.871 20.9384 159.718 20.9522 159.567L21.3076 159.196C20.407 159 19.5615 158.91 19.5615 158.91C19.5615 158.91 22.6431 146.768 27.8322 142.716C30.4053 140.714 32.5465 137.379 34.0597 134.517C36.8202 129.345 39.92 124.397 43.3351 119.711L44.2694 118.427L44.542 118.05L44.6002 117.973L44.6737 117.866C44.5471 117.657 44.4185 117.45 44.2878 117.246L44.202 117.109C43.7946 116.442 43.4454 115.775 43.5005 114.978C43.5005 114.978 43.5005 114.961 43.5005 114.954C43.5005 114.898 43.5005 114.844 43.5005 114.784C43.5135 114.651 43.5361 114.52 43.5679 114.391C43.5784 114.412 43.5907 114.432 43.6047 114.451C44.0427 113.063 45.7306 112.449 46.9742 111.682C49.9057 109.888 51.1555 105.962 51.7835 102.31C52.2705 99.4677 52.6749 96.2823 54.6966 94.4578C56.0015 93.2837 57.7598 92.8967 59.08 91.7327C59.8439 90.9977 60.4755 90.1143 60.9425 89.1276C61.2488 88.5606 61.5122 87.9736 61.7971 87.4065C63.102 84.8382 64.8174 82.45 67.0873 80.9123C69.3571 79.3746 72.2365 78.7776 74.7239 79.8116C75.6827 80.2085 76.5618 80.8122 77.4808 81.2559C78.0482 81.5078 78.6344 81.7065 79.2329 81.8496C81.1046 82.3266 83.0742 82.45 84.8325 83.3005C87.6905 84.6814 89.5498 87.7367 91.2469 90.6386C92.126 92.1396 93.5075 94.3343 94.2917 96.5424C94.2917 96.4624 94.2917 96.389 94.2917 96.3123C94.6698 97.2846 94.8776 98.3254 94.9043 99.3809C94.9196 99.8303 94.8753 100.28 94.7726 100.715C94.4908 101.849 93.7709 102.566 92.8673 103.093L92.7233 103.17C92.5301 103.278 92.3317 103.375 92.1291 103.46C92.0984 103.644 92.0647 103.831 92.028 104.011C92.0127 104.087 91.9943 104.167 91.9759 104.244C91.9361 104.431 91.8901 104.614 91.8411 104.798C91.1863 107.182 89.9092 109.307 88.1653 110.915C86.9575 112.04 85.5617 112.901 84.0544 113.45C83.9472 113.49 83.8339 113.52 83.7267 113.557C83.6355 113.836 83.5054 114.098 83.3407 114.334C83.2214 114.5 83.0811 114.647 82.9241 114.771C82.8263 114.843 82.7239 114.908 82.6178 114.964C82.5918 114.982 82.564 114.997 82.5351 115.008C81.4323 115.548 79.9222 115.124 78.8592 114.317C78.8041 114.277 78.752 114.231 78.6999 114.187C78.6999 114.377 78.6724 114.577 78.6417 114.784C78.6111 114.991 78.5897 115.118 78.556 115.291C78.5223 115.465 78.51 115.548 78.4886 115.672C78.4671 115.795 78.4518 115.878 78.4334 115.975L78.3967 116.145C77.7898 119.365 76.6322 122.431 74.9843 125.184C74.7453 125.579 74.4865 125.958 74.2093 126.322L73.4496 127.583V127.753C73.5936 130.655 72.7175 133.36 71.4799 135.688C71.0655 136.46 70.6104 137.205 70.1168 137.919L70.2883 138.029C72.0037 139.093 75.3855 140.985 77.5237 140.824C77.5237 140.824 85.6105 141.962 86.5479 141.392C86.6765 141.311 86.8021 141.422 86.9185 141.658C88.2265 140.791 91.2346 138.953 93.6086 138.71C95.2689 138.536 96.6197 139.14 96.8709 141.378C97.1221 143.616 95.8846 145.061 94.1508 145.871Z" fill="url(#paint0_linear)"/>
<path d="M49.8846 191.737C50.4024 192.699 50.7113 193.777 50.7877 194.889C50.8642 196.001 50.7062 197.117 50.3257 198.152C49.5814 200.183 49.4987 202.715 49.5753 204.572C48.6103 203.965 47.6516 203.345 46.6989 202.721C45.5267 201.952 44.3596 201.174 43.1976 200.386C41.666 199.346 40.1344 198.278 38.6028 197.188L37.886 196.667L37.6103 196.464C37.5862 196.415 37.5564 196.37 37.5215 196.33C37.111 195.857 34.7187 192.121 33.2973 189.286C33.04 188.766 32.8164 188.285 32.6387 187.845V187.822C32.3324 187.081 32.1885 186.487 32.2804 186.217C32.3917 185.792 32.5807 185.396 32.836 185.052C33.0912 184.708 33.4075 184.424 33.766 184.216C35.5304 183.215 38.3608 184.139 41.1606 185.61C43.5695 186.936 45.8782 188.467 48.0651 190.19L48.3132 190.387L48.3377 190.407C49.2567 191.117 49.7897 191.587 49.7897 191.587C49.7897 191.587 49.8295 191.641 49.8846 191.737Z" fill="#FBBEBE"/>
<path opacity="0.05" d="M49.4191 191.294C49.9378 192.257 50.2473 193.336 50.3237 194.449C50.4002 195.562 50.2416 196.679 49.8602 197.715C49.1159 199.746 49.0332 202.278 49.1097 204.139C48.1458 203.528 47.1871 202.91 46.2334 202.285C45.0591 201.515 43.8921 200.737 42.7321 199.95C41.2005 198.906 39.6689 197.838 38.1526 196.748L37.4358 196.227L37.1601 196.024C37.1353 195.976 37.1055 195.931 37.0713 195.891C36.6608 195.42 34.2685 191.684 32.8471 188.846C32.5898 188.326 32.3662 187.845 32.1886 187.405V187.385C31.8822 186.641 31.7383 186.051 31.8302 185.777C31.942 185.352 32.1312 184.956 32.3864 184.612C32.6416 184.269 32.9577 183.984 33.3158 183.776C35.0802 182.775 37.9106 183.699 40.7104 185.17C43.1193 186.496 45.428 188.027 47.6149 189.75L47.863 189.947L47.8875 189.967C48.8065 190.677 49.3395 191.147 49.3395 191.147C49.3395 191.147 49.364 191.197 49.4191 191.294Z" fill="black"/>
<path d="M60.6978 199.382C60.6087 199.954 60.4639 200.513 60.2658 201.05C59.9266 202.018 59.6932 203.025 59.5705 204.052C59.3293 206.232 59.3375 208.436 59.595 210.613C56.2071 208.685 52.8672 206.672 49.5752 204.572C48.6103 203.965 47.6515 203.345 46.6989 202.721C46.4844 200.947 46.1781 199.386 45.832 199.002C45.3786 198.482 42.7902 194.453 41.182 191.274C40.9737 190.874 40.793 190.487 40.6245 190.12V190.103C40.5602 189.956 40.4989 189.816 40.4407 189.676C40.0272 188.709 39.8066 187.955 39.9169 187.591C40.1319 186.801 40.5743 186.106 41.179 185.61C43.896 183.449 49.5446 186.374 53.8821 189.279L53.9893 189.349C54.8103 189.906 55.5883 190.457 56.2867 190.97L56.6941 191.271C58.4892 192.605 59.6808 193.642 59.6808 193.642C59.9768 194.139 60.2145 194.675 60.3884 195.236C60.4907 195.553 60.5756 195.876 60.6426 196.204C60.8546 197.249 60.8733 198.329 60.6978 199.382Z" fill="#FBBEBE"/>
<path opacity="0.1" d="M33.3118 189.286C35.5387 190.134 38.8256 191.258 40.6145 191.288C40.7997 191.294 40.9851 191.284 41.1689 191.258C42.4279 191.071 46.309 191.371 49.8715 191.721C51.299 191.858 52.6744 192.001 53.8108 192.128L56.6657 192.462V191.261C55.8724 190.667 54.9503 190.007 53.964 189.34C49.6111 186.411 43.8921 183.419 41.1536 185.597C37.297 183.569 33.3822 182.595 32.2703 186.204C32.1416 186.675 32.6103 187.869 33.3118 189.286Z" fill="black"/>
<path d="M22.6124 161.331C22.6737 163.129 23.2925 167.796 27.7249 172.509C33.3796 178.513 30.9689 187.145 30.9689 187.145C30.9689 187.145 37.7079 190.027 40.6149 190.103C40.8002 190.11 40.9856 190.1 41.1694 190.073C42.9123 189.81 49.8413 190.507 53.8235 190.944L56.6784 191.278V165.754L25.452 157.496L22.6247 160.564C22.6056 160.819 22.6015 161.076 22.6124 161.331Z" fill="#5C5C8E"/>
<g opacity="0.1">
<path opacity="0.1" d="M56.1668 190.961L56.6784 191.017V191.291L53.8235 190.957C50.9655 190.644 46.5973 190.197 43.7148 190.067C45.709 189.873 52.3102 190.537 56.1668 190.961Z" fill="black"/>
<path opacity="0.1" d="M22.6249 160.581L25.4523 157.512L27.3392 158.009L24.9836 160.581C24.9686 160.836 24.9686 161.093 24.9836 161.348C25.0449 163.146 25.6637 167.809 30.0961 172.525C35.7508 178.529 33.3401 187.158 33.3401 187.158C33.3401 187.158 38.9151 189.543 42.11 190.033C41.803 190.032 41.4961 190.051 41.1911 190.09C41.0073 190.116 40.8219 190.126 40.6366 190.12C37.7297 190.04 30.9906 187.158 30.9906 187.158C30.9906 187.158 33.4013 178.529 27.7466 172.525C23.2927 167.809 22.674 163.146 22.6127 161.358C22.6014 161.099 22.6055 160.839 22.6249 160.581Z" fill="black"/>
</g>
<path d="M85.0225 143.306C85.0225 143.306 94.4663 136.175 95.1556 142.592C95.8448 149.01 85.0225 148.109 85.0225 148.109V143.306Z" fill="#FBBEBE"/>
<path d="M68.7388 138.577C68.7388 138.577 73.8451 142.246 76.6725 142.029C76.6725 142.029 84.3918 143.156 85.2893 142.593C86.1868 142.029 86.7382 150.738 86.7382 150.738L74.0534 149.761L65.9176 148.41C65.9176 148.41 61.8496 145.708 61.8496 143.38C61.8496 141.052 68.7388 138.577 68.7388 138.577Z" fill="#F7CDDD"/>
<path d="M68.7388 138.577C68.7388 138.577 73.8451 142.246 76.6725 142.029C76.6725 142.029 84.3918 143.156 85.2893 142.593C86.1868 142.029 86.7382 150.738 86.7382 150.738L74.0534 149.761L65.9176 148.41C65.9176 148.41 61.8496 145.708 61.8496 143.38C61.8496 141.052 68.7388 138.577 68.7388 138.577Z" fill="#019A40"/>
<path d="M76.225 157.135C76.225 157.135 87.709 156.618 85.1359 162.442C82.5628 168.266 73.8633 161.195 73.8633 161.195L76.225 157.135Z" fill="#FBBEBE"/>
<path d="M64.6768 144.731C64.6768 144.731 73.9828 137.149 72.6748 127.916C71.3668 118.684 64.6768 134.974 64.6768 134.974V144.731Z" fill="#5C5C8E"/>
<path d="M67.2559 102.873C67.2576 106.194 68.4438 109.385 70.5641 111.772C71.7077 113.058 73.0848 114.07 74.6076 114.744C75.0986 114.968 75.6044 115.151 76.1208 115.291C76.6693 115.446 77.2272 115.557 77.7903 115.625C78.1946 115.668 78.602 115.692 79.0155 115.692C80.3319 115.689 81.6381 115.442 82.8782 114.961C84.9184 114.19 86.724 112.821 88.0972 111.006C89.4705 109.191 90.3583 106.999 90.6634 104.671C90.9685 102.343 90.679 99.9687 89.8268 97.8079C88.9746 95.6471 87.5925 93.7834 85.8321 92.4212C84.0716 91.0591 82.0007 90.251 79.8463 90.0855C77.692 89.92 75.5374 90.4035 73.6187 91.4831C71.7001 92.5627 70.0914 94.1966 68.969 96.2057C67.8467 98.2149 67.254 100.522 67.2559 102.873Z" fill="#FBBEBE"/>
<path opacity="0.1" d="M22.6124 161.331C23.6662 161.542 24.968 161.928 24.968 162.522C24.968 163.523 39.6715 168.93 39.6715 168.93C39.6715 168.93 39.1201 170.327 40.5904 172.732C42.0608 175.137 54.0165 188.946 54.0165 188.946L53.9767 189.353L53.8235 190.944L53.0945 198.552C53.0945 198.552 57.6893 196.751 59.1596 196.951C59.6344 197.015 60.1521 196.684 60.6269 196.204C60.4521 195.295 60.1273 194.428 59.6681 193.646C59.6681 193.646 58.4765 192.625 56.6784 191.274V165.754L25.452 157.496L22.6247 160.564C22.6056 160.819 22.6015 161.076 22.6124 161.331Z" fill="black"/>
<path d="M21.2891 159.921C21.2891 159.921 24.9649 160.317 24.9649 161.321C24.9649 162.325 39.6683 167.729 39.6683 167.729C39.6683 167.729 39.117 169.127 40.5873 171.531C42.0576 173.936 54.0134 187.745 54.0134 187.745L53.0944 197.351C53.0944 197.351 57.6892 195.55 59.1596 195.75C59.8182 195.84 60.5441 195.177 61.1445 194.416C61.6426 193.775 62.0865 193.086 62.4709 192.358C62.4709 192.358 60.8137 184.747 63.0223 182.945C65.2309 181.144 60.633 167.936 60.633 167.936C60.633 167.936 58.5531 158.543 59.1657 154.514C59.2047 154.245 59.2641 153.981 59.3434 153.723C59.3434 153.693 59.3587 153.663 59.3709 153.633C60.682 149.784 74.785 117.493 74.785 117.493C74.776 116.577 74.7166 115.663 74.6074 114.755C74.5798 114.501 74.543 114.238 74.4971 113.974C74.4259 113.494 74.3308 113.019 74.2122 112.55C74.1326 112.243 74.0468 111.949 73.9457 111.669C73.5107 110.448 72.8429 109.511 71.8443 109.488C71.8443 109.488 70.7416 108.154 68.1685 107.8C66.2693 107.53 63.5737 107.8 59.8978 109.488C51.2595 113.49 49.2378 113.691 49.2378 113.691L44.8942 119.885L43.9997 121.159C40.7306 125.802 37.7711 130.694 35.144 135.798C33.6981 138.627 31.6519 141.926 29.1983 143.907C24.2328 147.913 21.2891 159.921 21.2891 159.921Z" fill="#019A40"/>
<path opacity="0.1" d="M53.5089 136.775C53.5089 136.775 41.2376 140.078 36.4805 148.41L53.5089 136.775Z" fill="black"/>
<path opacity="0.1" d="M49.7161 151.412C49.7161 151.412 47.3972 168.376 48.0405 169.653C48.6838 170.931 49.7161 151.412 49.7161 151.412Z" fill="black"/>
<path opacity="0.1" d="M50.5457 160.121C51.4401 161.395 55.0639 171.231 55.0639 171.231L54.0163 187.745L53.0973 197.351C53.0973 197.351 57.6921 195.55 59.1655 195.75C59.8211 195.84 60.5501 195.18 61.1505 194.416C60.1948 188.789 58.1547 177.018 57.781 176.791C57.2939 176.491 54.8127 167.032 54.681 164.403C54.5493 161.775 51.094 155.851 51.094 155.851C51.094 155.851 49.6481 158.846 50.5457 160.121Z" fill="black"/>
<path opacity="0.1" d="M54.0168 143.906C54.2404 144.657 54.5957 149.01 54.5957 149.01C54.8469 152.849 57.5119 154.103 59.1661 154.503C59.205 154.235 59.2645 153.971 59.3437 153.713C60.4465 150.314 74.7854 117.483 74.7854 117.483C74.7705 115.816 74.5783 114.158 74.2126 112.539C71.0912 111.539 66.1471 113.08 66.1471 113.08C64.7197 112.876 60.0605 122.966 60.0605 122.966C60.0605 122.966 56.9544 130.695 56.6144 131.745C56.2744 132.796 56.6144 134.527 56.4766 135.127C56.3387 135.728 54.8868 136.248 54.6815 137.079C54.4763 137.909 54.6111 139.55 54.4732 139.851C54.3354 140.151 53.7779 143.156 54.0168 143.906Z" fill="black"/>
<path d="M55.1191 143.306C55.3458 144.056 55.6981 148.409 55.6981 148.409C55.9064 151.605 57.7933 153.009 59.3739 153.623C60.0837 153.899 60.8267 154.061 61.5794 154.103L63.7972 156.198L74.0314 164.42C74.0314 164.42 77.8482 156.748 76.8128 156.698C75.7774 156.648 69.8072 151.194 69.8072 151.194C67.9693 150.134 66.1498 146.585 65.3012 144.764C65.3513 144.544 65.3882 144.321 65.4115 144.097C65.7822 140.698 73.5015 127.686 73.5015 127.686C73.5015 127.686 76.485 123.86 77.6491 116.772C77.6828 116.612 77.7042 116.439 77.7318 116.275C77.7648 116.054 77.7852 115.832 77.793 115.608C77.9309 112.883 76.1113 111.892 73.9487 111.655C72.8251 111.56 71.6953 111.598 70.5792 111.769C69.4627 111.921 68.3573 112.157 67.2709 112.476C66.3519 112.346 64.0668 116.532 62.5719 119.497C61.7663 121.105 61.1874 122.362 61.1874 122.362C61.1874 122.362 58.0659 130.094 57.7167 131.145C57.3675 132.195 57.7167 133.923 57.5789 134.527C57.441 135.131 55.9891 135.648 55.7869 136.478C55.5847 137.309 55.7134 138.95 55.5755 139.25C55.4377 139.55 54.8863 142.556 55.1191 143.306Z" fill="#019A40"/>
<path opacity="0.1" d="M43.2432 126.001C45.1852 128.176 48.3526 128.183 50.8828 127.079C53.413 125.975 55.5603 123.96 57.9098 122.409C59.4414 121.408 61.0466 120.565 62.5475 119.521C62.7681 119.364 62.9825 119.207 63.1908 119.047C64.9246 117.713 66.4225 116.002 68.2145 114.777C69.4155 113.912 70.8127 113.425 72.2518 113.37C72.9158 113.363 73.5733 113.513 74.1786 113.81C74.2842 113.86 74.3866 113.918 74.4849 113.984C75.0739 114.355 75.619 114.803 76.1084 115.318C76.6138 115.815 77.1009 116.345 77.64 116.805C77.6737 116.645 77.6951 116.472 77.7227 116.308C77.7557 116.088 77.7762 115.865 77.784 115.641C78.1883 115.685 78.5957 115.708 79.0093 115.708C80.3285 115.701 81.6369 115.448 82.8781 114.961C82.8781 114.908 82.8965 114.851 82.9057 114.798C83.3468 112.276 84.1309 109.604 86.0056 108.187C87.0869 107.363 88.8146 107.029 90.3095 106.402C90.828 104.435 90.9063 102.362 90.5379 100.356C90.1695 98.3496 89.365 96.4686 88.1918 94.8704C87.0186 93.2722 85.5109 92.0032 83.7948 91.1698C82.0787 90.3364 80.2043 89.9628 78.3284 90.0802C76.4524 90.1976 74.6297 90.8027 73.0126 91.8448C71.3956 92.8868 70.0313 94.3356 69.0341 96.0697C68.0368 97.8038 67.4356 99.7728 67.2808 101.812C67.1259 103.851 67.4219 105.901 68.144 107.79C66.2448 107.519 63.5492 107.79 59.8734 109.477C51.2351 113.48 49.2134 113.68 49.2134 113.68L44.8942 119.884C45.3629 120.665 45.8928 121.435 45.9419 122.346C46.0399 124.034 44.545 125.198 43.2432 126.001Z" fill="black"/>
<path d="M86.0208 106.989C84.1553 108.41 83.3619 111.079 82.9208 113.597C82.783 114.384 82.6513 115.215 82.2102 115.838C81.2208 117.236 79.2297 116.839 77.937 115.838C76.6443 114.838 75.6273 113.317 74.1845 112.606C72.267 111.666 70.0155 112.353 68.2235 113.577C66.4316 114.801 64.9306 116.512 63.1968 117.843C61.5212 119.13 59.6527 120.048 57.9066 121.205C55.5602 122.763 53.416 124.774 50.8827 125.875C48.3494 126.975 45.1851 126.975 43.2461 124.801C44.548 124.014 46.0428 122.849 45.9417 121.165C45.8406 119.481 44.0364 118.216 44.1589 116.495C44.2815 114.774 46.147 114.087 47.4856 113.24C50.2884 111.465 51.4678 107.57 52.0804 103.967C52.546 101.155 52.9289 98.0101 54.8618 96.2056C56.1055 95.0415 57.7933 94.6612 59.0461 93.5105C60.2347 92.4164 60.8841 90.7587 61.6438 89.2344C62.8905 86.6894 64.5262 84.3279 66.6919 82.8069C68.8576 81.2859 71.6115 80.6989 73.9885 81.7229C74.9075 82.1131 75.7284 82.7235 76.629 83.1471C78.8651 84.2011 81.4291 84.061 83.6468 85.1684C86.3761 86.536 88.1497 89.5579 89.7732 92.4265C91.1609 94.878 93.8749 99.2175 93.1152 102.386C92.3402 105.618 88.0456 105.445 86.0208 106.989Z" fill="#7C5C5C"/>
<g opacity="0.1">
<path opacity="0.1" d="M44.159 116.286C44.169 116.154 44.1905 116.023 44.2234 115.896C44.7165 116.743 45.3322 117.563 45.3904 118.564C45.4045 118.793 45.387 119.024 45.3384 119.248C44.7901 118.287 44.0825 117.39 44.159 116.286Z" fill="black"/>
<path opacity="0.1" d="M50.3318 123.27C52.8651 122.163 55.0094 120.151 57.3558 118.6C59.1018 117.443 60.9704 116.526 62.646 115.238C64.3797 113.904 65.8807 112.193 67.6727 110.972C69.4647 109.751 71.7161 109.061 73.6337 110.002C75.0765 110.712 76.0843 112.216 77.3861 113.234C78.688 114.251 80.6699 114.648 81.6593 113.25C82.1035 112.627 82.2321 111.799 82.37 111.012C82.8111 108.491 83.5953 105.822 85.47 104.401C87.4978 102.86 91.7894 103.034 92.5674 99.7816C92.6971 99.2046 92.7313 98.6071 92.6685 98.0171C93.1678 99.4614 93.4221 100.916 93.1219 102.183C92.3408 105.435 88.0492 105.262 86.0213 106.803C84.1589 108.224 83.3625 110.892 82.9214 113.414C82.7835 114.201 82.6549 115.031 82.2138 115.652C81.2213 117.049 79.2302 116.652 77.9253 115.635C76.6203 114.618 75.6156 113.114 74.1728 112.403C72.2553 111.462 70.0038 112.153 68.2118 113.374C66.4198 114.594 64.9189 116.309 63.1851 117.64C61.5095 118.931 59.6409 119.845 57.8949 121.002C55.5485 122.563 53.4042 124.571 50.871 125.672C48.3377 126.772 45.1734 126.769 43.2344 124.594C43.7354 124.299 44.2111 123.955 44.6557 123.567C46.4262 124.271 48.5399 124.051 50.3318 123.27Z" fill="black"/>
</g>
<path d="M249.823 90.5254L237.264 76.7731C236.648 76.0876 235.914 75.5416 235.103 75.1668C234.293 74.7919 233.422 74.5955 232.542 74.589C231.661 74.5825 230.788 74.766 229.973 75.1288C229.158 75.4917 228.417 76.0267 227.792 76.7031L148.927 161.852L115.581 125.258C114.343 123.89 112.656 123.114 110.893 123.101C109.129 123.087 107.433 123.836 106.177 125.184L93.4827 138.86C92.2283 140.224 91.5181 142.072 91.506 144.002C91.494 145.933 92.1811 147.791 93.4184 149.173L144.059 204.749C145.312 206.116 147.008 206.89 148.781 206.903C150.554 206.917 152.261 206.17 153.531 204.823L249.753 100.835C250.382 100.165 250.884 99.3664 251.228 98.4844C251.573 97.6024 251.753 96.6548 251.76 95.6964C251.766 94.7379 251.599 93.7875 251.266 92.9C250.934 92.0125 250.443 91.2055 249.823 90.5254Z" fill="#3ACC6C"/>
<g opacity="0.5">
<path opacity="0.5" d="M230.899 200.8C230.899 200.8 221.532 200.187 222.628 207.335C222.572 207.697 222.622 208.069 222.772 208.399C222.922 208.728 223.163 208.998 223.462 209.169C223.462 209.169 223.462 208.639 224.42 208.819C224.757 208.881 225.1 208.899 225.44 208.872C225.9 208.84 226.337 208.644 226.684 208.315C226.684 208.315 229.315 207.131 230.342 202.441C230.342 202.441 231.098 201.421 231.068 201.157L229.487 201.894C229.487 201.894 230.029 203.135 229.603 204.166C229.603 204.166 229.551 201.938 229.248 201.991C229.187 201.991 228.427 202.421 228.427 202.421C228.427 202.421 229.346 204.583 228.654 206.157C228.654 206.157 228.92 203.489 228.136 202.578L227.024 203.285C227.024 203.285 228.108 205.52 227.373 207.341C227.373 207.341 227.563 204.546 226.788 203.459L225.78 204.313C225.78 204.313 226.8 206.514 226.179 208.028C226.179 208.028 226.099 204.773 225.566 204.526C225.566 204.526 224.684 205.373 224.549 205.723C224.549 205.723 225.247 207.321 224.815 208.165C224.815 208.165 224.549 205.994 224.332 205.987C224.332 205.987 223.452 207.421 223.36 208.405C223.403 207.495 223.664 206.613 224.117 205.847C223.61 205.953 223.143 206.217 222.772 206.607C222.772 206.607 222.907 205.607 224.335 205.5C224.335 205.5 225.061 204.413 225.254 204.346C225.254 204.346 223.835 204.216 222.974 204.633C222.974 204.633 223.731 203.672 225.511 204.109L226.506 203.225C226.506 203.225 224.641 202.945 223.848 203.252C223.848 203.252 224.766 202.405 226.776 203.022L227.86 202.318C227.86 202.318 226.267 201.944 225.318 202.078C225.318 202.078 226.32 201.491 228.179 202.128L228.954 201.748C228.954 201.748 227.787 201.497 227.444 201.461C227.101 201.424 227.085 201.317 227.085 201.317C227.824 201.184 228.582 201.277 229.276 201.584C229.276 201.584 230.927 200.914 230.899 200.8Z" fill="#019A40"/>
</g>
<g opacity="0.5">
<path opacity="0.5" d="M214.091 150.881C214.091 150.881 209.334 159.69 215.687 161.865C215.958 162.084 216.286 162.205 216.624 162.21C216.961 162.214 217.292 162.103 217.568 161.892C217.568 161.892 217.142 161.635 217.715 160.801C217.918 160.502 218.089 160.179 218.224 159.837C218.402 159.375 218.44 158.863 218.331 158.376C218.331 158.376 218.554 155.284 215.185 152.162C215.185 152.162 214.692 150.961 214.465 150.871L214.349 152.739C214.349 152.739 215.608 152.779 216.26 153.66C216.26 153.66 214.422 152.699 214.318 153.016C214.3 153.083 214.296 154.016 214.296 154.016C214.296 154.016 216.49 154.097 217.458 155.491C217.458 155.491 215.399 154.023 214.293 154.37L214.367 155.771C214.367 155.771 216.689 155.731 217.847 157.272C217.847 157.272 215.644 155.818 214.404 156.074L214.646 157.442C214.646 157.442 216.912 157.442 217.865 158.74C217.865 158.74 215.166 157.342 214.722 157.739C214.722 157.739 215.029 158.98 215.237 159.27C215.237 159.27 216.863 159.317 217.357 160.12C217.357 160.12 215.46 159.393 215.353 159.6C215.353 159.6 216.131 161.104 216.885 161.641C216.16 161.186 215.557 160.532 215.136 159.743C214.984 160.287 214.984 160.868 215.136 161.411C215.136 161.411 214.367 160.818 214.943 159.41C214.943 159.41 214.379 158.212 214.413 157.992C214.413 157.992 213.665 159.31 213.613 160.327C213.613 160.327 213.172 159.156 214.336 157.625L214.067 156.258C214.067 156.258 212.992 157.946 212.881 158.853C212.881 158.853 212.603 157.582 214.024 155.908L213.938 154.537C213.938 154.537 212.909 155.911 212.59 156.892C212.59 156.892 212.563 155.654 213.926 154.14L213.969 153.216C213.969 153.216 213.234 154.237 213.05 154.55C212.866 154.864 212.771 154.834 212.771 154.834C212.996 154.057 213.415 153.364 213.981 152.832C213.981 152.832 214.195 150.904 214.091 150.881Z" fill="#019A40"/>
</g>
<g opacity="0.5">
<path opacity="0.5" d="M184.338 80.599C184.338 80.599 179.584 89.4113 185.934 91.5827C186.205 91.803 186.532 91.9243 186.87 91.9291C187.208 91.9339 187.539 91.822 187.815 91.6094C187.815 91.6094 187.389 91.3526 187.965 90.5187C188.167 90.22 188.337 89.8965 188.47 89.5548C188.651 89.0933 188.688 88.5806 188.577 88.0938C188.577 88.0938 188.804 85.0018 185.432 81.8798C185.432 81.8798 184.938 80.6823 184.712 80.5923L184.595 82.4568C184.595 82.4568 185.857 82.4969 186.507 83.3774C186.507 83.3774 184.669 82.4168 184.568 82.7337C184.546 82.8004 184.546 83.7343 184.546 83.7343C184.546 83.7343 186.736 83.8144 187.704 85.2086C187.704 85.2086 185.646 83.741 184.54 84.0879L184.617 85.4888C184.617 85.4888 186.936 85.4488 188.093 86.9898C188.093 86.9898 185.891 85.5388 184.65 85.7923L184.892 87.1599C184.892 87.1599 187.159 87.1599 188.115 88.4607C188.115 88.4607 185.413 87.0598 184.969 87.4601C184.969 87.4601 185.275 88.6975 185.487 88.9877C185.487 88.9877 187.11 89.0344 187.603 89.8383C187.603 89.8383 185.707 89.1111 185.603 89.3179C185.603 89.3179 186.378 90.8256 187.135 91.3593C186.409 90.9051 185.805 90.2519 185.383 89.4647C185.236 90.0024 185.236 90.5748 185.383 91.1124C185.383 91.1124 184.614 90.5187 185.19 89.0945C185.19 89.0945 184.626 87.897 184.66 87.6769C184.66 87.6769 183.912 88.9944 183.86 90.0117C183.86 90.0117 183.419 88.841 184.586 87.31L184.313 85.9424C184.313 85.9424 183.238 87.6302 183.131 88.5374C183.131 88.5374 182.849 87.2666 184.271 85.5922L184.185 84.2213C184.185 84.2213 183.156 85.5955 182.837 86.5762C182.837 86.5762 182.809 85.3387 184.173 83.8277L184.215 82.9005C184.215 82.9005 183.48 83.9211 183.296 84.2347C183.113 84.5482 183.018 84.5182 183.018 84.5182C183.248 83.7403 183.672 83.0474 184.243 82.5169C184.243 82.5169 184.442 80.639 184.338 80.599Z" fill="#019A40"/>
</g>
<g opacity="0.5">
<path opacity="0.5" d="M81.9166 13.8589C81.9166 13.8589 64.2112 27.868 75.931 38.9652C75.931 38.9652 77.2574 41.5935 79.9316 40.9298C79.9316 40.9298 79.2393 39.9491 81.1845 38.7484C81.8739 38.317 82.5136 37.7974 83.0898 37.2007C83.8691 36.4014 84.3884 35.3477 84.5693 34.1987C84.5693 34.1987 87.6999 27.8146 83.1633 17.7214C83.1633 17.7214 83.1357 14.6561 82.7222 14.2325L80.8843 18.1083C80.8843 18.1083 83.5462 19.4725 84.1864 22.0175C84.1864 22.0175 81.0589 18.085 80.5841 18.682C80.4891 18.7988 79.6896 20.7834 79.6896 20.7834C79.6896 20.7834 84.312 23.1783 85.1881 27.1408C85.1881 27.1408 82.0391 21.9108 79.368 21.5305L78.3295 24.6025C78.3295 24.6025 83.3256 26.874 84.4835 31.3436C84.4835 31.3436 81.016 26.0068 78.1427 25.2896L77.4933 28.4617C77.4933 28.4617 82.327 30.7799 83.2674 34.5056C83.2674 34.5056 78.6726 28.7752 77.3891 29.1988C77.3891 29.1988 76.9542 32.1474 77.1839 32.9913C77.1839 32.9913 80.6208 34.7424 80.9884 36.9605C80.9884 36.9605 77.5545 33.4849 77.1502 33.8185C77.1502 33.8185 77.5239 37.8211 78.7002 39.7457C78.7002 39.7457 76.7734 37.0473 76.5774 33.9152C76.5774 33.9152 75.2633 35.583 75.1897 37.4542C75.1897 37.4542 74.0502 35.4029 76.4977 32.9413C76.4977 32.9413 76.3231 29.8059 76.5835 29.3723C76.5835 29.3723 73.8511 31.4303 72.8678 33.565C72.8678 33.565 72.926 30.6164 76.7275 28.5251L77.3156 25.3263C77.3156 25.3263 73.5754 27.838 72.5676 29.6625C72.5676 29.6625 73.0547 26.6605 77.5239 24.5191L78.5164 21.5005C78.5164 21.5005 75.1469 23.3984 73.6153 25.1696C73.6153 25.1696 74.6169 22.5012 78.8227 20.6433L79.7019 18.7087C79.7019 18.7087 77.2513 20.143 76.5927 20.6233C75.9341 21.1036 75.7503 20.9568 75.7503 20.9568C76.8978 19.5222 78.3889 18.4632 80.0572 17.8982C80.0572 17.8982 82.1218 14.0157 81.9166 13.8589Z" fill="#019A40"/>
</g>
<g opacity="0.5">
<path opacity="0.5" d="M64.7166 60.0857C64.7166 60.0857 41.8129 49.5989 38.811 68.5078C38.811 68.5078 37.2457 71.4564 39.4236 73.8913C39.4236 73.8913 39.8923 72.5838 42.107 73.9347C42.8969 74.4104 43.736 74.7822 44.6066 75.0421C45.7823 75.3952 47.0315 75.3226 48.166 74.8353C48.166 74.8353 55.6954 74.3917 62.0332 63.6614C62.0332 63.6614 64.7472 61.8335 64.8851 61.1464L60.3423 61.48C60.3423 61.48 60.6915 65.099 58.8107 67.2704C58.8107 67.2704 60.4802 61.6534 59.6776 61.4966C59.5152 61.4633 57.2791 61.7835 57.2791 61.7835C57.2791 61.7835 57.858 68.0776 54.8285 71.333C54.8285 71.333 57.6406 64.9322 56.4153 61.8969L53.0672 62.6007C53.0672 62.6007 53.9861 69.2216 50.6717 73.0708C50.6717 73.0708 53.3949 66.2664 52.3443 62.8108L49.134 63.9849C49.134 63.9849 49.909 70.4591 47.1368 73.6579C47.1368 73.6579 49.5567 65.4492 48.4172 64.3185C48.4172 64.3185 45.5317 65.5926 44.9129 66.3198C44.9129 66.3198 45.3724 70.9895 43.608 72.6739C43.608 72.6739 44.6924 67.0035 44.1563 66.7701C44.1563 66.7701 40.8021 69.5185 39.779 71.89C39.779 71.89 41.0563 68.2677 43.7336 66.2197C43.7336 66.2197 41.4852 65.8028 39.7514 66.8301C39.7514 66.8301 40.9123 64.4252 44.5453 65.5659C44.5453 65.5659 47.2379 63.5346 47.777 63.5646C47.777 63.5646 44.3401 61.8969 41.8558 62.1037C41.8558 62.1037 44.5177 60.4359 48.6163 63.2211L51.8113 61.9603C51.8113 61.9603 47.3727 59.482 45.1457 59.492C45.1457 59.492 48.1048 58.2445 52.6445 61.7134L55.9221 60.9763C55.9221 60.9763 52.2462 58.5247 49.765 57.9577C49.765 57.9577 52.7394 57.444 56.8656 60.8095L59.1078 60.6061C59.1078 60.6061 56.3938 58.8649 55.5729 58.4413C54.7519 58.0177 54.7887 57.7442 54.7887 57.7442C56.7426 58.1136 58.5637 59.0675 60.0482 60.4993C60.0482 60.4993 64.6951 60.3959 64.7166 60.0857Z" fill="#019A40"/>
</g>
<g opacity="0.5">
<path opacity="0.5" d="M51.002 33.6083C51.002 33.6083 42.8815 13.1717 31.2075 22.5444C31.2075 22.5444 28.7355 23.3249 28.757 26.1134C28.757 26.1134 29.7188 25.6264 30.3253 27.8045C30.5515 28.576 30.8599 29.316 31.2443 30.0093C31.7575 30.9492 32.5383 31.6812 33.4682 32.094C33.4682 32.094 38.1733 36.5035 47.559 34.0586C47.559 34.0586 50.129 34.6556 50.5701 34.3354L47.6999 31.7104C47.6999 31.7104 46.0151 34.0786 43.7545 34.192C43.7545 34.192 47.6846 31.8905 47.2894 31.3001C47.2098 31.18 45.7149 29.9859 45.7149 29.9859C45.7149 29.9859 42.765 34.0819 39.2822 34.1453C39.2822 34.1453 44.3028 32.084 45.1605 29.5256L42.8018 27.8579C42.8018 27.8579 39.8397 32.3708 35.8606 32.6076C35.8606 32.6076 41.0374 30.2561 42.2229 27.5477L39.7018 26.2702C39.7018 26.2702 36.7734 30.6063 33.4621 30.7698C33.4621 30.7698 39.1933 27.3943 39.1045 26.0167C39.1045 26.0167 36.7244 24.9827 35.9708 25.0427C35.9708 25.0427 33.8052 28.0947 31.8723 28.008C31.8723 28.008 35.4838 25.3096 35.2847 24.8393C35.2847 24.8393 31.8539 24.3923 30.0068 25.1728C30.0068 25.1728 32.6595 23.8119 35.3214 24.2589C35.3214 24.2589 34.2034 22.6145 32.6411 22.1575C32.6411 22.1575 34.5924 21.4471 36.1516 24.3756C36.1516 24.3756 38.8135 24.8426 39.1229 25.1895C39.1229 25.1895 37.9589 22.0575 36.366 20.6465C36.366 20.6465 38.8166 21.3136 39.7999 25.5064L42.3576 26.7438C42.3576 26.7438 41.019 22.5144 39.6896 21.1435C39.6896 21.1435 42.1003 22.2376 42.9825 27.1141L45.3075 28.7118C45.3075 28.7118 44.4069 24.976 43.2337 23.0981C43.2337 23.0981 45.2677 24.6391 45.96 29.1988L47.3997 30.4662C47.3997 30.4662 46.6952 27.7512 46.4287 26.9907C46.1622 26.2302 46.3306 26.0901 46.3306 26.0901C47.2968 27.5212 47.879 29.2163 48.0123 30.9866C48.0123 30.9866 50.8305 33.7851 51.002 33.6083Z" fill="#019A40"/>
</g>
<g opacity="0.5">
<path opacity="0.5" d="M209.273 44.242C209.273 44.242 207.358 34.2355 201.308 37.2741C200.972 37.3092 200.654 37.4594 200.401 37.7034C200.148 37.9473 199.972 38.2723 199.899 38.6317C199.899 38.6317 200.374 38.5083 200.463 39.5489C200.497 39.9182 200.57 40.282 200.681 40.633C200.834 41.1062 201.122 41.5133 201.505 41.7937C201.505 41.7937 203.244 44.2486 207.665 44.0952C207.665 44.0952 208.77 44.6222 208.997 44.5222L207.928 43.0545C207.928 43.0545 206.969 43.9484 205.946 43.7717C205.946 43.7717 207.907 43.1346 207.784 42.8277C207.757 42.7643 207.187 42.0772 207.187 42.0772C207.187 42.0772 205.514 43.6216 203.937 43.298C203.937 43.298 206.366 42.8778 206.972 41.8137L206.053 40.8298C206.053 40.8298 204.356 42.5575 202.549 42.2607C202.549 42.2607 205.076 41.727 205.839 40.6296L204.816 39.7958C204.816 39.7958 203.131 41.4435 201.627 41.1867C201.627 41.1867 204.491 40.2461 204.568 39.619C204.568 39.619 203.588 38.9152 203.241 38.8652C203.241 38.8652 202.016 40.0192 201.149 39.7858C201.149 39.7858 202.987 38.9385 202.953 38.7051C202.953 38.7051 201.449 38.158 200.552 38.3215C201.37 38.1285 202.22 38.171 203.018 38.4449C202.793 37.9393 202.436 37.517 201.992 37.2308C201.992 37.2308 202.929 37.1074 203.382 38.565C203.382 38.565 204.537 39.0419 204.647 39.2321C204.647 39.2321 204.39 37.7077 203.796 36.8972C203.796 36.8972 204.843 37.4409 204.926 39.4289L205.971 40.2427C205.971 40.2427 205.729 38.2081 205.248 37.4542C205.248 37.4542 206.237 38.1914 206.219 40.4562L207.138 41.4101C207.138 41.4101 207.052 39.639 206.684 38.6784C206.684 38.6784 207.466 39.5756 207.389 41.6803L207.928 42.3974C207.928 42.3974 207.845 41.1066 207.79 40.7297C207.735 40.3528 207.821 40.3128 207.821 40.3128C208.134 41.0548 208.252 41.877 208.161 42.6876C208.161 42.6876 209.181 44.302 209.273 44.242Z" fill="#019A40"/>
</g>
<g opacity="0.5">
<path opacity="0.5" d="M176.306 229.736C176.306 229.736 174.395 219.729 168.342 222.768C168.005 222.803 167.687 222.953 167.433 223.197C167.179 223.441 167.003 223.766 166.93 224.125C166.93 224.125 167.404 224.002 167.493 225.043C167.526 225.412 167.6 225.776 167.714 226.127C167.866 226.599 168.154 227.006 168.535 227.287C168.535 227.287 170.275 229.742 174.698 229.589C174.698 229.589 175.804 230.116 176.027 230.016L174.961 228.548C174.961 228.548 174.003 229.442 172.976 229.265C172.976 229.265 174.937 228.628 174.814 228.321C174.79 228.258 174.217 227.571 174.217 227.571C174.217 227.571 172.545 229.115 170.967 228.792C170.967 228.792 173.399 228.371 174.003 227.307L173.084 226.307C173.084 226.307 171.405 228.041 169.592 227.734C169.592 227.734 172.119 227.201 172.882 226.103L171.858 225.269C171.858 225.269 170.177 226.917 168.673 226.66C168.673 226.66 171.537 225.723 171.613 225.093C171.613 225.093 170.63 224.389 170.287 224.339C170.287 224.339 169.062 225.493 168.192 225.259C168.192 225.259 170.03 224.412 169.996 224.179C169.996 224.179 168.492 223.632 167.594 223.795C168.413 223.602 169.264 223.645 170.063 223.919C169.837 223.414 169.48 222.992 169.037 222.704C169.037 222.704 169.971 222.581 170.425 224.039C170.425 224.039 171.583 224.516 171.693 224.706C171.693 224.706 171.436 223.181 170.841 222.371C170.841 222.371 171.889 222.915 171.969 224.903L173.016 225.716C173.016 225.716 172.771 223.682 172.29 222.928C172.29 222.928 173.283 223.665 173.264 225.93L174.183 226.884C174.183 226.884 174.098 225.113 173.727 224.152C173.727 224.152 174.511 225.049 174.435 227.154L174.974 227.871C174.974 227.871 174.888 226.58 174.833 226.203C174.778 225.826 174.863 225.79 174.863 225.79C175.177 226.531 175.295 227.352 175.203 228.161C175.203 228.161 176.22 229.786 176.306 229.736Z" fill="#019A40"/>
</g>
</g>
<defs>
<linearGradient id="paint0_linear" x1="16690.6" y1="92575.7" x2="16690.6" y2="40807.6" gradientUnits="userSpaceOnUse">
<stop stop-color="#808080" stop-opacity="0.25"/>
<stop offset="0.54" stop-color="#808080" stop-opacity="0.12"/>
<stop offset="1" stop-color="#808080" stop-opacity="0.1"/>
</linearGradient>
<clipPath id="clip0">
<rect width="352" height="252" fill="white"/>
</clipPath>
</defs>
</svg>
