<svg width="45" height="45" viewBox="0 0 45 45" fill="none" xmlns="http://www.w3.org/2000/svg">
<g clip-path="url(#clip0)">
<g filter="url(#filter0_d)">
<path d="M22.5 3.75C12.1613 3.75 3.75 12.1613 3.75 22.5C3.75 32.8388 12.1613 41.25 22.5 41.25C32.8387 41.25 41.25 32.8388 41.25 22.5C41.25 12.1613 32.8387 3.75 22.5 3.75ZM22.5 37.5C14.2294 37.5 7.5 30.7706 7.5 22.5C7.5 14.2294 14.2294 7.5 22.5 7.5C30.7706 7.5 37.5 14.2294 37.5 22.5C37.5 30.7706 30.7706 37.5 22.5 37.5Z" fill="#019A40"/>
<path d="M4.25 22.5C4.25 12.4374 12.4374 4.25 22.5 4.25C32.5626 4.25 40.75 12.4374 40.75 22.5C40.75 32.5626 32.5626 40.75 22.5 40.75C12.4374 40.75 4.25 32.5626 4.25 22.5ZM7 22.5C7 31.0468 13.9532 38 22.5 38C31.0468 38 38 31.0468 38 22.5C38 13.9532 31.0468 7 22.5 7C13.9532 7 7 13.9532 7 22.5Z" stroke="white"/>
</g>
<path d="M23.875 20.625V21.125H24.375H31.375V23.875H21.125V13.625H23.875V20.625Z" fill="#019A40" stroke="white"/>
</g>
<defs>
<filter id="filter0_d" x="-0.25" y="3.75" width="45.5" height="45.5" filterUnits="userSpaceOnUse" color-interpolation-filters="sRGB">
<feFlood flood-opacity="0" result="BackgroundImageFix"/>
<feColorMatrix in="SourceAlpha" type="matrix" values="0 0 0 0 0 0 0 0 0 0 0 0 0 0 0 0 0 0 127 0"/>
<feOffset dy="4"/>
<feGaussianBlur stdDeviation="2"/>
<feColorMatrix type="matrix" values="0 0 0 0 0 0 0 0 0 0 0 0 0 0 0 0 0 0 0.25 0"/>
<feBlend mode="normal" in2="BackgroundImageFix" result="effect1_dropShadow"/>
<feBlend mode="normal" in="SourceGraphic" in2="effect1_dropShadow" result="shape"/>
</filter>
<clipPath id="clip0">
<rect width="45" height="45" fill="white"/>
</clipPath>
</defs>
</svg>
