<svg width="38" height="29" viewBox="0 0 38 29" fill="none" xmlns="http://www.w3.org/2000/svg">
<path d="M26.6352 16.9486L26.9884 17.3018L27.342 16.9489L35.0504 9.25478L36.9918 11.2017L26.9889 21.1871L22.6222 16.8236L24.5663 14.8796L26.6352 16.9486ZM12 15C8.00114 15 5 11.9989 5 8C5 4.00114 8.00114 1 12 1C15.9989 1 19 4.00114 19 8C19 11.9989 15.9989 15 12 15ZM12 12.25C13.2237 12.25 14.2927 11.821 15.0568 11.0568C15.821 10.2927 16.25 9.22375 16.25 8C16.25 6.77625 15.821 5.7073 15.0568 4.94317C14.2927 4.17903 13.2237 3.75 12 3.75C10.7763 3.75 9.7073 4.17903 8.94317 4.94317C8.17903 5.7073 7.75 6.77625 7.75 8C7.75 9.22375 8.17903 10.2927 8.94317 11.0568C9.7073 11.821 10.7763 12.25 12 12.25ZM10.125 20.625C6.74761 20.625 4 23.3726 4 26.75V28.125H1.25V26.75C1.25 21.8568 5.23177 17.875 10.125 17.875H13.875C18.7682 17.875 22.75 21.8568 22.75 26.75V28.125H20V26.75C20 23.3726 17.2524 20.625 13.875 20.625H10.125Z" fill="#019A40" stroke="white"/>
</svg>
