<svg width="73" height="61" viewBox="0 0 73 61" fill="none" xmlns="http://www.w3.org/2000/svg">
<path d="M33.6816 0.677246H5.51758C2.75615 0.677246 0.517578 2.91582 0.517578 5.67725V18.0637H2.52524H44.017H56.7322H68.332H72.7935V9.96592C72.7935 7.20449 70.5549 4.96592 67.7935 4.96592H41.4141C39.8417 4.96592 38.3804 4.15543 37.5478 2.82158C36.7153 1.48774 35.254 0.677246 33.6816 0.677246Z" fill="#F4CD30"/>
<path d="M33.6816 0.677246H5.51758C2.75615 0.677246 0.517578 2.91582 0.517578 5.67725V18.0637H2.52524H44.017H56.7322H68.332H72.7935V9.96592C72.7935 7.20449 70.5549 4.96592 67.7935 4.96592H41.4141C39.8417 4.96592 38.3804 4.15543 37.5478 2.82158C36.7153 1.48774 35.254 0.677246 33.6816 0.677246Z" fill="url(#paint0_linear)"/>
<path d="M29.553 15.2315H5.51758C2.75615 15.2315 0.517578 17.4701 0.517578 20.2315V55.3195C0.517578 58.0809 2.75616 60.3195 5.51758 60.3195H67.7935C70.5549 60.3195 72.7935 58.0809 72.7935 55.3195V13.3857C72.7935 10.6243 70.5549 8.38574 67.7935 8.38574H39.0663C37.0343 8.38574 35.2043 9.61558 34.4367 11.4971L34.1826 12.1202C33.415 14.0017 31.585 15.2315 29.553 15.2315Z" fill="#F4CD30"/>
<defs>
<linearGradient id="paint0_linear" x1="36.6555" y1="0.677246" x2="36.6556" y2="20.8862" gradientUnits="userSpaceOnUse">
<stop stop-color="#F4CD30"/>
<stop offset="1" stop-color="white" stop-opacity="0.45"/>
</linearGradient>
</defs>
</svg>
